<?xml version="1.0" encoding="UTF-8" standalone="no"?>
<svg xmlns:dc="http://purl.org/dc/elements/1.1/" xmlns:cc="http://creativecommons.org/ns#" xmlns:rdf="http://www.w3.org/1999/02/22-rdf-syntax-ns#" xmlns:svg="http://www.w3.org/2000/svg" xmlns="http://www.w3.org/2000/svg" viewBox="640 360 1280 720" height="256" width="256" xml:space="preserve" id="svg2" version="1.1">
  <defs id="defs6">
    <clipPath id="clipPath18" clipPathUnits="userSpaceOnUse">
      <path id="path16" d="M 0,1080 H 1920 V 0 H 0 Z" />
    </clipPath>
  </defs>
  <g transform="matrix(1.3333333,0,0,-1.3333333,0,1440)" id="g10">
    <g id="g12">
      <g clip-path="url(#clipPath18)" id="g14">
        <g transform="translate(837.4185,257.458)" id="g20">
          <path id="path22" style="fill:#575756;fill-opacity:1;fill-rule:nonzero;stroke:none" d="m 0,0 v -25.655 h 14.782 c 1.529,0 2.718,-1.19 2.718,-2.719 v -5.438 c 0,-1.528 -1.189,-2.717 -2.718,-2.717 H 0 v -33.982 c 0,-1.529 -1.189,-2.718 -2.718,-2.718 h -5.437 c -1.53,0 -2.719,1.189 -2.719,2.718 V 5.437 c 0,3.058 2.379,5.437 5.437,5.437 h 20.219 c 1.529,0 2.718,-1.189 2.718,-2.718 V 2.719 C 17.5,1.189 16.311,0 14.782,0 Z" />
        </g>
        <g transform="translate(908.2681,265.6143)" id="g24">
          <path id="path26" style="fill:#575756;fill-opacity:1;fill-rule:nonzero;stroke:none" d="m 0,0 v -61.677 c 0,-10.874 -8.835,-19.709 -19.54,-19.709 -10.874,0 -19.709,8.835 -19.709,19.709 V 0 c 0,1.528 1.36,2.718 2.719,2.718 h 5.437 c 1.529,0 2.718,-1.19 2.718,-2.718 v -61.677 c 0,-4.927 3.908,-8.835 8.835,-8.835 4.758,0 8.666,3.908 8.666,8.835 V 0 c 0,1.528 1.189,2.718 2.718,2.718 h 5.437 C -1.189,2.718 0,1.528 0,0" />
        </g>
        <g transform="translate(952.271,265.6143)" id="g28">
          <path id="path30" style="fill:#575756;fill-opacity:1;fill-rule:nonzero;stroke:none" d="m 0,0 v -5.437 c 0,-1.53 -1.189,-2.719 -2.719,-2.719 h -7.645 v -70.511 c 0,-1.359 -1.19,-2.719 -2.719,-2.719 h -5.437 c -1.529,0 -2.718,1.36 -2.718,2.719 v 70.511 h -7.646 c -1.53,0 -2.719,1.189 -2.719,2.719 V 0 c 0,1.528 1.189,2.718 2.719,2.718 H -2.719 C -1.189,2.718 0,1.528 0,0" />
        </g>
        <g transform="translate(986.0801,243.0166)" id="g32">
          <path id="path34" style="fill:#575756;fill-opacity:1;fill-rule:nonzero;stroke:none" d="m 0,0 v 5.776 c 0,4.758 -3.908,8.665 -8.666,8.665 -4.757,0 -8.665,-3.907 -8.665,-8.665 0,-2.209 0,-2.209 0.51,-2.888 L 6.796,-28.375 c 4.077,-5.437 4.077,-5.437 4.077,-10.874 0,-10.704 -8.834,-19.539 -19.539,-19.539 -10.703,0 -19.539,8.835 -19.539,19.539 v 5.777 c 0,1.53 1.189,2.718 2.719,2.718 h 5.437 c 1.529,0 2.718,-1.188 2.718,-2.718 v -5.777 c 0,-4.757 3.908,-8.665 8.665,-8.665 4.758,0 8.666,3.908 8.666,8.665 0,2.209 0,2.209 -0.51,2.889 l -23.617,31.262 c -4.078,5.438 -4.078,5.438 -4.078,10.874 0,10.704 8.836,19.539 19.539,19.539 10.705,0 19.539,-8.835 19.539,-19.539 V 0 c 0,-1.529 -1.189,-2.719 -2.718,-2.719 H 2.719 C 1.189,-2.719 0,-1.529 0,0" />
        </g>
        <g transform="translate(1090.9082,192.3838)" id="g36">
          <path id="path38" style="fill:#575756;fill-opacity:1;fill-rule:nonzero;stroke:none" d="m 0,0 v -5.437 c 0,-1.359 -1.189,-2.718 -2.719,-2.718 h -20.049 c -3.058,0 -5.437,2.549 -5.437,5.437 V 73.23 c 0,1.529 1.189,2.718 2.719,2.718 h 5.437 c 1.36,0 2.719,-1.189 2.719,-2.718 V 2.719 H -2.719 C -1.189,2.719 0,1.529 0,0" />
        </g>
        <g transform="translate(1012.125,184.2285)" id="g40">
          <path id="path42" style="fill:#575756;fill-opacity:1;fill-rule:evenodd;stroke:none" d="M 0,0 H 5.448 C 6.156,0.024 6.779,0.281 7.32,0.795 7.862,1.301 8.144,1.932 8.174,2.723 V 36.66 H 25.538 V 2.723 C 25.565,1.932 25.823,1.301 26.332,0.795 26.846,0.281 27.467,0.024 28.261,0 h 5.452 c 0.794,0.024 1.414,0.281 1.928,0.795 0.509,0.506 0.766,1.137 0.795,1.928 v 52.949 c 0,1.957 -0.286,3.856 -0.855,5.702 -0.564,1.845 -1.362,3.582 -2.382,5.195 l -9.194,16.174 c -0.256,0.424 -0.596,0.763 -0.994,0.992 -0.424,0.257 -0.879,0.369 -1.388,0.369 h -9.534 c -0.514,0 -0.967,-0.112 -1.391,-0.369 C 10.3,83.506 9.957,83.167 9.707,82.743 L 0.51,66.569 c -1.024,-1.613 -1.818,-3.35 -2.382,-5.195 -0.569,-1.846 -0.855,-3.745 -0.855,-5.702 V 2.723 C -2.694,1.932 -2.441,1.301 -1.932,0.795 -1.419,0.281 -0.794,0.024 0,0 m 8.174,47.619 v 8.053 c 0,0.516 0.024,0.992 0.111,1.415 0.059,0.458 0.142,0.882 0.229,1.314 l 8.34,14.639 8.174,-14.639 c 0.17,-0.432 0.285,-0.856 0.368,-1.314 0.087,-0.423 0.142,-0.899 0.142,-1.415 v -8.053 z" />
        </g>
      </g>
    </g>
    <g transform="translate(1059.3613,698.4375)" id="g44">
      <path id="path46" style="fill:#1d1d1b;fill-opacity:1;fill-rule:nonzero;stroke:none" d="M 0,0 -155.774,64.604 -295.378,6.7 l 16.555,-39.432 121.659,49.665 -24.492,-86.862 24.771,-87.978 185.497,-79.73 15.556,-54.952 126.279,-52.848 34.533,80.827 -249.926,105.285 z" />
    </g>
    <g transform="translate(630.5391,603.7979)" id="g48">
      <path id="path50" style="fill:#1d1d1b;fill-opacity:1;fill-rule:nonzero;stroke:none" d="M 0,0 271.403,-114.001 317.291,-92.217 53.406,21.076 Z" />
    </g>
    <g transform="translate(1231.8652,579.0615)" id="g52">
      <path id="path54" style="fill:#1d1d1b;fill-opacity:1;fill-rule:nonzero;stroke:none" d="M 0,0 57.596,23.946 -164.061,115.875 -175.734,73.3 Z" />
    </g>
    <g transform="translate(1054.166,777.7896)" id="g56">
      <path id="path58" style="fill:#1d1d1b;fill-opacity:1;fill-rule:nonzero;stroke:none" d="M 0,0 -17.008,40.658 -60.582,22.586 -48.711,-20.012 Z" />
    </g>
    <g transform="translate(780.3745,665.2031)" id="g60">
      <path id="path62" style="fill:#ffd153;fill-opacity:1;fill-rule:nonzero;stroke:none" d="M 0,0 -33.522,-13.761 -89.135,9.658 -16.692,39.707 Z" />
    </g>
    <g transform="translate(1289.5938,602.7095)" id="g64">
      <path id="path66" style="fill:#ffd153;fill-opacity:1;fill-rule:nonzero;stroke:none" d="m 0,0 -57.644,-23.961 -57.773,24.095 57.506,23.873 z" />
    </g>
    <g transform="translate(1264.418,433.3926)" id="g68">
      <path id="path70" style="fill:#ef7f2b;fill-opacity:1;fill-rule:nonzero;stroke:none" d="m 0,0 -16.921,-39.619 -39.73,16.582 -23.825,56.944 z" />
    </g>
    <g transform="translate(1247.4971,393.7734)" id="g72">
      <path id="path74" style="fill:#ffd153;fill-opacity:1;fill-rule:nonzero;stroke:none" d="M 0,0 -16.559,-38.783 -39.73,16.582 Z" />
    </g>
    <g transform="translate(1231.6826,626.7163)" id="g76">
      <path id="path78" style="fill:#ef7f2b;fill-opacity:1;fill-rule:nonzero;stroke:none" d="m 0,0 -57.506,-23.873 -53.155,22.156 1.217,2.958 53.312,22.038 z" />
    </g>
    <g transform="translate(1230.9385,354.9902)" id="g80">
      <path id="path82" style="fill:#ffd153;fill-opacity:1;fill-rule:nonzero;stroke:none" d="m 0,0 -1.064,-2.48 -126.384,52.883 -15.296,54.889 119.572,-49.927 z" />
    </g>
    <g transform="translate(1183.9424,467.2998)" id="g84">
      <path id="path86" style="fill:#ef7f2b;fill-opacity:1;fill-rule:nonzero;stroke:none" d="m 0,0 23.824,-56.944 -119.572,49.926 -14.28,51.282 0.721,1.782 h 0.023 z" />
    </g>
    <g transform="translate(1175.5508,649.9956)" id="g88">
      <path id="path90" style="fill:#ffd153;fill-opacity:1;fill-rule:nonzero;stroke:none" d="m 0,0 -53.313,-22.039 15.659,37.654 z" />
    </g>
    <g transform="translate(1093.2021,684.1543)" id="g92">
      <path id="path94" style="fill:#ffd153;fill-opacity:1;fill-rule:nonzero;stroke:none" d="m 0,0 44.694,-18.543 -15.658,-37.654 -4.151,-1.718 -0.79,0.317 z" />
    </g>
    <g transform="translate(1122.2383,627.957)" id="g96">
      <path id="path98" style="fill:#ef7f2b;fill-opacity:1;fill-rule:nonzero;stroke:none" d="m 0,0 -1.217,-2.958 -2.934,1.241 z" />
    </g>
    <g transform="translate(1093.2021,684.1543)" id="g100">
      <path id="path102" style="fill:#ffd153;fill-opacity:1;fill-rule:nonzero;stroke:none" d="m 0,0 24.095,-57.598 -69.982,29.194 11.98,42.459 z" />
    </g>
    <g transform="translate(1073.9141,511.5635)" id="g104">
      <path id="path106" style="fill:#d21217;fill-opacity:1;fill-rule:nonzero;stroke:none" d="m 0,0 14.28,-51.281 -30.323,12.658 z" />
    </g>
    <g transform="translate(1074.6357,513.3457)" id="g108">
      <path id="path110" style="fill:#ef7f2b;fill-opacity:1;fill-rule:nonzero;stroke:none" d="M 0,0 -0.722,-1.782 -1.084,-0.45 Z" />
    </g>
    <g transform="translate(1074.6357,513.3457)" id="g112">
      <path id="path114" style="fill:#ef7f2b;fill-opacity:1;fill-rule:nonzero;stroke:none" d="M 0,0 -1.084,-0.45 -1.377,0.588 Z" />
    </g>
    <g transform="translate(1073.5518,512.8955)" id="g116">
      <path id="path118" style="fill:#d21217;fill-opacity:1;fill-rule:nonzero;stroke:none" d="m 0,0 0.362,-1.332 -16.043,-38.623 -40.134,16.764 z" />
    </g>
    <g transform="translate(1073.5518,512.8955)" id="g120">
      <path id="path122" style="fill:#d21217;fill-opacity:1;fill-rule:nonzero;stroke:none" d="m 0,0 -55.815,-23.191 -15.452,6.45 11.3,40.001 3.476,1.446 56.198,-23.668 z" />
    </g>
    <g transform="translate(1017.0156,715.7598)" id="g124">
      <path id="path126" style="fill:#d21217;fill-opacity:1;fill-rule:nonzero;stroke:none" d="M 0,0 42.279,-17.551 30.3,-60.009 14.933,-53.602 Z" />
    </g>
    <g transform="translate(1037.0732,818.3232)" id="g128">
      <path id="path130" style="fill:#d21217;fill-opacity:1;fill-rule:nonzero;stroke:none" d="m 0,0 17.031,-40.7 -35.33,-14.508 -16.921,7.04 -8.391,30.072 z" />
    </g>
    <g transform="translate(1047.3154,655.7505)" id="g132">
      <path id="path134" style="fill:#d21217;fill-opacity:1;fill-rule:nonzero;stroke:none" d="M 0,0 -6.835,-24.229 -15.367,6.407 Z" />
    </g>
    <g transform="translate(1031.9482,662.1577)" id="g136">
      <path id="path138" style="fill:#d21217;fill-opacity:1;fill-rule:nonzero;stroke:none" d="m 0,0 8.532,-30.637 -11.936,-42.324 -67.57,-27.954 -73.3,30.862 -10.175,36.12 9.77,34.654 71.698,29.713 z" />
    </g>
    <g transform="translate(1017.0156,715.7598)" id="g140">
      <path id="path142" style="fill:#d21217;fill-opacity:1;fill-rule:nonzero;stroke:none" d="M 0,0 14.933,-53.602 -58.048,-23.168 -1.106,0.454 Z" />
    </g>
    <g transform="translate(960.9746,561.2427)" id="g144">
      <path id="path146" style="fill:#d21217;fill-opacity:1;fill-rule:nonzero;stroke:none" d="M 0,0 67.569,27.954 53.335,-22.469 0,-0.023 Z" />
    </g>
    <g transform="translate(1018.7744,763.1147)" id="g148">
      <path id="path150" style="fill:#d21217;fill-opacity:1;fill-rule:nonzero;stroke:none" d="M 0,0 -13.422,-5.503 -16.921,7.041 Z" />
    </g>
    <g transform="translate(1017.0605,537.6016)" id="g152">
      <path id="path154" style="fill:#d21217;fill-opacity:1;fill-rule:nonzero;stroke:none" d="m 0,0 -3.476,-1.446 0.725,2.594 z" />
    </g>
    <g transform="translate(1015.9092,716.2139)" id="g156">
      <path id="path158" style="fill:#ef7f2b;fill-opacity:1;fill-rule:nonzero;stroke:none" d="m 0,0 -56.942,-23.622 -55.498,23.168 57.032,23.42 z" />
    </g>
    <g transform="translate(1014.3096,538.7734)" id="g160">
      <path id="path162" style="fill:#d21217;fill-opacity:1;fill-rule:nonzero;stroke:none" d="m 0,0 v -0.023 l -0.725,-2.595 -53.713,-22.29 -56.449,23.553 57.552,23.801 z" />
    </g>
    <g transform="translate(1013.585,536.1553)" id="g164">
      <path id="path166" style="fill:#ef7f2b;fill-opacity:1;fill-rule:nonzero;stroke:none" d="M 0,0 -11.3,-40.001 -53.713,-22.29 Z" />
    </g>
    <g transform="translate(960.9746,561.2427)" id="g168">
      <path id="path170" style="fill:#d21217;fill-opacity:1;fill-rule:nonzero;stroke:none" d="m 0,0 v -0.023 l -57.552,-23.802 -0.405,0.184 -15.344,54.503 z" />
    </g>
    <g transform="translate(914.207,758.3789)" id="g172">
      <path id="path174" style="fill:#ffd153;fill-opacity:1;fill-rule:nonzero;stroke:none" d="m 0,0 46.294,-19.199 -57.032,-23.42 -1.153,0.476 z" />
    </g>
    <g transform="translate(959.8716,513.8652)" id="g176">
      <path id="path178" style="fill:#ffd153;fill-opacity:1;fill-rule:nonzero;stroke:none" d="m 0,0 -44.92,-18.657 -11.845,42.073 0.316,0.137 z" />
    </g>
    <g transform="translate(903.4687,715.7598)" id="g180">
      <path id="path182" style="fill:#ef7f2b;fill-opacity:1;fill-rule:nonzero;stroke:none" d="M 0,0 55.499,-23.168 -16.2,-52.881 -1.446,-0.607 Z" />
    </g>
    <g transform="translate(903.1064,537.2812)" id="g184">
      <path id="path186" style="fill:#ffd153;fill-opacity:1;fill-rule:nonzero;stroke:none" d="m 0,0 11.845,-42.073 -13.063,-5.439 -56.494,23.645 z" />
    </g>
    <g transform="translate(903.3999,762.8667)" id="g188">
      <path id="path190" style="fill:#d21217;fill-opacity:1;fill-rule:nonzero;stroke:none" d="M 0,0 10.807,-4.488 -1.083,-46.63 -56.605,-23.481 Z" />
    </g>
    <g transform="translate(903.0181,537.6016)" id="g192">
      <path id="path194" style="fill:#ef7f2b;fill-opacity:1;fill-rule:nonzero;stroke:none" d="m 0,0 0.088,-0.32 -57.712,-23.867 -0.248,0.111 12.185,43.16 z" />
    </g>
    <g transform="translate(902.3164,716.2363)" id="g196">
      <path id="path198" style="fill:#d21217;fill-opacity:1;fill-rule:nonzero;stroke:none" d="m 0,0 -0.294,-1.083 -43.924,-18.024 -11.823,42.05 0.52,0.206 z" />
    </g>
    <g transform="translate(846.2759,739.1797)" id="g200">
      <path id="path202" style="fill:#d21217;fill-opacity:1;fill-rule:nonzero;stroke:none" d="M 0,0 11.822,-42.051 -26.485,-57.777 -3.179,-1.329 Z" />
    </g>
    <g transform="translate(857.3311,556.686)" id="g204">
      <path id="path206" style="fill:#ef7f2b;fill-opacity:1;fill-rule:nonzero;stroke:none" d="m 0,0 -12.185,-43.161 -1.332,0.569 -24.565,58.475 z" />
    </g>
    <g transform="translate(819.2495,572.5688)" id="g208">
      <path id="path210" style="fill:#ef7f2b;fill-opacity:1;fill-rule:nonzero;stroke:none" d="m 0,0 24.565,-58.475 -79.369,33.208 16.967,41.081 z" />
    </g>
    <g transform="translate(843.0967,737.8511)" id="g212">
      <path id="path214" style="fill:#ef7f2b;fill-opacity:1;fill-rule:nonzero;stroke:none" d="m 0,0 -23.306,-56.449 -39.416,-16.199 -16.693,39.707 z" />
    </g>
    <g transform="translate(781.4121,588.3833)" id="g216">
      <path id="path218" style="fill:#ef7f2b;fill-opacity:1;fill-rule:nonzero;stroke:none" d="m 0,0 -16.966,-41.082 -77.607,32.485 57.801,23.961 z" />
    </g>
    <g transform="translate(744.6396,603.7476)" id="g220">
      <path id="path222" style="fill:#ffd153;fill-opacity:1;fill-rule:nonzero;stroke:none" d="m 0,0 -57.8,-23.961 -56.697,23.712 58.002,23.825 z" />
    </g>
  </g>
</svg>