<?xml version="1.0" encoding="UTF-8" standalone="no"?>
<svg xmlns:dc="http://purl.org/dc/elements/1.1/" xmlns:cc="http://creativecommons.org/ns#" xmlns:rdf="http://www.w3.org/1999/02/22-rdf-syntax-ns#" xmlns:svg="http://www.w3.org/2000/svg" xmlns="http://www.w3.org/2000/svg" viewBox="640 360 1280 720" height="256" width="256" xml:space="preserve" id="svg2" version="1.1">
  <defs id="defs6">
    <clipPath id="clipPath18" clipPathUnits="userSpaceOnUse">
      <path id="path16" d="M 0,1080 H 1920 V 0 H 0 Z" />
    </clipPath>
  </defs>
  <g transform="matrix(1.3333333,0,0,-1.3333333,0,1440)" id="g10">
    <g id="g12">
      <g clip-path="url(#clipPath18)" id="g14">
        <g transform="translate(1011.9902,243.1865)" id="g20">
          <path id="path22" style="fill:#575756;fill-opacity:1;fill-rule:nonzero;stroke:none" d="m 0,0 v 5.776 c 0,4.758 -3.907,8.665 -8.834,8.665 -4.758,0 -8.666,-3.907 -8.666,-8.665 v -45.195 c 0,-4.757 3.908,-8.665 8.666,-8.665 4.927,0 8.834,3.908 8.834,8.665 v 6.287 c 0,1.528 1.189,2.718 2.719,2.718 h 5.437 c 1.36,0 2.719,-1.19 2.719,-2.718 v -6.287 c 0,-8.835 -6.117,-16.48 -14.273,-18.859 v -8.495 c 0,-1.53 -1.189,-2.719 -2.718,-2.719 h -5.437 c -1.529,0 -2.718,1.189 -2.718,2.719 v 8.495 c -8.157,2.379 -14.103,10.024 -14.103,18.859 V 5.776 c 0,10.874 8.835,19.539 19.54,19.539 10.873,0 19.709,-8.665 19.709,-19.539 V 0 c 0,-1.529 -1.359,-2.719 -2.719,-2.719 H 2.719 C 1.189,-2.719 0,-1.529 0,0" />
        </g>
        <g transform="translate(1118.5156,248.793)" id="g24">
          <path id="path26" style="fill:#575756;fill-opacity:1;fill-rule:nonzero;stroke:none" d="M 0,0 C 0,4.758 -3.908,8.665 -8.666,8.665 -13.594,8.665 -17.5,4.758 -17.5,0 v -44.855 c 0,-4.927 3.906,-8.835 8.834,-8.835 4.758,0 8.666,3.908 8.666,8.835 z m 10.873,0 v -44.855 c 0,-10.874 -8.834,-19.709 -19.539,-19.709 -10.873,0 -19.709,8.835 -19.709,19.709 V 0 c 0,10.704 8.836,19.539 19.709,19.539 10.705,0 19.539,-8.835 19.539,-19.539" />
        </g>
        <g transform="translate(842.4824,184.1436)" id="g28">
          <path id="path30" style="fill:#575756;fill-opacity:1;fill-rule:evenodd;stroke:none" d="M 0,0 H 5.448 C 6.156,0.024 6.779,0.281 7.32,0.795 7.862,1.301 8.144,1.932 8.174,2.723 V 36.66 H 25.538 V 2.723 C 25.565,1.932 25.823,1.301 26.332,0.795 26.846,0.281 27.467,0.024 28.261,0 h 5.452 c 0.794,0.024 1.414,0.281 1.928,0.795 0.509,0.506 0.766,1.137 0.795,1.928 v 52.949 c 0,1.957 -0.286,3.856 -0.855,5.702 -0.564,1.845 -1.362,3.582 -2.382,5.195 l -9.194,16.174 c -0.256,0.424 -0.596,0.763 -0.994,0.992 -0.424,0.257 -0.879,0.369 -1.388,0.369 h -9.534 c -0.514,0 -0.967,-0.112 -1.391,-0.369 C 10.3,83.506 9.957,83.167 9.707,82.743 L 0.51,66.569 c -1.024,-1.613 -1.818,-3.35 -2.382,-5.195 -0.569,-1.846 -0.855,-3.745 -0.855,-5.702 V 2.723 C -2.694,1.932 -2.441,1.301 -1.932,0.795 -1.419,0.281 -0.794,0.024 0,0 m 8.174,47.619 v 8.053 c 0,0.516 0.024,0.992 0.111,1.415 0.059,0.458 0.142,0.882 0.229,1.314 l 8.34,14.639 8.174,-14.639 c 0.17,-0.432 0.285,-0.856 0.368,-1.314 0.087,-0.423 0.142,-0.899 0.142,-1.415 v -8.053 z" />
        </g>
        <g transform="translate(933.0371,184.1436)" id="g32">
          <path id="path34" style="fill:#575756;fill-opacity:1;fill-rule:evenodd;stroke:none" d="M 0,0 H 5.448 C 6.156,0.024 6.779,0.281 7.32,0.795 7.862,1.301 8.144,1.932 8.174,2.723 V 36.66 H 25.538 V 2.723 C 25.565,1.932 25.823,1.301 26.332,0.795 26.846,0.281 27.467,0.024 28.261,0 h 5.452 c 0.794,0.024 1.414,0.281 1.928,0.795 0.509,0.506 0.766,1.137 0.795,1.928 v 52.949 c 0,1.957 -0.286,3.856 -0.855,5.702 -0.564,1.845 -1.362,3.582 -2.382,5.195 l -9.194,16.174 c -0.256,0.424 -0.596,0.763 -0.994,0.992 -0.424,0.257 -0.879,0.369 -1.388,0.369 h -9.534 c -0.514,0 -0.967,-0.112 -1.391,-0.369 C 10.3,83.506 9.957,83.167 9.707,82.743 L 0.51,66.569 c -1.024,-1.613 -1.818,-3.35 -2.382,-5.195 -0.569,-1.846 -0.855,-3.745 -0.855,-5.702 V 2.723 C -2.694,1.932 -2.441,1.301 -1.932,0.795 -1.419,0.281 -0.794,0.024 0,0 m 8.174,47.619 v 8.053 c 0,0.516 0.024,0.992 0.111,1.415 0.059,0.458 0.142,0.882 0.229,1.314 l 8.34,14.639 8.174,-14.639 c 0.17,-0.432 0.285,-0.856 0.368,-1.314 0.087,-0.423 0.142,-0.899 0.142,-1.415 v -8.053 z" />
        </g>
        <g transform="translate(1039.5625,184.1436)" id="g36">
          <path id="path38" style="fill:#575756;fill-opacity:1;fill-rule:evenodd;stroke:none" d="M 0,0 H 5.448 C 6.156,0.024 6.779,0.281 7.32,0.795 7.862,1.301 8.144,1.932 8.174,2.723 V 36.66 H 25.538 V 2.723 C 25.565,1.932 25.823,1.301 26.332,0.795 26.846,0.281 27.467,0.024 28.261,0 h 5.452 c 0.794,0.024 1.414,0.281 1.928,0.795 0.509,0.506 0.766,1.137 0.795,1.928 v 52.949 c 0,1.957 -0.286,3.856 -0.855,5.702 -0.564,1.845 -1.362,3.582 -2.382,5.195 l -9.194,16.174 c -0.256,0.424 -0.596,0.763 -0.994,0.992 -0.424,0.257 -0.879,0.369 -1.388,0.369 h -9.534 c -0.514,0 -0.967,-0.112 -1.391,-0.369 C 10.3,83.506 9.957,83.167 9.707,82.743 L 0.51,66.569 c -1.024,-1.613 -1.818,-3.35 -2.382,-5.195 -0.569,-1.846 -0.855,-3.745 -0.855,-5.702 V 2.723 C -2.694,1.932 -2.441,1.301 -1.932,0.795 -1.419,0.281 -0.794,0.024 0,0 m 8.174,47.619 v 8.053 c 0,0.516 0.024,0.992 0.111,1.415 0.059,0.458 0.142,0.882 0.229,1.314 l 8.34,14.639 8.174,-14.639 c 0.17,-0.432 0.285,-0.856 0.368,-1.314 0.087,-0.423 0.142,-0.899 0.142,-1.415 v -8.053 z" />
        </g>
        <g transform="translate(814.6045,220.957)" id="g40">
          <path id="path42" style="fill:#575756;fill-opacity:1;fill-rule:nonzero;stroke:none" d="M 0,0 V -4.393 L -1.473,0 -16.347,44.438 c -0.507,1.512 -2.196,2.686 -3.513,2.697 h -0.022 -0.051 -5.21 -0.068 -0.134 c -1.517,0 -2.698,-1.181 -2.698,-2.697 v -78.221 c 0,-1.525 1.181,-2.705 2.698,-2.705 h 5.412 c 1.517,0 2.702,1.18 2.702,2.705 V 0 15.626 L -12.002,0 -0.697,-33.783 c 0.357,-1.071 1.222,-1.971 2.218,-2.41 l 0.02,-0.006 c 0.363,-0.186 0.762,-0.289 1.167,-0.289 H 2.77 2.845 8.113 8.178 8.182 8.243 8.247 l 0.068,0.004 h 0.007 l 0.055,0.009 h 0.014 l 0.051,0.004 H 8.46 c 1.349,0.172 2.353,1.28 2.353,2.688 v 78.221 c 0,1.516 -1.187,2.697 -2.7,2.697 H 2.708 C 1.355,47.135 0,45.954 0,44.438 Z" />
        </g>
        <g transform="translate(917.8682,265.6143)" id="g44">
          <path id="path46" style="fill:#575756;fill-opacity:1;fill-rule:nonzero;stroke:none" d="m 0,0 v -5.437 c 0,-1.53 -1.189,-2.719 -2.719,-2.719 h -7.645 v -70.511 c 0,-1.359 -1.19,-2.719 -2.719,-2.719 h -5.438 c -1.529,0 -2.718,1.36 -2.718,2.719 v 70.511 h -7.645 c -1.529,0 -2.719,1.189 -2.719,2.719 V 0 c 0,1.528 1.19,2.718 2.719,2.718 H -2.719 C -1.189,2.718 0,1.528 0,0" />
        </g>
        <g transform="translate(1072.2188,285.0625)" id="g48">
          <path id="path50" style="fill:#575756;fill-opacity:1;fill-rule:nonzero;stroke:none" d="m 0,0 v -5.437 c 0,-1.53 -1.189,-2.719 -2.719,-2.719 h -7.645 -10.875 -7.645 c -1.529,0 -2.719,1.189 -2.719,2.719 V 0 c 0,1.528 1.19,2.718 2.719,2.718 H -2.719 C -1.189,2.718 0,1.528 0,0" />
        </g>
      </g>
    </g>
    <g transform="translate(752.0879,443.002)" id="g52">
      <path id="path54" style="fill:#1d1d1b;fill-opacity:1;fill-rule:nonzero;stroke:none" d="m 0,0 -0.827,-2.031 224.483,-87.971 -65.4,155.791 z" />
    </g>
    <g transform="translate(930.6406,777.3643)" id="g56">
      <path id="path58" style="fill:#1d1d1b;fill-opacity:1;fill-rule:nonzero;stroke:none" d="m 0,0 -113.327,-47.009 65.375,-155.695 -159.608,-66.029 13.657,-32.79 203.271,84.407 -36.637,130.121 72.344,29.993 174.553,-72.809 46.65,19.373 z" />
    </g>
    <g transform="translate(1052.875,789.3286)" id="g60">
      <path id="path62" style="fill:#1d1d1b;fill-opacity:1;fill-rule:nonzero;stroke:none" d="m 0,0 -13.812,33.007 -35.367,-14.67 9.635,-34.578 z" />
    </g>
    <g transform="translate(1198.0625,667.0874)" id="g64">
      <path id="path66" style="fill:#ffd153;fill-opacity:1;fill-rule:nonzero;stroke:none" d="M 0,0 -46.875,-19.453 -92.59,-0.383 -45.771,18.98 Z" />
    </g>
    <g transform="translate(1152.292,686.0674)" id="g68">
      <path id="path70" style="fill:#ef7f2b;fill-opacity:1;fill-rule:nonzero;stroke:none" d="m 0,0 -46.819,-19.363 -0.607,0.256 -0.202,0.478 13.59,32.751 z" />
    </g>
    <g transform="translate(1118.2539,700.189)" id="g72">
      <path id="path74" style="fill:#ef7f2b;fill-opacity:1;fill-rule:nonzero;stroke:none" d="M 0,0 -13.59,-32.75 -33.027,13.701 Z" />
    </g>
    <g transform="translate(1104.6641,667.4385)" id="g76">
      <path id="path78" style="fill:#ef7f2b;fill-opacity:1;fill-rule:nonzero;stroke:none" d="m 0,0 -0.146,-0.351 -56.71,23.667 9.763,34.592 27.656,-11.456 z" />
    </g>
    <g transform="translate(1023.1104,739.6514)" id="g80">
      <path id="path82" style="fill:#d21217;fill-opacity:1;fill-rule:nonzero;stroke:none" d="m 0,0 34.461,-14.305 -9.764,-34.591 -12.522,5.225 z" />
    </g>
    <g transform="translate(1039.459,823.2456)" id="g84">
      <path id="path86" style="fill:#d21217;fill-opacity:1;fill-rule:nonzero;stroke:none" d="m 0,0 13.883,-33.154 -28.817,-11.824 -13.772,5.721 -6.84,24.51 z" />
    </g>
    <g transform="translate(1035.2852,695.98)" id="g88">
      <path id="path90" style="fill:#ef7f2b;fill-opacity:1;fill-rule:nonzero;stroke:none" d="m 0,0 -59.473,24.806 46.397,19.233 0.901,-0.368 z" />
    </g>
    <g transform="translate(1024.5254,778.2681)" id="g92">
      <path id="path94" style="fill:#d21217;fill-opacity:1;fill-rule:nonzero;stroke:none" d="M 0,0 -10.924,-4.507 -13.772,5.72 Z" />
    </g>
    <g transform="translate(1022.209,740.0186)" id="g96">
      <path id="path98" style="fill:#ef7f2b;fill-opacity:1;fill-rule:nonzero;stroke:none" d="M 0,0 -46.396,-19.232 -91.669,-0.349 -45.18,18.738 Z" />
    </g>
    <g transform="translate(977.0293,758.7563)" id="g100">
      <path id="path102" style="fill:#ef7f2b;fill-opacity:1;fill-rule:nonzero;stroke:none" d="m 0,0 -46.489,-19.086 -0.918,0.367 9.689,34.368 z" />
    </g>
    <g transform="translate(975.8125,720.7861)" id="g104">
      <path id="path106" style="fill:#d21217;fill-opacity:1;fill-rule:nonzero;stroke:none" d="m 0,0 -58.455,-24.237 12.025,42.626 1.158,0.495 z" />
    </g>
    <g transform="translate(961.6729,385.4111)" id="g108">
      <path id="path110" style="fill:#ffd153;fill-opacity:1;fill-rule:nonzero;stroke:none" d="m 0,0 12.983,-30.968 -0.828,-2.021 -19.325,7.574 z" />
    </g>
    <g transform="translate(961.6729,385.4111)" id="g112">
      <path id="path114" style="fill:#ffd153;fill-opacity:1;fill-rule:nonzero;stroke:none" d="m 0,0 -7.17,-25.415 -118.923,46.598 22.564,79.989 51.966,21.608 z" />
    </g>
    <g transform="translate(930.2656,594.2148)" id="g116">
      <path id="path118" style="fill:#d21217;fill-opacity:1;fill-rule:nonzero;stroke:none" d="m 0,0 9.652,-34.314 -10.663,-4.433 -46.065,19.272 z" />
    </g>
    <g transform="translate(939.3115,774.4053)" id="g120">
      <path id="path122" style="fill:#ef7f2b;fill-opacity:1;fill-rule:nonzero;stroke:none" d="M 0,0 -9.689,-34.368 -54.944,-15.484 -8.806,3.642 Z" />
    </g>
    <g transform="translate(930.1914,594.4731)" id="g124">
      <path id="path126" style="fill:#ef7f2b;fill-opacity:1;fill-rule:nonzero;stroke:none" d="m 0,0 0.074,-0.258 -47.076,-19.475 -0.165,0.075 9.931,35.195 z" />
    </g>
    <g transform="translate(917.6875,638.8999)" id="g128">
      <path id="path130" style="fill:#ef7f2b;fill-opacity:1;fill-rule:nonzero;stroke:none" d="m 0,0 12.504,-44.427 -37.236,15.537 9.911,35.123 z" />
    </g>
    <g transform="translate(884.3672,758.9214)" id="g132">
      <path id="path134" style="fill:#d21217;fill-opacity:1;fill-rule:nonzero;stroke:none" d="M 0,0 45.255,-18.884 45.016,-19.746 9.214,-34.442 -0.423,-0.181 Z" />
    </g>
    <g transform="translate(929.3828,739.1753)" id="g136">
      <path id="path138" style="fill:#d21217;fill-opacity:1;fill-rule:nonzero;stroke:none" d="m 0,0 -12.025,-42.626 -14.252,-5.903 -9.525,33.833 z" />
    </g>
    <g transform="translate(929.2549,555.4678)" id="g140">
      <path id="path142" style="fill:#d21217;fill-opacity:1;fill-rule:nonzero;stroke:none" d="m 0,0 -33.21,-13.792 -13.369,31.87 0.31,1.104 0.204,0.09 z" />
    </g>
    <g transform="translate(909.3945,668.3218)" id="g144">
      <path id="path146" style="fill:#d21217;fill-opacity:1;fill-rule:nonzero;stroke:none" d="m 0,0 8.293,-29.422 -14.821,6.234 z" />
    </g>
    <g transform="translate(903.1055,690.646)" id="g148">
      <path id="path150" style="fill:#d21217;fill-opacity:1;fill-rule:nonzero;stroke:none" d="M 0,0 14.252,5.903 6.289,-22.324 Z" />
    </g>
    <g transform="translate(903.1055,690.646)" id="g152">
      <path id="path154" style="fill:#d21217;fill-opacity:1;fill-rule:nonzero;stroke:none" d="m 0,0 6.289,-22.324 -6.528,-23.189 -54.322,22.875 z" />
    </g>
    <g transform="translate(893.5811,724.479)" id="g156">
      <path id="path158" style="fill:#d21217;fill-opacity:1;fill-rule:nonzero;stroke:none" d="m 0,0 9.524,-33.833 -54.56,-22.638 -3.584,1.509 17.394,42.147 z" />
    </g>
    <g transform="translate(902.8662,645.1333)" id="g160">
      <path id="path162" style="fill:#ef7f2b;fill-opacity:1;fill-rule:nonzero;stroke:none" d="m 0,0 -9.911,-35.124 -31.042,12.965 -18.075,43.086 4.707,1.948 z" />
    </g>
    <g transform="translate(882.6758,573.5459)" id="g164">
      <path id="path166" style="fill:#ffd153;fill-opacity:1;fill-rule:nonzero;stroke:none" d="M 0,0 13.369,-31.87 -11.953,-42.387 Z" />
    </g>
    <g transform="translate(883.9443,758.7402)" id="g168">
      <path id="path170" style="fill:#d21217;fill-opacity:1;fill-rule:nonzero;stroke:none" d="M 0,0 9.637,-34.261 -21.589,-47.077 -2.594,-1.069 Z" />
    </g>
    <g transform="translate(892.9551,610.0098)" id="g172">
      <path id="path174" style="fill:#ef7f2b;fill-opacity:1;fill-rule:nonzero;stroke:none" d="m 0,0 -9.931,-35.195 -1.067,0.442 -20.044,47.718 z" />
    </g>
    <g transform="translate(882.324,574.3917)" id="g176">
      <path id="path178" style="fill:#2e2b84;fill-opacity:1;fill-rule:nonzero;stroke:none" d="M 0,0 0.662,0.258 0.7,0.423 -0.367,0.865 Z" />
    </g>
    <g transform="translate(882.324,574.3917)" id="g180">
      <path id="path182" style="fill:#2e2b84;fill-opacity:1;fill-rule:nonzero;stroke:none" d="m 0,0 0.352,-0.846 0.31,1.104 z" />
    </g>
    <g transform="translate(882.3242,574.3916)" id="g184">
      <path id="path186" style="fill:#ef7f2b;fill-opacity:1;fill-rule:nonzero;stroke:none" d="m 0,0 0.352,-0.846 -11.954,-42.386 -99.999,-41.522 19.199,46.524 z" />
    </g>
    <g transform="translate(881.3506,757.6709)" id="g188">
      <path id="path190" style="fill:#d21217;fill-opacity:1;fill-rule:nonzero;stroke:none" d="M 0,0 -18.995,-46.007 -51.12,-59.211 -64.71,-26.844 Z" />
    </g>
    <g transform="translate(862.3555,711.6636)" id="g192">
      <path id="path194" style="fill:#d21217;fill-opacity:1;fill-rule:nonzero;stroke:none" d="m 0,0 -17.395,-42.147 -3.144,1.343 -11.586,27.6 z" />
    </g>
    <g transform="translate(858.1436,486.583)" id="g196">
      <path id="path198" style="fill:#d21217;fill-opacity:1;fill-rule:nonzero;stroke:none" d="m 0,0 -22.563,-79.989 -85.324,33.447 v 0.021 l 0.827,2.023 z" />
    </g>
    <g transform="translate(844.9609,669.5166)" id="g200">
      <path id="path202" style="fill:#ef7f2b;fill-opacity:1;fill-rule:nonzero;stroke:none" d="M 0,0 3.584,-1.509 -1.123,-3.456 -1.27,-3.107 Z" />
    </g>
    <g transform="translate(841.8164,670.8599)" id="g204">
      <path id="path206" style="fill:#d21217;fill-opacity:1;fill-rule:nonzero;stroke:none" d="M 0,0 3.145,-1.343 1.875,-4.451 Z" />
    </g>
    <g transform="translate(789.9219,536.1611)" id="g208">
      <path id="path210" style="fill:#ffd153;fill-opacity:1;fill-rule:nonzero;stroke:none" d="m 0,0 -19.198,-46.523 -35.068,-14.548 -13.717,32.936 z" />
    </g>
  </g>
</svg>