<?xml version="1.0" encoding="UTF-8" standalone="no"?>
<svg xmlns:dc="http://purl.org/dc/elements/1.1/" xmlns:cc="http://creativecommons.org/ns#" xmlns:rdf="http://www.w3.org/1999/02/22-rdf-syntax-ns#" xmlns:svg="http://www.w3.org/2000/svg" xmlns="http://www.w3.org/2000/svg" viewBox="640 360 1280 720" height="256" width="256" xml:space="preserve" id="svg2" version="1.1">
  <defs id="defs6">
    <clipPath id="clipPath18" clipPathUnits="userSpaceOnUse">
      <path id="path16" d="M 0,1080 H 1920 V 0 H 0 Z" />
    </clipPath>
  </defs>
  <g transform="matrix(1.3333333,0,0,-1.3333333,0,1440)" id="g10">
    <g id="g12">
      <g clip-path="url(#clipPath18)" id="g14">
        <g transform="translate(835.041,243.0166)" id="g20">
          <path id="path22" style="fill:#575756;fill-opacity:1;fill-rule:nonzero;stroke:none" d="m 0,0 v 5.776 c 0,4.758 -3.907,8.665 -8.664,8.665 -4.758,0 -8.666,-3.907 -8.666,-8.665 0,-2.209 0,-2.209 0.51,-2.888 L 6.797,-28.375 c 4.078,-5.437 4.078,-5.437 4.078,-10.874 0,-10.704 -8.836,-19.539 -19.539,-19.539 -10.705,0 -19.54,8.835 -19.54,19.539 v 5.777 c 0,1.53 1.189,2.718 2.719,2.718 h 5.436 c 1.529,0 2.719,-1.188 2.719,-2.718 v -5.777 c 0,-4.757 3.908,-8.665 8.666,-8.665 4.757,0 8.664,3.908 8.664,8.665 0,2.209 0,2.209 -0.51,2.889 l -23.616,31.262 c -4.078,5.438 -4.078,5.438 -4.078,10.874 0,10.704 8.835,19.539 19.54,19.539 10.703,0 19.539,-8.835 19.539,-19.539 V 0 c 0,-1.529 -1.189,-2.719 -2.719,-2.719 H 2.719 C 1.189,-2.719 0,-1.529 0,0" />
        </g>
        <g transform="translate(886.5215,248.793)" id="g24">
          <path id="path26" style="fill:#575756;fill-opacity:1;fill-rule:nonzero;stroke:none" d="M 0,0 C 0,4.758 -3.908,8.665 -8.666,8.665 -13.423,8.665 -17.33,4.758 -17.33,0 v -44.855 c 0,-4.757 3.907,-8.666 8.664,-8.666 4.758,0 8.666,3.909 8.666,8.666 z m 10.874,0 v -44.855 c 0,-8.835 -5.946,-16.481 -14.103,-18.86 v -8.835 c 0,-1.529 -1.189,-2.719 -2.718,-2.719 h -5.437 c -1.529,0 -2.718,1.19 -2.718,2.719 v 8.835 c -8.156,2.379 -14.103,10.025 -14.103,18.86 V 0 c 0,10.874 8.666,19.539 19.539,19.539 10.705,0 19.54,-8.665 19.54,-19.539" />
        </g>
        <g transform="translate(950.9131,265.6143)" id="g28">
          <path id="path30" style="fill:#575756;fill-opacity:1;fill-rule:nonzero;stroke:none" d="m 0,0 v -61.677 c 0,-10.874 -8.835,-19.709 -19.54,-19.709 -10.873,0 -19.709,8.835 -19.709,19.709 V 0 c 0,1.528 1.359,2.718 2.719,2.718 h 5.437 c 1.53,0 2.719,-1.19 2.719,-2.718 v -61.677 c 0,-4.927 3.907,-8.835 8.834,-8.835 4.758,0 8.666,3.908 8.666,8.835 V 0 c 0,1.528 1.189,2.718 2.719,2.718 h 5.436 C -1.189,2.718 0,1.528 0,0" />
        </g>
        <g transform="translate(1044.8652,243.0166)" id="g32">
          <path id="path34" style="fill:#575756;fill-opacity:1;fill-rule:nonzero;stroke:none" d="m 0,0 v 5.776 c 0,4.758 -3.908,8.665 -8.665,8.665 -4.757,0 -8.665,-3.907 -8.665,-8.665 0,-2.209 0,-2.209 0.51,-2.888 L 6.797,-28.375 c 4.078,-5.437 4.078,-5.437 4.078,-10.874 0,-10.704 -8.836,-19.539 -19.54,-19.539 -10.704,0 -19.54,8.835 -19.54,19.539 v 5.777 c 0,1.53 1.189,2.718 2.719,2.718 h 5.437 c 1.529,0 2.719,-1.188 2.719,-2.718 v -5.777 c 0,-4.757 3.908,-8.665 8.665,-8.665 4.757,0 8.665,3.908 8.665,8.665 0,2.209 0,2.209 -0.51,2.889 l -23.617,31.262 c -4.078,5.438 -4.078,5.438 -4.078,10.874 0,10.704 8.836,19.539 19.54,19.539 10.704,0 19.54,-8.835 19.54,-19.539 V 0 c 0,-1.529 -1.189,-2.719 -2.719,-2.719 H 2.719 C 1.189,-2.719 0,-1.529 0,0" />
        </g>
        <g transform="translate(1107.2188,265.6143)" id="g36">
          <path id="path38" style="fill:#575756;fill-opacity:1;fill-rule:nonzero;stroke:none" d="m 0,0 v -78.667 c 0,-1.529 -1.189,-2.719 -2.719,-2.719 h -5.435 c -1.36,0 -2.719,1.19 -2.719,2.719 v 33.981 h -17.33 v -33.981 c 0,-1.529 -1.19,-2.719 -2.719,-2.719 h -5.437 c -1.53,0 -2.719,1.19 -2.719,2.719 V 0 c 0,1.528 1.189,2.718 2.719,2.718 h 5.437 c 1.529,0 2.719,-1.19 2.719,-2.718 v -33.812 h 17.33 V 0 c 0,1.528 1.359,2.718 2.719,2.718 h 5.435 C -1.189,2.718 0,1.528 0,0" />
        </g>
        <g transform="translate(967.7812,184.1436)" id="g40">
          <path id="path42" style="fill:#575756;fill-opacity:1;fill-rule:evenodd;stroke:none" d="M 0,0 H 5.448 C 6.156,0.024 6.779,0.281 7.32,0.795 7.862,1.301 8.144,1.932 8.174,2.723 V 36.66 H 25.538 V 2.723 C 25.565,1.932 25.823,1.301 26.332,0.795 26.846,0.281 27.467,0.024 28.261,0 h 5.452 c 0.794,0.024 1.414,0.281 1.928,0.795 0.509,0.506 0.766,1.137 0.795,1.928 v 52.949 c 0,1.957 -0.286,3.856 -0.855,5.702 -0.564,1.845 -1.362,3.582 -2.382,5.195 l -9.194,16.174 c -0.256,0.424 -0.596,0.763 -0.994,0.992 -0.424,0.257 -0.879,0.369 -1.388,0.369 h -9.534 c -0.514,0 -0.967,-0.112 -1.391,-0.369 C 10.3,83.506 9.957,83.167 9.707,82.743 L 0.51,66.569 c -1.024,-1.613 -1.818,-3.35 -2.382,-5.195 -0.569,-1.846 -0.855,-3.745 -0.855,-5.702 V 2.723 C -2.694,1.932 -2.441,1.301 -1.932,0.795 -1.419,0.281 -0.794,0.024 0,0 m 8.174,47.619 v 8.053 c 0,0.516 0.024,0.992 0.111,1.415 0.059,0.458 0.142,0.882 0.229,1.314 l 8.34,14.639 8.174,-14.639 c 0.17,-0.432 0.285,-0.856 0.368,-1.314 0.087,-0.423 0.142,-0.899 0.142,-1.415 v -8.053 z" />
        </g>
      </g>
    </g>
    <g transform="translate(909.2969,540.7334)" id="g44">
      <path id="path46" style="fill:#1d1d1b;fill-opacity:1;fill-rule:nonzero;stroke:none" d="m 0,0 -3.936,13.501 -161.166,-66.921 -19.502,-47.247 213.756,88.861 z" />
    </g>
    <g transform="translate(1027.4648,722.2319)" id="g48">
      <path id="path50" style="fill:#1d1d1b;fill-opacity:1;fill-rule:nonzero;stroke:none" d="m 0,0 -124.514,51.64 -113.138,-46.931 13.504,-32.161 98.507,40.459 -19.849,-70.397 33.146,-117.728 56.295,-23.559 -38.664,-137.052 14.067,-33.503 77.875,187.493 -43.389,18.116 z" />
    </g>
    <g transform="translate(1034.4219,719.3452)" id="g52">
      <path id="path54" style="fill:#1d1d1b;fill-opacity:1;fill-rule:nonzero;stroke:none" d="M 0,0 -17.348,-63.026 6.068,-147.056 95.701,-184.814 22.232,-9.22 Z" />
    </g>
    <g transform="translate(1130.123,534.5312)" id="g56">
      <path id="path58" style="fill:#1d1d1b;fill-opacity:1;fill-rule:nonzero;stroke:none" d="m 0,0 19.297,-46.121 32.176,-13.435 13.711,32.097 z" />
    </g>
    <g transform="translate(1024.9824,785.8193)" id="g60">
      <path id="path62" style="fill:#1d1d1b;fill-opacity:1;fill-rule:nonzero;stroke:none" d="M 0,0 -13.789,32.953 -49.1,18.306 l 9.621,-34.519 z" />
    </g>
    <g transform="translate(788.1885,728.1001)" id="g64">
      <path id="path66" style="fill:#ffd153;fill-opacity:1;fill-rule:nonzero;stroke:none" d="m 0,0 13.544,-32.254 -27.233,-11.182 -45.157,19.024 z" />
    </g>
    <g transform="translate(1194.9219,507.5459)" id="g68">
      <path id="path70" style="fill:#ffd153;fill-opacity:1;fill-rule:nonzero;stroke:none" d="m 0,0 -13.745,-32.198 -32.273,13.469 -19.353,46.272 z" />
    </g>
    <g transform="translate(1103.0508,598.4043)" id="g72">
      <path id="path74" style="fill:#ef7f2b;fill-opacity:1;fill-rule:nonzero;stroke:none" d="m 0,0 26.5,-63.315 -88.809,37.402 z" />
    </g>
    <g transform="translate(1089.1406,631.6846)" id="g76">
      <path id="path78" style="fill:#ffd153;fill-opacity:1;fill-rule:nonzero;stroke:none" d="m 0,0 13.91,-33.28 -62.308,-25.913 -1.1,0.475 -1.045,3.76 17.043,41.049 z" />
    </g>
    <g transform="translate(1089.1406,631.6846)" id="g80">
      <path id="path82" style="fill:#d21217;fill-opacity:1;fill-rule:nonzero;stroke:none" d="m 0,0 -33.5,-13.909 19.043,45.853 0.915,0.385 z" />
    </g>
    <g transform="translate(1075.2314,664.9277)" id="g84">
      <path id="path86" style="fill:#ef7f2b;fill-opacity:1;fill-rule:nonzero;stroke:none" d="m 0,0 -0.146,-0.347 -56.517,23.586 9.731,34.49 27.562,-11.436 z" />
    </g>
    <g transform="translate(1075.0859,664.5806)" id="g88">
      <path id="path90" style="fill:#ef7f2b;fill-opacity:1;fill-rule:nonzero;stroke:none" d="m 0,0 -0.402,-0.952 -54.082,-22.378 -7.588,27.235 5.554,19.681 z" />
    </g>
    <g transform="translate(1074.6836,663.6289)" id="g92">
      <path id="path94" style="fill:#d21217;fill-opacity:1;fill-rule:nonzero;stroke:none" d="m 0,0 -19.043,-45.854 -25.527,-10.61 -9.512,34.086 z" />
    </g>
    <g transform="translate(1055.6406,617.7754)" id="g96">
      <path id="path98" style="fill:#ffd153;fill-opacity:1;fill-rule:nonzero;stroke:none" d="m 0,0 -17.043,-41.049 -8.484,30.438 z" />
    </g>
    <g transform="translate(1028.2998,722.6562)" id="g100">
      <path id="path102" style="fill:#d21217;fill-opacity:1;fill-rule:nonzero;stroke:none" d="m 0,0 -9.731,-34.489 -12.48,5.204 -12.134,43.526 z" />
    </g>
    <g transform="translate(1010.249,820.207)" id="g104">
      <path id="path106" style="fill:#d21217;fill-opacity:1;fill-rule:nonzero;stroke:none" d="m 0,0 13.835,-33.042 -28.699,-11.785 -13.744,5.719 -6.817,24.412 z" />
    </g>
    <g transform="translate(1023.792,541.062)" id="g108">
      <path id="path110" style="fill:#ef7f2b;fill-opacity:1;fill-rule:nonzero;stroke:none" d="m 0,0 -13.928,-33.516 -37.791,15.813 6.581,23.329 15.889,6.6 z" />
    </g>
    <g transform="translate(1018.5684,688.167)" id="g112">
      <path id="path114" style="fill:#d21217;fill-opacity:1;fill-rule:nonzero;stroke:none" d="M 0,0 -5.555,-19.681 -12.479,5.205 Z" />
    </g>
    <g transform="translate(1006.0889,693.3716)" id="g116">
      <path id="path118" style="fill:#d21217;fill-opacity:1;fill-rule:nonzero;stroke:none" d="m 0,0 6.925,-24.886 -9.693,-34.381 -54.906,-22.706 -59.523,25.069 -8.265,29.341 7.936,28.131 58.241,24.154 z" />
    </g>
    <g transform="translate(972.0732,523.3594)" id="g120">
      <path id="path122" style="fill:#d21217;fill-opacity:1;fill-rule:nonzero;stroke:none" d="m 0,0 37.791,-15.813 -50.473,-121.504 -13.009,46.236 z" />
    </g>
    <g transform="translate(993.9551,736.8975)" id="g124">
      <path id="path126" style="fill:#d21217;fill-opacity:1;fill-rule:nonzero;stroke:none" d="m 0,0 12.134,-43.526 -59.285,24.722 46.253,19.17 z" />
    </g>
    <g transform="translate(1003.3213,634.105)" id="g128">
      <path id="path130" style="fill:#ffd153;fill-opacity:1;fill-rule:nonzero;stroke:none" d="m 0,0 -11.563,-40.977 -43.343,18.27 z" />
    </g>
    <g transform="translate(995.3848,775.3799)" id="g132">
      <path id="path134" style="fill:#d21217;fill-opacity:1;fill-rule:nonzero;stroke:none" d="M 0,0 -10.902,-4.47 -13.744,5.719 Z" />
    </g>
    <g transform="translate(994.543,553.2876)" id="g136">
      <path id="path138" style="fill:#ef7f2b;fill-opacity:1;fill-rule:nonzero;stroke:none" d="M 0,0 -15.889,-6.599 -12.553,5.24 Z" />
    </g>
    <g transform="translate(993.0566,737.2632)" id="g140">
      <path id="path142" style="fill:#d21217;fill-opacity:1;fill-rule:nonzero;stroke:none" d="m 0,0 -46.253,-19.17 -45.101,18.804 46.348,19.04 z" />
    </g>
    <g transform="translate(948.415,611.3984)" id="g144">
      <path id="path146" style="fill:#ffd153;fill-opacity:1;fill-rule:nonzero;stroke:none" d="m 0,0 43.343,-18.271 -0.608,-2.126 -43.596,-18.106 -45.888,19.169 z" />
    </g>
    <g transform="translate(991.1504,591.0015)" id="g148">
      <path id="path150" style="fill:#ef7f2b;fill-opacity:1;fill-rule:nonzero;stroke:none" d="m 0,0 -9.16,-32.474 -34.437,14.368 z" />
    </g>
    <g transform="translate(981.9902,558.5273)" id="g152">
      <path id="path154" style="fill:#d21217;fill-opacity:1;fill-rule:nonzero;stroke:none" d="m 0,0 -3.336,-11.839 -31.246,-12.994 -33.537,14.039 -2.821,10.006 36.503,15.156 z" />
    </g>
    <g transform="translate(978.6543,546.6885)" id="g156">
      <path id="path158" style="fill:#d21217;fill-opacity:1;fill-rule:nonzero;stroke:none" d="m 0,0 -6.581,-23.329 -24.665,10.335 z" />
    </g>
    <g transform="translate(946.3818,432.2783)" id="g160">
      <path id="path162" style="fill:#ef7f2b;fill-opacity:1;fill-rule:nonzero;stroke:none" d="M 0,0 13.01,-46.236 -0.716,-79.277 -13.654,-48.415 Z" />
    </g>
    <g transform="translate(948.415,611.3984)" id="g164">
      <path id="path166" style="fill:#d21217;fill-opacity:1;fill-rule:nonzero;stroke:none" d="m 0,0 -46.749,-19.334 -0.313,0.13 -12.461,44.273 z" />
    </g>
    <g transform="translate(948.0508,755.937)" id="g168">
      <path id="path170" style="fill:#d21217;fill-opacity:1;fill-rule:nonzero;stroke:none" d="m 0,0 -46.348,-19.04 -0.918,0.382 9.661,34.254 z" />
    </g>
    <g transform="translate(901.666,592.0645)" id="g172">
      <path id="path174" style="fill:#d21217;fill-opacity:1;fill-rule:nonzero;stroke:none" d="M 0,0 45.888,-19.169 9.384,-34.325 -0.238,-0.108 Z" />
    </g>
    <g transform="translate(947.4082,533.6943)" id="g176">
      <path id="path178" style="fill:#ef7f2b;fill-opacity:1;fill-rule:nonzero;stroke:none" d="m 0,0 -26.482,-11.014 -7.055,25.053 z" />
    </g>
    <g transform="translate(946.8037,718.0933)" id="g180">
      <path id="path182" style="fill:#d21217;fill-opacity:1;fill-rule:nonzero;stroke:none" d="m 0,0 -58.241,-24.154 11.985,42.481 1.155,0.477 z" />
    </g>
    <g transform="translate(913.8711,547.7329)" id="g184">
      <path id="path186" style="fill:#ef7f2b;fill-opacity:1;fill-rule:nonzero;stroke:none" d="M 0,0 7.055,-25.052 -32.531,-41.507 -46.529,-8.153 -13.414,5.608 Z" />
    </g>
    <g transform="translate(911.0498,557.7397)" id="g188">
      <path id="path190" style="fill:#ef7f2b;fill-opacity:1;fill-rule:nonzero;stroke:none" d="m 0,0 2.821,-10.007 -13.414,5.608 z" />
    </g>
    <g transform="translate(910.4453,771.5327)" id="g192">
      <path id="path194" style="fill:#d21217;fill-opacity:1;fill-rule:nonzero;stroke:none" d="M 0,0 -9.66,-34.253 -54.742,-15.431 -8.761,3.63 Z" />
    </g>
    <g transform="translate(855.7031,756.1016)" id="g196">
      <path id="path198" style="fill:#d21217;fill-opacity:1;fill-rule:nonzero;stroke:none" d="M 0,0 45.082,-18.822 44.845,-19.682 9.164,-34.325 -0.439,-0.183 Z" />
    </g>
    <g transform="translate(867.3418,539.5801)" id="g200">
      <path id="path202" style="fill:#d21217;fill-opacity:1;fill-rule:nonzero;stroke:none" d="m 0,0 13.998,-33.354 -51.79,-21.536 12.519,44.406 z" />
    </g>
    <g transform="translate(855.2637,755.9185)" id="g204">
      <path id="path206" style="fill:#d21217;fill-opacity:1;fill-rule:nonzero;stroke:none" d="M 0,0 9.604,-34.142 -21.517,-46.914 -2.586,-1.082 Z" />
    </g>
    <g transform="translate(852.6777,754.8364)" id="g208">
      <path id="path210" style="fill:#ef7f2b;fill-opacity:1;fill-rule:nonzero;stroke:none" d="m 0,0 -18.931,-45.832 -32.014,-13.159 -13.544,32.255 z" />
    </g>
    <g transform="translate(842.0684,529.0957)" id="g212">
      <path id="path214" style="fill:#ffd153;fill-opacity:1;fill-rule:nonzero;stroke:none" d="m 0,0 -12.519,-44.405 -106.694,-44.348 19.554,47.37 z" />
    </g>
  </g>
</svg>