<?xml version="1.0" standalone="no"?>
<!DOCTYPE svg PUBLIC "-//W3C//DTD SVG 20010904//EN"
 "http://www.w3.org/TR/2001/REC-SVG-20010904/DTD/svg10.dtd">
<svg version="1.0" xmlns="http://www.w3.org/2000/svg"
 width="500.000000pt" height="500.000000pt" viewBox="0 0 500.000000 500.000000"
 preserveAspectRatio="xMidYMid meet">

<g transform="translate(0.000000,500.000000) scale(0.100000,-0.100000)"
fill="#000000" stroke="none">
<path d="M2385 4409 c-124 -53 -299 -125 -552 -230 -82 -33 -184 -76 -228 -94
-44 -18 -132 -54 -195 -80 -63 -26 -142 -58 -175 -71 -81 -34 -124 -56 -129
-69 -28 -68 -190 -458 -232 -555 -166 -393 -344 -834 -344 -851 0 -12 113
-299 150 -384 10 -22 46 -107 80 -190 34 -82 84 -204 112 -270 28 -66 70 -165
93 -220 23 -55 59 -140 79 -190 56 -138 68 -158 106 -178 19 -9 161 -69 315
-133 154 -63 316 -130 360 -149 44 -19 157 -65 250 -103 94 -39 231 -95 304
-126 74 -31 143 -56 153 -56 9 0 59 18 110 41 51 22 109 47 128 54 55 21 122
48 320 130 102 43 259 108 350 146 91 37 241 101 334 141 l170 73 29 70 c16
39 44 106 62 150 19 44 52 125 75 180 23 55 48 114 55 130 6 17 22 53 33 80
12 28 56 133 98 235 80 196 163 395 196 470 42 96 42 103 -17 235 -7 17 -41
100 -75 185 -34 85 -68 169 -75 185 -8 17 -45 107 -83 200 -39 94 -82 197 -97
230 -15 33 -47 112 -71 175 -25 63 -64 157 -86 208 -47 106 -46 105 -235 181
-54 22 -147 61 -208 86 -60 26 -135 57 -165 70 -30 12 -134 55 -230 95 -96 40
-236 97 -310 127 -74 30 -164 68 -199 84 -103 47 -119 46 -256 -12z m271 -224
c60 -25 118 -49 129 -54 35 -16 258 -109 315 -131 54 -21 176 -72 215 -90 11
-5 108 -45 215 -89 163 -67 196 -83 198 -102 2 -12 -12 -78 -32 -148 -107
-371 -172 -601 -206 -726 -21 -77 -49 -178 -63 -225 -23 -80 -57 -203 -129
-465 -16 -60 -33 -121 -38 -135 -5 -14 -30 -104 -55 -200 -63 -237 -69 -254
-92 -258 -15 -2 -191 61 -298 108 -286 124 -300 129 -320 112 -6 -5 -41 -21
-80 -37 -38 -16 -92 -39 -120 -51 -132 -59 -349 -142 -361 -137 -14 5 -21 27
-78 235 -19 68 -55 200 -81 293 -26 94 -51 188 -56 210 -4 22 -15 63 -23 90
-26 82 -29 64 65 395 42 151 138 499 149 545 4 17 22 78 39 137 18 59 30 111
27 116 -5 9 -108 54 -350 154 -71 29 -131 58 -133 64 -2 5 23 21 54 33 32 13
72 30 88 37 17 7 102 43 190 79 88 36 169 69 180 74 339 144 502 210 521 210
12 1 70 -19 130 -44z m-1260 -585 c204 -87 228 -97 278 -116 26 -11 50 -24 53
-31 3 -7 -4 -41 -16 -75 -11 -35 -31 -106 -45 -158 -13 -52 -49 -183 -79 -290
-31 -107 -72 -253 -93 -325 -20 -71 -63 -229 -96 -350 -32 -121 -77 -283 -99
-360 -22 -77 -56 -198 -75 -270 -19 -71 -39 -134 -44 -139 -12 -12 -42 40 -81
139 -18 44 -36 85 -40 90 -4 6 -50 116 -102 245 -52 129 -105 258 -117 285
-12 28 -37 87 -56 133 l-33 82 33 88 c19 48 50 125 71 172 78 181 176 417 301
723 59 144 92 207 108 207 7 0 66 -23 132 -50z m2538 -242 c30 -78 96 -237
127 -305 10 -23 19 -45 19 -48 0 -5 67 -169 90 -220 5 -11 21 -49 36 -85 14
-36 39 -94 56 -130 39 -86 44 -114 25 -158 -9 -20 -37 -86 -62 -147 -25 -60
-50 -119 -55 -130 -13 -27 -93 -225 -201 -495 -123 -305 -144 -353 -161 -364
-11 -6 -53 7 -144 43 -280 114 -334 139 -334 154 0 21 189 708 351 1276 34
118 69 246 79 285 9 39 31 118 48 176 18 58 39 131 48 163 22 81 42 78 78 -15z
m-2332 -1431 c15 -48 50 -169 78 -269 122 -446 105 -405 158 -382 21 9 91 38
157 66 66 27 138 57 160 67 22 10 115 49 207 85 l168 67 117 -46 c103 -41 225
-93 368 -155 22 -9 148 -61 280 -115 132 -54 246 -102 253 -108 25 -20 10 -33
-76 -66 -48 -18 -100 -39 -117 -47 -16 -7 -64 -26 -105 -42 -41 -16 -163 -66
-270 -112 -331 -139 -433 -180 -452 -180 -11 0 -40 9 -66 19 -146 59 -275 112
-422 174 -91 38 -230 96 -310 129 -80 32 -172 71 -205 85 -65 28 -102 43 -152
63 -58 22 -58 24 -4 217 28 98 69 246 91 328 67 244 91 316 103 312 6 -2 24
-42 39 -90z"/>
</g>
</svg>
