<?xml version="1.0" standalone="no"?>
<!DOCTYPE svg PUBLIC "-//W3C//DTD SVG 20010904//EN"
 "http://www.w3.org/TR/2001/REC-SVG-20010904/DTD/svg10.dtd">
<svg version="1.0" xmlns="http://www.w3.org/2000/svg"
 width="249.000000pt" height="229.000000pt" viewBox="0 0 249.000000 229.000000"
 preserveAspectRatio="xMidYMid meet">

<g transform="translate(0.000000,229.000000) scale(0.100000,-0.100000)"
fill="#000000" stroke="none">
<path d="M1305 1729 c-46 -7 -57 -15 -150 -109 -55 -56 -111 -112 -124 -125
-27 -27 -43 -65 -73 -170 -39 -139 -40 -154 -17 -225 24 -75 44 -129 69 -185
43 -96 50 -118 50 -155 0 -35 -5 -43 -32 -60 -55 -34 -127 -51 -244 -59 l-110
-7 -77 -76 c-67 -66 -77 -81 -77 -112 0 -19 5 -47 10 -62 l10 -26 118 7 c64 4
118 8 120 10 2 2 -2 21 -9 43 -10 36 -9 43 10 71 25 35 137 102 158 94 10 -4
0 -18 -34 -49 -45 -39 -47 -44 -32 -59 14 -14 47 -18 190 -24 96 -4 190 -6
209 -6 l35 2 3 121 c1 67 0 122 -3 122 -4 0 -32 -18 -62 -40 -31 -22 -60 -40
-65 -40 -4 0 -8 75 -8 168 0 147 -2 171 -20 202 -46 84 -62 125 -60 159 0 20
1 69 1 109 1 48 5 72 12 72 7 0 46 14 87 30 54 22 86 43 116 75 28 31 50 45
67 45 34 0 57 -25 57 -60 0 -16 10 -45 21 -65 20 -33 21 -45 14 -136 -6 -93
-5 -105 20 -176 22 -61 26 -88 23 -144 -4 -75 -1 -70 -95 -134 l-53 -36 0
-133 0 -133 78 -6 c52 -3 115 2 192 15 146 24 150 25 150 49 0 35 19 20 30
-23 26 -101 17 -93 106 -89 43 1 82 5 87 8 4 2 7 30 7 63 0 55 -3 61 -45 108
-53 59 -91 75 -217 92 -68 9 -98 19 -133 42 -25 16 -45 34 -45 38 0 4 15 31
34 58 19 28 42 71 51 96 17 45 17 47 -9 130 -27 83 -31 134 -11 139 6 1 13
-22 17 -52 5 -42 13 -61 41 -90 23 -23 37 -50 41 -76 14 -82 29 -145 36 -145
11 0 19 96 22 245 2 145 -1 156 -71 255 -22 30 -44 77 -50 103 -6 26 -18 62
-27 79 -21 41 -129 176 -160 201 -22 17 -107 49 -123 46 -3 -1 -28 -5 -56 -10z"/>
</g>
</svg>
