<svg xmlns="http://www.w3.org/2000/svg" xmlns:xlink="http://www.w3.org/1999/xlink" version="1.1" id="Capa_1" x="0px" y="0px" viewBox="0 0 512 512" style="enable-background:new 0 0 512 512;" xml:space="preserve" width="24" height="24">
    <g>
        <path d="M42.667,373.333H96c23.564,0,42.667,19.103,42.667,42.667v53.333C138.667,492.898,119.564,512,96,512H42.667   C19.103,512,0,492.898,0,469.333V416C0,392.436,19.103,373.333,42.667,373.333z"/>
        
        <path d="M42.667,186.667H96c23.564,0,42.667,19.103,42.667,42.667v53.333c0,23.564-19.103,42.667-42.667,42.667H42.667   C19.103,325.333,0,306.231,0,282.667v-53.333C0,205.769,19.103,186.667,42.667,186.667z"/>
        
        <path d="M42.667,0H96c23.564,0,42.667,19.103,42.667,42.667V96c0,23.564-19.103,42.667-42.667,42.667H42.667   C19.103,138.667,0,119.564,0,96V42.667C0,19.103,19.103,0,42.667,0z"/>
        <path d="M229.333,373.333h240.333c23.564,0,42.667,19.103,42.667,42.667v53.333c0,23.564-19.103,42.667-42.667,42.667h-240.333   c-23.564,0-42.667-19.102-42.667-42.667V416C186.667,392.436,205.769,373.333,229.333,373.333z"/>
        <path d="M229.333,186.667h240.333c23.564,0,42.667,19.103,42.667,42.667v53.333c0,23.564-19.103,42.667-42.667,42.667h-240.333   c-23.564,0-42.667-19.103-42.667-42.667v-53.333C186.667,205.769,205.769,186.667,229.333,186.667z"/>
        <path d="M229.333,0h240.333c23.564,0,42.667,19.103,42.667,42.667V96c0,23.564-19.103,42.667-42.667,42.667h-240.333   c-23.564,0-42.667-19.103-42.667-42.667V42.667C186.667,19.103,205.769,0,229.333,0z"/>
        
    </g>
    
    
    
    
    
    
    
    
    
    
    
    
    
    
    
    </svg>