<svg xmlns="http://www.w3.org/2000/svg" fill="currentColor" x="0px" y="0px" width="100%" viewBox="6 0 688 215">
    <path d=" M465.999939,175.346786   C329.517212,175.347565 193.534500,175.355347 57.551804,175.312317   C53.636608,175.311081 50.205257,175.547562 47.056789,178.582474   C43.648914,181.867477 39.649326,180.335220 36.793308,177.472443   C33.752140,174.424088 33.857635,170.488052 36.194496,166.911758   C38.423958,163.499847 43.184792,162.114838 46.263660,164.961868   C50.971176,169.314880 56.289043,168.644913 61.683327,168.646500   C121.675697,168.664185 181.668076,168.657181 241.660446,168.656830   C243.798187,168.656815 245.935944,168.656815 248.813385,168.656815   C242.391586,161.258240 238.011749,153.838440 242.321198,143.521027   C233.594894,147.621063 225.768250,151.421814 217.838593,154.993866   C207.148727,159.809265 195.819992,163.067001 184.198914,163.022125   C170.083847,162.967621 156.829010,159.032394 147.403061,147.377884   C138.381195,136.222961 143.015747,119.546440 155.587936,114.466667   C162.602097,111.632614 168.876465,113.080109 175.018906,116.606407   C178.578445,118.649895 181.310089,121.520660 179.807205,125.902573   C178.712357,129.094818 176.513412,131.923553 172.379623,131.210144   C167.584869,130.382629 166.108780,126.815498 165.716965,122.525284   C165.642349,121.708260 165.706253,120.878586 165.706253,120.066360   C159.537430,118.639442 154.182617,120.532417 151.362930,125.107460   C147.359558,131.603073 147.727982,138.667542 152.711609,144.441116   C159.762573,152.609711 169.182739,155.887817 179.604660,156.635529   C197.765640,157.938461 213.831223,151.214142 229.365891,142.989456   C233.232803,140.942139 237.724777,139.691742 241.116119,135.659134   C235.328506,135.209381 229.942398,135.259155 224.688675,133.524368   C211.701935,129.236176 202.073715,117.507690 200.675461,103.936165   C199.231003,89.916039 203.737061,78.824608 215.928787,71.190742   C226.321426,64.683388 241.290375,65.305664 250.380432,73.430420   C255.795959,78.270828 258.602448,84.713890 257.116730,92.273445   C255.635269,99.811485 250.080368,103.225937 243.309265,105.011864   C238.840057,106.190659 235.057388,104.353134 232.236206,100.966461   C230.264633,98.599709 230.222305,95.801704 232.020142,93.090775   C235.161652,88.353714 241.577255,88.617958 244.138016,93.702850   C244.725159,94.868752 244.880432,96.246887 246.090942,97.028053   C250.725388,95.083778 252.849121,89.714882 250.951523,84.782204   C247.658905,76.223236 237.642029,70.981567 228.626068,73.099640   C212.614517,76.861168 204.938660,86.935059 206.380829,102.294617   C207.783035,117.228699 220.602341,128.384247 235.205643,129.903976   C251.644608,131.614731 263.778595,123.178192 276.553558,115.537224   C287.552521,108.958511 299.169434,104.043823 312.258179,104.738449   C328.245636,105.586899 342.195862,110.659653 350.853790,126.016327   C354.450714,121.669403 357.033386,116.690109 361.838684,113.563828   C378.958405,102.425896 396.729004,102.144760 414.992249,110.099625   C424.762634,114.355270 433.698669,120.197746 442.720734,125.787796   C457.132843,134.717453 481.870239,130.205032 490.582886,116.124382   C500.676331,99.812279 497.442413,76.899208 471.399597,72.539558   C463.439484,71.207024 452.972992,77.992805 450.691467,85.817238   C449.351074,90.414108 451.723236,95.345741 456.261169,97.034904   C456.786804,95.854614 457.191650,94.581268 457.875519,93.481392   C459.606171,90.697922 462.155579,89.252892 465.456787,89.782181   C468.646667,90.293602 470.220123,92.726974 471.044403,95.536674   C471.968231,98.685753 470.328217,101.007301 467.956268,102.856125   C462.784363,106.887375 457.608673,105.235085 452.547119,102.652664   C447.508636,100.082039 445.183929,95.684715 444.683228,90.190315   C443.682068,79.204239 451.940430,70.880966 462.265930,67.830818   C478.985718,62.891773 497.424194,75.354156 500.492737,89.689339   C505.453796,112.865562 491.306274,134.506042 466.932556,135.366150   C465.134521,135.429611 463.332306,135.374481 460.574524,135.374481   C464.644928,139.866013 469.515808,141.405823 473.729614,143.597839   C488.380768,151.219315 503.498779,157.519363 520.614136,156.711151   C530.020020,156.266983 538.580017,153.713379 546.007385,147.877747   C556.222473,139.851807 555.481689,125.151756 544.739502,120.305031   C542.007996,119.072601 539.310669,119.139404 536.462708,119.735237   C535.778076,121.698936 536.337769,123.677017 535.695984,125.635422   C534.553223,129.122910 532.381409,130.922501 528.906372,131.253265   C525.517212,131.575836 523.806824,129.218964 522.410278,126.681740   C520.789490,123.737007 521.838562,120.940231 523.964355,118.943993   C535.032288,108.550751 551.716003,112.357552 557.290039,125.036797   C563.115356,138.287445 555.856995,149.998520 542.972290,156.902328   C528.388184,164.716675 513.073059,164.085495 497.605133,159.747787   C484.573456,156.093277 472.683685,149.759903 459.888763,143.524475   C463.542511,153.592773 460.384979,161.300934 453.187714,167.877502   C455.370544,169.142227 457.393646,168.632172 459.301941,168.633194   C521.127441,168.666000 582.952881,168.641708 644.778320,168.699249   C648.561401,168.702774 651.826416,168.249802 654.891113,165.570572   C658.385132,162.515961 662.602234,163.230896 665.485779,166.632339   C668.084778,169.698273 667.987061,174.919586 665.280457,177.605042   C662.083618,180.776886 657.609131,181.393845 654.520935,178.333389   C651.819458,175.656113 648.893616,175.318863 645.472778,175.321228   C585.815186,175.362549 526.157532,175.348526 465.999939,175.346786  M263.731812,153.067719   C263.620026,149.745911 263.090759,146.381973 267.040527,144.486038   C270.097961,143.018417 272.533325,143.940323 274.851746,145.804092   C278.037994,148.365479 278.992523,151.773010 278.013855,155.653091   C276.786072,160.520737 274.874908,165.033661 268.889587,168.360901   C285.060608,168.360901 299.579590,168.360901 313.853607,168.360901   C311.899536,166.202713 309.784790,164.114334 307.956940,161.799438   C303.434509,156.071869 303.602692,149.755600 306.431427,143.478882   C309.022552,137.729462 314.399231,135.585052 320.129639,134.854370   C323.498138,134.424850 326.610901,136.025803 328.441528,139.258087   C329.921692,141.871628 329.579437,144.429062 327.873199,146.748199   C326.097656,149.161621 323.463196,149.509079 320.691742,149.248886   C317.233429,148.924210 316.423431,145.530762 314.469971,143.504135   C310.696106,147.031082 309.645691,150.068314 310.647522,154.180542   C312.441803,161.545654 321.200317,166.332932 329.271515,164.208496   C340.149475,161.345291 345.090027,153.108017 347.208801,143.017685   C349.109039,133.967834 345.797028,126.262177 338.759827,120.422569   C327.370575,110.971573 314.366302,108.287949 300.041534,111.949165   C282.925629,116.323761 268.758301,126.398964 254.852570,136.481384   C245.659073,143.147202 244.551270,151.601929 249.229706,159.587204   C251.538406,163.527756 255.181381,164.965073 259.355438,164.546249   C263.469635,164.133423 267.949890,163.755966 270.051544,158.965210   C267.493408,157.538406 264.733307,156.833588 263.731812,153.067719  M429.718811,124.908043   C425.708801,122.562523 421.806122,120.005249 417.669861,117.908844   C401.480438,109.703484 385.181396,106.773712 368.401672,116.648560   C352.502197,126.005394 349.597595,144.361496 362.132874,158.043930   C367.958893,164.403107 376.420288,166.406097 383.912506,163.008484   C388.697327,160.838638 391.403717,157.000244 391.582764,151.708786   C391.697845,148.306244 390.568939,145.362122 387.113647,143.524887   C386.582458,144.519760 386.253052,145.261017 385.816620,145.932755   C383.847931,148.962997 381.032043,149.992142 377.610199,149.051056   C374.527649,148.203293 372.904114,145.940140 372.766663,142.821442   C372.608276,139.228729 374.524506,137.026901 377.814667,135.642761   C385.914062,132.235413 396.264282,139.697708 397.390289,149.413605   C398.387573,158.019257 393.708557,163.333237 387.064026,168.341049   C402.290955,168.341049 416.814148,168.341049 432.108704,168.341049   C430.558533,166.957504 429.484680,166.196487 428.655487,165.226334   C424.039825,159.826035 420.437134,149.445648 428.443817,144.828506   C433.162018,142.107666 437.807953,144.769226 438.411743,150.180283   C438.956543,155.062988 435.886230,157.258926 432.426788,159.285461   C439.183655,167.601166 450.407288,166.012634 454.218628,156.650375   C457.174316,149.389877 454.199646,143.737289 449.498108,138.603439   C444.128052,132.739624 436.756592,129.689041 429.718811,124.908043  M352.509308,168.665955   C356.778229,168.418472 361.117523,169.170105 365.958893,168.079742   C358.913422,164.516861 355.026001,158.768692 350.896973,152.849091   C347.150208,158.973175 342.947723,164.191345 335.719696,168.665649   C341.996185,168.665649 346.762207,168.665649 352.509308,168.665955  z"/>
    <path d=" M367.452057,91.126846   C364.906738,99.087776 360.822937,105.582832 355.020630,111.084732   C352.111084,113.843636 349.865112,113.755325 346.939240,111.045006   C328.694733,94.144386 326.894745,63.769341 343.130737,44.870998   C343.773529,44.122810 344.245300,43.230507 344.842651,42.439999   C348.505951,37.592102 352.833374,37.178387 356.689178,41.751785   C368.824097,56.145237 373.460236,72.296761 367.452057,91.126846  M355.181885,101.712822   C370.281677,83.723152 363.640503,53.608139 350.617828,45.907444   C334.000336,60.307869 333.731934,91.624954 351.095062,106.057449   C352.865082,105.345795 354.068207,104.053619 355.181885,101.712822  z"/>
    <path d=" M329.328888,86.256195   C329.324921,89.547096 329.442657,92.381409 329.284302,95.200203   C328.993317,100.380859 326.203217,102.588966 321.308929,101.010307   C301.920654,94.756599 294.784576,79.787827 296.891876,61.760723   C297.396637,57.442577 300.072083,55.945702 304.319733,56.866177   C317.463898,59.714531 328.297607,72.198158 329.328888,86.256195  M319.274139,74.214134   C316.333557,69.349525 312.104218,66.025803 306.869446,63.949944   C304.851959,63.149918 302.901031,62.776066 302.405121,65.805977   C300.378418,78.188873 311.129425,93.937653 323.263641,94.707260   C324.407227,87.645470 323.507629,80.976448 319.274139,74.214134  z"/>
    <path d=" M405.309357,63.380035   C406.428467,80.305618 400.227966,92.563080 384.779083,99.500046   C382.805359,100.386299 380.805115,101.084656 378.622284,101.308746   C375.061829,101.674271 373.181030,99.768425 372.797821,96.606422   C370.569733,78.221474 378.174866,63.726685 395.508423,57.634243   C402.145691,55.301361 403.491486,56.165844 405.309357,63.380035  M378.344055,92.620171   C378.495453,96.503464 380.904144,94.675980 382.499603,94.113594   C392.725677,90.509003 399.858826,79.612007 399.652496,68.095139   C399.563019,63.100033 398.511536,62.315605 394.062927,64.423836   C382.512512,69.897697 377.889191,79.432388 378.344055,92.620171  z"/>
</svg>