<svg xmlns="http://www.w3.org/2000/svg" fill="currentColor" x="0px" y="0px" width="100%" viewBox="0 280 688 88">
    <path d=" M340.000061,320.658142   C442.129425,320.655334 543.758728,320.654907 645.388062,320.639984   C648.310608,320.639557 651.054993,320.963348 653.491272,318.123962   C656.437317,314.690399 661.965881,315.027130 665.144287,318.031738   C667.953308,320.687012 668.115723,326.285492 665.476562,329.482086   C662.748291,332.786591 656.897522,333.842560 653.886902,330.507141   C650.727966,327.007416 647.219971,327.381775 643.479126,327.381531   C448.050934,327.369324 252.622711,327.372894 57.194515,327.339233   C53.805168,327.338654 50.975483,327.557312 48.299900,330.423309   C45.260139,333.679413 39.448555,332.852325 36.652763,329.612030   C34.076962,326.626678 33.996029,321.427216 36.480267,318.532501   C39.325298,315.217468 44.762257,314.499268 48.069473,317.691284   C50.791737,320.318695 53.687874,320.684631 57.103889,320.683258   C151.235947,320.645416 245.367996,320.656006 340.000061,320.658142  z"/>
</svg>