<svg xmlns="http://www.w3.org/2000/svg" fill="currentColor" x="0px" y="0px" width="100%" viewBox="6 335 688 175">
    <path d=" M328.061127,424.984131   C321.220367,423.828705 314.146332,424.644196 307.440521,422.155762   C296.900055,418.244293 287.780060,411.786346 278.187500,406.190643   C263.712494,397.746918 249.515198,388.661316 232.589493,385.860291   C221.762146,384.068481 211.613281,385.662415 203.838577,394.335449   C198.759491,400.001434 200.368912,408.154480 206.923935,410.928070   C209.579178,412.051514 212.321106,412.635986 212.649979,408.340668   C212.855667,405.654327 214.107010,403.973877 216.903183,403.718109   C219.352707,403.494049 221.824112,403.733459 222.830627,406.312012   C223.908432,409.073212 223.868027,412.151001 221.315338,414.083527   C216.489014,417.737244 211.226883,419.695831 205.088669,417.013397   C199.102829,414.397552 195.415436,410.142334 194.692230,403.562042   C193.706818,394.595856 198.328156,388.621246 205.523743,384.393250   C216.982254,377.660370 229.186111,377.957703 241.554138,381.341187   C250.225342,383.713318 258.308197,387.603668 266.612183,391.687988   C268.265381,388.258331 267.715393,384.648804 269.245636,381.484589   C272.410828,374.939728 278.806976,372.615845 283.777527,372.884186   C290.023102,373.221375 295.697357,378.066803 297.042145,383.376099   C297.731201,386.096527 297.442169,388.802826 296.083893,391.117981   C294.258392,394.229523 291.161285,395.362579 287.984589,393.588623   C284.788422,391.803772 285.119385,388.591003 286.431976,385.669922   C286.936371,384.547363 288.112885,383.726837 288.975372,382.777283   C284.867920,378.777405 280.960663,378.343536 277.461731,381.324982   C273.998688,384.275726 273.332397,390.686279 275.892517,394.553741   C279.045990,399.317474 283.912476,401.933990 288.540405,404.778778   C296.430756,409.629028 303.971069,415.472107 313.339325,417.111023   C326.025696,419.330414 338.311890,416.582733 345.187683,406.018707   C352.110687,395.382172 343.010132,381.698578 334.233917,379.659821   C330.769409,378.855011 324.515686,381.631287 322.516785,384.850403   C320.902832,387.449463 321.058868,388.418671 323.641296,391.835510   C324.990692,392.068573 325.702301,390.974579 326.682953,390.411072   C328.953583,389.106201 331.249817,389.438354 333.239014,390.906281   C335.151550,392.317627 335.790344,394.443909 334.967010,396.693939   C334.086700,399.099823 332.789612,401.072021 329.741638,401.334351   C324.659149,401.771667 318.651886,399.197815 316.928101,395.337280   C315.148224,391.351105 314.964081,382.845490 318.504547,379.302185   C326.579865,371.220520 340.976318,371.785492 347.891235,380.989014   C348.865570,382.285919 349.821747,383.596497 351.009888,385.203003   C354.200867,380.437256 357.523651,376.313507 362.951538,374.714813   C368.538116,373.069336 374.083466,372.688568 379.333191,375.776215   C385.575623,379.447723 387.924438,385.748627 385.894623,392.986694   C384.420105,398.244659 379.820129,401.239899 373.753204,401.378326   C370.130737,401.460968 368.137817,399.775970 367.059692,396.621857   C366.275848,394.328674 366.828430,392.221100 368.815491,390.873199   C371.420410,389.106140 374.091919,389.065582 376.541809,391.403290   C376.981750,391.823059 377.656464,391.996826 378.260986,392.303528   C380.694336,389.871246 381.421539,387.258301 379.183167,384.686890   C376.258209,381.326691 372.537628,378.761261 367.892395,379.679871   C356.799316,381.873505 350.878052,396.758575 357.114441,406.228485   C364.376434,417.255768 375.634033,419.543732 387.060181,417.274353   C401.757538,414.355286 414.019257,405.770477 425.076660,395.734558   C427.181976,393.823730 427.710236,391.226929 427.660004,388.440826   C427.590790,384.600342 426.044373,381.555115 422.563812,379.979309   C419.221649,378.466095 416.207123,379.717438 413.630646,381.817963   C413.429230,383.900574 415.170074,384.560211 415.790955,385.868134   C417.217133,388.872528 416.064453,393.311798 413.337524,393.985962   C410.040131,394.801178 407.057434,394.200409 405.627014,390.437622   C404.022552,386.216736 404.188751,382.119934 407.260376,378.774841   C410.848694,374.867096 415.363983,372.104553 420.914459,373.130157   C430.318634,374.867859 433.059113,378.739410 434.832397,392.128387   C442.475647,388.158447 450.065613,384.522095 458.106415,382.010040   C471.223175,377.912231 484.104919,377.489258 496.573303,384.360046   C505.293793,389.165466 509.373444,398.313965 506.537048,406.989288   C503.080414,417.561798 490.281799,421.420715 481.396240,414.702179   C478.497681,412.510529 478.185303,409.699158 478.996368,406.725555   C479.716858,404.083954 482.064392,403.510284 484.621704,403.692871   C487.923981,403.928680 489.135468,405.855377 489.400452,408.945831   C489.722748,412.705353 492.456909,411.910828 494.611908,411.134491   C501.414612,408.683777 503.364899,399.898132 498.212555,394.322388   C490.362122,385.826935 480.263702,384.088104 469.411316,385.831177   C453.494934,388.387604 439.999023,396.713440 426.362183,404.585938   C418.746246,408.982605 411.421875,413.904541 403.685089,418.067474   C386.674103,427.220520 366.718536,428.294708 350.719055,409.874420   C345.359650,418.002808 336.966980,421.420837 328.166992,424.715851   C328.018311,425.004700 328.061127,424.984131 328.061127,424.984131  z"/>
    <path d=" M365.421692,436.066345   C368.341400,450.400360 364.804901,462.356262 354.628265,472.329407   C352.589111,474.327850 350.548553,475.189453 348.127014,473.050110   C331.437805,458.305634 331.783905,432.607666 346.362518,418.533813   C349.619232,415.389832 352.368195,415.413147 355.710266,418.564362   C360.744049,423.310547 363.534210,429.167297 365.421692,436.066345  M356.809631,431.600525   C355.130219,428.705963 354.488190,424.965240 350.744568,423.736847   C338.190918,435.068329 339.797485,458.683655 351.297028,465.988617   C360.250092,457.681885 362.582855,444.296509 356.809631,431.600525  z"/>
    <path d=" M367.199951,440.168213   C366.456268,435.811279 366.449829,431.932800 367.512848,427.976410   C368.313751,424.995789 370.072235,424.214905 372.637054,424.762238   C387.440582,427.921204 396.144470,443.608795 392.581299,456.329102   C391.440338,460.402313 389.282471,460.880188 386.000671,459.876556   C376.239655,456.891327 369.751434,450.692535 367.199951,440.168213  M372.416138,434.225800   C373.317322,443.067047 377.229004,449.744019 385.995087,453.365326   C386.505402,452.418304 387.077698,451.761200 387.224457,451.019867   C388.396942,445.097137 381.058685,433.735840 375.171143,432.104004   C373.649719,431.682343 373.022369,432.339325 372.416138,434.225800  z"/>
    <path d=" M327.999969,425.019653   C332.103088,423.850128 333.867157,425.506256 334.832703,429.643066   C337.881470,442.704987 328.313385,457.856445 315.168243,460.172577   C312.163513,460.701996 310.389954,459.869812 309.475128,456.411255   C306.071899,443.544617 313.769592,429.948822 327.754822,425.155701   C328.061127,424.984131 328.018311,425.004700 327.999969,425.019653  M315.081665,452.007751   C316.245636,454.080048 317.583771,452.833099 318.814941,452.149231   C324.346008,449.076904 327.497498,444.290344 328.900879,438.196869   C329.412109,435.977112 330.530853,433.788177 328.342377,431.876129   C320.298737,433.905670 314.672485,442.378448 315.081665,452.007751  z"/>
</svg>