<svg id="Layer_1" data-name="Layer 1" xmlns="http://www.w3.org/2000/svg" xmlns:xlink="http://www.w3.org/1999/xlink" viewBox="0 0 158.68 251.62"><defs><style>.cls-1{fill:url(#radial-gradient);}.cls-2{fill:#bebdbe;}.cls-3{fill:#a9a9aa;}.cls-4{font-size:21px;fill:#f39200;stroke-width:0.5px;font-family:ShowcardGothic-Reg, Showcard Gothic;}.cls-20,.cls-21,.cls-4{stroke:#3c3c3b;stroke-miterlimit:10;}.cls-5{fill:#3b3d3e;}.cls-6{fill:#ddd;}.cls-7{fill:#ed6e42;}.cls-8{fill:#f9c8b7;}.cls-9{fill:#f08454;}.cls-10{fill:#f7b8a5;}.cls-11{fill:#2c1923;}.cls-12{fill:#f5a794;}.cls-13{fill:#555657;}.cls-14{fill:#ba9b8e;}.cls-15{fill:#ceb3a5;}.cls-16{fill:#f7b6a4;}.cls-17{fill:#f9c6b5;}.cls-18{fill:#fff;}.cls-19{fill:#aeadad;}.cls-20{fill:#936037;stroke-width:0.75px;}.cls-21{font-size:18.4px;fill:#f9b233;font-family:Impact;}</style><radialGradient id="radial-gradient" cx="79.34" cy="125.81" r="129.56" gradientUnits="userSpaceOnUse"><stop offset="0" stop-color="#878787"/><stop offset="0.54" stop-color="#3b3b3a"/><stop offset="0.79" stop-color="#1d1d1b"/></radialGradient></defs><rect class="cls-1" width="158.68" height="251.62" rx="8.56"/><polygon class="cls-2" points="16.23 225.8 119 167.97 119 8.98 16.23 66.81 16.23 225.8"/><path class="cls-3" d="M114,165,98.7,173.58c-.32.18-.58,0-.58-.43V167a1.34,1.34,0,0,1,.58-1.08L114,157.31c.31-.17.57,0,.57.43v6.18A1.36,1.36,0,0,1,114,165Z" transform="translate(-0.19 -0.42)"/><path class="cls-3" d="M104.79,158.76l-15.25,8.58c-.31.18-.57,0-.57-.43v-6.18a1.37,1.37,0,0,1,.57-1.08l15.25-8.58c.32-.17.58,0,.58.43v6.19A1.34,1.34,0,0,1,104.79,158.76Z" transform="translate(-0.19 -0.42)"/><path class="cls-3" d="M114,142,98.7,150.58c-.32.17-.58,0-.58-.43V144a1.34,1.34,0,0,1,.58-1.07L114,134.31c.31-.18.57,0,.57.43v6.18A1.37,1.37,0,0,1,114,142Z" transform="translate(-0.19 -0.42)"/><path class="cls-3" d="M104.79,135.76l-15.25,8.58c-.31.17-.57,0-.57-.43v-6.18a1.36,1.36,0,0,1,.57-1.08l15.25-8.58c.32-.18.58,0,.58.43v6.18A1.34,1.34,0,0,1,104.79,135.76Z" transform="translate(-0.19 -0.42)"/><path class="cls-3" d="M86.17,169.6l-15.25,8.58c-.32.18-.58,0-.58-.42v-6.19a1.34,1.34,0,0,1,.58-1.07l15.25-8.58c.31-.18.57,0,.57.42v6.19A1.35,1.35,0,0,1,86.17,169.6Z" transform="translate(-0.19 -0.42)"/><path class="cls-3" d="M95.32,152.84l-15.25,8.58c-.31.18-.57,0-.57-.43v-6.18a1.34,1.34,0,0,1,.57-1.07l15.25-8.58c.32-.18.58,0,.58.42v6.19A1.34,1.34,0,0,1,95.32,152.84Z" transform="translate(-0.19 -0.42)"/><path class="cls-3" d="M67.27,157.23,52,165.81c-.31.18-.57,0-.57-.43V159.2a1.37,1.37,0,0,1,.57-1.08l15.25-8.58c.32-.17.58,0,.58.43v6.19A1.34,1.34,0,0,1,67.27,157.23Z" transform="translate(-0.19 -0.42)"/><path class="cls-3" d="M76.43,140.47,61.18,149c-.32.18-.58,0-.58-.42v-6.19a1.34,1.34,0,0,1,.58-1.07l15.25-8.58c.32-.18.57,0,.57.43v6.18A1.35,1.35,0,0,1,76.43,140.47Z" transform="translate(-0.19 -0.42)"/><path class="cls-3" d="M95.33,106.31l-15.25,8.58c-.31.18-.57,0-.57-.42v-6.19a1.35,1.35,0,0,1,.57-1.07l15.25-8.58c.32-.18.58,0,.58.42v6.19A1.32,1.32,0,0,1,95.33,106.31Z" transform="translate(-0.19 -0.42)"/><path class="cls-3" d="M85.86,123.4,70.61,132c-.31.17-.57,0-.57-.43v-6.18a1.36,1.36,0,0,1,.57-1.08l15.25-8.58c.32-.18.58,0,.58.43v6.18A1.34,1.34,0,0,1,85.86,123.4Z" transform="translate(-0.19 -0.42)"/><path class="cls-3" d="M76.71,117.16l-15.25,8.58c-.32.18-.58,0-.58-.43v-6.18a1.34,1.34,0,0,1,.58-1.08l15.25-8.58c.31-.17.57,0,.57.43v6.18A1.36,1.36,0,0,1,76.71,117.16Z" transform="translate(-0.19 -0.42)"/><path class="cls-3" d="M57.81,127.79l-15.25,8.58c-.31.17-.57,0-.57-.43v-6.19a1.35,1.35,0,0,1,.57-1.07l15.25-8.58c.32-.18.58,0,.58.43v6.18A1.35,1.35,0,0,1,57.81,127.79Z" transform="translate(-0.19 -0.42)"/><path class="cls-3" d="M67,111,51.72,119.6c-.32.18-.58,0-.58-.42V113a1.34,1.34,0,0,1,.58-1.07L67,103.34c.32-.18.57,0,.57.42V110A1.33,1.33,0,0,1,67,111Z" transform="translate(-0.19 -0.42)"/><path class="cls-3" d="M86,76.81,70.78,85.39c-.31.18-.57,0-.57-.42V78.78a1.35,1.35,0,0,1,.57-1.07L86,69.13c.32-.18.58,0,.58.42v6.19A1.34,1.34,0,0,1,86,76.81Z" transform="translate(-0.19 -0.42)"/><path class="cls-3" d="M76.56,93.89l-15.25,8.58c-.31.18-.57,0-.57-.42V95.86a1.35,1.35,0,0,1,.57-1.07l15.25-8.58c.32-.18.58,0,.58.43v6.18A1.32,1.32,0,0,1,76.56,93.89Z" transform="translate(-0.19 -0.42)"/><path class="cls-3" d="M67.41,87.66,52.16,96.24c-.32.17-.58,0-.58-.43V89.62a1.34,1.34,0,0,1,.58-1.07L67.41,80c.31-.18.57,0,.57.43v6.18A1.37,1.37,0,0,1,67.41,87.66Z" transform="translate(-0.19 -0.42)"/><path class="cls-3" d="M48.51,98.28l-15.24,8.58c-.32.18-.58,0-.58-.42v-6.19a1.34,1.34,0,0,1,.58-1.07L48.51,90.6c.32-.18.58,0,.58.43v6.18A1.32,1.32,0,0,1,48.51,98.28Z" transform="translate(-0.19 -0.42)"/><path class="cls-3" d="M57.67,81.52,42.42,90.1c-.32.18-.57,0-.57-.42V83.49a1.33,1.33,0,0,1,.57-1.07l15.25-8.58c.32-.18.58,0,.58.42v6.19A1.34,1.34,0,0,1,57.67,81.52Z" transform="translate(-0.19 -0.42)"/><path class="cls-3" d="M48.51,75.28,33.27,83.86c-.32.18-.58,0-.58-.42V77.25a1.34,1.34,0,0,1,.58-1.07L48.51,67.6c.32-.18.58,0,.58.42v6.19A1.34,1.34,0,0,1,48.51,75.28Z" transform="translate(-0.19 -0.42)"/><path class="cls-3" d="M114.09,49.38,98.84,58c-.31.18-.57,0-.57-.43V51.35a1.37,1.37,0,0,1,.57-1.08l15.25-8.57c.32-.18.58,0,.58.42v6.19A1.34,1.34,0,0,1,114.09,49.38Z" transform="translate(-0.19 -0.42)"/><path class="cls-3" d="M104.62,66.46,89.37,75c-.31.18-.57,0-.57-.42V68.43a1.35,1.35,0,0,1,.57-1.07l15.25-8.58c.32-.18.58,0,.58.42v6.19A1.34,1.34,0,0,1,104.62,66.46Z" transform="translate(-0.19 -0.42)"/><path class="cls-3" d="M76.57,70.85,61.32,79.43c-.31.18-.57,0-.57-.42V72.82a1.34,1.34,0,0,1,.57-1.07l15.25-8.58c.32-.18.58,0,.58.42v6.19A1.34,1.34,0,0,1,76.57,70.85Z" transform="translate(-0.19 -0.42)"/><path class="cls-3" d="M58.47,197.7l-15.25,8.58c-.32.18-.58,0-.58-.43v-6.18a1.32,1.32,0,0,1,.58-1.07L58.47,190c.31-.18.57,0,.57.42v6.19A1.35,1.35,0,0,1,58.47,197.7Z" transform="translate(-0.19 -0.42)"/><path class="cls-3" d="M48.73,191.56l-15.25,8.58c-.31.18-.57,0-.57-.42v-6.19a1.35,1.35,0,0,1,.57-1.07l15.25-8.58c.32-.18.58,0,.58.43v6.18A1.32,1.32,0,0,1,48.73,191.56Z" transform="translate(-0.19 -0.42)"/><path class="cls-3" d="M58.32,174.44,43.08,183c-.32.17-.58,0-.58-.43v-6.18a1.34,1.34,0,0,1,.58-1.08l15.24-8.58c.32-.17.58,0,.58.43v6.18A1.34,1.34,0,0,1,58.32,174.44Z" transform="translate(-0.19 -0.42)"/><path class="cls-3" d="M49.17,168.2l-15.25,8.58c-.32.18-.58,0-.58-.43v-6.18a1.34,1.34,0,0,1,.58-1.08l15.25-8.58c.32-.17.57,0,.57.43v6.19A1.33,1.33,0,0,1,49.17,168.2Z" transform="translate(-0.19 -0.42)"/><path class="cls-3" d="M39.43,162.06l-15.25,8.58c-.31.18-.57,0-.57-.42V164a1.35,1.35,0,0,1,.57-1.07l15.25-8.58c.32-.18.58,0,.58.42V161A1.32,1.32,0,0,1,39.43,162.06Z" transform="translate(-0.19 -0.42)"/><path class="cls-3" d="M58.33,151.39,43.09,160c-.32.18-.58,0-.58-.42v-6.19a1.34,1.34,0,0,1,.58-1.07l15.24-8.58c.32-.18.58,0,.58.42v6.19A1.34,1.34,0,0,1,58.33,151.39Z" transform="translate(-0.19 -0.42)"/><path class="cls-3" d="M85.73,54.09,70.48,62.67c-.32.18-.58,0-.58-.43V56.06A1.34,1.34,0,0,1,70.48,55L85.73,46.4c.31-.17.57,0,.57.43V53A1.36,1.36,0,0,1,85.73,54.09Z" transform="translate(-0.19 -0.42)"/><path class="cls-3" d="M76.57,47.85,61.32,56.43c-.31.18-.57,0-.57-.43V49.82a1.37,1.37,0,0,1,.57-1.08l15.25-8.57c.32-.18.58,0,.58.42v6.19A1.34,1.34,0,0,1,76.57,47.85Z" transform="translate(-0.19 -0.42)"/><text id="CHAMAR_O_GREGÓRIO" data-name="CHAMAR O GREGÓRIO" class="cls-4" transform="translate(41.94 25.57) scale(1.01 1)">CÁBULA<tspan x="-12.55" y="19.2">CABULOSA</tspan></text><path class="cls-5" d="M125.88,217.78c-1-1.18-.14-2.45,1-3.46a2.36,2.36,0,0,1-1.27-1.69,23,23,0,0,1,5.37-.06c1.27.28,2.28,4,2.59,5.45.78,3.76.84,6.5-2.34,7.75-1,.41-2.12-.27-2.61-1.79A59.59,59.59,0,0,0,125.88,217.78Z" transform="translate(-0.19 -0.42)"/><path class="cls-6" d="M130.1,212.39s.73,1.63,1.64,3.39,2.2,4.06,1.92,5.94-1.83,2.1-2.89,2.44a1.48,1.48,0,0,0-1,1.49s.9.91,2.85-.44,2-3.48,1.7-5.47a45.64,45.64,0,0,0-1.73-6.05,1.94,1.94,0,0,0-1.32-1.25A4.8,4.8,0,0,0,130.1,212.39Z" transform="translate(-0.19 -0.42)"/><path class="cls-6" d="M127.3,215.44a31.33,31.33,0,0,1,1.67,3c.46,1.09.59,3-.45,3.38-.71.26-2.21-2.68-2.87-4.34S127.3,215.44,127.3,215.44Z" transform="translate(-0.19 -0.42)"/><path class="cls-2" d="M129.58,217.16a6.16,6.16,0,0,0-1.88.9c-.71.58-1.29,1.12-1.29,1.12l.28.7a10.69,10.69,0,0,1,1.38-1.35,5.9,5.9,0,0,1,1.72-.83Z" transform="translate(-0.19 -0.42)"/><path class="cls-2" d="M130.16,218.58a6.16,6.16,0,0,0-1.88.9,8.71,8.71,0,0,0-1.1,1.05l.27.56a8.53,8.53,0,0,1,1.2-1.14,5.78,5.78,0,0,1,1.72-.83Z" transform="translate(-0.19 -0.42)"/><path class="cls-6" d="M127,217.09s.61-1.24.33-1.65-3.33.36-3.55,1.33,1.22.78,2.13,1A.87.87,0,0,0,127,217.09Z" transform="translate(-0.19 -0.42)"/><path class="cls-5" d="M112.46,211.67c-1-1.18-.14-2.45,1-3.46a2.33,2.33,0,0,1-1.27-1.69,22.91,22.91,0,0,1,5.36-.06c1.27.28,2.29,4,2.6,5.45.78,3.76.84,6.5-2.34,7.75-1,.41-2.12-.27-2.61-1.79A59.65,59.65,0,0,0,112.46,211.67Z" transform="translate(-0.19 -0.42)"/><path class="cls-6" d="M116.68,206.28s.74,1.63,1.64,3.39,2.21,4.06,1.93,5.94-1.84,2.1-2.9,2.44a1.48,1.48,0,0,0-1,1.49s.9.91,2.85-.44,2-3.48,1.7-5.47a45.64,45.64,0,0,0-1.73-6,1.93,1.93,0,0,0-1.33-1.25A4.8,4.8,0,0,0,116.68,206.28Z" transform="translate(-0.19 -0.42)"/><path class="cls-6" d="M113.88,209.33a29.18,29.18,0,0,1,1.67,3c.47,1.09.59,3-.44,3.38-.71.26-2.22-2.68-2.87-4.34S113.88,209.33,113.88,209.33Z" transform="translate(-0.19 -0.42)"/><path class="cls-2" d="M116.17,211.05a6,6,0,0,0-1.88.9c-.71.58-1.29,1.12-1.29,1.12l.27.7a10.37,10.37,0,0,1,1.39-1.35,5.78,5.78,0,0,1,1.72-.83Z" transform="translate(-0.19 -0.42)"/><path class="cls-2" d="M116.75,212.47a6,6,0,0,0-1.88.9,9.36,9.36,0,0,0-1.11,1l.27.56a8.29,8.29,0,0,1,1.21-1.14A5.78,5.78,0,0,1,117,213Z" transform="translate(-0.19 -0.42)"/><path class="cls-6" d="M113.55,211s.62-1.24.33-1.65-3.32.36-3.55,1.33,1.23.78,2.13,1A.86.86,0,0,0,113.55,211Z" transform="translate(-0.19 -0.42)"/><path class="cls-7" d="M97.22,212.39c-2.4,1.21-6.54,4.92-6,8.67.48,3.11,2.09,6.12,4.84,4.83,8.36-3.9,17.74-13.19,18.17-13.46a6.51,6.51,0,0,0,.2-2c-.41-1.91-1.43-2.53-2.5-3.43C107.22,207.61,101.34,210.31,97.22,212.39Z" transform="translate(-0.19 -0.42)"/><path class="cls-8" d="M103.08,156.67a23.56,23.56,0,0,1,4.27-1.16c.88,0,1.82,2,1.82,2l-.94,2.41-3.81.15Z" transform="translate(-0.19 -0.42)"/><path class="cls-7" d="M107.38,198.4c-1.09-.67-12.22-3.41-11.55-2.9,0,0-2.94,9.53-3.75,14.45-.46,2.78-.85,10-.87,10,1,1.54,3,1.49,4.65,2.53a.59.59,0,0,1,.42-.26c1-.17,2-.38,3-.63h0c1.86-1.37,4.49-6.2,5.11-8.48C105.58,208.94,109.35,199.63,107.38,198.4Z" transform="translate(-0.19 -0.42)"/><path class="cls-9" d="M110.94,220.47c-1.72,2.07-6.54,4.91-6,8.67.48,3.1,3.2,4.06,6,2.77a85,85,0,0,0,15.49-9.75c3.31,1.39,2.32-4.34,2.18-5a12.74,12.74,0,0,0-3.48-5.45c-1.88.23-4.26.15-5.5,2.79C115.69,217.16,112.55,218.52,110.94,220.47Z" transform="translate(-0.19 -0.42)"/><path class="cls-9" d="M105,229.38a.63.63,0,0,1,.31,0c3,.6,6.35-.83,8.66-3.05.59-1.8-.06-4.8,0-5.72.22-2.89.51-7.22-.49-10.13.43-.89,1.19-2.71,1.48-3.42,1.26-3,.52-6.18-1.51-9.07-.47-.66-4.39,1.41-6.63,2.15-2,.64-4.53,1.61-6.66,1.06a9.36,9.36,0,0,0,.35,4.71c.34,1,.7,3.75,1.3,4.61.7,4,1.79,13.16,3.12,18.64Z" transform="translate(-0.19 -0.42)"/><path class="cls-8" d="M92.1,165.53c1.73,1,3.66-.4,4.71-1,1.62-.9,3.23-2.92,6.73-4.86,1.78-1,1.32-3.39-.46-3a45.87,45.87,0,0,0-7.63,2.77,29,29,0,0,0-3.39,2.5C91,162.89,91.56,164.23,92.1,165.53Z" transform="translate(-0.19 -0.42)"/><path class="cls-8" d="M100.57,168.1c-1.85-2.62-2-5.4-4.16-6.16-2,.88-2.26,2.4-4.35,3.12,0,2.15,5.22,13.22,6.81,13.77,1.35.46,2.63.36,3.29-.56,1.25-1.72,3.53-4.51,3.68-6.7C105.85,171.32,103.66,169.45,100.57,168.1Z" transform="translate(-0.19 -0.42)"/><path class="cls-6" d="M107.48,170.82c-1.85-.63-3-1.07-6.52,2.73-2.43,2.67-3.88,10.31-3.68,11.54.16,1,.09,8.65-3.35,13.31,1.85,2.85,6.47,6.08,10.08,6.5,5.24.61,8.62-.59,11.41-2.83-.19-1.15-1.91-5.14-1-7.5,1.61-4.06,3-6.67,3.86-11.1C119.65,176.41,111.6,172.24,107.48,170.82Z" transform="translate(-0.19 -0.42)"/><path class="cls-10" d="M106.5,170a20.26,20.26,0,0,1-1.63,5.72c-.24,2.48.72,4.18,3.36,2.28a44.27,44.27,0,0,0,5-4.31l-.31-4.67Z" transform="translate(-0.19 -0.42)"/><path class="cls-8" d="M115.92,164.24c0-1.94-4.92-4.44-6.86-4.15-2.94.43-4.07,4-4.54,6.71s.67,6.72,5,5.39C113,171.11,115.94,168,115.92,164.24Z" transform="translate(-0.19 -0.42)"/><path class="cls-5" d="M116.54,163.45a2.88,2.88,0,0,0-.78-3.12,5.66,5.66,0,0,0-2.93-1.32c-.94-.19-1.33-.09-2.09-.74s-.72-1-1.17-1.88c-.9-1.7-2.78-2.2-2.1.27-1.28-1.37-2.64-.27-1.28,1.87a1.87,1.87,0,0,0-1.36,0,1.57,1.57,0,0,0-.18,2.23,5.08,5.08,0,0,0,3.32,2.13c.47,2.28,3,2.44,4,2.08-.37,1.64.94,3.77,1.22,5.78.77-.87,3.91-2,4.37-4.45A3.08,3.08,0,0,0,116.54,163.45Z" transform="translate(-0.19 -0.42)"/><path class="cls-8" d="M111.77,167.15s1.31-1.05,1.76.17c.39,1.07-.11,2.23-1.47,2.14C110.86,169.37,111.77,167.15,111.77,167.15Z" transform="translate(-0.19 -0.42)"/><path class="cls-10" d="M124.87,172c-2-1.85-3.57-5.42-7.83-8.87-1.61,1.14-.56,1-1.35,1.5a40.63,40.63,0,0,0,5.16,10.69,14.22,14.22,0,0,0-5.16.91c-1.65.78-2.43,3.65-3.35,6.18s1.17,6.6,3.53,6.91c.79.1,2.06-2.94,2.3-4.36,2.92-1.14,7.83-3.95,8.93-7.76C125.9,175.1,126.16,173.18,124.87,172Z" transform="translate(-0.19 -0.42)"/><path class="cls-11" d="M111.17,158.16s1.1-1,1.78-1-.4,1.13-.4,1.13,1.1-.44,1,.18-1.59.94-1.59.94Z" transform="translate(-0.19 -0.42)"/><path class="cls-10" d="M109.91,156.47c.84.44.81,1.07.81,1.07a1.14,1.14,0,0,1,1.15,1c.18,1.06-.18,1.58-.55,1.27a3.18,3.18,0,0,1-.6-1.23s.28,1.24-.42,1.05-.62-1.49-.62-1.49-.45,1.24-.73.89C108.24,158.17,109.08,156,109.91,156.47Z" transform="translate(-0.19 -0.42)"/><path class="cls-11" d="M114.71,160.49s-.82-1.69,0-2.11.86,1.54.86,1.54.81-1.28,1.31-1.07-.4,2.52-.4,2.52Z" transform="translate(-0.19 -0.42)"/><path class="cls-10" d="M118.51,164.42a17.91,17.91,0,0,0-1.65-3.38,3.59,3.59,0,0,0-2.64-1c-.78-.09-1.79-.43-2.17,0s1.46,1,1.46,1-2.43-.12-2.58.33.87.64,1.12.77a1.75,1.75,0,0,0,.84,0s-1.8,0-1.45.71,2.78.5,2.78.5.7,2.53,1.7,2.91S118.51,164.42,118.51,164.42Z" transform="translate(-0.19 -0.42)"/><path class="cls-7" d="M114.5,218.64s0,1.66-.16,3.2-.09,2.55-.09,2.55a3.73,3.73,0,0,0,1.11-2.87A6.58,6.58,0,0,0,114.5,218.64Z" transform="translate(-0.19 -0.42)"/><path class="cls-7" d="M113,219.16s-1.56.76-1.56,1.93,0,2.46,0,2.46S113.5,221.37,113,219.16Z" transform="translate(-0.19 -0.42)"/><path class="cls-7" d="M123.75,216.77a2.16,2.16,0,0,1,1,1.75c.08,1.24.31,2.57.31,2.57A9.79,9.79,0,0,1,123.75,216.77Z" transform="translate(-0.19 -0.42)"/><path class="cls-12" d="M116.88,181.77a4.17,4.17,0,0,0-2.07,3c-.11,2,.81,2.37.81,2.37S118.15,184,116.88,181.77Z" transform="translate(-0.19 -0.42)"/><path class="cls-2" d="M104.23,200.24a6.94,6.94,0,0,0,4.47.68,8.79,8.79,0,0,0,3.87-1.52S107.2,200.62,104.23,200.24Z" transform="translate(-0.19 -0.42)"/><path class="cls-2" d="M102.26,195.83a12,12,0,0,0,4.38,2,46.23,46.23,0,0,0,4.8.45S104.17,195.83,102.26,195.83Z" transform="translate(-0.19 -0.42)"/><path class="cls-13" d="M56.57,154.53s2.19-1.92,3.08,0,2.91,6.22.23,7.37C58,162.7,56.57,154.53,56.57,154.53Z" transform="translate(-0.19 -0.42)"/><path class="cls-14" d="M67.39,139.93c-.29-.36-1.42-1.76-1.71-2-1.22-1.1-8.08-7.72-10.15-8.19-5.53-1.24-5.77.27-5.77.27l-.26,7.08a5.31,5.31,0,0,0,3,3.12c2.44,1,4.56-.64,5.5-.91a9.4,9.4,0,0,0,3.58,3.31C62.59,140.88,65.39,140.62,67.39,139.93Z" transform="translate(-0.19 -0.42)"/><path class="cls-5" d="M58.46,201a15.29,15.29,0,0,1-.46,2.19,5.89,5.89,0,0,0,.08,2.68,1.6,1.6,0,0,0,1.28.89,4,4,0,0,0,1.74,0,13.11,13.11,0,0,0,2.19,2A10.21,10.21,0,0,0,68,210.15c1.2-.18,1.84-1.12,1.75-1.72a7.46,7.46,0,0,0-2.67-3,24,24,0,0,1-3-2.61,13.71,13.71,0,0,1-1.48-1.93Z" transform="translate(-0.19 -0.42)"/><path class="cls-5" d="M56.82,153.23s3.48,8.88,4,12.47,1.62,9,2.27,13.56a84.6,84.6,0,0,1,.18,15.5,60.86,60.86,0,0,0-.26,6.69c-1.5.92-6,.5-6.55-.23-.8-3.23-1.28-11.34-1.57-14.59a15.05,15.05,0,0,1,.47-5.58S50.64,170.9,49,166.9s-.53-8.94-.53-8.94Z" transform="translate(-0.19 -0.42)"/><path class="cls-5" d="M41.09,210.07a15.9,15.9,0,0,0-.56,3.76,2.84,2.84,0,0,0,.82,2.18.84.84,0,0,0,.91.26s.19,2.85,1.54,4a5.76,5.76,0,0,0,4.92.84c1.12-.42.38-2.46-.72-4.45s-2.5-4.15-2.85-6C42.46,210.33,41.09,210.07,41.09,210.07Z" transform="translate(-0.19 -0.42)"/><path class="cls-13" d="M41.63,159.17s-.86,1.16-1.39,5.84a112.42,112.42,0,0,0,.45,18.15,16.24,16.24,0,0,1,.42,2.93,39.44,39.44,0,0,0-1.65,12.74,115.88,115.88,0,0,1,0,11.71,4.44,4.44,0,0,0,3,1.63,9.25,9.25,0,0,0,4-.68s1-2.15.4-6.4c.84-3.86,2-10.26,2.47-11.82a39.63,39.63,0,0,0,1.5-7.17l2.24-16.41s4.44-2.89,2.16-10.2C53.81,154.92,41.63,159.17,41.63,159.17Z" transform="translate(-0.19 -0.42)"/><path class="cls-15" d="M38.6,138.25c2.2-4.38,9.53-8.83,14.28-8.14a11.75,11.75,0,0,1,4.21,5.7c1,2.41,1.49,7,.18,9.43.7,6.29,1.28,8.8.44,11.24-2.52,2.63-9,4.38-15.94.89a60.5,60.5,0,0,0-2.9-10.46C38,144.42,37.34,140.74,38.6,138.25Z" transform="translate(-0.19 -0.42)"/><path class="cls-5" d="M58.12,155.67a16.29,16.29,0,0,1-6.44,2.75c-3.57.57-9.91-1-9.91-1l-.43,2.23s6.29,1.83,10.59,1.44a10.19,10.19,0,0,0,6.67-3Z" transform="translate(-0.19 -0.42)"/><path class="cls-16" d="M50.78,128.71s-.46,3,.64,4a2.27,2.27,0,0,1-1.09,3.9c-2.68.87-4.56-1.06-6.23-2.39.72-1.52,1.07-1.51,1.07-5.8C45.17,125,50.78,128.71,50.78,128.71Z" transform="translate(-0.19 -0.42)"/><path class="cls-17" d="M40.57,159.65a3.68,3.68,0,0,0,1.75.73,25.29,25.29,0,0,1,3.23-.67,6.1,6.1,0,0,1,3.17,1.38c.36.25,1,.81.09,1.16.47.37.76,1-.38,1.23.09.61,0,1.05-1.11,1-1.63-.07-2.56-1.19-3.47-1.1s-2.51,2-3.72.32c-.81-1.14-1.7-2.61-1.7-2.61Z" transform="translate(-0.19 -0.42)"/><path class="cls-15" d="M40,158.38l-2.59,2.9a20.47,20.47,0,0,0,2.35,1.83c.8.13,2.25-1.5,2.35-2.74A14.35,14.35,0,0,0,40,158.38Z" transform="translate(-0.19 -0.42)"/><path class="cls-14" d="M36,141.31c1.16-3.52,2.57-4.06,2.57-4.06s5.16,1.22,4.73,9.26c-.65,3-3.89,6.2-4.91,7.92.54,1.11,2.35,2.73,2.44,4.69,0,1.59-1.82,4.12-3.4,3.11-1.23-.78-5.1-6-5.69-8.09-1-.69-.5-1.54.05-3C32.68,148.6,34.93,144.52,36,141.31Z" transform="translate(-0.19 -0.42)"/><path class="cls-5" d="M53.16,139a2.29,2.29,0,0,0,.35-1.18,4,4,0,0,0-.89-2.84l-3,1.77a6,6,0,0,0,2.14,2.53l.13.05c.07,1.11.2,3,.41,5.84a44.1,44.1,0,0,1-.32,9.55l2.74,1.47a13,13,0,0,0,1.21-3.42C55.51,150.07,53.9,142.66,53.16,139Z" transform="translate(-0.19 -0.42)"/><path class="cls-5" d="M38.55,137.25l2.52,1.48a17.28,17.28,0,0,1,2.23-2.56c1.49-1.37.8-3.07-.71-2.47C40.62,134.48,39.08,136.73,38.55,137.25Z" transform="translate(-0.19 -0.42)"/><path class="cls-14" d="M45.07,131.33a6.11,6.11,0,0,0,1.9,2.85c1.67,1.26,4.81,1.47,4.81,2.32-.33,0-1.14-.6-1.77.26a7.51,7.51,0,0,0-1,2,20.05,20.05,0,0,1-3.22-1.85c-2.37-1.86-2.37-3.76-2.37-3.76S43.86,131.21,45.07,131.33Z" transform="translate(-0.19 -0.42)"/><path class="cls-14" d="M51.78,131.42a7.84,7.84,0,0,1,2.59,3.86,9.66,9.66,0,0,1,.23,1.6,7.16,7.16,0,0,0-1.33-1.31c-.44-.28-1.49.93-1.49.93l-.84-.68s1.27-.81.84-1.67-1.14-2-1.14-2Z" transform="translate(-0.19 -0.42)"/><path class="cls-17" d="M45.93,121.29c1.66-1.83,6-2.59,7.6.1,1.18,2,1.22,5.62.9,7.28-.67,3.47-3.52,5.54-6.8,2.87S43.08,124.45,45.93,121.29Z" transform="translate(-0.19 -0.42)"/><path class="cls-5" d="M42.93,122.7c-.92-5.19,6.44-5.19,8.32-4.67,2.83.78,4,1.91,3.79,4.2-.18,1.9-3.63,2.19-6.37,1.38-1.14,2.07-1.18,2.86-2,2.26,0,1.42-1.38,5.17-1.5,4.65C44.57,128.08,42.07,125.59,42.93,122.7Z" transform="translate(-0.19 -0.42)"/><path class="cls-17" d="M47.65,127.49s-1-1.45-1.81-.35.9,2.18.9,2.18Z" transform="translate(-0.19 -0.42)"/><path class="cls-5" d="M44.9,144.22a24.3,24.3,0,0,0,3.17-.64,12.55,12.55,0,0,0,2.57-1.09l.61,2.28a12.21,12.21,0,0,1-2,2.27,39.34,39.34,0,0,1-4.3-.4Z" transform="translate(-0.19 -0.42)"/><path class="cls-5" d="M54.54,140.83A15.09,15.09,0,0,0,57,139.72a4.83,4.83,0,0,0,1-.77l.66,2.19a6.37,6.37,0,0,1-.9,2,18.13,18.13,0,0,1-2.51.24Z" transform="translate(-0.19 -0.42)"/><polygon class="cls-18" points="55.03 135.73 55.84 136.61 56.94 136.11 56.56 137.25 57.55 137.95 56.36 138.2 56.24 139.39 55.43 138.51 54.32 139.01 54.7 137.87 53.72 137.18 54.91 136.92 55.03 135.73"/><path class="cls-2" d="M56.93,137.62a1.16,1.16,0,1,1-1.47-.72A1.16,1.16,0,0,1,56.93,137.62Z" transform="translate(-0.19 -0.42)"/><path class="cls-19" d="M56.63,137.72a.85.85,0,0,1-.55,1.06.84.84,0,1,1,.55-1.06Z" transform="translate(-0.19 -0.42)"/><path class="cls-14" d="M61,138.11l.66,4.48s3.16,2.87,6.93,5.64S74.39,151,74.39,151l2.06-3.88s-5.18-4.68-10-8.27S61,138.11,61,138.11Z" transform="translate(-0.19 -0.42)"/><path class="cls-15" d="M76.45,147.12s-1.89-1.67-3.16.44c-.84,1.4-.47,2.12,1.1,3.44S78.79,149.17,76.45,147.12Z" transform="translate(-0.19 -0.42)"/><path class="cls-17" d="M76.1,147.78a2.67,2.67,0,0,0-1.69,2.27,7.07,7.07,0,0,0,2.43,2.58c1.88,1.3,2.08.7,2.08.7s3,2.12,4,1.57c1.29-.77-2.84-1.9-2.79-2.6.1-1.22.42-2.77-1.22-3.51A26.69,26.69,0,0,0,76.1,147.78Z" transform="translate(-0.19 -0.42)"/><path class="cls-17" d="M75.44,149.46a1.71,1.71,0,0,0,0,1.87c.58,1.23.71,2.7,2,2.64s2.42,0,2.12-.46-1.92-1.06-1.92-1.06a13.79,13.79,0,0,0-.72-2.14A8.6,8.6,0,0,1,75.44,149.46Z" transform="translate(-0.19 -0.42)"/><path class="cls-20" d="M90.06,79.7,44.85,105.14c-.94.53-1.71,0-1.71-1.26V85.54a4,4,0,0,1,1.71-3.18L90.06,56.92c.94-.53,1.71,0,1.71,1.26V76.52A4,4,0,0,1,90.06,79.7Z" transform="translate(-0.19 -0.42)"/><text class="cls-21" transform="matrix(0.75, -0.4, 0.01, 1, 55.93, 94.77)">TEST</text></svg>