<svg xmlns="http://www.w3.org/2000/svg" version="1.0" width="658pt" height="658pt" viewBox="0 0 658 658" preserveAspectRatio="xMidYMid meet">
    <path fill="rgb(129, 66, 168)" d="M339.5 7.4c-4.3 1.9-8.2 6.4-10 11.5-1.9 5.3-2 15.9-.2 22.8l1.4 5.1-10.4.7c-5.8.4-10.6.5-10.7.4-.2-.2.2-3.7.7-7.7 1.9-12.8-1.9-21.2-9.4-21.2-2.9 0-4.7.8-7.4 3.2-3.7 3.2-7.5 9.5-7.5 12.3 0 2-.6 1.9-4.5-1-6.6-5.1-15-4.2-17.9 2-2.2 4.6-2 8.4.8 13.9 1.6 3.1 2 4.9 1.2 5.1-.6.2-6.9 2-14.1 4-41 11.4-83.7 35.7-114.5 65.1-5.9 5.7-11 10.4-11.3 10.4-.2 0-1-1.4-1.7-3-1.7-4.1-6.5-8-9.8-8-6.8 0-13.3 8-15.5 18.8l-1.2 6-3.4-2.9c-3.6-3-10.9-5.9-14.8-5.9-7.9 0-14.3 7.1-14.3 15.8 0 8.9 5.2 16.7 16.7 24.9l6.3 4.5-3.7 6.6c-2 3.7-3.7 6.8-3.8 7-.2.2-1.4-1.7-2.9-4.2-4.7-8-12.2-11-16.5-6.7-3.7 3.7-5 14-2.6 20.2.4 1.1-.4 1.3-4.1 1.1-9.8-.8-17.4 4.9-15.9 12 1.4 6.2 12.8 13.8 20.9 13.8 4.8 0 5 1.1 1.8 11.1-3.5 10.9-7.4 28.1-9.8 42.4-2.5 15.7-3 54.6-.9 72 1.8 15.4 5.2 32.6 8.8 45.1l2.4 8.2-3.6-.5c-6.6-.8-13.1 5.7-13.1 13 0 4.2 5.8 14.1 11.7 20.1 10 10.1 20.8 17.6 25.3 17.6 1.1 0 2 .4 2 .9 0 1.9 16.3 26.8 24.2 36.8 9.8 12.7 32 35.4 43.4 44.4 25.7 20.5 51.1 34.9 80.7 45.9 9 3.4 10.1 4.1 12.2 7.8 4.8 8.5 13.2 16.8 21.3 21.1 3.1 1.7 5.2-.2 10-9.1 3.7-6.8 3.7-6.9 7.2-6.2 1.9.3 8.7 1.2 15 1.9 8.9 1.1 11.7 1.8 12.7 3.2 3.1 4.3 12.9 15.2 14.1 15.7 1.9.8 3.8-.4 15.4-9.6l10.3-8.2 11.5-1.3c42.4-4.8 86.2-20.8 122-44.8 18.6-12.5 27.8-20.2 45.2-37.7 9.3-9.3 16.5-15.8 17.6-15.8 3 0 23.6-20.2 26.1-25.5 2.4-5.1 2.7-10.3.8-12.9-1.2-1.6-.6-3.3 4.5-13.1 15.2-29.3 26-64.6 29.4-95.5.3-3.6 1.2-7.2 1.8-8 1.6-2 8.9-18.9 11.5-26.6 4.4-13.3 3.7-25-2-30.7-2.7-2.7-3.5-2.9-7.5-2.3-4.3.5-4.4.5-4.4-2.2 0-1.5-.9-7.7-2-13.8l-2-11.1 11.8-11.9c17.3-17.4 25.2-30.5 25.2-41.3-.1-4.8-3.2-11.5-6.4-13.6-7.1-4.7-18.5-1.7-27.5 7.2-3.9 4-5.6 5.1-6.1 4.1-5.7-9.9-9.6-12.9-17.6-13.6-4.9-.4-5.6-.8-7.1-3.6-.8-1.7-3.8-6.8-6.6-11.4l-5-8.3.2-13.3c.1-7.4-.3-15.2-.9-17.4-2.8-10.6-15.4-10.9-19.1-.4-.9 2.7-1 2.6-17.2-13.3-23.8-23.6-44-38.2-72.5-52.5-16.9-8.4-36.9-15.9-53.8-20.2-7.1-1.8-13-3.3-13.2-3.4-.1 0 1.8-3.1 4.2-6.7 8.2-12.2 11.2-26 7.2-32.2-5.8-8.9-20.9-5.7-32.4 7l-5.1 5.5-2.6-5.7c-3.5-7.7-7.1-12.2-11.1-13.9-4-1.7-4.1-1.7-7.9 0zm-1.7 55.8c7.2 14.2 12.9 22.8 15 22.8.9-.1 8-6.2 15.7-13.6 16.3-15.7 13.2-14.9 35-8.9 33.6 9.2 69 27.4 96.5 49.3 17.8 14.3 42 39.2 42 43.2 0 2 0 2-4.2-.1-15.9-8.2-26.5 7.1-13.8 19.8 5 5.1 12.9 9.2 25.3 13.3 11.1 3.6 12.7 3.3 12.7-2.9l0-3.6 2.3 3.5c1.3 1.9 3.7 6 5.4 9 3 5.4 3 5.7 1.3 8-4.3 6.1-5.3 17.3-2.4 27.1 2.1 7.4 12.5 26.9 18.6 35.2 4.5 6.1 5.4 6.8 7.9 6.5 2.6-.4 2.9-.1 3.9 4.5.6 2.8 1.5 9.1 2.1 14.1 1.1 8.8 1.1 9.3-1.4 14.4-1.9 4-2.7 5-3.4 3.9-1.6-2.9-7.7-5.7-12.4-5.7-5.5 0-9.4 2.6-11.6 7.7-3.4 8.2 4.4 20 22.6 34.3l8.1 6.4-.6 5c-4.1 36-15.3 72.2-31.4 101.5-3.3 6-3.8 6.5-8.3 7.6-2.6.7-6.7 2.6-8.9 4.2l-4.1 3-2.2-4.1c-2.5-4.8-7.6-8.6-11.6-8.6-1.8 0-4.2 1.1-6.1 2.9-3.1 2.8-3.3 3.3-3.3 9.8 0 5.5.6 8 3.1 13.3 1.7 3.6 4.7 8.6 6.7 11.3 2.1 2.6 3.7 5.4 3.7 6.1 0 2.3-28.5 30.6-39 38.8-34.8 27.1-68.4 43.4-110 53.3-9.5 2.2-28.7 5.5-32.5 5.5-.9 0 .5-2.5 3.7-6.8 9.8-12.9 12.6-23.8 8.3-32.6-5.6-11.6-22.2-9.7-32.7 3.8l-4.2 5.4-1.7-5c-3-8.8-11.1-14.8-18.2-13.4-10.2 2-17.2 16.9-14.6 31 .6 3.4 2.2 8.7 3.6 11.9 1.4 3.1 2.4 5.9 2.2 6.1-.4.3-21.1-2.3-21.6-2.7-.1-.2.9-3.1 2.3-6.5 2.7-6.7 4.1-16.9 3-22.6-.4-1.9-1.8-4.9-3.2-6.6-5.3-6.2-14.9-2.5-19 7.4l-1.8 4.4-3.4-2.9c-3.9-3.5-8.5-4-14.3-1.8-3.4 1.3-6.1 6.1-6.8 12.4l-.6 5.2-9-3.4c-23.5-8.8-53.6-26.2-74.5-42.9-10.8-8.7-31.5-29.4-40.3-40.4-11.7-14.7-28.7-40.8-28.7-44.2 0-.8 2.2-6.8 4.9-13.4 8.6-20.7 8.9-34.9.9-39-3.7-1.9-7.5-1.1-11.1 2.2-3 2.7-6.7 9.4-6.7 11.9 0 1.4-.5 1.3-3.1-.5-3.6-2.7-4.1-3.8-8.5-20.5-13.1-50.3-12-102 3.2-150.7l3.7-11.8 7.3 0c12 0 11.9.3 7.9-17.6l-2.6-11.3 2.7-5.3c1.5-2.9 3.7-7.2 5.1-9.5l2.4-4.1 8.8 4.5c9.4 4.7 16.3 6.4 17.6 4.3 1.8-2.9 6.7-32.3 7.2-43.3l.6-11.8 12.1-11.5c33.2-31.9 74.7-55.3 118.6-66.8l13.3-3.5 6.1 4.3c7.9 5.6 19.3 11.7 20.9 11.1.6-.3 2.9-5 5-10.5l3.8-9.9 4.2-.4c2.3-.2 8-.4 12.7-.5l8.6-.2 5.2 10.2z" />
</svg>