<svg stroke="currentColor" fill="currentColor" stroke-width="0" viewBox="0 0 96 96" height="1em" width="1em" xmlns="http://www.w3.org/2000/svg">
    <path d="m 71.5 0.2 c 11.5 10.8 11.5 10.8 18.5 20.4 c -7 9.4 -7 9.4 -16 13.4 c -6 3 -7 3 -25.7 3 c 15.7 -10 15.7 -10 23.2 -21 z m -48.4 0 c -11.1 10.7 -11.1 10.7 -18.3 20.5 c 7.2 9.3 7.2 9.3 16.2 13.3 c 6 3 7 3.1 26.3 3 c -16.3 -10 -16.3 -10 -24.1 -21 z m 18.3 37.8 h 13 v 17.4 h -13 z m 1.1 18.2 h 10.9 l -5.4 29.3 l -3.1 5.2 l -5.7 4.6 l -3.3 -9.9 l 3.2 -8.4 z m 10.5 6.8 l 3.2 20 l -3.3 10 l -4.2 -5.3 l 0.1 -2.4 z m -0.6 -23 h -9 v 13.4 h 9 z"></path>
</svg>
