<svg stroke="currentColor" fill="currentColor" stroke-width="0" viewBox="0 0 96 96" height="1em" width="1em" xmlns="http://www.w3.org/2000/svg">
    <path d="m 75.4 0 l 5.2 5.2 l -6.5 6.5 l -5.2 -5.2 z m 15.2 15.3 l 5.2 5.2 l -6.5 6.5 l -5.2 -5.2 z m -27.5 -11.5 l 13.4 13.4 l -24.9 25 c -2.3 -6.5 -6.9 -10.9 -13.4 -13.5 z m 15.6 15.5 l 13.4 13.4 l -24.8 24.8 c -2.4 -6.4 -7 -10.9 -13.4 -13.4 z m -43.5 10.1 l 1.6 0.7 c 6.6 2.5 11 7 14.6 14.5 l 0 0 c 7.5 3.5 12 8 14.4 14.4 l 0.6 1.7 l -6.9 6.9 l -0.6 -1.7 c -2.6 -6.2 -7.2 -10.6 -13.4 -13.4 l -1.4 -0.7 l -0.7 -1.4 c -2.5 -6.3 -7 -10.8 -13.4 -13.3 l -1.9 -0.8 z m -3.5 6.4 c 5.8 2.7 10.8 6.7 14 14.5 l 0 0 c 7.9 3.1 11.7 8.3 14.7 14.3 l 4 -4.1 c -2.5 -6.5 -7 -11 -13.5 -13.5 l -1.4 -0.5 l -0.7 -1.6 c -2.4 -6.4 -6.8 -10.8 -13.2 -13.1 z m -3.1 2.6 c 6.4 2.6 10.9 7.1 13.4 13.4 l -24.8 24.8 l -13.4 -13.4 z m 15.6 15.5 c 6.3 2.6 10.8 7.1 13.3 13.3 l -24.8 24.9 l -13.4 -13.3 z m -37.6 15.2 l 5.1 5.1 l -6.6 6.6 l -5.1 -5.1 z m 15.2 15 l 5.2 5.2 l -6.7 6.7 l -5.2 -5.2 z"></path>
</svg>
