<svg id="Layer_1" data-name="Layer 1" xmlns="http://www.w3.org/2000/svg" xmlns:xlink="http://www.w3.org/1999/xlink" viewBox="0 0 158.68 251.62"><defs><style>.cls-1{fill:url(#radial-gradient);}.cls-2{fill:#536735;}.cls-3{fill:#56832f;stroke:#56832f;}.cls-13,.cls-3{stroke-miterlimit:10;stroke-width:0.5px;}.cls-4{fill:#bebdbe;}.cls-5{fill:#a9a9aa;}.cls-6{fill:#374621;}.cls-7{fill:#3b3d3e;}.cls-8{fill:#ddd;}.cls-9{fill:#ed6e42;}.cls-10{fill:#f08454;}.cls-11{fill:#f7b8a5;}.cls-12{fill:#f9c8b7;}.cls-13{font-size:17.53px;fill:#f39200;stroke:#3c3c3b;font-family:ShowcardGothic-Reg, Showcard Gothic;}.cls-14{font-size:21px;}</style><radialGradient id="radial-gradient" cx="79.34" cy="125.81" r="129.56" gradientUnits="userSpaceOnUse"><stop offset="0" stop-color="#878787"/><stop offset="0.54" stop-color="#3b3b3a"/><stop offset="0.79" stop-color="#1d1d1b"/></radialGradient></defs><rect class="cls-1" width="158.68" height="251.62" rx="8.56"/><path class="cls-2" d="M93.36,213.7a3.87,3.87,0,0,0,.54-.67c1.49-2.58-.51-6.52-4.45-8.8A9.53,9.53,0,0,0,81.88,203c-1.2-2-4.11-4.56-7.9-6.74-4.52-2.61-8.88-3.88-11-3.36a11.94,11.94,0,0,0-2.75-1.78c-4.25-2-8.8-1.35-10.15,1.5s1,6.79,5.26,8.81a12.2,12.2,0,0,0,3.34,1,10.7,10.7,0,0,0,4.17.92,6.37,6.37,0,0,0,5,2.63c-4.24.2-7.5,1.37-7.5,2.8s2.93,2.48,6.84,2.76c0,.17,0,.34,0,.51a7.24,7.24,0,0,0,7.24,7.24,7.35,7.35,0,0,0,1.83-.26,14.58,14.58,0,0,0,1.79.23,5.34,5.34,0,0,0,3.62,1.48,5.14,5.14,0,0,0,2.55-.7,3.9,3.9,0,0,0,3.38,2.49,3.14,3.14,0,0,0,1-.17c3.63,2,7.46,2,8.86-.19S97.06,216.18,93.36,213.7Z" transform="translate(-0.19 -0.42)"/><path class="cls-3" d="M89.89,159.45a3.1,3.1,0,0,0,.37-1.49,2.93,2.93,0,0,0-.65-1.9,5.53,5.53,0,0,0-1.21-1.77,7.26,7.26,0,0,0,0-.83,5.86,5.86,0,0,0-.22-1.66,12.24,12.24,0,0,0,.22-2.31,10.53,10.53,0,0,0-1.19-5.08,4.07,4.07,0,0,0,.08-.79c0-1.65-.81-3-1.82-3,0-.13,0-.27,0-.4a1.63,1.63,0,0,0,.31-.95,1.65,1.65,0,0,0-.72-1.36c0-.1-.07-.19-.1-.29a2.1,2.1,0,0,0,.24-1,2.06,2.06,0,0,0-.25-1c2-.06,3.43-.57,3.54-1.38s-1.1-1.67-3-2.26a2.7,2.7,0,0,0,.67-1.81,2.37,2.37,0,0,0-2.18-2.52,1.86,1.86,0,0,0-1,.3,5.25,5.25,0,0,0-.48-1c.9-.32,1.57-1.76,1.57-3.48a5.75,5.75,0,0,0-.35-2,3.47,3.47,0,0,0,.8-2.2,3.52,3.52,0,0,0-3.52-3.51h0v0a1.48,1.48,0,0,0,0-.19,1.07,1.07,0,0,0,0-1.76.59.59,0,0,0,0-.23.56.56,0,0,0-.4-.53v0a.56.56,0,0,0-.57-.57.56.56,0,0,0-.16,1.11s0,0,0,0,0,0,0,.06a1.55,1.55,0,0,0-.32.2.83.83,0,0,0-1.14.81.85.85,0,0,0,.43.72l0,.15a1.49,1.49,0,0,0-1.4,1.49,1.52,1.52,0,0,0,.32.91,3.51,3.51,0,0,0,.25,3.23,5.13,5.13,0,0,0-.39,2.07c0,1.41.45,2.57,1,2.83A5.26,5.26,0,0,0,77,130.25a6.64,6.64,0,0,0,.16,1.42c-1,.29-1.65.87-1.65,1.55s.93,1.45,2.2,1.68c0,0,0,.08-.07.13a2.7,2.7,0,0,0-.41-.05,3.12,3.12,0,0,0-2.79,3.37,3.57,3.57,0,0,0,1.28,2.82,1.66,1.66,0,0,0-.21.82,1.7,1.7,0,0,0,.08.51c-.48.24-.77.55-.77.89,0,.52.68,1,1.68,1.22a3.22,3.22,0,0,0-1,2.37s0,.08,0,.13a3,3,0,0,0-2,2.63,3.09,3.09,0,0,0,2.1,2.67,6.2,6.2,0,0,0-.11,1.17,5.29,5.29,0,0,0-2.41,4.2,4.65,4.65,0,0,0,.81,2.56h0c0,1,.41,1.81.92,1.81a.7.7,0,0,0,.14,0,.74.74,0,0,0-.14.39c0,.71,1.13,1.28,2.53,1.28a5,5,0,0,0,.88-.08,1.12,1.12,0,0,0,1.13,1.07,1.11,1.11,0,0,0,.9-.47,1.78,1.78,0,0,0,2.85-.63l.41-.07a.85.85,0,0,0,1.58.1,1.78,1.78,0,0,0,.53.08c.71,0,1.28-.36,1.3-.8,2.1-.08,3.76-1,3.76-2.22A1.72,1.72,0,0,0,89.89,159.45Z" transform="translate(-0.19 -0.42)"/><polygon class="cls-4" points="133.52 233.75 33.35 175.92 33.35 16.93 133.52 74.76 133.52 233.75"/><path class="cls-5" d="M38.66,173l14.86,8.58c.31.18.56,0,.56-.43v-6.18a1.33,1.33,0,0,0-.56-1.07l-14.86-8.58c-.31-.18-.56,0-.56.42v6.19A1.34,1.34,0,0,0,38.66,173Z" transform="translate(-0.19 -0.42)"/><path class="cls-5" d="M47.58,166.71l14.86,8.58c.31.18.57,0,.57-.42v-6.19a1.34,1.34,0,0,0-.57-1.07L47.58,159c-.31-.18-.56,0-.56.42v6.19A1.34,1.34,0,0,0,47.58,166.71Z" transform="translate(-0.19 -0.42)"/><path class="cls-5" d="M38.66,150l14.86,8.58c.31.18.56,0,.56-.43v-6.18a1.35,1.35,0,0,0-.56-1.08l-14.86-8.58c-.31-.17-.56,0-.56.43v6.18A1.35,1.35,0,0,0,38.66,150Z" transform="translate(-0.19 -0.42)"/><path class="cls-5" d="M47.58,143.71l14.86,8.58c.31.18.57,0,.57-.43v-6.18a1.37,1.37,0,0,0-.57-1.08L47.58,136c-.31-.17-.56,0-.56.43v6.19A1.34,1.34,0,0,0,47.58,143.71Z" transform="translate(-0.19 -0.42)"/><path class="cls-5" d="M65.74,177.55l14.86,8.58c.3.18.56,0,.56-.42v-6.19a1.37,1.37,0,0,0-.56-1.07l-14.86-8.58c-.31-.18-.57,0-.57.42v6.19A1.35,1.35,0,0,0,65.74,177.55Z" transform="translate(-0.19 -0.42)"/><path class="cls-5" d="M56.81,160.79l14.86,8.58c.31.18.56,0,.56-.42v-6.19a1.34,1.34,0,0,0-.56-1.07l-14.86-8.58c-.31-.18-.56,0-.56.42v6.19A1.34,1.34,0,0,0,56.81,160.79Z" transform="translate(-0.19 -0.42)"/><path class="cls-5" d="M84.15,165.18,99,173.76c.31.18.56,0,.56-.42v-6.19a1.33,1.33,0,0,0-.56-1.07L84.15,157.5c-.31-.18-.56,0-.56.42v6.19A1.34,1.34,0,0,0,84.15,165.18Z" transform="translate(-0.19 -0.42)"/><path class="cls-5" d="M75.23,148.42,90.09,157c.3.17.56,0,.56-.43v-6.18a1.38,1.38,0,0,0-.56-1.08l-14.86-8.58c-.31-.17-.57,0-.57.43v6.18A1.36,1.36,0,0,0,75.23,148.42Z" transform="translate(-0.19 -0.42)"/><path class="cls-5" d="M56.8,114.27l14.86,8.58c.31.17.56,0,.56-.43v-6.19a1.34,1.34,0,0,0-.56-1.07L56.8,106.58c-.31-.18-.56,0-.56.43v6.18A1.36,1.36,0,0,0,56.8,114.27Z" transform="translate(-0.19 -0.42)"/><path class="cls-5" d="M66,131.35l14.86,8.58c.31.18.56,0,.56-.43v-6.18a1.36,1.36,0,0,0-.56-1.08L66,123.66c-.31-.17-.56,0-.56.43v6.19A1.34,1.34,0,0,0,66,131.35Z" transform="translate(-0.19 -0.42)"/><path class="cls-5" d="M75,125.11l14.86,8.58c.31.18.57,0,.57-.43v-6.18a1.34,1.34,0,0,0-.57-1.07L75,117.43c-.3-.18-.56,0-.56.42V124A1.37,1.37,0,0,0,75,125.11Z" transform="translate(-0.19 -0.42)"/><path class="cls-5" d="M93.37,135.74l14.86,8.58c.31.18.56,0,.56-.43v-6.18a1.35,1.35,0,0,0-.56-1.08l-14.86-8.58c-.31-.17-.56,0-.56.43v6.18A1.35,1.35,0,0,0,93.37,135.74Z" transform="translate(-0.19 -0.42)"/><path class="cls-5" d="M84.44,119l14.87,8.58c.3.18.56,0,.56-.42v-6.19a1.37,1.37,0,0,0-.56-1.07l-14.87-8.58c-.3-.18-.56,0-.56.43v6.18A1.36,1.36,0,0,0,84.44,119Z" transform="translate(-0.19 -0.42)"/><path class="cls-5" d="M65.87,84.76l14.86,8.58c.31.18.56,0,.56-.42V86.73a1.34,1.34,0,0,0-.56-1.07L65.87,77.08c-.31-.18-.57,0-.57.43v6.18A1.34,1.34,0,0,0,65.87,84.76Z" transform="translate(-0.19 -0.42)"/><path class="cls-5" d="M75.09,101.85,90,110.43c.3.17.56,0,.56-.43v-6.18a1.38,1.38,0,0,0-.56-1.08L75.09,94.16c-.3-.17-.56,0-.56.43v6.18A1.38,1.38,0,0,0,75.09,101.85Z" transform="translate(-0.19 -0.42)"/><path class="cls-5" d="M84,95.61l14.86,8.58c.31.18.56,0,.56-.43V97.58a1.35,1.35,0,0,0-.56-1.08L84,87.92c-.31-.17-.56,0-.56.43v6.19A1.34,1.34,0,0,0,84,95.61Z" transform="translate(-0.19 -0.42)"/><path class="cls-5" d="M102.43,106.24l14.86,8.58c.31.17.56,0,.56-.43V108.2a1.34,1.34,0,0,0-.56-1.07l-14.86-8.58c-.31-.18-.56,0-.56.43v6.18A1.36,1.36,0,0,0,102.43,106.24Z" transform="translate(-0.19 -0.42)"/><path class="cls-5" d="M93.51,89.47l14.86,8.58c.31.18.56,0,.56-.42V91.44a1.34,1.34,0,0,0-.56-1.07L93.51,81.79c-.31-.18-.56,0-.56.42V88.4A1.34,1.34,0,0,0,93.51,89.47Z" transform="translate(-0.19 -0.42)"/><path class="cls-5" d="M102.43,83.23l14.86,8.58c.31.18.56,0,.56-.42V85.2a1.34,1.34,0,0,0-.56-1.07l-14.86-8.58c-.31-.18-.56,0-.56.43v6.18A1.33,1.33,0,0,0,102.43,83.23Z" transform="translate(-0.19 -0.42)"/><path class="cls-5" d="M38.52,57.33l14.86,8.58c.31.18.56,0,.56-.42V59.3a1.33,1.33,0,0,0-.56-1.07L38.52,49.65c-.31-.18-.56,0-.56.42v6.19A1.34,1.34,0,0,0,38.52,57.33Z" transform="translate(-0.19 -0.42)"/><path class="cls-5" d="M47.75,74.41,62.61,83c.31.18.56,0,.56-.42V76.38a1.34,1.34,0,0,0-.56-1.07L47.75,66.73c-.31-.18-.56,0-.56.42v6.19A1.34,1.34,0,0,0,47.75,74.41Z" transform="translate(-0.19 -0.42)"/><path class="cls-5" d="M75.09,78.8,90,87.38c.3.18.56,0,.56-.42V80.77A1.37,1.37,0,0,0,90,79.7L75.09,71.12c-.31-.18-.57,0-.57.42v6.19A1.35,1.35,0,0,0,75.09,78.8Z" transform="translate(-0.19 -0.42)"/><path class="cls-5" d="M92.73,205.65l14.86,8.58c.31.18.56,0,.56-.42v-6.19a1.34,1.34,0,0,0-.56-1.07L92.73,198c-.31-.18-.56,0-.56.42v6.19A1.34,1.34,0,0,0,92.73,205.65Z" transform="translate(-0.19 -0.42)"/><path class="cls-5" d="M102.22,199.52l14.86,8.58c.31.17.56,0,.56-.43v-6.18a1.35,1.35,0,0,0-.56-1.08l-14.86-8.58c-.31-.18-.56,0-.56.43v6.18A1.35,1.35,0,0,0,102.22,199.52Z" transform="translate(-0.19 -0.42)"/><path class="cls-5" d="M92.87,182.39,107.73,191c.31.18.56,0,.56-.43v-6.18a1.36,1.36,0,0,0-.56-1.08l-14.86-8.57c-.31-.18-.56,0-.56.42v6.19A1.34,1.34,0,0,0,92.87,182.39Z" transform="translate(-0.19 -0.42)"/><path class="cls-5" d="M101.79,176.15l14.86,8.58c.31.18.56,0,.56-.43v-6.18a1.33,1.33,0,0,0-.56-1.07l-14.86-8.58c-.31-.18-.56,0-.56.42v6.19A1.34,1.34,0,0,0,101.79,176.15Z" transform="translate(-0.19 -0.42)"/><path class="cls-5" d="M111.28,170l14.86,8.57c.31.18.57,0,.57-.42V172a1.35,1.35,0,0,0-.57-1.07l-14.86-8.58c-.31-.18-.56,0-.56.43v6.18A1.36,1.36,0,0,0,111.28,170Z" transform="translate(-0.19 -0.42)"/><path class="cls-5" d="M92.86,159.34l14.86,8.58c.31.18.56,0,.56-.42v-6.19a1.34,1.34,0,0,0-.56-1.07l-14.86-8.58c-.31-.18-.56,0-.56.42v6.19A1.33,1.33,0,0,0,92.86,159.34Z" transform="translate(-0.19 -0.42)"/><path class="cls-5" d="M66.16,62,81,70.62c.31.18.56,0,.56-.43V64A1.33,1.33,0,0,0,81,62.94L66.16,54.36c-.31-.18-.56,0-.56.42V61A1.34,1.34,0,0,0,66.16,62Z" transform="translate(-0.19 -0.42)"/><path class="cls-5" d="M75.09,55.8,90,64.38c.3.18.56,0,.56-.42V57.77A1.36,1.36,0,0,0,90,56.7L75.09,48.12c-.31-.18-.57,0-.57.42v6.19A1.35,1.35,0,0,0,75.09,55.8Z" transform="translate(-0.19 -0.42)"/><ellipse class="cls-6" cx="77.44" cy="140.95" rx="2.46" ry="15.65"/><ellipse class="cls-6" cx="71.9" cy="158.33" rx="1.2" ry="12.54"/><ellipse class="cls-6" cx="75.62" cy="173.88" rx="3.71" ry="14.28"/><ellipse class="cls-6" cx="80.29" cy="194.28" rx="2.45" ry="7.65"/><ellipse class="cls-6" cx="79.81" cy="108.16" rx="0.48" ry="1.9"/><ellipse class="cls-6" cx="78.14" cy="111.69" rx="1.19" ry="2.76"/><path class="cls-6" d="M89.45,204.19A9.55,9.55,0,0,0,81.87,203c-1.19-2-4.11-4.56-7.9-6.75-4.51-2.61-8.88-3.88-11-3.36a12.88,12.88,0,0,0-2.75-1.78,12,12,0,0,0-2.53-.85l36.65,21.16C94.57,209,92.66,206,89.45,204.19Z" transform="translate(-0.19 -0.42)"/><path class="cls-7" d="M52.14,202.72c.72.34,5.28,1.24,8.66,1.92s1.92,6.26-2.51,7-11.43.77-13.33-1.54.22-6.86.64-7.15C47.93,201.37,52.14,202.72,52.14,202.72Z" transform="translate(-0.19 -0.42)"/><path class="cls-8" d="M62.38,205.6a3.63,3.63,0,0,0-.67,2.7c0,1.4-2,2.82-4.22,3.3s-7.35-.62-9.58-1.9a29.06,29.06,0,0,0-3.58-1.8s-1,1.38,1.15,3,6.9,2.05,10.35,1.66,5.82-.6,6.66-3.28S62.38,205.6,62.38,205.6Z" transform="translate(-0.19 -0.42)"/><path class="cls-8" d="M57,203.89a7.92,7.92,0,0,1,1.11,1.53,5.51,5.51,0,0,1,.46,1.5l-.93.23a4.39,4.39,0,0,0-.75-2,16.58,16.58,0,0,1-1.12-1.62Z" transform="translate(-0.19 -0.42)"/><path class="cls-8" d="M54.78,203.45a24.72,24.72,0,0,1,1.43,2.26,5.33,5.33,0,0,1,.47,1.5l-.93.23a4.33,4.33,0,0,0-.76-2c-.65-.84-1.48-2.1-1.48-2.1Z" transform="translate(-0.19 -0.42)"/><path class="cls-8" d="M53,203s2.5,3.33-.09,4.17-5.51-.48-6.23-1.93a2,2,0,0,1,1.78-3A11.44,11.44,0,0,1,53,203Z" transform="translate(-0.19 -0.42)"/><path class="cls-7" d="M35.69,192.42c.72.33,5.27,1.23,8.66,1.91s1.92,6.27-2.51,7-11.43.78-13.33-1.53.22-6.87.64-7.16C31.48,191.06,35.69,192.42,35.69,192.42Z" transform="translate(-0.19 -0.42)"/><path class="cls-8" d="M45.93,195.29a3.66,3.66,0,0,0-.67,2.7c0,1.41-2,2.82-4.22,3.3s-7.35-.61-9.58-1.89a30.36,30.36,0,0,0-3.58-1.81s-1,1.39,1.14,3,6.91,2.05,10.35,1.66S45.2,201.67,46,199,45.93,195.29,45.93,195.29Z" transform="translate(-0.19 -0.42)"/><path class="cls-8" d="M40.56,193.59a7.71,7.71,0,0,1,1.11,1.52,5.51,5.51,0,0,1,.46,1.5l-.93.24a4.35,4.35,0,0,0-.75-2,18.1,18.1,0,0,1-1.12-1.62Z" transform="translate(-0.19 -0.42)"/><path class="cls-8" d="M38.33,193.14a24.72,24.72,0,0,1,1.43,2.26,5.12,5.12,0,0,1,.46,1.5l-.92.24a4.3,4.3,0,0,0-.76-2c-.66-.85-1.48-2.11-1.48-2.11Z" transform="translate(-0.19 -0.42)"/><path class="cls-8" d="M36.51,192.67s2.5,3.33-.09,4.18-5.51-.49-6.23-1.94a2,2,0,0,1,1.78-3A11.54,11.54,0,0,1,36.51,192.67Z" transform="translate(-0.19 -0.42)"/><path class="cls-9" d="M59.83,140.63c-2.47,1.29-5.09,1-7.88,1.28-1.42.15-1.5-4.83-4-5.89-1,2.37-6.73,11.76-4,13.76-.87,4.7-2.27,9.65-1.06,12.88a2.1,2.1,0,0,0-.65,4.05,215.39,215.39,0,0,0-10.79,21.74,3.64,3.64,0,0,0-1.58,2.63,2.69,2.69,0,0,0,1.44,2.84c3.28,2,5.28,3.41,9.56,3.2,1.45-.08,1-2.62,1-3.35,7.31-10.34,14.72-27.33,15.32-39.93C60,149.06,59.28,146.18,59.83,140.63Z" transform="translate(-0.19 -0.42)"/><path class="cls-10" d="M67.05,146.56c-2.24,1.67-4.87,1.77-7.58,2.51-1.38.37-6.42-3.7-9-4.37-.56,2.5-.61,11.86,2.38,13.4-.12,4.79-.72,9.9,1,12.89a2.1,2.1,0,0,0,0,4.11,213.41,213.41,0,0,0-7.21,23.17,3.6,3.6,0,0,0-1.15,2.84,2.68,2.68,0,0,0,1.86,2.58c3.57,1.49,5.75,2.53,9.95,1.65,1.42-.31.61-2.75.43-3.46,5.58-11.37,10.22-29.31,8.82-41.85C68.51,154.87,67.38,152.13,67.05,146.56Z" transform="translate(-0.19 -0.42)"/><path class="cls-11" d="M81.87,86.51c-4.94,4.28-7.35,3.6-10.55,9-2.65,1.08-5.28,2.22-7.91,3.36-3.12,1.35-7.23,2.46-9.77,4.82-2.77,2.56-3.28,8.93-.15,11.55a3.35,3.35,0,0,0,4.09.12,19.8,19.8,0,0,0,2.74-2.6,18.12,18.12,0,0,1,4.85-2.68c4.12-1.85,7.52-5.58,10.39-9.34,1.62-.34,4.26-2.22,6-4,2.34-2.45,3.12-6.54,4.72-9.55C86.9,86,83,87.24,81.87,86.51Z" transform="translate(-0.19 -0.42)"/><path class="cls-11" d="M86.73,76.82a4,4,0,0,1-.24,1.59,3.76,3.76,0,0,0-.07,1.33c.27-.71,1-2.74,1.25-3.47a.34.34,0,0,1,.65.11,8.32,8.32,0,0,1-.45,2.6,7.52,7.52,0,0,0-.35,1.57c.16-.09.27-.41.37-.63.42-1,1.12-2.75,1.14-2.79.14-.32.3-.89.6-.65s.06,1.53-.44,2.68c-.26.57-.84,1.65-.64,1.86a8,8,0,0,0,.64-.91c.76-1.21,1-2.28,1.22-2.26.55,0,.51.72.26,1.45-.31.9-1.15,2.28-1.36,3S88.17,84.22,88.13,85s-.21,1.68,1.05,1.69,2-.71,2.74.39c.21.33-.13.49-.58.55a47.51,47.51,0,0,0-5.46,1.09c-.8,1-1.55,2.11-2.29,3.24a10.29,10.29,0,0,0-2.82-2.76,10,10,0,0,0-.87-.53A15.45,15.45,0,0,0,81.51,87c.64-.8.83-1.47,1.2-3.28.14-.68,1.09-2,1.61-3.14.2-.45.88-1.48,1-1.9.36-1.14.39-1.11.72-2.25C86.16,76.05,86.68,76.24,86.73,76.82Z" transform="translate(-0.19 -0.42)"/><path class="cls-12" d="M72.27,106.36l-4.46,4.09c-2.57-.75-4.65-3.62-5.89-6.41.88-.79,4-2.84,4.21-3.84-1.12-2.67.22-5,2.61-7.62s7.27-3,10.25-.85a4.5,4.5,0,0,1,2.51,4.16c-.15,2.91-1.42,10-3.8,11.34C76,108.2,74,106.89,72.27,106.36Z" transform="translate(-0.19 -0.42)"/><path class="cls-8" d="M58.6,102.84c4.07.6,6.09,1.62,12.05,6.21s6.9,6.48,6.36,9.32-1,4.3-3.28,9.85c-3,7.05-4.83,13.05-6.07,15.52.94,1,1.19,2.34.17,3.31-2.94,2.76-13.33,4.57-23.36-5.47.16-2.76,2-5.57,2.46-9.24.86-6.81,1.46-13.72,2.77-17.77C52,107.52,55.89,102.44,58.6,102.84Z" transform="translate(-0.19 -0.42)"/><path class="cls-4" d="M66.29,140.8a37.46,37.46,0,0,1-7.14,2.93A59.67,59.67,0,0,1,52.84,145c.95,0,6.28.53,8.47-.79S66.29,140.8,66.29,140.8Z" transform="translate(-0.19 -0.42)"/><path class="cls-4" d="M54.65,139.17a7.16,7.16,0,0,0,4.92,1.35c2.94-.29,4.79-.64,4.79-.64a16.91,16.91,0,0,0-4.79-.71A37.86,37.86,0,0,1,54.65,139.17Z" transform="translate(-0.19 -0.42)"/><path class="cls-12" d="M113.64,90.82c-.76-.45-1,2.09-1.75,3a42.39,42.39,0,0,0,.67-4.25c-.26-.62-.66-.27-1.1.45.31-1,.18-1.52-.1-1.43-.84.25-1.78,2.42-2.22,3.39a34.39,34.39,0,0,0,.23-3.71c-1.3-.15-1.57,2.64-1.6,4.41a17,17,0,0,1-1,3.08c-.5.81-.78,1.49-1.82.78s-1.28-1.75-2.48-1.25a.56.56,0,0,0-.22.92c1.23,1.12,1.51,3,2.43,4.33-1.65.91-11.22,6-15,10.09-2.82.49-5.63,1-8.44,1.59-3.34.65-7.59.86-10.58,2.61-3.25,1.91-5.12,8-2.62,11.26a3.38,3.38,0,0,0,4,1,20.16,20.16,0,0,0,3.23-2,17.86,17.86,0,0,1,5.31-1.57c4.43-.92,8.54-3.84,12.16-6.9,1.65,0,4.63-1.26,6.67-2.63,2.81-1.89,4-4.46,6.23-7a19.6,19.6,0,0,0,1.26-1.66h0c.25-.36,2-1.8,2.7-3.52h0a21.64,21.64,0,0,0,3.08-6.5c.14-.48.46-1.21.74-1.95C113.79,92.2,114.12,91.11,113.64,90.82Z" transform="translate(-0.19 -0.42)"/><path class="cls-7" d="M65.81,102a13,13,0,0,0-.46-4.87c-.77-3.23,1.31-8.25,4.46-8.94s4,.7,4,.7,3.88-1.68,6.42,1.55a8.44,8.44,0,0,1,2,6.24l-4.08,2a12.78,12.78,0,0,1-4.4,4.85c-2.15,1.17-8-.15-8-.15Z" transform="translate(-0.19 -0.42)"/><text id="CHAMAR_O_GREGÓRIO" data-name="CHAMAR O GREGÓRIO" class="cls-13" transform="translate(32 23.57) scale(1.01 1)">CHAMAR O<tspan class="cls-14"><tspan x="-9.05" y="22.2">GREGÓRIO</tspan></tspan></text></svg>