<svg id="Layer_1" data-name="Layer 1" xmlns="http://www.w3.org/2000/svg" xmlns:xlink="http://www.w3.org/1999/xlink" viewBox="0 0 158.68 251.62"><defs><style>.cls-1{fill:url(#radial-gradient);}.cls-2,.cls-20{fill:#bebdbe;}.cls-3{fill:#a9a9aa;}.cls-4{fill:#555657;}.cls-5{fill:#636567;}.cls-6{fill:#47494a;}.cls-7{fill:#aeadad;}.cls-8{fill:#7e8385;}.cls-9{fill:#3b3d3e;}.cls-10{fill:#ddd;}.cls-11{fill:#f7b8a5;}.cls-12{fill:#f9c6b5;}.cls-13{fill:#ed6e42;}.cls-14{fill:#f08454;}.cls-15{fill:#878787;}.cls-16{fill:#706f6f;}.cls-17{fill:#575756;}.cls-18{fill:#eaeaea;}.cls-19{fill:#f7b6a4;}.cls-20{opacity:0.5;}.cls-21{fill:#fff;}.cls-22{font-size:20px;fill:#f39200;stroke:#3c3c3b;stroke-miterlimit:10;stroke-width:0.5px;font-family:ShowcardGothic-Reg, Showcard Gothic;}.cls-23{font-size:24px;}</style><radialGradient id="radial-gradient" cx="79.34" cy="125.81" r="129.56" gradientUnits="userSpaceOnUse"><stop offset="0" stop-color="#878787"/><stop offset="0.54" stop-color="#3b3b3a"/><stop offset="0.79" stop-color="#1d1d1b"/></radialGradient></defs><rect class="cls-1" width="158.68" height="251.62" rx="8.56"/><polygon class="cls-2" points="16.23 225.8 119 167.97 119 8.98 16.23 66.81 16.23 225.8"/><path class="cls-3" d="M114,165,98.7,173.58c-.32.18-.58,0-.58-.43V167a1.34,1.34,0,0,1,.58-1.08L114,157.31c.31-.17.57,0,.57.43v6.18A1.36,1.36,0,0,1,114,165Z" transform="translate(-0.19 -0.42)"/><path class="cls-3" d="M104.79,158.76l-15.25,8.58c-.31.18-.57,0-.57-.43v-6.18a1.37,1.37,0,0,1,.57-1.08l15.25-8.58c.32-.17.58,0,.58.43v6.19A1.34,1.34,0,0,1,104.79,158.76Z" transform="translate(-0.19 -0.42)"/><path class="cls-3" d="M114,142,98.7,150.58c-.32.17-.58,0-.58-.43V144a1.34,1.34,0,0,1,.58-1.07L114,134.31c.31-.18.57,0,.57.43v6.18A1.37,1.37,0,0,1,114,142Z" transform="translate(-0.19 -0.42)"/><path class="cls-3" d="M104.79,135.76l-15.25,8.58c-.31.17-.57,0-.57-.43v-6.18a1.36,1.36,0,0,1,.57-1.08l15.25-8.58c.32-.18.58,0,.58.43v6.18A1.34,1.34,0,0,1,104.79,135.76Z" transform="translate(-0.19 -0.42)"/><path class="cls-3" d="M86.17,169.6l-15.25,8.58c-.32.18-.58,0-.58-.42v-6.19a1.34,1.34,0,0,1,.58-1.07l15.25-8.58c.31-.18.57,0,.57.42v6.19A1.35,1.35,0,0,1,86.17,169.6Z" transform="translate(-0.19 -0.42)"/><path class="cls-3" d="M95.32,152.84l-15.25,8.58c-.31.18-.57,0-.57-.43v-6.18a1.34,1.34,0,0,1,.57-1.07l15.25-8.58c.32-.18.58,0,.58.42v6.19A1.34,1.34,0,0,1,95.32,152.84Z" transform="translate(-0.19 -0.42)"/><path class="cls-3" d="M67.27,157.23,52,165.81c-.31.18-.57,0-.57-.43V159.2a1.37,1.37,0,0,1,.57-1.08l15.25-8.58c.32-.17.58,0,.58.43v6.19A1.34,1.34,0,0,1,67.27,157.23Z" transform="translate(-0.19 -0.42)"/><path class="cls-3" d="M76.43,140.47,61.18,149c-.32.18-.58,0-.58-.42v-6.19a1.34,1.34,0,0,1,.58-1.07l15.25-8.58c.32-.18.57,0,.57.43v6.18A1.35,1.35,0,0,1,76.43,140.47Z" transform="translate(-0.19 -0.42)"/><path class="cls-3" d="M95.33,106.31l-15.25,8.58c-.31.18-.57,0-.57-.42v-6.19a1.35,1.35,0,0,1,.57-1.07l15.25-8.58c.32-.18.58,0,.58.42v6.19A1.32,1.32,0,0,1,95.33,106.31Z" transform="translate(-0.19 -0.42)"/><path class="cls-3" d="M85.86,123.4,70.61,132c-.31.17-.57,0-.57-.43v-6.18a1.36,1.36,0,0,1,.57-1.08l15.25-8.58c.32-.18.58,0,.58.43v6.18A1.34,1.34,0,0,1,85.86,123.4Z" transform="translate(-0.19 -0.42)"/><path class="cls-3" d="M76.71,117.16l-15.25,8.58c-.32.18-.58,0-.58-.43v-6.18a1.34,1.34,0,0,1,.58-1.08l15.25-8.58c.31-.17.57,0,.57.43v6.18A1.36,1.36,0,0,1,76.71,117.16Z" transform="translate(-0.19 -0.42)"/><path class="cls-3" d="M57.81,127.79l-15.25,8.58c-.31.17-.57,0-.57-.43v-6.19a1.35,1.35,0,0,1,.57-1.07l15.25-8.58c.32-.18.58,0,.58.43v6.18A1.35,1.35,0,0,1,57.81,127.79Z" transform="translate(-0.19 -0.42)"/><path class="cls-3" d="M67,111,51.72,119.6c-.32.18-.58,0-.58-.42V113a1.34,1.34,0,0,1,.58-1.07L67,103.34c.32-.18.57,0,.57.42V110A1.33,1.33,0,0,1,67,111Z" transform="translate(-0.19 -0.42)"/><path class="cls-3" d="M86,76.81,70.78,85.39c-.31.18-.57,0-.57-.42V78.78a1.35,1.35,0,0,1,.57-1.07L86,69.13c.32-.18.58,0,.58.42v6.19A1.34,1.34,0,0,1,86,76.81Z" transform="translate(-0.19 -0.42)"/><path class="cls-3" d="M76.56,93.89l-15.25,8.58c-.31.18-.57,0-.57-.42V95.86a1.35,1.35,0,0,1,.57-1.07l15.25-8.58c.32-.18.58,0,.58.43v6.18A1.32,1.32,0,0,1,76.56,93.89Z" transform="translate(-0.19 -0.42)"/><path class="cls-3" d="M67.41,87.66,52.16,96.24c-.32.17-.58,0-.58-.43V89.62a1.34,1.34,0,0,1,.58-1.07L67.41,80c.31-.18.57,0,.57.43v6.18A1.37,1.37,0,0,1,67.41,87.66Z" transform="translate(-0.19 -0.42)"/><path class="cls-3" d="M48.51,98.28l-15.24,8.58c-.32.18-.58,0-.58-.42v-6.19a1.34,1.34,0,0,1,.58-1.07L48.51,90.6c.32-.18.58,0,.58.43v6.18A1.32,1.32,0,0,1,48.51,98.28Z" transform="translate(-0.19 -0.42)"/><path class="cls-3" d="M57.67,81.52,42.42,90.1c-.32.18-.57,0-.57-.42V83.49a1.33,1.33,0,0,1,.57-1.07l15.25-8.58c.32-.18.58,0,.58.42v6.19A1.34,1.34,0,0,1,57.67,81.52Z" transform="translate(-0.19 -0.42)"/><path class="cls-3" d="M48.51,75.28,33.27,83.86c-.32.18-.58,0-.58-.42V77.25a1.34,1.34,0,0,1,.58-1.07L48.51,67.6c.32-.18.58,0,.58.42v6.19A1.34,1.34,0,0,1,48.51,75.28Z" transform="translate(-0.19 -0.42)"/><path class="cls-3" d="M114.09,49.38,98.84,58c-.31.18-.57,0-.57-.43V51.35a1.37,1.37,0,0,1,.57-1.08l15.25-8.57c.32-.18.58,0,.58.42v6.19A1.34,1.34,0,0,1,114.09,49.38Z" transform="translate(-0.19 -0.42)"/><path class="cls-3" d="M104.62,66.46,89.37,75c-.31.18-.57,0-.57-.42V68.43a1.35,1.35,0,0,1,.57-1.07l15.25-8.58c.32-.18.58,0,.58.42v6.19A1.34,1.34,0,0,1,104.62,66.46Z" transform="translate(-0.19 -0.42)"/><path class="cls-3" d="M76.57,70.85,61.32,79.43c-.31.18-.57,0-.57-.42V72.82a1.34,1.34,0,0,1,.57-1.07l15.25-8.58c.32-.18.58,0,.58.42v6.19A1.34,1.34,0,0,1,76.57,70.85Z" transform="translate(-0.19 -0.42)"/><path class="cls-3" d="M58.47,197.7l-15.25,8.58c-.32.18-.58,0-.58-.43v-6.18a1.32,1.32,0,0,1,.58-1.07L58.47,190c.31-.18.57,0,.57.42v6.19A1.35,1.35,0,0,1,58.47,197.7Z" transform="translate(-0.19 -0.42)"/><path class="cls-3" d="M48.73,191.56l-15.25,8.58c-.31.18-.57,0-.57-.42v-6.19a1.35,1.35,0,0,1,.57-1.07l15.25-8.58c.32-.18.58,0,.58.43v6.18A1.32,1.32,0,0,1,48.73,191.56Z" transform="translate(-0.19 -0.42)"/><path class="cls-3" d="M58.32,174.44,43.08,183c-.32.17-.58,0-.58-.43v-6.18a1.34,1.34,0,0,1,.58-1.08l15.24-8.58c.32-.17.58,0,.58.43v6.18A1.34,1.34,0,0,1,58.32,174.44Z" transform="translate(-0.19 -0.42)"/><path class="cls-3" d="M49.17,168.2l-15.25,8.58c-.32.18-.58,0-.58-.43v-6.18a1.34,1.34,0,0,1,.58-1.08l15.25-8.58c.32-.17.57,0,.57.43v6.19A1.33,1.33,0,0,1,49.17,168.2Z" transform="translate(-0.19 -0.42)"/><path class="cls-3" d="M39.43,162.06l-15.25,8.58c-.31.18-.57,0-.57-.42V164a1.35,1.35,0,0,1,.57-1.07l15.25-8.58c.32-.18.58,0,.58.42V161A1.32,1.32,0,0,1,39.43,162.06Z" transform="translate(-0.19 -0.42)"/><path class="cls-3" d="M58.33,151.39,43.09,160c-.32.18-.58,0-.58-.42v-6.19a1.34,1.34,0,0,1,.58-1.07l15.24-8.58c.32-.18.58,0,.58.42v6.19A1.34,1.34,0,0,1,58.33,151.39Z" transform="translate(-0.19 -0.42)"/><path class="cls-3" d="M85.73,54.09,70.48,62.67c-.32.18-.58,0-.58-.43V56.06A1.34,1.34,0,0,1,70.48,55L85.73,46.4c.31-.17.57,0,.57.43V53A1.36,1.36,0,0,1,85.73,54.09Z" transform="translate(-0.19 -0.42)"/><path class="cls-3" d="M76.57,47.85,61.32,56.43c-.31.18-.57,0-.57-.43V49.82a1.37,1.37,0,0,1,.57-1.08l15.25-8.57c.32-.18.58,0,.58.42v6.19A1.34,1.34,0,0,1,76.57,47.85Z" transform="translate(-0.19 -0.42)"/><path class="cls-4" d="M107.23,145.26c0-4.31-2.61-9.31-5.85-11.17a3.73,3.73,0,0,0-3.81-.32h0l-1.88,1.07,7.24,16.43,2.2-1.28C106.4,149.3,107.23,147.66,107.23,145.26Z" transform="translate(-0.19 -0.42)"/><path class="cls-5" d="M105.12,146.45c0,4.31-2.62,6.29-5.85,4.42S93.42,144,93.42,139.7s2.62-6.29,5.85-4.42S105.12,142.14,105.12,146.45Z" transform="translate(-0.19 -0.42)"/><path class="cls-6" d="M100.61,149c-2.74-1.58-4.94-5.86-4.92-9.55a5.29,5.29,0,0,1,1-3.46c-1.41.37-2.36,1.92-2.37,4.31,0,3.7,2.18,8,4.93,9.56,1.61.93,3,.71,3.95-.36A3.48,3.48,0,0,1,100.61,149Z" transform="translate(-0.19 -0.42)"/><path class="cls-4" d="M99.36,136.5a3.47,3.47,0,0,0-2.63-.5,5.29,5.29,0,0,0-1,3.46c0,3.69,2.18,8,4.92,9.55a3.48,3.48,0,0,0,2.63.5,5.31,5.31,0,0,0,1.05-3.46C104.31,142.36,102.1,138.08,99.36,136.5Z" transform="translate(-0.19 -0.42)"/><path class="cls-7" d="M102.34,144.62a6.26,6.26,0,0,0-2.6-5,1.68,1.68,0,0,0-1.7-.14h0l-.84.48,3.22,7.3,1-.56A2.26,2.26,0,0,0,102.34,144.62Z" transform="translate(-0.19 -0.42)"/><path class="cls-2" d="M101.4,145.15c0,1.92-1.17,2.8-2.6,2a6.24,6.24,0,0,1-2.61-5c0-1.92,1.17-2.8,2.61-2A6.26,6.26,0,0,1,101.4,145.15Z" transform="translate(-0.19 -0.42)"/><path class="cls-4" d="M103.1,147.79c0-4.31-2.62-9.31-5.85-11.18a3.73,3.73,0,0,0-3.81-.31h0l-1.89,1.07,7.24,16.42,2.21-1.27C102.27,151.82,103.1,150.18,103.1,147.79Z" transform="translate(-0.19 -0.42)"/><path class="cls-5" d="M101,149c0,4.3-2.61,6.28-5.85,4.42s-5.84-6.87-5.84-11.18,2.61-6.29,5.84-4.42S101,144.67,101,149Z" transform="translate(-0.19 -0.42)"/><path class="cls-6" d="M96.48,151.54c-2.74-1.59-5-5.86-4.93-9.56a5.33,5.33,0,0,1,1-3.46c-1.41.37-2.36,1.92-2.37,4.32,0,3.69,2.18,8,4.92,9.55,1.61.93,3,.72,4-.35A3.53,3.53,0,0,1,96.48,151.54Z" transform="translate(-0.19 -0.42)"/><path class="cls-4" d="M95.23,139a3.47,3.47,0,0,0-2.63-.5,5.33,5.33,0,0,0-1,3.46c0,3.7,2.19,8,4.93,9.56a3.53,3.53,0,0,0,2.63.5,5.34,5.34,0,0,0,1-3.47C100.18,144.88,98,140.6,95.23,139Z" transform="translate(-0.19 -0.42)"/><path class="cls-7" d="M98.21,147.15a6.24,6.24,0,0,0-2.6-5,1.66,1.66,0,0,0-1.7-.14h0l-.84.47,3.22,7.31,1-.57A2.25,2.25,0,0,0,98.21,147.15Z" transform="translate(-0.19 -0.42)"/><path class="cls-2" d="M97.26,147.68c0,1.91-1.16,2.79-2.6,2a6.24,6.24,0,0,1-2.6-5c0-1.91,1.17-2.79,2.6-2A6.2,6.2,0,0,1,97.26,147.68Z" transform="translate(-0.19 -0.42)"/><polygon class="cls-2" points="83.18 188.42 80.95 187.13 80.95 144.06 83.18 145.34 83.18 188.42"/><polygon class="cls-7" points="83.18 188.42 85.41 187.13 85.41 144.06 83.18 145.34 83.18 188.42"/><polygon class="cls-5" points="83.18 159.47 80.32 157.81 80.32 141.85 83.18 143.51 83.18 159.47"/><polygon class="cls-4" points="83.18 159.47 86.04 157.81 86.04 141.85 83.18 143.51 83.18 159.47"/><polygon class="cls-8" points="80.32 141.85 83.18 143.51 86.04 141.85 83.18 140.2 80.32 141.85"/><polygon class="cls-5" points="85.28 145.12 77.38 140.69 77.38 138.74 85.28 143.17 85.28 145.12"/><polygon class="cls-4" points="85.28 145.12 88.14 143.47 88.14 141.52 85.28 143.17 85.28 145.12"/><polygon class="cls-8" points="77.38 138.74 85.28 143.17 88.14 141.52 80.25 137.09 77.38 138.74"/><polygon class="cls-5" points="85.28 144 83.84 143.21 83.84 138.17 85.28 138.96 85.28 144"/><polygon class="cls-4" points="85.28 144.16 88.14 142.35 88.14 137.31 85.28 138.96 85.28 144.16"/><polygon class="cls-8" points="83.84 138.17 85.28 138.96 88.14 137.31 86.71 136.52 83.84 138.17"/><polygon class="cls-5" points="78.82 140.36 77.38 139.57 77.38 134.53 78.82 135.32 78.82 140.36"/><polygon class="cls-4" points="78.82 139.66 81.68 137.85 81.68 133.67 78.82 135.32 78.82 139.66"/><polygon class="cls-8" points="77.38 134.53 78.82 135.32 81.68 133.67 80.25 132.88 77.38 134.53"/><polygon class="cls-8" points="75.08 195.9 47.82 211.51 39.88 206.92 67.14 191.32 75.08 195.9"/><polygon class="cls-4" points="75.08 195.9 75.08 197.78 47.82 213.39 47.82 211.51 75.08 195.9"/><polygon class="cls-5" points="39.88 206.92 39.88 208.81 47.82 213.39 47.82 211.51 39.88 206.92"/><polygon class="cls-2" points="57.48 203.15 55.25 201.86 55.25 185.05 57.48 186.34 57.48 203.15"/><polygon class="cls-7" points="57.48 203.15 59.71 201.86 59.71 185.05 57.48 186.34 57.48 203.15"/><polygon class="cls-2" points="129.08 228.2 126.86 226.92 126.86 210.11 129.08 211.39 129.08 228.2"/><polygon class="cls-7" points="129.08 228.2 131.31 226.92 131.31 210.11 129.08 211.39 129.08 228.2"/><polygon class="cls-2" points="113.92 237.25 111.69 235.97 111.69 219.16 113.92 220.44 113.92 237.25"/><polygon class="cls-7" points="113.92 237.25 116.14 235.97 116.14 219.16 113.92 220.44 113.92 237.25"/><path class="cls-9" d="M124,233c-.82-1.29-2.28-.89-3.59-.14a2.37,2.37,0,0,0-1.21-1.73,22.41,22.41,0,0,0-1.73,5.08c-.13,1.29,3.07,3.41,4.37,4.16,3.33,1.91,5.92,2.82,8.1.19.7-.85.4-2.1-.9-3A59,59,0,0,1,124,233Z" transform="translate(-0.19 -0.42)"/><path class="cls-10" d="M117.53,235.3s1.32,1.2,2.7,2.61,3.18,3.36,5,3.68,2.57-1.09,3.22-2a1.48,1.48,0,0,1,1.72-.46s.58,1.14-1.3,2.57-3.94.82-5.73-.09a46.79,46.79,0,0,1-5.21-3.53,1.91,1.91,0,0,1-.77-1.65A4.55,4.55,0,0,1,117.53,235.3Z" transform="translate(-0.19 -0.42)"/><path class="cls-10" d="M121.29,233.58a29.92,29.92,0,0,0,2.34,2.53c.9.78,2.65,1.48,3.35.62.48-.58-1.85-2.93-3.22-4.07S121.29,233.58,121.29,233.58Z" transform="translate(-0.19 -0.42)"/><path class="cls-2" d="M122.22,236.29a6,6,0,0,1,1.44-1.5c.77-.5,1.47-.88,1.47-.88l.57.48a10.33,10.33,0,0,0-1.71.89,5.92,5.92,0,0,0-1.32,1.38Z" transform="translate(-0.19 -0.42)"/><path class="cls-2" d="M123.39,237.28a6.22,6.22,0,0,1,1.44-1.5,8.11,8.11,0,0,1,1.34-.72l.45.43a8.77,8.77,0,0,0-1.46.78,5.92,5.92,0,0,0-1.32,1.38Z" transform="translate(-0.19 -0.42)"/><path class="cls-10" d="M123,233.78s-1.37.2-1.68-.2,1.39-3.05,2.38-3S124,232,124,233A.85.85,0,0,1,123,233.78Z" transform="translate(-0.19 -0.42)"/><path class="cls-9" d="M134.51,225.46c-.82-1.3-2.28-.9-3.59-.14a2.37,2.37,0,0,0-1.21-1.74,22.75,22.75,0,0,0-1.73,5.08c-.13,1.29,3.06,3.41,4.37,4.16,3.33,1.91,5.92,2.83,8.09.2.71-.86.4-2.1-.89-3A60.7,60.7,0,0,1,134.51,225.46Z" transform="translate(-0.19 -0.42)"/><path class="cls-10" d="M128.08,227.79s1.32,1.2,2.7,2.61,3.17,3.36,5.05,3.68,2.57-1.09,3.22-2a1.46,1.46,0,0,1,1.71-.46s.59,1.14-1.3,2.57-3.93.82-5.72-.09a46.59,46.59,0,0,1-5.22-3.53,1.93,1.93,0,0,1-.77-1.65A4.51,4.51,0,0,1,128.08,227.79Z" transform="translate(-0.19 -0.42)"/><path class="cls-10" d="M131.84,226.08a30.35,30.35,0,0,0,2.34,2.52c.89.78,2.65,1.49,3.35.63.48-.59-1.85-2.94-3.22-4.08S131.84,226.08,131.84,226.08Z" transform="translate(-0.19 -0.42)"/><path class="cls-2" d="M132.77,228.78a6.22,6.22,0,0,1,1.44-1.5c.77-.5,1.47-.88,1.47-.88l.57.48a11.28,11.28,0,0,0-1.71.89,5.92,5.92,0,0,0-1.32,1.38Z" transform="translate(-0.19 -0.42)"/><path class="cls-2" d="M133.94,229.78a6.18,6.18,0,0,1,1.44-1.51,9.19,9.19,0,0,1,1.34-.72l.45.43a8.41,8.41,0,0,0-1.46.79,5.88,5.88,0,0,0-1.33,1.37Z" transform="translate(-0.19 -0.42)"/><path class="cls-10" d="M133.52,226.28s-1.38.19-1.68-.2,1.38-3.05,2.38-3,.36,1.4.29,2.34A.86.86,0,0,1,133.52,226.28Z" transform="translate(-0.19 -0.42)"/><polygon class="cls-8" points="55.25 184.01 113.92 217.6 131.01 207.73 72.34 174.14 55.25 184.01"/><polygon class="cls-5" points="55.25 184.01 55.25 188.06 113.92 221.65 113.92 217.6 55.25 184.01"/><polygon class="cls-4" points="131.01 207.73 131.01 211.78 113.92 221.65 113.92 217.6 131.01 207.73"/><path class="cls-11" d="M84,179.69s.29-2.92.58-6.07a12.71,12.71,0,0,1,1-4c-.17-.06-4.12-4.6-6.44-6.79s-3.08-4.13-3.92-5.13a2.49,2.49,0,0,1-.53-1.06l3.48-.56s2.77,2.18,6.61,4.87,5.12,6.27,6,7.21.61,1.28.69,1.92.18,7.31-.63,10.21S84,179.69,84,179.69Z" transform="translate(-0.19 -0.42)"/><path class="cls-12" d="M95.9,182.14c1.15.8,4.61,3.36,5.95,4.23,2.32,1.51,4.52,2.39,5.89,3.95,0,2.27-8.68,8.66-11.69,11.12-1.33-.64-7.2-4.84-9.54-6.44a31,31,0,0,1-3.09-1c-2.17-1.18-4.72-2.09-6.7-4.22-1.84-2-1.71-3.47-1.36-4.39,1.5-3.87,5.45-4.68,7.12-6.38,2.8-2.86,5.53-2.82,7.35-1.81C91.86,178.36,94.61,179.62,95.9,182.14Z" transform="translate(-0.19 -0.42)"/><path class="cls-12" d="M68.34,180.39c-2.28-5.55,2.41-8.39,6-7.7,2.75.53,6.32,2.2,7,5.38a2.7,2.7,0,0,1-.68,2.07s0,0,0,0h0c-.67.87-2.18,3-3.24,3.32A6,6,0,0,1,68.34,180.39Z" transform="translate(-0.19 -0.42)"/><path class="cls-11" d="M94.67,186.83a11.93,11.93,0,0,1,3.21,1.41c1.05.8,2.73,2,2.73,2s1,0,1.21.29-.21,1-1.55.12S94.67,186.83,94.67,186.83Z" transform="translate(-0.19 -0.42)"/><path class="cls-7" d="M73.65,172.69a5.24,5.24,0,0,0-4.41-.1c-1.55.85-2.86,3.88-2.86,4.92a7.74,7.74,0,0,0,3.15,6.06,8,8,0,0,0,6.65.21,13.18,13.18,0,0,0-3.13-2.43c-1.26-3.38-2-4.68-2.67-6.34C70.58,172.6,73.65,172.69,73.65,172.69Z" transform="translate(-0.19 -0.42)"/><path class="cls-12" d="M72.91,180.33s-1.94,1.34-.11,2.25a1.7,1.7,0,0,0,2.39-.67Z" transform="translate(-0.19 -0.42)"/><path class="cls-11" d="M80.93,176.88a21.67,21.67,0,0,1-2.77,2.87c-1.1.81-1.37,3.65-1.11,3.4.53-.5,3.91-1.6,5.43-2.59s-1.11-1.71-1.11-1.71Z" transform="translate(-0.19 -0.42)"/><path class="cls-11" d="M85.57,180.15a31.42,31.42,0,0,1,4,2.67c1.78,1.45,2.13,4.83,2.13,4.83s1-1-.5-3.75S85.57,180,85.57,180Z" transform="translate(-0.19 -0.42)"/><path class="cls-11" d="M79.84,185.67c-3-2.32-5.07-2-5.07-2-3-1.25-8-1.45-8-1.45a48.5,48.5,0,0,0-3.06-10c-1.5-3-1.26-5-1.81-6.62-1.09.57-2.8,1.53-3.88,2.07.12,1.36.31,3.4.62,6.43a50.7,50.7,0,0,0,4.57,15.16c.18.38,1,.24,2.45.61s11.19,3.07,14.63,3S82.84,188,79.84,185.67Z" transform="translate(-0.19 -0.42)"/><path class="cls-13" d="M137.18,222.06s-.75-12.55-1.83-16a17.64,17.64,0,0,0-.65-1.73c-.4-2.06-2.39-4.35-4.79-5.59-.38-.19-9.75-4.42-9.75-4.42s-8.81-4.24-13.55-6a2.12,2.12,0,0,0-2.75-1.12,14.44,14.44,0,0,0-5.24,4.55c.53.31,7.36,6.14,8.44,5.95.76,1.72,7.72,4.91,7.72,4.91a48.71,48.71,0,0,0,6.78,3.78c.8.37,2.4,1.13,2.41,1.08q.47.24.93.45a3.93,3.93,0,0,0,.06.6c.4,2,2,1,2,1a3.76,3.76,0,0,0-.8,3.54c.46,2.44,2.33,9.47,2.33,9.47a5.21,5.21,0,0,0-.78,3.07c0,2.11,6.31,2.86,9,.88C139,224.77,137.18,222.06,137.18,222.06Z" transform="translate(-0.19 -0.42)"/><path class="cls-14" d="M125.7,228.51s-.12-12.58-1-16.1a17.48,17.48,0,0,0-.56-1.76,8.62,8.62,0,0,0-3.5-5.13c-.19-.14-10.25-5.66-10.25-5.66a20.18,20.18,0,0,0-.26-3,12.72,12.72,0,0,0-2.71-4.46,13.06,13.06,0,0,0-5.8-3.9,27,27,0,0,0-3.81,4c-2.79,3.48-2.73,9.6-2.73,9.6a2.61,2.61,0,0,0,2.06.53c.67,1.75,7.46,5.28,7.46,5.28a38.18,38.18,0,0,0,6.51,4.33c.62.31,1.26.58,1.88.89.39.23.78.45,1.19.66a3.11,3.11,0,0,0,0,.61,1.22,1.22,0,0,0,1.93,1,3.75,3.75,0,0,0-1,3.5c.34,2.45,1.85,9.57,1.85,9.57a5.27,5.27,0,0,0-.93,3c-.12,2.1,6.15,3.17,9,1.33C127.41,231.31,125.7,228.51,125.7,228.51Z" transform="translate(-0.19 -0.42)"/><path class="cls-13" d="M116.65,213.81s.53-1.41,1.31-1.54a6,6,0,0,1,1.69,0S117.83,214.06,116.65,213.81Z" transform="translate(-0.19 -0.42)"/><path class="cls-13" d="M99.27,192.87a28,28,0,0,0-1.94,3.46,7.6,7.6,0,0,0-.44,4.19c0-.2,1.18-2.38,1.73-4.19A16.86,16.86,0,0,0,99.27,192.87Z" transform="translate(-0.19 -0.42)"/><path class="cls-13" d="M118.25,229.11c-.36,0,1.81,1,3,1.51a5,5,0,0,0,3-.14S120.31,228.88,118.25,229.11Z" transform="translate(-0.19 -0.42)"/><polygon class="cls-2" points="45.28 210.11 43.05 208.82 43.05 165.74 45.28 167.03 45.28 210.11"/><polygon class="cls-7" points="45.28 210.11 47.51 208.82 47.51 165.74 45.28 167.03 45.28 210.11"/><polygon class="cls-5" points="45.28 181.15 42.42 179.5 42.42 163.54 45.28 165.19 45.28 181.15"/><polygon class="cls-4" points="45.28 181.15 48.14 179.5 48.14 163.54 45.28 165.19 45.28 181.15"/><polygon class="cls-8" points="42.42 163.54 45.28 165.19 48.14 163.54 45.28 161.88 42.42 163.54"/><polygon class="cls-5" points="47.37 166.81 39.48 162.38 39.48 160.43 47.37 164.86 47.37 166.81"/><polygon class="cls-4" points="47.37 166.81 50.24 165.15 50.24 163.21 47.37 164.86 47.37 166.81"/><polygon class="cls-8" points="39.48 160.43 47.37 164.86 50.24 163.21 42.35 158.78 39.48 160.43"/><polygon class="cls-5" points="47.37 165.69 45.94 164.89 45.94 159.86 47.37 160.65 47.37 165.69"/><polygon class="cls-4" points="47.37 165.84 50.24 164.03 50.24 159 47.37 160.65 47.37 165.84"/><polygon class="cls-8" points="45.94 159.86 47.37 160.65 50.24 159 48.81 158.2 45.94 159.86"/><polygon class="cls-5" points="40.91 162.04 39.48 161.25 39.48 156.22 40.91 157.01 40.91 162.04"/><polygon class="cls-4" points="40.91 161.35 43.78 159.53 43.78 155.35 40.91 157.01 40.91 161.35"/><polygon class="cls-8" points="39.48 156.22 40.91 157.01 43.78 155.35 42.35 154.56 39.48 156.22"/><polygon class="cls-7" points="36.97 179.91 94.77 146.41 94.21 145.13 36.44 178.6 36.97 179.91"/><path class="cls-7" d="M94.22,145.94a1.07,1.07,0,0,0,.45.86c.25.15.45,0,.45-.34a1.07,1.07,0,0,0-.45-.86C94.42,145.45,94.22,145.61,94.22,145.94Z" transform="translate(-0.19 -0.42)"/><path class="cls-12" d="M60.93,162.87a2.94,2.94,0,0,1,2.82,2c.83,2,0,2.49,0,2.49a1,1,0,0,1-1,.45,1.19,1.19,0,0,1-1.32.59c0,.51-1.14.79-1.31.76-.58-.12-1.11-1.08-1.29-1.34.25-.24.63-.28.84-.49-.74-1.35-1-1-1-1l-.94.52s-.34-2,1.14-2.55c0-.49.11-.91,1-.8C60.22,163.25,60.43,163,60.93,162.87Z" transform="translate(-0.19 -0.42)"/><path class="cls-11" d="M60.41,165.18a7,7,0,0,1,.93,1.25,2.31,2.31,0,0,1,.17,1.3,4.65,4.65,0,0,0-.54-1.27A5.79,5.79,0,0,1,60.41,165.18Z" transform="translate(-0.19 -0.42)"/><path class="cls-11" d="M61.66,164.26a7,7,0,0,1,.93,1.25,2.31,2.31,0,0,1,.17,1.3,4.77,4.77,0,0,0-.54-1.28A5.61,5.61,0,0,1,61.66,164.26Z" transform="translate(-0.19 -0.42)"/><path class="cls-12" d="M77.22,153.74a2.59,2.59,0,0,1,2.48,1.71c.72,1.76,0,2.18,0,2.18a.93.93,0,0,1-.89.39,1,1,0,0,1-1.14.52c0,.44-1,.69-1.15.66a2.73,2.73,0,0,1-1.22-1c.23-.21.78-.4,1-.58-.65-1.17-1-1-1-1l-.79.46s-.35-1.7,1-2.14c0-.44.1-.8.87-.71C76.61,154.07,76.79,153.82,77.22,153.74Z" transform="translate(-0.19 -0.42)"/><path class="cls-11" d="M76.77,155.76a5.83,5.83,0,0,1,.81,1.09,2,2,0,0,1,.16,1.14,4.39,4.39,0,0,0-.48-1.12A5.22,5.22,0,0,1,76.77,155.76Z" transform="translate(-0.19 -0.42)"/><path class="cls-11" d="M77.86,155a6.63,6.63,0,0,1,.82,1.09,2.06,2.06,0,0,1,.15,1.14,4.15,4.15,0,0,0-.47-1.12A4.77,4.77,0,0,1,77.86,155Z" transform="translate(-0.19 -0.42)"/><path class="cls-4" d="M44.66,181.85c0-4.31-2.62-9.31-5.85-11.18a3.75,3.75,0,0,0-3.81-.31h0l-1.89,1.07,7.24,16.42,2.2-1.27C43.83,185.89,44.66,184.25,44.66,181.85Z" transform="translate(-0.19 -0.42)"/><path class="cls-5" d="M42.54,183c0,4.3-2.62,6.28-5.85,4.42s-5.85-6.87-5.85-11.18,2.62-6.28,5.85-4.42S42.54,178.73,42.54,183Z" transform="translate(-0.19 -0.42)"/><path class="cls-6" d="M38,185.6c-2.74-1.58-4.95-5.86-4.93-9.55a5.34,5.34,0,0,1,1-3.47c-1.42.37-2.37,1.93-2.38,4.32,0,3.69,2.19,8,4.93,9.55,1.61.93,3,.72,4-.35A3.47,3.47,0,0,1,38,185.6Z" transform="translate(-0.19 -0.42)"/><path class="cls-4" d="M36.78,173.08a3.45,3.45,0,0,0-2.62-.5,5.34,5.34,0,0,0-1,3.47c0,3.69,2.19,8,4.93,9.55a3.47,3.47,0,0,0,2.63.5,5.39,5.39,0,0,0,1-3.47C41.73,178.94,39.53,174.66,36.78,173.08Z" transform="translate(-0.19 -0.42)"/><path class="cls-7" d="M39.76,181.21a6.21,6.21,0,0,0-2.6-5,1.64,1.64,0,0,0-1.69-.14h0l-.84.47,3.22,7.31,1-.57A2.24,2.24,0,0,0,39.76,181.21Z" transform="translate(-0.19 -0.42)"/><path class="cls-2" d="M38.82,181.74c0,1.91-1.16,2.79-2.6,2a6.21,6.21,0,0,1-2.6-5c0-1.91,1.16-2.79,2.6-2A6.21,6.21,0,0,1,38.82,181.74Z" transform="translate(-0.19 -0.42)"/><path class="cls-4" d="M40.53,184.37c0-4.31-2.62-9.31-5.85-11.17a3.75,3.75,0,0,0-3.82-.32h0L29,174l7.24,16.43,2.2-1.28C39.7,188.41,40.53,186.77,40.53,184.37Z" transform="translate(-0.19 -0.42)"/><path class="cls-5" d="M38.41,185.56c0,4.31-2.62,6.29-5.85,4.42s-5.85-6.87-5.85-11.17,2.62-6.29,5.85-4.42S38.41,181.25,38.41,185.56Z" transform="translate(-0.19 -0.42)"/><path class="cls-6" d="M33.91,188.12c-2.75-1.58-4.95-5.86-4.93-9.55a5.34,5.34,0,0,1,1-3.46c-1.41.37-2.36,1.92-2.37,4.31,0,3.7,2.19,8,4.93,9.56,1.61.93,3,.71,4-.36A3.45,3.45,0,0,1,33.91,188.12Z" transform="translate(-0.19 -0.42)"/><path class="cls-4" d="M32.65,175.61a3.47,3.47,0,0,0-2.63-.5,5.34,5.34,0,0,0-1,3.46c0,3.69,2.18,8,4.93,9.55a3.45,3.45,0,0,0,2.62.5,5.29,5.29,0,0,0,1-3.46C37.6,181.47,35.39,177.19,32.65,175.61Z" transform="translate(-0.19 -0.42)"/><path class="cls-7" d="M35.63,183.73a6.23,6.23,0,0,0-2.6-5,1.68,1.68,0,0,0-1.7-.14h0l-.84.48,3.22,7.3,1-.56A2.26,2.26,0,0,0,35.63,183.73Z" transform="translate(-0.19 -0.42)"/><path class="cls-2" d="M34.69,184.26c0,1.92-1.17,2.8-2.6,2a6.23,6.23,0,0,1-2.6-5c0-1.92,1.16-2.8,2.6-2A6.26,6.26,0,0,1,34.69,184.26Z" transform="translate(-0.19 -0.42)"/><polygon class="cls-9" points="23.78 136.28 44.56 129.66 39.8 126.77 23.78 131.87 23.78 136.28"/><polygon class="cls-5" points="23.78 131.87 39.8 126.77 44.56 124.43 28.53 129.53 23.78 131.87"/><polygon class="cls-15" points="58.33 134.78 146.67 83.78 112.12 63.55 23.78 114.55 58.33 134.78"/><polygon class="cls-16" points="146.67 83.78 146.67 88 58.33 139 58.33 134.78 146.67 83.78"/><polygon class="cls-17" points="23.78 114.55 23.78 118.77 58.33 139 58.33 134.78 23.78 114.55"/><path class="cls-10" d="M108.74,65.11s4.46-.55,13.5,4.48S136.89,85,136.89,85a7.6,7.6,0,0,1-2.48,2.34c-1.81,1.16-13.18,8.17-13.18,8.17S111.06,90.71,103.92,85a79.76,79.76,0,0,1-10.6-9.86S104.17,67.29,108.74,65.11Z" transform="translate(-0.19 -0.42)"/><path class="cls-18" d="M132.37,87.78c-2,1.07-3.88,2.2-5.82,3.28-1.37.76-3.11,2-4.78,1.61A6,6,0,0,1,119.29,91c-1.42-1.39-2.64-3-4-4.46a34.09,34.09,0,0,0-9.59-7.59c-2-1-4.19-1.84-6.25-2.83a14.8,14.8,0,0,1-4.14-2.39c3.35-2.36,10.08-7,13.43-8.6,0,0,4.46-.55,13.5,4.48,8.63,4.81,14.12,14.45,14.6,15.31A19.6,19.6,0,0,1,132.37,87.78Z" transform="translate(-0.19 -0.42)"/><path class="cls-19" d="M114,91.67a63.62,63.62,0,0,0-6.63,4.57l3.22-6.94s2.32-3.35,2.2-5.17S110,80.72,110,80.72l-4.68,3.33s-2.41,6.46-2.66,10.5a21.12,21.12,0,0,0,.33,6.68c.3,1.82,2,2,4.33.56S115.1,95,115.1,95l2.68-1.09C116.51,93.35,115,92.16,114,91.67Z" transform="translate(-0.19 -0.42)"/><path class="cls-10" d="M105.56,72.94C102.05,69,97,72,93.9,74.3S84.63,82,81.82,84C80.23,85.12,88,94.24,91.31,97.5c3.66-2.27,11.23-6.07,14.25-7.73s6.58-4.88,4.26-10S105.56,72.94,105.56,72.94Z" transform="translate(-0.19 -0.42)"/><path class="cls-20" d="M109.82,79.78c-.21-.45-.41-.87-.61-1.27a25.5,25.5,0,0,1-1,5.21A7.26,7.26,0,0,1,104,87.81c-3.25,1.46-6.95,1.59-10.18,3-2,.91-3.74,2.48-5.85,3,1.26,1.44,2.46,2.73,3.35,3.6,3.66-2.27,11.23-6.07,14.25-7.73S112.14,84.89,109.82,79.78Z" transform="translate(-0.19 -0.42)"/><path class="cls-19" d="M111.47,72.85l-5.25.82a19.21,19.21,0,0,0-.7,4.27,3.34,3.34,0,0,0,4.21,3.21,19.73,19.73,0,0,1,4.58-3.73Z" transform="translate(-0.19 -0.42)"/><path class="cls-12" d="M117.11,79.37c1.29-.69,2.81-1.77,3.27-3.24s-.29-3.21-1-4.47c-1.11-2-4-2.3-6.43-.7-2.23,1.48-5.14,4.84-4.35,7.73.39,1.48,1.91,2,3.51,2A11.94,11.94,0,0,0,117.11,79.37Z" transform="translate(-0.19 -0.42)"/><path class="cls-9" d="M118.61,69.21c-.7-1.38-2.94-2-6.09.23-1.23.87-2.26,2.56-3.48,4-.17.2,3.34.61,6.18-.41.29,2.65,2.35,5.48,4.27,7.27C122.71,77.65,123.53,70.2,118.61,69.21Z" transform="translate(-0.19 -0.42)"/><path class="cls-12" d="M112.24,74.07s1.11-1.18.13-1.73S110,73.8,110,73.8Z" transform="translate(-0.19 -0.42)"/><path class="cls-13" d="M90.12,92.7a17.51,17.51,0,0,0-1.15-2,14.46,14.46,0,0,0-3.26-3.4A22.3,22.3,0,0,0,81,88.85c-3,1.39-5.47,5.82-7.45,7.43A61.54,61.54,0,0,0,68,102.35s-1.21-1.14-1.82-.61a.86.86,0,0,0-.07,1.2s-9.19,1-10.26,2.26a12,12,0,0,0-1.44,2,3.05,3.05,0,0,0-2.81.53c-1.14,1.06-.76,3.42.23,5.71s4.48,1.73,6.07,1.5,15-3,17.78-4.4,8.73-7.69,10.17-9c.84-.77,3.43-2.61,5.49-4A22,22,0,0,0,90.12,92.7Z" transform="translate(-0.19 -0.42)"/><path class="cls-14" d="M82.63,94l6.31-3.45c-1.84-2.64-4.5-4.43-7-6.32-3.11.94-6,1.44-8.72,2.94A8.71,8.71,0,0,0,69,97.08a24.85,24.85,0,0,0,3.57,7.43,1.9,1.9,0,0,0-1.82-.08c-1.05.48-.17,1.37.45,1.9a113.18,113.18,0,0,0-11.47,3.27C56.59,110.82,57.1,113,57.1,113s-3.49.77-1.22,4.82,7.16,2.61,8.75,1.35,17.79-7.34,19-9.31.26-6.91-.26-9.92A47.32,47.32,0,0,1,82.63,94Z" transform="translate(-0.19 -0.42)"/><path class="cls-9" d="M52.33,108.85s-1.7.21-3.08.24-2.59.45-2.88,1.79a13.6,13.6,0,0,0,.16,4.72c.5,3.77,1.07,5.87,2.39,6.2s2.39-.34,2.66-2.74a8.87,8.87,0,0,1,.7-3.19c.43-.64.72-1,1.09-1.54C54.16,113.14,52.33,108.85,52.33,108.85Z" transform="translate(-0.19 -0.42)"/><path class="cls-2" d="M52.93,112.6s-.94.08-1.6,1.42a4.46,4.46,0,0,0-.37,3.23,9.18,9.18,0,0,0,.63,1.67,10.62,10.62,0,0,1,.69-3c.5-.93.86-1,.86-1Z" transform="translate(-0.19 -0.42)"/><path class="cls-10" d="M50.4,120.5c.19-1.13-.91-2.66-1.3-3.31a7.78,7.78,0,0,1-1.32-4.58,6.5,6.5,0,0,1,.71-3.45,4.71,4.71,0,0,0-2,.38c-.44.34-.8,2.06-.8,3.49a26.25,26.25,0,0,0,1.34,6.91C47.79,121.73,50,123,50.4,120.5Z" transform="translate(-0.19 -0.42)"/><path class="cls-2" d="M48.92,121.8s.74-.76.1-2.55-2-2.64-2.51-4.84a14.67,14.67,0,0,1-.26-4.45,2.82,2.82,0,0,0-.47,1.5,19,19,0,0,0,.43,5.55C47,120.5,47.82,121.54,48.92,121.8Z" transform="translate(-0.19 -0.42)"/><path class="cls-21" d="M51.23,113.41l1.05,2.46.41-.58s-.58-1.76-.87-2.52A2.53,2.53,0,0,0,51.23,113.41Z" transform="translate(-0.19 -0.42)"/><path class="cls-10" d="M52.1,116.29l-1.21-2.1a3,3,0,0,0-.23.87c.21.42,1.24,1.94,1.24,1.94Z" transform="translate(-0.19 -0.42)"/><path class="cls-9" d="M56.14,115.12s-1.61.62-2.94,1-2.41,1.06-2.36,2.43a13.41,13.41,0,0,0,1.3,4.55c1.4,3.53,2.46,5.43,3.82,5.43s2.24-.91,1.91-3.3a9.32,9.32,0,0,1-.09-3.26c.27-.73.46-1.13.69-1.77C58.94,118.84,56.14,115.12,56.14,115.12Z" transform="translate(-0.19 -0.42)"/><path class="cls-2" d="M57.62,118.62a2.23,2.23,0,0,0-1.21,1.76,4.43,4.43,0,0,0,.43,3.22,9.42,9.42,0,0,0,1,1.47,10.84,10.84,0,0,1-.07-3.12c.27-1,.59-1.22.59-1.22Z" transform="translate(-0.19 -0.42)"/><path class="cls-10" d="M57.08,126.89C57,125.75,55.56,124.53,55,124a7.84,7.84,0,0,1-2.38-4.13,6.4,6.4,0,0,1-.14-3.52,4.69,4.69,0,0,0-1.82.85c-.34.43-.27,2.18.07,3.58a26,26,0,0,0,3,6.37C54.85,128.71,57.28,129.45,57.08,126.89Z" transform="translate(-0.19 -0.42)"/><path class="cls-2" d="M56,128.51s.54-.92-.52-2.5-2.57-2.08-3.61-4.09a14.49,14.49,0,0,1-1.33-4.25,2.8,2.8,0,0,0-.09,1.57,19,19,0,0,0,1.76,5.27C53.8,127.71,54.83,128.52,56,128.51Z" transform="translate(-0.19 -0.42)"/><path class="cls-21" d="M56.17,119.81,57.78,122l.26-.67s-1-1.56-1.46-2.23A2.75,2.75,0,0,0,56.17,119.81Z" transform="translate(-0.19 -0.42)"/><path class="cls-10" d="M57.71,122.39,56,120.65a3.27,3.27,0,0,0,0,.9c.31.36,1.67,1.58,1.67,1.58Z" transform="translate(-0.19 -0.42)"/><path class="cls-18" d="M88,76c-1.74-.13-6.35,4.34-6.35,4.34a16.36,16.36,0,0,1-4.42,1c-2.5.22-7.06,3.11-8.58,4.25s-1.82,4.63-3.34,6.53-7.56,5.43-7.56,5.43,3.16,1.49,4.52,2.36,7.53-.62,7.53-.62,2.65-.31,3.86.89,2,5.92,2.58,8,3.65,7.3,4.87,9.5-.38,7-.08,10.84,1.57,11.25,1.57,11.25,6-8,11.89-10,7.67-.71,10.26-6.47c1.82-4,2.15-7.12,5.84-7.31,1.94-.11,5.82,3,9.62-.39.18-.16-5.53-15.37-9.18-20.85s-7.21-14-12.23-16.41A26.25,26.25,0,0,0,88,76Z" transform="translate(-0.19 -0.42)"/><path class="cls-12" d="M103.42,71.5s-2.62-3.31-6.64-2.31-9.59,3.39-11.36,5.46c-2.07,2.42-2.83,2.55-2.15,3.68.91,1.5.23,1.8,4.79,5s7.25,3.36,8,4.24.44,2.83,2.48,5.35a25,25,0,0,0,2.92,3.14c1,.69.68-.59.68-.59s1.18,1.25,1.37,0c.62.36,1.37,0,1.1-.72.45-1.39-.6-3.58-3.43-6.88A112.93,112.93,0,0,0,90.87,78a40.34,40.34,0,0,0,6.87-2.64C99.9,74.05,103.42,71.5,103.42,71.5Z" transform="translate(-0.19 -0.42)"/><path class="cls-10" d="M88,99s1.66,10.4,5.36,15.93a49.78,49.78,0,0,0,7,8.55s-2.2-4.34-6.49-12.72S88,99,88,99Z" transform="translate(-0.19 -0.42)"/><path class="cls-10" d="M93.32,96.84a89.21,89.21,0,0,0,9.27,10.34A28.91,28.91,0,0,0,112.77,113,83.81,83.81,0,0,1,102.59,104C97.32,98.6,93.32,96.84,93.32,96.84Z" transform="translate(-0.19 -0.42)"/><text id="CHAMAR_O_GREGÓRIO" data-name="CHAMAR O GREGÓRIO" class="cls-22" transform="translate(34.08 26.57) scale(1.01 1)">skip gym<tspan class="cls-23"><tspan x="22.61" y="20.8">day</tspan></tspan></text></svg>