<svg stroke="currentColor" fill="currentColor" stroke-width="0" viewBox="0 0 512 512" height="1em" width="1em" xmlns="http://www.w3.org/2000/svg">
    <path d="m 510.945 116.865 c -8.82 -1.1025 -16.5375 1.1025 -20.9475 4.41 c -4.41 3.3075 -11.025 12.1275 -2.205 25.3575 c 7.7175 11.025 12.1275 17.64 15.435 34.1775 c 7.7175 38.5875 -29.8777 52.3688 -58.7522 46.316 c -15.1814 -3.5721 -30.3629 -8.9303 -42.8652 -16.9675 c -5.3582 -3.5721 -8.9303 -6.2512 -14.2884 -10.7163 c 2.585 -1.469 5.6532 -5.2702 8.1489 -9.5911 c 0.8235 -1.425 1.5637 -2.8752 2.5674 -4.6973 c 13.3954 10.7163 33.6373 21.2341 50.9024 24.1117 c 26.7246 4.6195 50.9796 -18.533 23.4171 -54.9155 c -13.23 -16.5375 -4.41 -33.075 0 -38.5875 c 3.3075 -4.41 7.7175 -8.82 12.1275 -11.025 c 8.82 -4.41 18.7425 -3.3075 26.46 -2.205 z m -149.5211 -37.9811 c 0.95 0 1.9144 0 2.8644 0.0362 c 12.317 0.8568 26.6054 4.4289 40.0008 11.5731 c 31.8551 18.3876 48.2234 57.1536 34.828 101.8049 c -14.2884 -4.4651 -25.0047 -10.7163 -34.828 -18.7535 c 7.1442 -21.4326 -5.5288 -41.0693 -18.537 -48.5802 c -7.6397 -4.4124 -16.0163 -6.5873 -24.2612 -6.6307 c -15.7389 -0.0843 -30.9449 7.6 -39.3695 22.19 c -12.8371 22.231 -4.9019 51.8088 17.3302 64.6483 c 10.3247 5.9616 26.4374 11.2378 38.9398 2.3076 c 8.0372 6.2512 10.7163 8.0372 16.0744 11.6093 c 9.8233 6.2512 12.5023 7.1442 21.4326 10.7163 c -23.2187 16.9675 -47.0606 22.4014 -69.0987 18.7305 h -0.0361 l -101.1441 164.8368 c -20.8205 36.0555 -51.2735 58.1177 -82.9237 65.6646 c -31.6466 7.547 -63.5825 1.3985 -89.5146 -14.5032 c -51.8642 -31.8033 -80.0025 -105.5066 -43.9625 -175.7891 l 19.9283 -34.5461 l 0.1892 -0.3376 c 23.6475 -43.4395 54.3054 -72.9426 90.8334 -90.7599 c -15.4049 55.3556 -20.9772 110.7112 -22.5415 164.0436 l -31.4469 -38.9643 l -5.9146 -3.6168 l -12.6479 22.0414 c -22.9399 47.4247 -0.8042 89.2476 28.9954 107.5219 c 43.0442 19.9367 75.4299 14.4887 102.0225 -27.8791 l 100.2755 -163.5871 c -24.9797 -27.0352 -30.9835 -68.781 -11.7906 -102.0225 c 15.6726 -27.1462 44.1689 -41.9941 73.5768 -41.8941 z"></path>
</svg>
