<?xml version="1.0" standalone="no"?>
<!DOCTYPE svg PUBLIC "-//W3C//DTD SVG 20010904//EN"
 "http://www.w3.org/TR/2001/REC-SVG-20010904/DTD/svg10.dtd">
<svg version="1.0" xmlns="http://www.w3.org/2000/svg"
 width="96.000000pt" height="96.000000pt" viewBox="0 0 96.000000 96.000000"
 preserveAspectRatio="xMidYMid meet">
<path d="m 31.9722 10.032 c -3.1085 1.1093 -3.1085 1.1093 -6.4497 3.3368 l 0 0.1114 l 3.4526 6.9053 l 3.4526 6.7939 l -2.5616 1.6706 c -1.4479 0.891 -6.0142 4.9005 -10.0237 9.0214 c -9.1328 9.0214 -12.1399 16.1494 -12.1399 28.1779 c 0.1114 12.474 4.1209 19.4906 13.9219 23.8343 c 3.7868 1.6706 8.5759 2.0047 29.5144 2.3389 c 22.275 0.3341 25.5049 0.2228 28.7348 -1.5593 c 6.4834 -3.5962 8.1304 -10.6132 8.019 -20.7157 c 0 -13.1422 -1.2251 -18.0427 -6.7939 -26.2845 c -4.3436 -6.9053 -13.2536 -12.474 -2.1161 -4.6777 c 2.0048 1.8934 3.3413 1.782 6.5711 -0.7796 c 2.7844 -2.1161 2.7844 -2.1161 0.5569 -3.8981 c -3.8981 -3.1185 -7.9046 -4.7826 -14.0886 -6.6136 c -5.698 -1.784 -3.788 -1.172 -7.687 -2.253 c 0.2803 -1.1572 1.2827 -4.053 2.7305 -7.1714 l 2.7844 -5.4574 l -4.8181 -1.8032 c -6.8763 -2.546 -23.2317 -3.3067 -30.1949 -1.7519 z m 32.3198 25.86 c 10.964 8.897 12.815 20.013 13.861 32.173 c -0.058 8.221 -1.21 10.156 -7.322 13.206 c -4.583 1.844 -11.048 1.765 -19.865 1.717 c -6.9621 0 -20.83 -0.387 -23.851 -1.9858 c -6.493 -3.1192 -9.275 -5.2552 -9.049 -14.2332 c 0.371 -13.919 4.4729 -21.8116 15.721 -30.852 c 7.55 -5.602 7.645 -5.602 14.292 -5.65 c 9.116 0.087 9.116 0.087 16.213 5.581 z m -31.2261 -19.9906 c 9.0314 -3.5952 21.0699 -3.5362 29.2738 0.2105 c -4.2327 9.5601 -3.2797 7.3881 -3.4767 7.7951 c -9.7365 -1.9957 -12.2581 -1.9355 -21.1246 -0.6648 z"/>
</svg>
