<svg xmlns="http://www.w3.org/2000/svg" fill="currentColor" height="20" viewBox="0 0 537.6 537.6" width="20">
    <path d="M460.8 44.8H76.7C59.1 44.8 44.8 59.3 44.8 77.1V460.5C44.8 478.3 59.1 492.8 76.7 492.8H460.8C478.4 492.8 492.8 478.3 492.8 460.5V77.1C492.8 59.3 478.4 44.8 460.8 44.8ZM180.2 428.8H113.8V215H180.3V428.8ZM147 185.8C125.7 185.8 108.5 168.5 108.5 147.3S125.7 108.8 147 108.8C168.2 108.8 185.5 126.1 185.5 147.3 185.5 168.6 168.3 185.8 147 185.8ZM429.1 428.8H362.7V324.8C362.7 300 362.2 268.1 328.2 268.1 293.6 268.1 288.3 295.1 288.3 323V428.8H221.9V215H285.6V244.2H286.5C295.4 227.4 317.1 209.7 349.4 209.7 416.6 209.7 429.1 254 429.1 311.6V428.8Z"/>
</svg>