<svg width="18" height="16" viewBox="0 0 18 16" xmlns="http://www.w3.org/2000/svg">
<path d="M14.8468 0.84375C15.0343 0.635417 15.0447 0.416667 14.878 0.1875C14.6905 -0.0208333 14.4717 -0.0520833 14.2217 0.09375L10.9085 2.3125C9.99162 2.9375 9.52278 3.80208 9.50194 4.90625C9.50194 5.53125 9.66864 6.09375 10.002 6.59375L2.28172 14.2812C2.09418 14.4896 2.00041 14.7292 2.00041 15C2.00041 15.2708 2.09418 15.5104 2.28172 15.7188C2.49009 15.9062 2.72972 16 3.00061 16C3.2715 16 3.51113 15.9062 3.71951 15.7188L11.4086 8C11.9295 8.33333 12.4921 8.5 13.0964 8.5C14.2008 8.47917 15.0656 8.01042 15.6907 7.09375L17.9099 3.78125C18.0558 3.53125 18.0245 3.3125 17.8161 3.125C17.5869 2.95833 17.3681 2.96875 17.1598 3.15625L14.0029 6.28125L13.4402 5.71875L16.3783 2.34375C16.545 2.09375 16.5346 1.86458 16.3471 1.65625C16.1387 1.46875 15.9199 1.45833 15.6907 1.625L12.2838 4.5625L11.7211 4L14.8468 0.84375ZM1.65659 0.21875C1.48989 0.0729167 1.30235 0 1.09397 0C0.718897 0.0208333 0.468846 0.208333 0.34382 0.5625C0.281307 0.895833 0.208376 1.29167 0.125026 1.75C0.0416752 2.1875 0 2.60417 0 3C0 4.25 0.354239 5.35417 1.06272 6.3125C1.7712 7.27083 2.76098 8.34375 4.03207 9.53125C4.13626 9.63542 4.23003 9.73958 4.31338 9.84375C4.43841 9.94792 4.55301 10.0521 4.6572 10.1562C4.71971 10.2188 4.78223 10.2708 4.84474 10.3125L8.28294 6.875L1.65659 0.21875ZM14.2842 15.7188C14.4925 15.9062 14.7322 16 15.0031 16C15.274 16 15.5136 15.9062 15.722 15.7188C15.9095 15.5104 16.0033 15.2708 16.0033 15C16.0033 14.7292 15.9095 14.4896 15.722 14.2812L11.1273 9.71875L9.72074 11.125L14.2842 15.7188Z"/>
</svg>
