<svg xmlns="http://www.w3.org/2000/svg" viewBox="0 0 135 135">
    <linearGradient id="a" gradientUnits="userSpaceOnUse" x1="0" y1="0" x2="0" y2="135">
        <stop offset="0" stop-color="#f7f7f7"/>
        <stop offset="1" stop-color="#e3e3e3"/>
    </linearGradient>
    <path fill="url(#a)" d="M0 0h135v135H0z"/>
    <path d="M100 55.7l.4-2.8c1.2-7.2.2-14.5-2.7-21.2a17.5 17.5 0 00-16.1-10.5l-6.9-2.7a17.5 17.5 0 00-14.5-.6 39.3 39.3 0 00-25.1 39.3c.3 6.5-.9 13-3.6 19a30.8 30.8 0 003 30.7l1.1 1.6S44.8 120 70.1 120s32.4-17.6 32.4-17.6c2.8-6.4 3-13.7.5-20.2-2-5.4-3.1-11.1-3-16.9v-.4" fill="#adadad"/>
    <path d="M116 135v-9.4c0-9.3-6.8-17.1-16-18.3l-16.9-1.9a4.6 4.6 0 01-4-4.7v-9.2l-23.2-.3v9.5c0 2.3-1.7 4.3-4 4.6l-16.9 2c-9.2 1.2-16 9-16 18.3v9.4" fill="#c9c9c9"/>
    <path d="M94.4 53.4h-2.3v13.7h2.3c3.7.1 6.7-2.9 6.8-6.6v-.2a6.7 6.7 0 00-6.7-6.9h-.1z" fill="#c9c9c9"/>
    <path d="M93.1 53.4c-9.2-4.6-11.5-20.7-11.5-20.7L74.7 35s-2.3-9.2-9.2-6.9c-9 3-2.3 13.8-11.5 20.7a83.4 83.4 0 01-11.5 6.9l1.3 16a24 24 0 0048 0l1.3-18.3z" fill="#dfdfdf"/>
</svg>