<svg xmlns="http://www.w3.org/2000/svg" fill="currentColor" height="20" viewBox="0 96 960 960" width="20"><path d="M720.065 460q-17.813 0-30.863-13.05t-13.05-30.863v-37.674h-37.678q-17.713 0-30.811-13.05-13.098-13.05-13.098-30.863t13.05-30.863q13.05-13.05 30.863-13.05h37.674v-37.678q0-17.714 13.05-30.811Q702.252 209 720.065 209t30.863 13.05q13.05 13.05 13.05 30.863v37.674h37.679q17.713 0 30.811 13.05 13.097 13.05 13.097 30.863t-13.05 30.863q-13.05 13.05-30.863 13.05h-37.674v37.678q0 17.713-13.05 30.811Q737.878 460 720.065 460ZM292.304 773h373.283q15.913 0 22.63-13.674 6.718-13.674-2.239-26.109l-98.021-131.108q-7.883-9.196-20.355-9.196-12.472 0-20.428 10.196L449.565 734l-68.608-91.891q-7.883-10.196-20.355-10.196-12.472 0-20.428 10.196l-68.261 91.108q-8.956 12.435-2.239 26.109Q276.391 773 292.304 773Zm-86.869 171.131q-39.783 0-67.392-27.609-27.608-27.609-27.608-67.392V302.87q0-39.783 27.608-67.392 27.609-27.609 67.392-27.609h305.13v221.718q0 17.61 12.913 30.522Q536.39 473.022 554 473.022h28.5v28.5q0 17 12.739 29.739T624.978 544h221.718v305.13q0 39.783-27.609 67.392-27.609 27.609-67.391 27.609H205.435Z"/></svg>