<svg xmlns="http://www.w3.org/2000/svg" fill="currentColor" height="20" viewBox="0 96 960 960" width="20"><path d="M162.87 904.131q-37.783 0-64.392-26.609Q71.87 850.913 71.87 813.13V338.87q0-37.783 26.61-64.392 26.608-26.609 64.391-26.609h634.26q37.783 0 64.392 26.609 26.609 26.609 26.609 64.392v474.26q0 37.783-26.609 64.392-26.609 26.609-64.392 26.609H162.87Zm0-368.131h158.087V338.87H162.87V536Zm238.087 0h158.086V338.87H400.957V536Zm238.086 0H797.13V338.87H639.043V536ZM320.957 813.13V616H162.87v197.13h158.087Zm80 0h158.086V616H400.957v197.13Zm238.086 0H797.13V616H639.043v197.13Z"/></svg>