<svg xmlns="http://www.w3.org/2000/svg" fill="currentColor" height="20" viewBox="0 96 960 960" width="20"><path d="M206.87 984.131q-39.433 0-67.217-27.784t-27.784-67.217V346.87q0-39.433 27.784-67.217t67.217-27.784H236v-40.13q0-17.957 12.912-30.913 12.912-12.957 31.958-12.957 17.956 0 31.293 13.457 13.337 13.456 13.337 31.413v39.13h309v-40.13q0-17.957 12.912-30.913 12.912-12.957 31.958-12.957 17.956 0 31.293 13.457Q724 194.782 724 212.739v39.13h29.13q39.433 0 67.217 27.784t27.784 67.217v542.26q0 39.433-27.784 67.217t-67.217 27.784H206.87Zm0-95.001h546.26V498H206.87v391.13Z"/></svg>