<svg xmlns="http://www.w3.org/2000/svg" fill="currentColor" height="20" viewBox="0 96 960 960" width="20"><path d="M576.225 816Q536 816 508 788.225q-28-27.774-28-68Q480 680 507.775 652q27.774-28 68-28Q616 624 644 651.775q28 27.774 28 68Q672 760 644.225 788q-27.774 28-68 28ZM218.87 968.131q-34.483 0-58.742-24.609t-24.259-58.392V362.87q0-33.783 24.259-58.392t58.742-24.609H288v-96h77.5v96h229v-96H672v96h69.13q34.483 0 58.742 24.609t24.259 58.392v522.26q0 33.783-24.259 58.392t-58.742 24.609H218.87Zm0-83.001h522.26V528H218.87v357.13Z"/></svg>