<svg xmlns="http://www.w3.org/2000/svg" fill="currentColor" height="20" width="20">
    <path
        d="M10 1.354q-1.396 0-2.385.979-.99.979-.99 2.396 0 1.167.708 2.063.709.896 1.792 1.187v1.396H6.312q-.708 0-1.218.51-.511.511-.511 1.24v.792q-1.084.27-1.792 1.166-.708.896-.708 2.063 0 1.417.979 2.396.979.979 2.375.979 1.416 0 2.396-.979.979-.979.979-2.396 0-1.167-.709-2.063-.708-.896-1.791-1.166H6.312v-.792h7.626v.917q-1.084.27-1.792 1.166-.708.896-.708 2.063 0 1.417.979 2.396.979.979 2.375.979 1.416 0 2.396-.979.979-.979.979-2.396 0-1.167-.709-2.063-.708-.896-1.791-1.166v-.917q0-.729-.511-1.24-.51-.51-1.218-.51h-3.063v-1.417q1.083-.27 1.792-1.166.708-.896.708-2.063 0-1.417-.99-2.396-.989-.979-2.385-.979Z" />
</svg>