<svg xmlns="http://www.w3.org/2000/svg" fill="currentColor" height="20" width="20">
    <path
        d="M4.583 2.14q-1.084.27-1.792 1.166-.708.896-.708 2.063 0 1.417.979 2.396.979.979 2.375.979 1.416 0 2.396-.979.979-.979.979-2.396 0-1.167-.709-2.063-.708-.896-1.791-1.166-.8645-.215-1.729 0zm9.355.125q-1.084.27-1.792 1.166-.708.896-.708 2.063 0 1.417.979 2.396.979.979 2.375.979 1.416 0 2.396-.979.979-.979.979-2.396 0-1.167-.709-2.063-.708-.896-1.791-1.166-.8645-.215-1.729 0zM4.583 11.917q-1.084.27-1.792 1.166-.708.896-.708 2.063 0 1.417.979 2.396.979.979 2.375.979 1.416 0 2.396-.979.979-.979.979-2.396 0-1.167-.709-2.063-.708-.896-1.791-1.166-.8645-.215-1.729 0zm9.355.125q-1.084.27-1.792 1.166-.708.896-.708 2.063 0 1.417.979 2.396.979.979 2.375.979 1.416 0 2.396-.979.979-.979.979-2.396 0-1.167-.709-2.063-.708-.896-1.791-1.166-.8645-.215-1.729 0z" />
</svg>