<svg xmlns="http://www.w3.org/2000/svg" fill="currentColor" width="20" height="20" viewBox="0 0 20 20"><path d="M5.562 18.167q-.729 0-1.229-.5-.5-.5-.5-1.229V3.562q0-.729.5-1.229.5-.5 1.229-.5h5.792q.334 0 .656.125.323.125.573.375l3.084 3.084q.25.25.375.573.125.322.125.656V11.6H9Q8.1 11.6 7.5 12.2 7 12.7 7 13.6V18.167Zm5.376-11.979q0 .374.25.624t.624.25h2.626l-3.5-3.5Z M8.9374 13.0626h.7657c.9858 0 1.7865.8008 1.7865 1.7865s-.8008 1.7865-1.7865 1.7865h-.2552v1.0209c0 .2808-.2297.5104-.5104.5104s-.5104-.2297-.5104-.5104V16.1252 13.5731c0-.2808.2297-.5104.5104-.5104zm.7657 2.5522c.4243 0 .7657-.3414.7657-.7657s-.3414-.7657-.7657-.7657h-.2552v1.5313h.2552zm2.8074-2.5522h.7657c.8454 0 1.5313.6859 1.5313 1.5313v2.0417c0 .8454-.6859 1.5313-1.5313 1.5313H12.5104c-.2808 0-.5104-.2297-.5104-.5104V13.5731c0-.2808.2297-.5104.5104-.5104zm.7657 4.0835c.2808 0 .5104-.2297.5104-.5104V14.5939c0-.2808-.2297-.5104-.5104-.5104h-.2552v3.0626h.2552zm2.297-3.5731c0-.2808.2297-.5104.5104-.5104h1.5313c.2808 0 .5104.2297.5104.5104s-.2297.5104-.5104.5104H16.5939v1.0209h1.0209c.2808 0 .5104.2297.5104.5104s-.2297.5104-.5104.5104H16.5939v1.5313c0 .2808-.2297.5104-.5104.5104s-.5104-.2297-.5104-.5104V15.6148 13.5731z"/></svg>
