<svg xmlns="http://www.w3.org/2000/svg" height="20" viewBox="0 -960 960 960" width="20"><path d="M166.87-151.869q-37.783 0-66.392-28.609-28.609-28.609-28.609-66.392v-469.847q0-38.022 28.609-66.511 28.609-28.49 66.392-28.49h185.999q19.153 0 36.685 7.457 17.533 7.456 30.968 20.891L476-728.131h321.13q38.022 0 64.511 28.609 26.49 28.609 26.49 66.392H261.87q-39.544 0-67.272 27.25-27.728 27.25-27.728 64.402v295.804l75.369-237.043q9.196-29.109 34.326-47.761 25.131-18.652 56.957-18.652h484.347q48.501 0 76.848 38.543 28.348 38.544 13.196 85.283l-64.065 201.847q-10.87 34.37-35.554 52.979-24.685 18.609-59.533 18.609H166.87Z"/></svg>