<svg xmlns="http://www.w3.org/2000/svg" fill="currentColor" height="20" viewBox="0 96 960 960" width="20"><path d="M206.87 534q-39.188 0-67.094-27.906-27.907-27.907-27.907-67.094V302.87q0-39.188 27.907-67.094 27.906-27.907 67.094-27.907H343q39.187 0 67.094 27.907Q438 263.682 438 302.87V439q0 39.187-27.906 67.094Q382.187 534 343 534H206.87Zm0 410.131q-39.188 0-67.094-27.907-27.907-27.906-27.907-67.094V713q0-39.187 27.907-67.094Q167.682 618 206.87 618H343q39.187 0 67.094 27.906Q438 673.813 438 713v136.13q0 39.188-27.906 67.094-27.907 27.907-67.094 27.907H206.87ZM617 534q-39.187 0-67.094-27.906Q522 478.187 522 439V302.87q0-39.188 27.906-67.094 27.907-27.907 67.094-27.907h136.13q39.188 0 67.094 27.907 27.907 27.906 27.907 67.094V439q0 39.187-27.907 67.094Q792.318 534 753.13 534H617Zm0 410.131q-39.187 0-67.094-27.907Q522 888.318 522 849.13V713q0-39.187 27.906-67.094Q577.813 618 617 618h136.13q39.188 0 67.094 27.906 27.907 27.907 27.907 67.094v136.13q0 39.188-27.907 67.094-27.906 27.907-67.094 27.907H617ZM206.87 439H343V302.87H206.87V439ZM617 439h136.13V302.87H617V439Zm0 410.13h136.13V713H617v136.13Zm-410.13 0H343V713H206.87v136.13ZM617 439Zm0 274Zm-274 0Zm0-274Z"/></svg>