<svg xmlns="http://www.w3.org/2000/svg" fill="currentColor" height="20" viewBox="0 96 960 960" width="20"><path d="M280 784.131q-86.374 0-147.252-60.873-60.879-60.873-60.879-147.239 0-86.367 60.879-147.258Q193.626 367.869 280 367.869h106.913q19.152 0 33.326 14.174t14.174 33.327q0 19.152-14.174 33.326t-33.326 14.174H280q-48.804 0-80.967 32.163T166.87 576q0 48.804 32.163 80.967T280 689.13h106.913q19.152 0 33.326 14.174t14.174 33.326q0 19.153-14.174 33.327t-33.326 14.174H280Zm78.413-164.218q-17.813 0-30.863-13.05T314.5 576q0-17.813 13.05-30.863t30.863-13.05h243.174q17.813 0 30.863 13.05T645.5 576q0 17.813-13.05 30.863t-30.863 13.05H358.413Zm214.674 164.218q-19.152 0-33.326-14.174t-14.174-33.327q0-19.152 14.174-33.326t33.326-14.174H680q48.804 0 80.967-32.163T793.13 576q0-48.804-32.163-80.967T680 462.87H573.087q-19.152 0-33.326-14.174t-14.174-33.326q0-19.153 14.174-33.327t33.326-14.174H680q86.374 0 147.252 60.873 60.879 60.873 60.879 147.239 0 86.367-60.879 147.258Q766.374 784.131 680 784.131H573.087Z"/></svg>