<svg xmlns="http://www.w3.org/2000/svg" fill="currentColor" height="20" viewBox="0 96 960 960" width="20"><path d="M480.073 579.913q34.644 0 59.242-24.671t24.598-59.315q0-34.644-24.671-59.242t-59.315-24.598q-34.644 0-59.242 24.671t-24.598 59.315q0 34.644 24.671 59.242t59.315 24.598ZM480 856.587q118.204-108.821 174.352-196.74Q710.5 571.928 710.5 503.923q0-106.549-66.392-172.486Q577.717 265.5 480.054 265.5t-164.108 65.937Q249.5 397.374 249.5 503.923q0 68.005 56.148 155.924Q361.796 747.766 480 856.587Zm-.25 106.717q-10.185 0-19.62-3.478-9.434-3.478-17.63-9.674-146-130.705-217-240.309-71-109.604-71-206.233 0-153.125 97.652-243.118Q349.804 170.5 479.978 170.5q130.174 0 227.848 89.992Q805.5 350.485 805.5 503.61q0 96.629-71 206.233t-217 240.272q-7.196 6.233-17.38 9.711-10.185 3.478-20.37 3.478ZM480 504Z"/></svg>