<svg xmlns="http://www.w3.org/2000/svg" height="20" viewBox="0 96 960 960" width="20"><path d="M266.586 967.413q-34.254 0-58.485-24.381-24.232-24.381-24.232-58.619V506.152q0-34.237 24.382-58.619 24.381-24.381 58.619-24.381h17.543v-89.065q0-81.593 57.183-138.949 57.182-57.356 138.63-57.356t138.404 57.356q56.957 57.356 56.957 138.949v89.065h17.543q34.238 0 58.619 24.381 24.382 24.382 24.382 58.619v378.261q0 34.238-24.394 58.619-24.393 24.381-58.647 24.381H266.586Zm213.626-200.13q29.788 0 50.788-21.213 21-21.212 21-51 0-29.787-21.212-50.787-21.213-21-51-21-29.788 0-50.788 21.212-21 21.212-21 51t21.212 50.788q21.213 21 51 21ZM367.413 423.152h225.174v-89.065q0-47.21-32.728-80.257Q527.13 220.783 480 220.783q-47.13 0-79.859 33.047-32.728 33.047-32.728 80.257v89.065Z"/></svg>