<svg xmlns="http://www.w3.org/2000/svg" fill="currentColor" height="20" viewBox="0 96 960 960" width="20"><path d="M353.761 759.652q-13.674-13.434-13.674-33.212 0-19.777 13.674-33.201L423.5 623.5H156.022q-19.153 0-33.327-14.174T108.521 576q0-19.152 14.174-33.326t33.327-14.174H420.5l-68.979-68.978q-13.434-13.435-13.315-32.454.12-19.019 14.555-32.72 13.424-14.435 33.32-14.435 19.897 0 34.571 14.674l148.826 148.587q7.809 7.317 11.122 16.093 3.313 8.776 3.313 17.733t-3.313 17.733q-3.313 8.776-11.122 16.093L419.567 760.499q-13.589 13.588-32.361 13.708-18.771.119-33.445-14.555Zm172.363 184.479q-18.689 0-32.863-14.174t-14.174-33.327q0-19.152 14.174-33.326t32.863-14.174h230.354V302.87H526.124q-18.689 0-32.863-14.174t-14.174-33.326q0-19.153 14.174-33.327t32.863-14.174h230.354q39.433 0 67.217 27.784t27.784 67.217v546.26q0 39.433-27.784 67.217t-67.217 27.784H526.124Z"/></svg>