<svg xmlns="http://www.w3.org/2000/svg" fill="currentColor" height="20" viewBox="0 96 960 960" width="20"><path d="M166.87 904.131q-39.433 0-67.217-27.784T71.87 809.13V342.87q0-39.433 27.784-67.217t67.217-27.784h626.26q39.433 0 67.217 27.784t27.784 67.217v466.26q0 39.433-27.784 67.217t-67.217 27.784H166.87Zm626.26-469.848L505.027 615.194q-5.591 3.415-11.831 5.654-6.239 2.239-13.196 2.239t-13.196-1.989q-6.24-1.989-11.913-5.967L166.87 434.283V809.13h626.26V434.283ZM480 540.87l315.13-198H165.87l314.13 198ZM166.87 434.283v10.804-65.532.861-37.546 37.587-.651V445.239v-10.956V809.13 434.283Z"/></svg>