<svg xmlns="http://www.w3.org/2000/svg" fill="currentColor" height="20" viewBox="0 96 960 960" width="20"><path d="M161.899 825.087q-19.051 0-33.225-14.174-14.174-14.174-14.174-33.326t14.174-33.326q14.174-14.174 33.225-14.174h636.202q19.051 0 33.225 14.174 14.174 14.174 14.174 33.326t-14.174 33.326q-14.174 14.174-33.225 14.174H161.899Zm0-201.587q-19.051 0-33.225-14.174Q114.5 595.152 114.5 576t14.174-33.326q14.174-14.174 33.225-14.174h636.202q19.051 0 33.225 14.174Q845.5 556.848 845.5 576t-14.174 33.326Q817.152 623.5 798.101 623.5H161.899Zm0-201.587q-19.051 0-33.225-14.174-14.174-14.174-14.174-33.326t14.174-33.326q14.174-14.174 33.225-14.174h636.202q19.051 0 33.225 14.174 14.174 14.174 14.174 33.326t-14.174 33.326q-14.174 14.174-33.225 14.174H161.899Z"/></svg>