<svg xmlns="http://www.w3.org/2000/svg" fill="currentColor" height="20" viewBox="0 96 960 960" width="20"><path d="M202.87 944.131q-37.783 0-64.392-26.609-26.609-26.609-26.609-64.392V298.87q0-37.783 26.609-64.392 26.609-26.609 64.392-26.609H434.5q19.152 0 32.326 13.174T480 253.37q0 19.152-13.174 32.326T434.5 298.87H202.87v554.26h554.26V621.5q0-19.152 13.174-32.326T802.63 576q19.153 0 32.327 13.174t13.174 32.326v231.63q0 37.783-26.609 64.392-26.609 26.609-64.392 26.609H202.87Zm160.717-251.718q-12.674-12.674-12.674-31.707 0-19.032 12.674-31.706l330.13-330.13H605.5q-19.152 0-32.326-13.174T560 253.37q0-19.153 13.174-32.327t32.326-13.174h197.13q19.153 0 32.327 13.174t13.174 32.327V450.5q0 19.152-13.174 32.326T802.63 496q-19.152 0-32.326-13.174T757.13 450.5v-88.217L426 693.413q-12.435 12.435-30.706 12.435-18.272 0-31.707-13.435Z"/></svg>