<svg xmlns="http://www.w3.org/2000/svg" fill="currentColor" height="20" viewBox="0 96 960 960" width="20"><path d="M766.218 645.717q-17.814 0-30.864-13.05t-13.05-30.863V529.63h-72.173q-17.813 0-30.863-13.05t-13.05-30.863q0-17.813 13.05-30.863t30.863-13.05h72.173V369.63q0-17.813 13.05-30.863t30.864-13.05q17.813 0 30.863 13.05t13.05 30.863v72.174h72.173q17.813 0 30.863 13.05 13.051 13.05 13.051 30.863t-13.051 30.863q-13.05 13.05-30.863 13.05h-72.173v72.174q0 17.813-13.05 30.863t-30.863 13.05Zm-402.783-74.782q-71.587 0-119.859-48.272-48.272-48.272-48.272-119.859 0-71.587 48.272-119.739t119.859-48.152q71.587 0 119.859 48.152 48.271 48.152 48.271 119.739t-48.271 119.859q-48.272 48.272-119.859 48.272ZM80.833 908.196q-19.18 0-33.355-14.174-14.174-14.174-14.174-33.603V784.14q0-36.777 19.243-66.642 19.242-29.865 50.301-45.194 62.717-29.891 128.664-45.13 65.947-15.239 132.923-15.239 67.435 0 133.391 15.619 65.957 15.62 128.196 44.837 31.059 14.969 49.801 44.767 18.742 29.799 18.742 66.982v76.279q0 19.429-14.174 33.603-14.173 14.174-33.354 14.174H80.833Zm47.471-95h471.261v-27.669q0-10.512-5-18.322-5-7.81-13-9.705Q530 733.457 475.386 720.196q-54.614-13.261-110.951-13.261-55.859 0-110.951 13.261-55.093 13.261-106.18 37.304-9 2.895-14 10.205-5 7.31-5 17.822v27.669Zm235.122-337.262q31.813 0 52.476-20.654 20.663-20.655 20.663-52.467 0-31.813-20.654-52.357-20.655-20.543-52.468-20.543-31.813 0-52.476 20.587-20.663 20.586-20.663 52.304 0 31.816 20.655 52.473t52.467 20.657Zm.009-73.13Zm1 304.131Z"/></svg>