<svg xmlns="http://www.w3.org/2000/svg" fill="currentColor" height="20" viewBox="0 96 960 960" width="20"><path d="M479.891 698Q537 698 583 669.5q46-28.5 72-73.5-37-29-81.321-45.5T480 534q-49.358 0-93.679 16.5Q342 567 305 596q26 45 71.891 73.5 45.891 28.5 103 28.5Zm.233-200Q514 498 538 473.876t24-58Q562 382 537.876 358t-58-24Q446 334 422 358.124t-24 58Q398 450 422.124 474t58 24ZM480 856.587q118.204-108.821 174.352-196.74Q710.5 571.928 710.5 503.923q0-106.549-66.392-172.486Q577.717 265.5 480.054 265.5t-164.108 65.937Q249.5 397.374 249.5 503.923q0 68.005 56.148 155.924Q361.796 747.766 480 856.587Zm-.25 106.717q-10.185 0-19.62-3.478-9.434-3.478-17.63-9.674-146-130.705-217-240.309-71-109.604-71-206.233 0-153.125 97.652-243.118Q349.804 170.5 479.978 170.5q130.174 0 227.848 89.992Q805.5 350.485 805.5 503.61q0 96.629-71 206.233t-217 240.272q-7.196 6.233-17.38 9.711-10.185 3.478-20.37 3.478ZM480 504Z"/></svg>