<svg xmlns="http://www.w3.org/2000/svg" fill="currentColor" height="20" viewBox="0 96 960 960" width="20"><path d="M480 570.935q-71.587 0-119.859-48.272-48.272-48.272-48.272-119.859 0-71.587 48.272-119.739T480 234.913q71.587 0 119.859 48.152 48.272 48.152 48.272 119.739t-48.272 119.859Q551.587 570.935 480 570.935Zm236.13 337.261H243.87q-39.433 0-67.217-27.784t-27.784-67.216v-28.609q0-37.224 19.243-67.089 19.242-29.865 49.982-44.868 62.036-29.217 128.483-44.956Q413.024 611.935 480 611.935q67.435 0 134.391 15.619 66.957 15.62 127.196 44.859 31.059 14.947 50.301 44.745 19.243 29.799 19.243 67.429v28.609q0 39.432-27.784 67.216-27.784 27.784-67.217 27.784Zm-472.26-95h472.26v-27.669q0-10.512-5-18.322-5-7.81-13-9.705-50.565-24.043-106.847-37.304Q535 706.935 480 706.935q-54.522 0-111.283 13.761-56.76 13.761-106.847 36.804-8.1 3.808-13.05 10.661-4.95 6.854-4.95 17.366v27.669Zm236.122-337.262q31.812 0 52.475-20.654 20.663-20.655 20.663-52.467 0-31.813-20.654-52.357-20.655-20.543-52.468-20.543-31.812 0-52.475 20.587-20.663 20.586-20.663 52.304 0 31.816 20.654 52.473 20.655 20.657 52.468 20.657Zm.008-73.13Zm0 410.392Z"/></svg>