<svg xmlns="http://www.w3.org/2000/svg" fill="currentColor" height="20" viewBox="0 96 960 960" width="20"><path d="M557.913 984.131H402.087q-17.913 0-31.207-11.935-13.293-11.935-15.532-29.848L344.587 855.5q-8.087-5.282-18.533-11.326-10.445-6.043-19.011-10.848l-80.847 34.283q-17.153 6.956-34.066 1.119-16.913-5.837-25.869-21.75L88.869 711.913Q79.913 696 83.772 678.967q3.858-17.032 17.532-28.228l68.087-52.565q.239-5.044.239-11.087v-22.174q0-6.043-.239-11.087l-68.087-52.565q-13.674-11.435-17.532-28.467-3.86-17.033 5.097-32.707l77.392-135.065q9.195-15.435 26.109-21.392 16.913-5.956 33.826 1l81.326 34.283q8.565-4.804 18.652-10.728 10.087-5.924 18.413-11.207l10.761-87.326q2.239-18.152 15.413-29.967 13.174-11.816 31.326-11.816h155.826q18.152 0 31.326 11.816 13.174 11.815 15.413 29.967l10.761 87.326q8.087 5.283 18.533 11.207 10.445 5.924 19.011 10.728l80.847-34.283q16.913-6.956 33.946-1.119 17.033 5.837 25.989 21.511l78.631 135.065q8.956 15.913 5.598 32.946-3.359 17.032-18.272 28.228l-68.326 52.565q-.239 5.044-.239 11.087V576q0 5.043-.12 11.087-.12 6.043.359 11.087l68.326 52.565q14.674 11.196 18.032 28.228 3.359 17.033-5.597 32.946L793.5 847.218q-8.956 15.913-25.75 21.63-16.793 5.717-33.946-1.239l-81.326-34.283q-8.565 4.805-18.652 10.848-10.087 6.044-18.413 11.326l-10.761 86.848q-2.239 17.913-15.413 29.848-13.174 11.935-31.326 11.935ZM479.283 719q59 0 101-42t42-101q0-59-42-101t-101-42q-58.761 0-100.881 42-42.119 42-42.119 101t42.119 101q42.12 42 100.881 42Zm0-84q-24 0-41.5-17.5t-17.5-41.5q0-24 17.5-41.5t41.5-17.5q24 0 41.5 17.5t17.5 41.5q0 24-17.5 41.5t-41.5 17.5ZM481 576Zm-38.37 313.13h74.5l12.24-103.521q29.239-8 56.836-24.12 27.598-16.119 49.598-39.076l96.761 41 37.131-61.696-84.283-64.521q5-14.479 7.239-29.718T694.891 576q0-14.239-2.239-28.978t-6.239-31.218l84.761-65.521-37.609-61.696-96.522 42q-23-23.717-50.097-39.576-27.098-15.859-56.576-23.62l-13-104.521h-74.979L429.87 367.152q-29.718 7.761-56.935 23.62-27.218 15.858-49.457 38.815l-96.282-41-37.37 61.696 83.044 64.282q-4 16.478-6.24 31.837-2.239 15.359-2.239 29.598 0 14.239 2.239 29.217 2.24 14.979 6.24 31.457l-83.044 65.043 37.37 61.696 96.282-40.761q22.239 22.478 49.576 38.337 27.337 15.859 56.816 23.859l12.76 104.282Z"/></svg>