<svg xmlns="http://www.w3.org/2000/svg" fill="currentColor" height="20" viewBox="0 96 960 960" width="20"><path d="M114.261 768.652V383.348q0-39.188 27.906-67.094 27.906-27.906 67.094-27.906h541.478q39.188 0 67.094 27.906 27.906 27.906 27.906 67.094v385.304q0 39.188-27.906 67.094-27.906 27.906-67.094 27.906H209.261q-39.188 0-67.094-27.906-27.906-27.906-27.906-67.094Zm95-312.456h72.848v-72.848h-72.848v72.848Zm156.848 0h384.63v-72.848h-384.63v72.848Zm0 155.608h384.63v-71.608h-384.63v71.608Zm0 156.848h384.63v-72.848h-384.63v72.848Zm-156.848 0h72.848v-72.848h-72.848v72.848Zm0-156.848h72.848v-71.608h-72.848v71.608Z"/></svg>