<svg xmlns="http://www.w3.org/2000/svg" fill="currentColor" height="20" viewBox="0 96 960 960" width="20"><path d="M202.87 537.913q-37.783 0-64.392-26.609-26.609-26.608-26.609-64.391V294.087q0-37.783 26.609-64.392 26.609-26.608 64.392-26.608h554.26q37.783 0 64.392 26.608 26.609 26.609 26.609 64.392v152.826q0 37.783-26.609 64.391-26.609 26.609-64.392 26.609H202.87Zm0-91h554.26V294.087H202.87v152.826Zm0 502q-37.783 0-64.392-26.608-26.609-26.609-26.609-64.392V705.087q0-37.783 26.609-64.391 26.609-26.609 64.392-26.609h554.26q37.783 0 64.392 26.609 26.609 26.608 26.609 64.391v152.826q0 37.783-26.609 64.392-26.609 26.608-64.392 26.608H202.87Zm0-91h554.26V705.087H202.87v152.826Zm0-563.826v152.826-152.826Zm0 411v152.826-152.826Z"/></svg>