<svg xmlns="http://www.w3.org/2000/svg" viewBox="0 0 135 135">
    <linearGradient id="a" gradientUnits="userSpaceOnUse" x1="0" y1="0" x2="0" y2="135">
        <stop offset="0" stop-color="#f7f7f7"/>
        <stop offset="1" stop-color="#e3e3e3"/>
    </linearGradient>
    <path fill="url(#a)" d="M0 0h135v135H0z"/>
    <path d="M116 135v-9.4c0-9.3-6.8-17.1-16-18.3l-16.9-1.9a4.6 4.6 0 01-4-4.7v-9.2l-23.2-.3v9.5c0 2.3-1.7 4.3-4 4.6l-16.9 2c-9.2 1.2-16 9-16 18.3v9.4" fill="#c9c9c9"/>
    <path d="M97.6 55.2l2.7-13.7a12.5 12.5 0 00-6.7-13.7l-.6-.3c-2.8-8.3-9.6-10.9-18.3-10.9H36.3l3.6 10.9a12.7 12.7 0 00-6.5 14.6l4.2 13.1" fill="#adadad"/>
    <path d="M94.4 53.4h-2.3v13.7h2.3c3.7.1 6.7-2.9 6.8-6.6v-.2a6.7 6.7 0 00-6.7-6.9h-.1z" fill="#c9c9c9"/>
    <path d="M 40 53.4 h 2.3 v 13.7 h -2.3 c -3.7 0.1 -6.7 -2.9 -6.8 -6.6 v -0.2 a 6.7 6.7 90 0 1 6.7 -6.9 h 0.1 z" fill="#c9c9c9"/>
    <path d="M93 75.4a14 14 0 01-3.5 9.3l-9.9 11.2a9.2 9.2 0 01-6.9 3.2H62.6a9.4 9.4 0 01-7-3.2l-9.9-11.3a14.4 14.4 0 01-3.4-9.3V43.6s13.8 0 20.7-2.3l20.8-6.9L93 50.6v24.8z" fill="#dfdfdf"/>
</svg>