<?xml version="1.0" encoding="UTF-8" standalone="no"?>
<svg xmlns:dc="http://purl.org/dc/elements/1.1/" xmlns:cc="http://creativecommons.org/ns#" xmlns:rdf="http://www.w3.org/1999/02/22-rdf-syntax-ns#" xmlns:svg="http://www.w3.org/2000/svg" xmlns="http://www.w3.org/2000/svg" viewBox="768 384 1024 576" height="256" width="256" xml:space="preserve" id="svg2" version="1.1">
  <defs id="defs6">
    <clipPath id="clipPath18" clipPathUnits="userSpaceOnUse">
      <path id="path16" d="M 0,1080 H 1920 V 0 H 0 Z" />
    </clipPath>
  </defs>
  <g transform="matrix(1.3333333,0,0,-1.3333333,0,1440)" id="g10">
    <g transform="translate(752.0879,443.002)" id="g52">
      <path id="path54" style="fill:#1d1d1b;fill-opacity:1;fill-rule:nonzero;stroke:none" d="m 0,0 -0.827,-2.031 224.483,-87.971 -65.4,155.791 z" />
    </g>
    <g transform="translate(930.6406,777.3643)" id="g56">
      <path id="path58" style="fill:#1d1d1b;fill-opacity:1;fill-rule:nonzero;stroke:none" d="m 0,0 -113.327,-47.009 65.375,-155.695 -159.608,-66.029 13.657,-32.79 203.271,84.407 -36.637,130.121 72.344,29.993 174.553,-72.809 46.65,19.373 z" />
    </g>
    <g transform="translate(1052.875,789.3286)" id="g60">
      <path id="path62" style="fill:#1d1d1b;fill-opacity:1;fill-rule:nonzero;stroke:none" d="m 0,0 -13.812,33.007 -35.367,-14.67 9.635,-34.578 z" />
    </g>
    <g transform="translate(1198.0625,667.0874)" id="g64">
      <path id="path66" style="fill:#fff;fill-opacity:1;fill-rule:nonzero;stroke:none" d="M 0,0 -46.875,-19.453 -92.59,-0.383 -45.771,18.98 Z" />
    </g>
    <g transform="translate(1152.292,686.0674)" id="g68">
      <path id="path70" style="fill:#fff;fill-opacity:1;fill-rule:nonzero;stroke:none" d="m 0,0 -46.819,-19.363 -0.607,0.256 -0.202,0.478 13.59,32.751 z" />
    </g>
    <g transform="translate(1118.2539,700.189)" id="g72">
      <path id="path74" style="fill:#fff;fill-opacity:1;fill-rule:nonzero;stroke:none" d="M 0,0 -13.59,-32.75 -33.027,13.701 Z" />
    </g>
    <g transform="translate(1104.6641,667.4385)" id="g76">
      <path id="path78" style="fill:#fff;fill-opacity:1;fill-rule:nonzero;stroke:none" d="m 0,0 -0.146,-0.351 -56.71,23.667 9.763,34.592 27.656,-11.456 z" />
    </g>
    <g transform="translate(1023.1104,739.6514)" id="g80">
      <path id="path82" style="fill:#fff;fill-opacity:1;fill-rule:nonzero;stroke:none" d="m 0,0 34.461,-14.305 -9.764,-34.591 -12.522,5.225 z" />
    </g>
    <g transform="translate(1039.459,823.2456)" id="g84">
      <path id="path86" style="fill:#fff;fill-opacity:1;fill-rule:nonzero;stroke:none" d="m 0,0 13.883,-33.154 -28.817,-11.824 -13.772,5.721 -6.84,24.51 z" />
    </g>
    <g transform="translate(1035.2852,695.98)" id="g88">
      <path id="path90" style="fill:#fff;fill-opacity:1;fill-rule:nonzero;stroke:none" d="m 0,0 -59.473,24.806 46.397,19.233 0.901,-0.368 z" />
    </g>
    <g transform="translate(1024.5254,778.2681)" id="g92">
      <path id="path94" style="fill:#fff;fill-opacity:1;fill-rule:nonzero;stroke:none" d="M 0,0 -10.924,-4.507 -13.772,5.72 Z" />
    </g>
    <g transform="translate(1022.209,740.0186)" id="g96">
      <path id="path98" style="fill:#fff;fill-opacity:1;fill-rule:nonzero;stroke:none" d="M 0,0 -46.396,-19.232 -91.669,-0.349 -45.18,18.738 Z" />
    </g>
    <g transform="translate(977.0293,758.7563)" id="g100">
      <path id="path102" style="fill:#fff;fill-opacity:1;fill-rule:nonzero;stroke:none" d="m 0,0 -46.489,-19.086 -0.918,0.367 9.689,34.368 z" />
    </g>
    <g transform="translate(975.8125,720.7861)" id="g104">
      <path id="path106" style="fill:#fff;fill-opacity:1;fill-rule:nonzero;stroke:none" d="m 0,0 -58.455,-24.237 12.025,42.626 1.158,0.495 z" />
    </g>
    <g transform="translate(961.6729,385.4111)" id="g108">
      <path id="path110" style="fill:#fff;fill-opacity:1;fill-rule:nonzero;stroke:none" d="m 0,0 12.983,-30.968 -0.828,-2.021 -19.325,7.574 z" />
    </g>
    <g transform="translate(961.6729,385.4111)" id="g112">
      <path id="path114" style="fill:#fff;fill-opacity:1;fill-rule:nonzero;stroke:none" d="m 0,0 -7.17,-25.415 -118.923,46.598 22.564,79.989 51.966,21.608 z" />
    </g>
    <g transform="translate(930.2656,594.2148)" id="g116">
      <path id="path118" style="fill:#fff;fill-opacity:1;fill-rule:nonzero;stroke:none" d="m 0,0 9.652,-34.314 -10.663,-4.433 -46.065,19.272 z" />
    </g>
    <g transform="translate(939.3115,774.4053)" id="g120">
      <path id="path122" style="fill:#fff;fill-opacity:1;fill-rule:nonzero;stroke:none" d="M 0,0 -9.689,-34.368 -54.944,-15.484 -8.806,3.642 Z" />
    </g>
    <g transform="translate(930.1914,594.4731)" id="g124">
      <path id="path126" style="fill:#fff;fill-opacity:1;fill-rule:nonzero;stroke:none" d="m 0,0 0.074,-0.258 -47.076,-19.475 -0.165,0.075 9.931,35.195 z" />
    </g>
    <g transform="translate(917.6875,638.8999)" id="g128">
      <path id="path130" style="fill:#fff;fill-opacity:1;fill-rule:nonzero;stroke:none" d="m 0,0 12.504,-44.427 -37.236,15.537 9.911,35.123 z" />
    </g>
    <g transform="translate(884.3672,758.9214)" id="g132">
      <path id="path134" style="fill:#fff;fill-opacity:1;fill-rule:nonzero;stroke:none" d="M 0,0 45.255,-18.884 45.016,-19.746 9.214,-34.442 -0.423,-0.181 Z" />
    </g>
    <g transform="translate(929.3828,739.1753)" id="g136">
      <path id="path138" style="fill:#fff;fill-opacity:1;fill-rule:nonzero;stroke:none" d="m 0,0 -12.025,-42.626 -14.252,-5.903 -9.525,33.833 z" />
    </g>
    <g transform="translate(929.2549,555.4678)" id="g140">
      <path id="path142" style="fill:#fff;fill-opacity:1;fill-rule:nonzero;stroke:none" d="m 0,0 -33.21,-13.792 -13.369,31.87 0.31,1.104 0.204,0.09 z" />
    </g>
    <g transform="translate(909.3945,668.3218)" id="g144">
      <path id="path146" style="fill:#fff;fill-opacity:1;fill-rule:nonzero;stroke:none" d="m 0,0 8.293,-29.422 -14.821,6.234 z" />
    </g>
    <g transform="translate(903.1055,690.646)" id="g148">
      <path id="path150" style="fill:#fff;fill-opacity:1;fill-rule:nonzero;stroke:none" d="M 0,0 14.252,5.903 6.289,-22.324 Z" />
    </g>
    <g transform="translate(903.1055,690.646)" id="g152">
      <path id="path154" style="fill:#fff;fill-opacity:1;fill-rule:nonzero;stroke:none" d="m 0,0 6.289,-22.324 -6.528,-23.189 -54.322,22.875 z" />
    </g>
    <g transform="translate(893.5811,724.479)" id="g156">
      <path id="path158" style="fill:#fff;fill-opacity:1;fill-rule:nonzero;stroke:none" d="m 0,0 9.524,-33.833 -54.56,-22.638 -3.584,1.509 17.394,42.147 z" />
    </g>
    <g transform="translate(902.8662,645.1333)" id="g160">
      <path id="path162" style="fill:#fff;fill-opacity:1;fill-rule:nonzero;stroke:none" d="m 0,0 -9.911,-35.124 -31.042,12.965 -18.075,43.086 4.707,1.948 z" />
    </g>
    <g transform="translate(882.6758,573.5459)" id="g164">
      <path id="path166" style="fill:#fff;fill-opacity:1;fill-rule:nonzero;stroke:none" d="M 0,0 13.369,-31.87 -11.953,-42.387 Z" />
    </g>
    <g transform="translate(883.9443,758.7402)" id="g168">
      <path id="path170" style="fill:#fff;fill-opacity:1;fill-rule:nonzero;stroke:none" d="M 0,0 9.637,-34.261 -21.589,-47.077 -2.594,-1.069 Z" />
    </g>
    <g transform="translate(892.9551,610.0098)" id="g172">
      <path id="path174" style="fill:#fff;fill-opacity:1;fill-rule:nonzero;stroke:none" d="m 0,0 -9.931,-35.195 -1.067,0.442 -20.044,47.718 z" />
    </g>
    <g transform="translate(882.324,574.3917)" id="g176">
      <path id="path178" style="fill:#2e2b84;fill-opacity:1;fill-rule:nonzero;stroke:none" d="M 0,0 0.662,0.258 0.7,0.423 -0.367,0.865 Z" />
    </g>
    <g transform="translate(882.324,574.3917)" id="g180">
      <path id="path182" style="fill:#2e2b84;fill-opacity:1;fill-rule:nonzero;stroke:none" d="m 0,0 0.352,-0.846 0.31,1.104 z" />
    </g>
    <g transform="translate(882.3242,574.3916)" id="g184">
      <path id="path186" style="fill:#fff;fill-opacity:1;fill-rule:nonzero;stroke:none" d="m 0,0 0.352,-0.846 -11.954,-42.386 -99.999,-41.522 19.199,46.524 z" />
    </g>
    <g transform="translate(881.3506,757.6709)" id="g188">
      <path id="path190" style="fill:#fff;fill-opacity:1;fill-rule:nonzero;stroke:none" d="M 0,0 -18.995,-46.007 -51.12,-59.211 -64.71,-26.844 Z" />
    </g>
    <g transform="translate(862.3555,711.6636)" id="g192">
      <path id="path194" style="fill:#fff;fill-opacity:1;fill-rule:nonzero;stroke:none" d="m 0,0 -17.395,-42.147 -3.144,1.343 -11.586,27.6 z" />
    </g>
    <g transform="translate(858.1436,486.583)" id="g196">
      <path id="path198" style="fill:#fff;fill-opacity:1;fill-rule:nonzero;stroke:none" d="m 0,0 -22.563,-79.989 -85.324,33.447 v 0.021 l 0.827,2.023 z" />
    </g>
    <g transform="translate(844.9609,669.5166)" id="g200">
      <path id="path202" style="fill:#fff;fill-opacity:1;fill-rule:nonzero;stroke:none" d="M 0,0 3.584,-1.509 -1.123,-3.456 -1.27,-3.107 Z" />
    </g>
    <g transform="translate(841.8164,670.8599)" id="g204">
      <path id="path206" style="fill:#fff;fill-opacity:1;fill-rule:nonzero;stroke:none" d="M 0,0 3.145,-1.343 1.875,-4.451 Z" />
    </g>
    <g transform="translate(789.9219,536.1611)" id="g208">
      <path id="path210" style="fill:#fff;fill-opacity:1;fill-rule:nonzero;stroke:none" d="m 0,0 -19.198,-46.523 -35.068,-14.548 -13.717,32.936 z" />
    </g>
  </g>
</svg>