<?xml version="1.0" encoding="UTF-8" standalone="no"?>
<svg xmlns:dc="http://purl.org/dc/elements/1.1/" xmlns:cc="http://creativecommons.org/ns#" xmlns:rdf="http://www.w3.org/1999/02/22-rdf-syntax-ns#" xmlns:svg="http://www.w3.org/2000/svg" xmlns="http://www.w3.org/2000/svg" viewBox="768 384 1024 576" height="256" width="256" xml:space="preserve" id="svg2" version="1.1">
  <defs id="defs6">
    <clipPath id="clipPath18" clipPathUnits="userSpaceOnUse">
      <path id="path16" d="M 0,1080 H 1920 V 0 H 0 Z" />
    </clipPath>
  </defs>
  <g transform="matrix(1.3333333,0,0,-1.3333333,0,1440)" id="g10">
    <g transform="translate(878.3291,681.689)" id="g64">
      <path id="path66" style="fill:#1d1d1b;fill-opacity:1;fill-rule:nonzero;stroke:none" d="m 0,0 54.53,-193.664 -199.659,-84.926 -20.465,-49.582 298.274,123.999 40.069,142.036 -22.233,79.783 157.031,65.962 21.389,51.49 z" />
    </g>
    <g transform="translate(1039.0234,695.1123)" id="g68">
      <path id="path70" style="fill:#1d1d1b;fill-opacity:1;fill-rule:nonzero;stroke:none" d="M 0,0 13.966,-50.708 84.819,-80.265 61.997,-25.712 Z" />
    </g>
    <g transform="translate(1155.5371,692.251)" id="g72">
      <path id="path74" style="fill:#1d1d1b;fill-opacity:1;fill-rule:nonzero;stroke:none" d="M 0,0 25.663,61.785 -61.421,25.522 Z" />
    </g>
    <g transform="translate(943.0195,780.6758)" id="g76">
      <path id="path78" style="fill:#1d1d1b;fill-opacity:1;fill-rule:nonzero;stroke:none" d="m 0,0 -46.114,19.039 -16.092,-38.984 50.655,-21.011 z" />
    </g>
    <g transform="translate(754.7881,458.2549)" id="g80">
      <path id="path82" style="fill:#1d1d1b;fill-opacity:1;fill-rule:nonzero;stroke:none" d="m 0,0 -18.053,-43.738 184.616,78.495 -8.518,30.654 z" />
    </g>
    <g transform="translate(1208.0195,816.1909)" id="g84">
      <path id="path86" style="fill:#fff;fill-opacity:1;fill-rule:nonzero;stroke:none" d="m 0,0 -21.456,-51.637 -103.484,-42.91 -2.314,0.962 13.18,46.749 z" />
    </g>
    <g transform="translate(1186.5635,764.5542)" id="g88">
      <path id="path90" style="fill:#fff;fill-opacity:1;fill-rule:nonzero;stroke:none" d="m 0,0 -30.435,-73.264 -73.049,30.354 z" />
    </g>
    <g transform="translate(1124.125,614.2119)" id="g92">
      <path id="path94" style="fill:#fff;fill-opacity:1;fill-rule:nonzero;stroke:none" d="m 0,0 -0.174,-0.406 -66.103,27.588 11.381,40.339 32.22,-13.378 z" />
    </g>
    <g transform="translate(1093.9453,769.355)" id="g96">
      <path id="path98" style="fill:#fff;fill-opacity:1;fill-rule:nonzero;stroke:none" d="m 0,0 -13.18,-46.75 -2.425,1.012 -14.039,33.566 z" />
    </g>
    <g transform="translate(1083.0791,721.644)" id="g100">
      <path id="path102" style="fill:#fff;fill-opacity:1;fill-rule:nonzero;stroke:none" d="m 0,0 -2.937,-1.203 0.624,2.164 z" />
    </g>
    <g transform="translate(1080.7656,722.6055)" id="g104">
      <path id="path106" style="fill:#fff;fill-opacity:1;fill-rule:nonzero;stroke:none" d="m 0,0 -0.623,-2.165 -0.406,-0.17 -1.397,3.346 z" />
    </g>
    <g transform="translate(1078.3398,723.6167)" id="g108">
      <path id="path110" style="fill:#fff;fill-opacity:1;fill-rule:nonzero;stroke:none" d="m 0,0 1.396,-3.346 -50.889,-21.113 -10.866,38.991 12.755,5.25 z" />
    </g>
    <g transform="translate(1064.3018,757.1831)" id="g112">
      <path id="path114" style="fill:#fff;fill-opacity:1;fill-rule:nonzero;stroke:none" d="m 0,0 14.038,-33.566 -47.604,19.781 z" />
    </g>
    <g transform="translate(1069.2295,681.7329)" id="g116">
      <path id="path118" style="fill:#fff;fill-opacity:1;fill-rule:nonzero;stroke:none" d="m 0,0 -11.382,-40.339 -14.594,6.084 -14.19,50.908 z" />
    </g>
    <g transform="translate(1043.2539,647.478)" id="g120">
      <path id="path122" style="fill:#fff;fill-opacity:1;fill-rule:nonzero;stroke:none" d="m 0,0 8.101,-29.107 -11.338,-40.212 -64.2,-26.556 -69.638,29.343 -9.669,34.296 9.284,32.9 68.138,28.251 z" />
    </g>
    <g transform="translate(1029.0635,698.3857)" id="g124">
      <path id="path126" style="fill:#fff;fill-opacity:1;fill-rule:nonzero;stroke:none" d="m 0,0 14.19,-50.908 -69.322,28.915 54.08,22.421 z" />
    </g>
    <g transform="translate(1040.0166,578.1587)" id="g128">
      <path id="path130" style="fill:#fff;fill-opacity:1;fill-rule:nonzero;stroke:none" d="m 0,0 -13.527,-47.909 -50.672,21.354 z" />
    </g>
    <g transform="translate(1017.9805,738.1484)" id="g132">
      <path id="path134" style="fill:#fff;fill-opacity:1;fill-rule:nonzero;stroke:none" d="m 0,0 10.866,-38.991 -0.835,-0.343 -52.64,21.844 z" />
    </g>
    <g transform="translate(975.3711,720.6582)" id="g136">
      <path id="path138" style="fill:#fff;fill-opacity:1;fill-rule:nonzero;stroke:none" d="m 0,0 52.641,-21.844 -54.08,-22.422 -52.75,21.994 z" />
    </g>
    <g transform="translate(1026.4893,530.25)" id="g140">
      <path id="path142" style="fill:#fff;fill-opacity:1;fill-rule:nonzero;stroke:none" d="m 0,0 -0.685,-2.482 -51.013,-21.18 -53.653,22.402 54.679,22.614 z" />
    </g>
    <g transform="translate(1025.8047,527.7676)" id="g144">
      <path id="path146" style="fill:#fff;fill-opacity:1;fill-rule:nonzero;stroke:none" d="M 0,0 -10.74,-38.006 -51.014,-21.18 Z" />
    </g>
    <g transform="translate(1015.0645,489.7617)" id="g148">
      <path id="path150" style="fill:#fff;fill-opacity:1;fill-rule:nonzero;stroke:none" d="m 0,0 -3.9,-13.844 -36.569,-15.22 -39.179,16.398 -3.325,11.766 42.7,17.726 z" />
    </g>
    <g transform="translate(975.8174,551.6035)" id="g152">
      <path id="path154" style="fill:#fff;fill-opacity:1;fill-rule:nonzero;stroke:none" d="m 0,0 -54.679,-22.613 -0.384,0.168 -14.576,51.788 z" />
    </g>
    <g transform="translate(974.791,506.5879)" id="g156">
      <path id="path158" style="fill:#fff;fill-opacity:1;fill-rule:nonzero;stroke:none" d="m 0,0 -42.699,-17.727 -11.251,39.998 0.298,0.131 z" />
    </g>
    <g transform="translate(974.5957,460.6973)" id="g160">
      <path id="path162" style="fill:#fff;fill-opacity:1;fill-rule:nonzero;stroke:none" d="M 0,0 -30.949,-12.863 -39.18,16.398 Z" />
    </g>
    <g transform="translate(973.9316,676.3926)" id="g164">
      <path id="path166" style="fill:#fff;fill-opacity:1;fill-rule:nonzero;stroke:none" d="m 0,0 -68.138,-28.251 14.017,49.686 1.371,0.558 z" />
    </g>
    <g transform="translate(935.416,477.0957)" id="g168">
      <path id="path170" style="fill:#fff;fill-opacity:1;fill-rule:nonzero;stroke:none" d="M 0,0 8.23,-29.262 -38.069,-48.508 -54.469,-9.477 -15.754,6.6 Z" />
    </g>
    <g transform="translate(896.7266,799.0854)" id="g172">
      <path id="path174" style="fill:#fff;fill-opacity:1;fill-rule:nonzero;stroke:none" d="m 0,0 46.213,-19.227 -8.832,-31.315 -12.987,-5.381 -40.536,16.805 z" />
    </g>
    <g transform="translate(932.0918,488.8613)" id="g176">
      <path id="path178" style="fill:#fff;fill-opacity:1;fill-rule:nonzero;stroke:none" d="m 0,0 3.324,-11.766 -15.754,6.6 z" />
    </g>
    <g transform="translate(934.1074,748.5435)" id="g180">
      <path id="path182" style="fill:#fff;fill-opacity:1;fill-rule:nonzero;stroke:none" d="m 0,0 -2.723,-9.645 -10.264,4.264 z" />
    </g>
    <g transform="translate(920.8408,528.8594)" id="g184">
      <path id="path186" style="fill:#fff;fill-opacity:1;fill-rule:nonzero;stroke:none" d="m 0,0 11.251,-39.998 -12.43,-5.166 -53.692,22.465 z" />
    </g>
    <g transform="translate(919.6621,483.6953)" id="g188">
      <path id="path190" style="fill:#fff;fill-opacity:1;fill-rule:nonzero;stroke:none" d="m 0,0 -38.715,-16.076 -15.579,37.144 0.366,1.291 0.236,0.106 z" />
    </g>
    <g transform="translate(880.9473,467.6191)" id="g192">
      <path id="path194" style="fill:#fff;fill-opacity:1;fill-rule:nonzero;stroke:none" d="m 0,0 16.399,-39.031 -60.571,-25.188 14.659,51.957 z" />
    </g>
    <g transform="translate(865.3682,504.7637)" id="g196">
      <path id="path198" style="fill:#fff;fill-opacity:1;fill-rule:nonzero;stroke:none" d="M 0,0 15.579,-37.145 -13.934,-49.406 Z" />
    </g>
    <g transform="translate(864.959,505.75)" id="g200">
      <path id="path202" style="fill:#fff;fill-opacity:1;fill-rule:nonzero;stroke:none" d="m 0,0 0.409,-0.986 -13.933,-49.407 -116.562,-48.396 22.377,54.226 z" />
    </g>
    <g transform="translate(851.4346,455.3574)" id="g204">
      <path id="path206" style="fill:#fff;fill-opacity:1;fill-rule:nonzero;stroke:none" d="m 0,0 -14.659,-51.957 -124.795,-51.869 22.892,55.43 z" />
    </g>
    <g transform="translate(896.5098,615.2417)" id="g208">
      <path id="path210" style="fill:#fff;fill-opacity:1;fill-rule:nonzero;stroke:none" d="M 0,0 -17.89,65.383 23.301,82.586 Z" />
    </g>
  </g>
</svg>