<?xml version="1.0" encoding="UTF-8"?>
<svg xmlns="http://www.w3.org/2000/svg" xmlns:xlink="http://www.w3.org/1999/xlink" viewBox="-80 -140 636 766" width="256" height="256" version="1.1">
  <defs>
    <clipPath id="clip1">
      <path d="M 322 5 L 493.53125 5 L 493.53125 97 L 322 97 Z M 322 5 " />
    </clipPath>
    <clipPath id="clip2">
      <path d="M 367 6 L 493.53125 6 L 493.53125 100 L 367 100 Z M 367 6 " />
    </clipPath>
  </defs>
  <g id="surface1">
    <g clip-path="url(#clip1)" clip-rule="nonzero">
      <path style="stroke:none;fill-rule:nonzero;fill:rgb(11.399841%,11.399841%,10.598755%);fill-opacity:1;" d="M 322.109375 75.40625 L 374.5625 96.828125 L 471.765625 56.53125 L 493.089844 5.1875 Z M 322.109375 75.40625 " />
    </g>
    <path style="stroke:none;fill-rule:nonzero;fill:rgb(11.399841%,11.399841%,10.598755%);fill-opacity:1;" d="M 165.109375 139.894531 L 139.65625 49.5 L 20.296875 -0.00390625 L 107.453125 207.570313 L 192.65625 172.242188 L 164.378906 272.527344 L 57.957031 228.089844 L 3.363281 250.722656 L 261.53125 358.390625 L 297.402344 343.476563 L 365.394531 102.46875 L 311.070313 79.945313 " />
    <path style="stroke:none;fill-rule:nonzero;fill:rgb(11.399841%,11.399841%,10.598755%);fill-opacity:1;" d="M 229.582031 41.300781 L 183.632813 22.210938 L 167.589844 61.085938 L 218.097656 82.027344 Z M 229.582031 41.300781 " />
    <path style="stroke:none;fill-rule:nonzero;fill:rgb(11.399841%,11.399841%,10.598755%);fill-opacity:1;" d="M 22.742188 412.007813 L 0 467.113281 L 250.023438 363.171875 L 194.597656 340.648438 Z M 22.742188 412.007813 " />
    <g clip-path="url(#clip2)" clip-rule="nonzero">
      <path style="stroke:none;fill-rule:nonzero;fill:#fff;fill-opacity:1;" d="M 493.535156 6.136719 L 472.242188 57.402344 L 369.542969 99.988281 L 367.246094 99.03125 L 380.328125 52.640625 " />
    </g>
    <path style="stroke:none;fill-rule:nonzero;fill:#fff;fill-opacity:1;" d="M 380.328125 52.640625 L 367.246094 99.03125 L 364.84375 98.03125 L 350.90625 64.722656 Z M 380.328125 52.640625 " />
    <path style="stroke:none;fill-rule:nonzero;fill:rgb(7.099915%,33.299255%,52.198792%);fill-opacity:1;" d="M 367.246094 99.03125 L 369.542969 99.988281 L 366.628906 101.179688 " />
    <path style="stroke:none;fill-rule:nonzero;fill:rgb(9.399414%,47.499084%,64.299011%);fill-opacity:1;" d="M 364.84375 98.03125 L 367.246094 99.03125 L 366.628906 101.179688 L 366.222656 101.351563 Z M 364.84375 98.03125 " />
    <path style="stroke:none;fill-rule:nonzero;fill:#fff;fill-opacity:1;" d="M 366.222656 101.351563 L 366.4375 101.859375 L 355.800781 139.617188 L 315.941406 123.066406 L 315.722656 122.300781 " />
    <path style="stroke:none;fill-rule:nonzero;fill:#fff;fill-opacity:1;" d="M 364.84375 98.03125 L 366.222656 101.351563 L 315.722656 122.304688 L 304.941406 83.609375 L 317.59375 78.398438 " />
    <path style="stroke:none;fill-rule:nonzero;fill:#fff;fill-opacity:1;" d="M 350.90625 64.722656 L 364.84375 98.03125 L 317.59375 78.398438 " />
    <path style="stroke:none;fill-rule:nonzero;fill:#fff;fill-opacity:1;" d="M 315.9375 123.066406 L 355.800781 139.617188 L 344.503906 179.632813 L 330.019531 173.589844 Z M 315.9375 123.066406 " />
    <path style="stroke:none;fill-rule:nonzero;fill:#fff;fill-opacity:1;" d="M 344.503906 179.632813 L 338.0625 202.476563 L 330.019531 173.589844 " />
    <path style="stroke:none;fill-rule:nonzero;fill:#fff;fill-opacity:1;" d="M 330.019531 173.589844 L 338.0625 202.476563 L 326.808594 242.382813 L 263.097656 268.738281 L 193.988281 239.617188 L 184.390625 205.582031 L 193.605469 172.929688 L 261.203125 144.894531 " />
    <path style="stroke:none;fill-rule:nonzero;fill:#fff;fill-opacity:1;" d="M 330.019531 173.589844 L 261.203125 144.894531 L 314.894531 122.644531 L 315.9375 123.070313 Z M 330.019531 173.589844 " />
    <path style="stroke:none;fill-rule:nonzero;fill:#fff;fill-opacity:1;" d="M 326.808594 242.382813 L 313.386719 289.925781 L 263.097656 268.738281 " />
    <path style="stroke:none;fill-rule:nonzero;fill:#fff;fill-opacity:1;" d="M 304.941406 83.609375 L 315.722656 122.300781 L 314.894531 122.644531 L 262.628906 100.96875 Z M 304.941406 83.609375 " />
    <path style="stroke:none;fill-rule:nonzero;fill:#fff;fill-opacity:1;" d="M 314.894531 122.644531 L 261.203125 144.894531 L 208.855469 123.046875 L 262.628906 100.96875 Z M 314.894531 122.644531 " />
    <path style="stroke:none;fill-rule:nonzero;fill:#fff;fill-opacity:1;" d="M 313.386719 289.925781 L 312.703125 292.394531 L 262.058594 313.40625 L 208.8125 291.179688 L 263.097656 268.738281 " />
    <path style="stroke:none;fill-rule:nonzero;fill:#fff;fill-opacity:1;" d="M 312.703125 292.394531 L 302.046875 330.105469 L 262.058594 313.40625 " />
    <path style="stroke:none;fill-rule:nonzero;fill:#fff;fill-opacity:1;" d="M 302.046875 330.105469 L 298.175781 343.851563 L 261.886719 358.953125 L 223.003906 342.679688 L 219.703125 331 L 262.058594 313.40625 " />
    <path style="stroke:none;fill-rule:nonzero;fill:#fff;fill-opacity:1;" d="M 263.097656 268.738281 L 208.8125 291.179688 L 208.453125 291.03125 L 193.988281 239.617188 Z M 263.097656 268.738281 " />
    <path style="stroke:none;fill-rule:nonzero;fill:#fff;fill-opacity:1;" d="M 262.058594 313.40625 L 219.703125 331 L 208.539063 291.308594 L 208.8125 291.179688 Z M 262.058594 313.40625 " />
    <path style="stroke:none;fill-rule:nonzero;fill:#fff;fill-opacity:1;" d="M 261.886719 358.953125 L 231.171875 371.714844 L 223.003906 342.679688 " />
    <path style="stroke:none;fill-rule:nonzero;fill:#fff;fill-opacity:1;" d="M 261.203125 144.894531 L 193.601563 172.929688 L 207.515625 123.621094 L 208.855469 123.046875 Z M 261.203125 144.894531 " />
    <path style="stroke:none;fill-rule:nonzero;fill:#fff;fill-opacity:1;" d="M 223.003906 342.679688 L 231.171875 371.714844 L 185.222656 390.816406 L 168.949219 352.082031 L 207.367188 336.125 " />
    <path style="stroke:none;fill-rule:nonzero;fill:#fff;fill-opacity:1;" d="M 230.46875 42.191406 L 221.703125 73.296875 L 208.8125 78.652344 L 168.566406 61.957031 L 184.609375 23.132813 " />
    <path style="stroke:none;fill-rule:nonzero;fill:#fff;fill-opacity:1;" d="M 219.703125 331 L 223.003906 342.679688 L 207.367188 336.125 " />
    <path style="stroke:none;fill-rule:nonzero;fill:#fff;fill-opacity:1;" d="M 221.703125 73.296875 L 219.003906 82.867188 L 208.8125 78.652344 " />
    <path style="stroke:none;fill-rule:nonzero;fill:#fff;fill-opacity:1;" d="M 208.539063 291.308594 L 219.703125 331 L 207.367188 336.125 L 154.082031 313.835938 Z M 208.539063 291.308594 " />
    <path style="stroke:none;fill-rule:nonzero;fill:#fff;fill-opacity:1;" d="M 208.453125 291.03125 L 208.539063 291.308594 L 154.082031 313.835938 L 153.890625 313.753906 L 165.375 273.035156 " />
    <path style="stroke:none;fill-rule:nonzero;fill:#fff;fill-opacity:1;" d="M 193.988281 239.617188 L 208.453125 291.03125 L 165.378906 273.035156 L 176.820313 232.40625 Z M 193.988281 239.617188 " />
    <path style="stroke:none;fill-rule:nonzero;fill:#fff;fill-opacity:1;" d="M 207.515625 123.621094 L 193.605469 172.929688 L 177.117188 179.761719 L 166.097656 140.621094 Z M 207.515625 123.621094 " />
    <path style="stroke:none;fill-rule:nonzero;fill:#fff;fill-opacity:1;" d="M 184.390625 205.582031 L 193.988281 239.617188 L 176.820313 232.40625 " />
    <path style="stroke:none;fill-rule:nonzero;fill:#fff;fill-opacity:1;" d="M 168.949219 352.082031 L 185.222656 390.816406 L 125.109375 415.8125 L 139.65625 364.246094 Z M 168.949219 352.082031 " />
    <path style="stroke:none;fill-rule:nonzero;fill:#fff;fill-opacity:1;" d="M 166.097656 140.621094 L 177.117188 179.761719 L 113.984375 205.921875 L 109.855469 204.199219 L 129.980469 155.445313 " />
    <path style="stroke:none;fill-rule:nonzero;fill:#fff;fill-opacity:1;" d="M 154.953125 100.988281 L 166.097656 140.621094 L 129.980469 155.445313 L 151.953125 102.222656 Z M 154.953125 100.988281 " />
    <path style="stroke:none;fill-rule:nonzero;fill:#fff;fill-opacity:1;" d="M 165.375 273.035156 L 153.890625 313.75 L 152.65625 313.242188 L 129.492188 258.058594 Z M 165.375 273.035156 " />
    <path style="stroke:none;fill-rule:nonzero;fill:#fff;fill-opacity:1;" d="M 154.804688 100.519531 L 154.953125 100.988281 L 151.953125 102.222656 L 152.976563 99.757813 Z M 154.804688 100.519531 " />
    <path style="stroke:none;fill-rule:nonzero;fill:#fff;fill-opacity:1;" d="M 153.929688 97.417969 L 154.804688 100.519531 L 152.976563 99.757813 " />
    <path style="stroke:none;fill-rule:nonzero;fill:#fff;fill-opacity:1;" d="M 140.703125 50.402344 L 153.929688 97.417969 L 152.976563 99.757813 L 43.914063 54.253906 L 21.535156 0.992188 " />
    <path style="stroke:none;fill-rule:nonzero;fill:#fff;fill-opacity:1;" d="M 152.976563 99.757813 L 151.953125 102.222656 L 77.097656 133.28125 L 43.914063 54.253906 Z M 152.976563 99.757813 " />
    <path style="stroke:none;fill-rule:nonzero;fill:#fff;fill-opacity:1;" d="M 129.492188 258.058594 L 152.65625 313.242188 L 77.78125 281.90625 L 93.777344 243.148438 Z M 129.492188 258.058594 " />
    <path style="stroke:none;fill-rule:nonzero;fill:#fff;fill-opacity:1;" d="M 151.953125 102.222656 L 129.980469 155.445313 L 92.816406 170.71875 L 77.097656 133.28125 Z M 151.953125 102.222656 " />
    <path style="stroke:none;fill-rule:nonzero;fill:#fff;fill-opacity:1;" d="M 139.65625 364.246094 L 125.109375 415.8125 L 1.265625 467.289063 L 23.984375 412.28125 Z M 139.65625 364.246094 " />
    <path style="stroke:none;fill-rule:nonzero;fill:#fff;fill-opacity:1;" d="M 129.980469 155.445313 L 109.855469 204.199219 L 106.21875 202.644531 L 92.816406 170.71875 Z M 129.980469 155.445313 " />
    <path style="stroke:none;fill-rule:nonzero;fill:#fff;fill-opacity:1;" d="M 113.984375 205.921875 L 108.535156 208.179688 L 108.386719 207.796875 L 109.855469 204.199219 Z M 113.984375 205.921875 " />
    <path style="stroke:none;fill-rule:nonzero;fill:#fff;fill-opacity:1;" d="M 106.21875 202.644531 L 109.855469 204.199219 L 108.390625 207.792969 " />
    <path style="stroke:none;fill-rule:nonzero;fill:#fff;fill-opacity:1;" d="M 93.777344 243.148438 L 77.78125 281.90625 L 4.605469 251.273438 L 59.125 228.679688 Z M 93.777344 243.148438 " />
  </g>
</svg>