<?xml version="1.0" encoding="UTF-8" standalone="no"?>
<svg xmlns:dc="http://purl.org/dc/elements/1.1/" xmlns:cc="http://creativecommons.org/ns#" xmlns:rdf="http://www.w3.org/1999/02/22-rdf-syntax-ns#" xmlns:svg="http://www.w3.org/2000/svg" xmlns="http://www.w3.org/2000/svg" viewBox="640 360 1280 720" height="256" width="256" xml:space="preserve" id="svg2" version="1.1">
  <metadata id="metadata8">
    <rdf:RDF>
      <cc:Work rdf:about="">
        <dc:format>image/svg+xml</dc:format>
        <dc:type rdf:resource="http://purl.org/dc/dcmitype/StillImage" />
      </cc:Work>
    </rdf:RDF>
  </metadata>
  <defs id="defs6">
    <clipPath id="clipPath18" clipPathUnits="userSpaceOnUse">
      <path id="path16" d="M 0,1080 H 1920 V 0 H 0 Z" />
    </clipPath>
  </defs>
  <g transform="matrix(1.3333333,0,0,-1.3333333,0,1440)" id="g10">
    <g id="g12">
      <g clip-path="url(#clipPath18)" id="g14">
        <g transform="translate(755.1904,220.9287)" id="g20">
          <path id="path22" style="fill:#575756;fill-opacity:1;fill-rule:nonzero;stroke:none" d="M 0,0 H -8.835 V -25.656 H 0 c 4.758,0 8.665,3.908 8.665,8.665 v 8.155 C 8.665,-3.908 4.758,0 0,0 m 8.665,27.694 c 0,4.928 -3.907,8.835 -8.665,8.835 H -8.835 V 10.874 H 0 c 4.758,0 8.665,3.907 8.665,8.665 z M 19.54,19.539 C 19.54,13.932 17.331,9.005 13.423,5.437 17.331,1.868 19.54,-3.229 19.54,-8.836 v -8.155 C 19.54,-27.865 10.704,-36.7 0,-36.7 h -14.272 c -3.058,0 -5.437,2.549 -5.437,5.437 v 73.23 c 0,3.057 2.379,5.436 5.437,5.436 H 0 c 10.704,0 19.54,-8.835 19.54,-19.709 z" />
        </g>
        <g transform="translate(870.5508,248.623)" id="g24">
          <path id="path26" style="fill:#575756;fill-opacity:1;fill-rule:nonzero;stroke:none" d="M 0,0 C 0,4.928 -3.907,8.835 -8.665,8.835 H -17.5 v -62.186 h 8.835 c 4.758,0 8.665,3.909 8.665,8.665 z m 10.875,0 v -44.686 c 0,-10.874 -8.666,-19.709 -19.54,-19.709 h -14.272 c -2.888,0 -5.437,2.549 -5.437,5.438 v 73.229 c 0,3.058 2.549,5.437 5.437,5.437 h 14.272 c 10.874,0 19.54,-8.835 19.54,-19.709" />
        </g>
        <g transform="translate(988.1182,186.9473)" id="g28">
          <path id="path30" style="fill:#575756;fill-opacity:1;fill-rule:nonzero;stroke:none" d="m 0,0 c 0,-1.529 -1.189,-2.719 -2.718,-2.719 h -5.437 c -1.53,0 -2.719,1.19 -2.719,2.719 v 78.667 c 0,1.528 1.189,2.718 2.719,2.718 h 5.437 C -1.359,81.385 0,80.195 0,78.667 Z" />
        </g>
        <g transform="translate(1080.373,265.6143)" id="g32">
          <path id="path34" style="fill:#575756;fill-opacity:1;fill-rule:nonzero;stroke:none" d="m 0,0 v -5.437 c 0,-1.53 -1.189,-2.719 -2.719,-2.719 h -7.646 v -70.511 c 0,-1.359 -1.19,-2.719 -2.719,-2.719 h -5.436 c -1.529,0 -2.718,1.36 -2.718,2.719 v 70.511 h -7.647 c -1.529,0 -2.719,1.189 -2.719,2.719 V 0 c 0,1.528 1.19,2.718 2.719,2.718 H -2.719 C -1.189,2.718 0,1.528 0,0" />
        </g>
        <g transform="translate(1116.0508,248.793)" id="g36">
          <path id="path38" style="fill:#575756;fill-opacity:1;fill-rule:nonzero;stroke:none" d="M 0,0 C 0,4.758 -3.908,8.665 -8.666,8.665 -13.594,8.665 -17.5,4.758 -17.5,0 v -44.855 c 0,-4.927 3.906,-8.835 8.834,-8.835 4.758,0 8.666,3.908 8.666,8.835 z m 10.873,0 v -44.855 c 0,-10.874 -8.834,-19.709 -19.539,-19.709 -10.873,0 -19.709,8.835 -19.709,19.709 V 0 c 0,10.704 8.836,19.539 19.709,19.539 10.705,0 19.539,-8.835 19.539,-19.539" />
        </g>
        <g transform="translate(947.0225,265.6094)" id="g40">
          <path id="path42" style="fill:#575756;fill-opacity:1;fill-rule:nonzero;stroke:none" d="M 0,0 -19.867,-32.359 -39.73,0 c -0.512,1.521 -2.215,2.706 -3.54,2.717 h -0.019 -0.057 -5.431 c -1.532,0 -2.721,-1.19 -2.721,-2.717 v -78.659 c 0,-1.528 1.189,-2.716 2.721,-2.716 h 5.431 c 1.528,0 2.723,1.188 2.723,2.716 v 56.958 l 16.824,-24.719 c 0,0 1.492,-2.112 3.932,-2.112 2.592,0 3.929,2.046 3.929,2.046 l 16.819,24.729 v -56.902 c 0,-1.534 1.189,-2.723 2.723,-2.723 h 5.439 c 1.521,0 2.721,1.189 2.721,2.723 L 11.768,0 c 0,1.527 -1.19,2.717 -2.717,2.717 H 3.559 C 1.711,2.717 0.867,1.383 0,0" />
        </g>
        <g transform="translate(1030.4561,220.7168)" id="g44">
          <path id="path46" style="fill:#575756;fill-opacity:1;fill-rule:nonzero;stroke:none" d="M 0,0 V -4.393 L -1.473,0 -16.347,44.438 c -0.507,1.512 -2.196,2.686 -3.513,2.697 h -0.022 -0.051 -5.21 -0.068 -0.134 c -1.517,0 -2.698,-1.181 -2.698,-2.697 v -78.221 c 0,-1.525 1.181,-2.705 2.698,-2.705 h 5.412 c 1.517,0 2.702,1.18 2.702,2.705 V 0 15.626 L -12.002,0 -0.697,-33.783 c 0.357,-1.071 1.222,-1.971 2.218,-2.41 l 0.02,-0.006 c 0.363,-0.186 0.762,-0.289 1.167,-0.289 H 2.77 2.845 8.113 8.178 8.182 8.243 8.247 l 0.068,0.004 h 0.007 l 0.055,0.009 h 0.014 l 0.051,0.004 H 8.46 c 1.349,0.172 2.353,1.28 2.353,2.688 v 78.221 c 0,1.516 -1.187,2.697 -2.7,2.697 H 2.708 C 1.355,47.135 0,45.954 0,44.438 Z" />
        </g>
        <g transform="translate(1169.2617,220.7168)" id="g48">
          <path id="path50" style="fill:#575756;fill-opacity:1;fill-rule:nonzero;stroke:none" d="M 0,0 V -4.393 L -1.473,0 -16.347,44.438 c -0.507,1.512 -2.196,2.686 -3.513,2.697 h -0.022 -0.051 -5.21 -0.068 -0.134 c -1.517,0 -2.698,-1.181 -2.698,-2.697 v -78.221 c 0,-1.525 1.181,-2.705 2.698,-2.705 h 5.412 c 1.517,0 2.702,1.18 2.702,2.705 V 0 15.626 L -12.002,0 -0.697,-33.783 c 0.357,-1.071 1.222,-1.971 2.218,-2.41 l 0.02,-0.006 c 0.363,-0.186 0.762,-0.289 1.167,-0.289 H 2.77 2.845 8.113 8.178 8.182 8.243 8.247 l 0.068,0.004 h 0.007 l 0.055,0.009 h 0.014 l 0.051,0.004 H 8.46 c 1.349,0.172 2.353,1.28 2.353,2.688 v 78.221 c 0,1.516 -1.187,2.697 -2.7,2.697 H 2.708 C 1.355,47.135 0,45.954 0,44.438 Z" />
        </g>
        <g transform="translate(791.5986,184.2285)" id="g52">
          <path id="path54" style="fill:#575756;fill-opacity:1;fill-rule:evenodd;stroke:none" d="M 0,0 H 5.448 C 6.156,0.024 6.779,0.281 7.32,0.795 7.862,1.301 8.144,1.932 8.174,2.723 V 36.66 H 25.538 V 2.723 C 25.565,1.932 25.823,1.301 26.332,0.795 26.846,0.281 27.467,0.024 28.261,0 h 5.452 c 0.794,0.024 1.414,0.281 1.928,0.795 0.509,0.506 0.766,1.137 0.795,1.928 v 52.949 c 0,1.957 -0.286,3.856 -0.855,5.702 -0.564,1.845 -1.362,3.582 -2.382,5.195 l -9.194,16.174 c -0.256,0.424 -0.596,0.763 -0.994,0.992 -0.424,0.257 -0.879,0.369 -1.388,0.369 h -9.534 c -0.514,0 -0.967,-0.112 -1.391,-0.369 C 10.3,83.506 9.957,83.167 9.707,82.743 L 0.51,66.569 c -1.024,-1.613 -1.818,-3.35 -2.382,-5.195 -0.569,-1.846 -0.855,-3.745 -0.855,-5.702 V 2.723 C -2.694,1.932 -2.441,1.301 -1.932,0.795 -1.419,0.281 -0.794,0.024 0,0 m 8.174,47.619 v 8.053 c 0,0.516 0.024,0.992 0.111,1.415 0.059,0.458 0.142,0.882 0.229,1.314 l 8.34,14.639 8.174,-14.639 c 0.17,-0.432 0.285,-0.856 0.368,-1.314 0.087,-0.423 0.142,-0.899 0.142,-1.415 v -8.053 z" />
        </g>
      </g>
    </g>
    <g transform="translate(761.0488,821.564)" id="g56">
      <path id="path58" style="fill:#1d1d1b;fill-opacity:1;fill-rule:nonzero;stroke:none" d="m 0,0 -12.119,-30.152 61.287,-25.562 -17.957,42.77 z" />
    </g>
    <g transform="translate(1046.291,646.8896)" id="g60">
      <path id="path62" style="fill:#1d1d1b;fill-opacity:1;fill-rule:nonzero;stroke:none" d="m 0,0 -26.584,95.405 -111.42,-45.761 -8.555,31.979 -89.515,37.337 51.869,-123.541 55.041,22.819 36.066,-128.085 55.946,-21.848 -37.647,-133.451 12.069,-28.744 72.763,175.202 -38.929,16.255 z" />
    </g>
    <g transform="translate(959.9414,775.5244)" id="g64">
      <path id="path66" style="fill:#1d1d1b;fill-opacity:1;fill-rule:nonzero;stroke:none" d="M 0,0 -36.814,15.298 -49.67,-15.848 -9.205,-32.633 Z" />
    </g>
    <g transform="translate(1026.0215,744.8867)" id="g68">
      <path id="path70" style="fill:#1d1d1b;fill-opacity:1;fill-rule:nonzero;stroke:none" d="m 0,0 9.459,-30.693 118.502,49.131 17.088,41.135 z" />
    </g>
    <g transform="translate(946.8477,531.5908)" id="g72">
      <path id="path74" style="fill:#1d1d1b;fill-opacity:1;fill-rule:nonzero;stroke:none" d="m 0,0 -2.549,9.236 -150.08,-62.319 -18.226,-44.148 203.912,84.769 z" />
    </g>
    <g transform="translate(1170.9434,804.3379)" id="g76">
      <path id="path78" style="fill:#ffd153;fill-opacity:1;fill-rule:nonzero;stroke:none" d="m 0,0 -17.067,-41.111 -82.432,-34.186 -1.825,0.769 10.511,37.239 z" />
    </g>
    <g transform="translate(1056.4932,757.3374)" id="g80">
      <path id="path82" style="fill:#ffd153;fill-opacity:1;fill-rule:nonzero;stroke:none" d="m 0,0 23.637,9.711 -10.511,-37.239 -1.932,0.802 z" />
    </g>
    <g transform="translate(1069.6191,729.8096)" id="g84">
      <path id="path86" style="fill:#125686;fill-opacity:1;fill-rule:nonzero;stroke:none" d="M 0,0 1.825,-0.769 -0.479,-1.724 Z" />
    </g>
    <g transform="translate(1069.6191,729.8096)" id="g88">
      <path id="path90" style="fill:#ef7f2b;fill-opacity:1;fill-rule:nonzero;stroke:none" d="m 0,0 -0.479,-1.724 -0.34,-0.138 -1.113,2.664 z" />
    </g>
    <g transform="translate(1067.6875,730.6118)" id="g92">
      <path id="path94" style="fill:#ffd153;fill-opacity:1;fill-rule:nonzero;stroke:none" d="m 0,0 1.112,-2.665 -40.516,-16.79 -8.655,31.043 10.156,4.162 z" />
    </g>
    <g transform="translate(1067.6875,730.6118)" id="g96">
      <path id="path98" style="fill:#d21217;fill-opacity:1;fill-rule:nonzero;stroke:none" d="m 0,0 -37.903,15.75 26.709,10.976 z" />
    </g>
    <g transform="translate(1029,539.5371)" id="g100">
      <path id="path102" style="fill:#ef7f2b;fill-opacity:1;fill-rule:nonzero;stroke:none" d="m 0,0 27.236,-11.382 -12.967,-31.216 -35.191,14.726 6.125,21.71 z" />
    </g>
    <g transform="translate(1039.7529,669.9917)" id="g104">
      <path id="path106" style="fill:#d21217;fill-opacity:1;fill-rule:nonzero;stroke:none" d="m 0,0 6.449,-23.194 -9.026,-32.016 -51.098,-21.128 -55.466,23.365 -7.696,27.304 7.39,26.215 54.237,22.476 z" />
    </g>
    <g transform="translate(1043.2686,496.9395)" id="g108">
      <path id="path110" style="fill:#d21217;fill-opacity:1;fill-rule:nonzero;stroke:none" d="m 0,0 -46.985,-113.15 -12.133,43.056 23.928,84.82 z" />
    </g>
    <g transform="translate(1039.7529,669.9917)" id="g112">
      <path id="path114" style="fill:#ef7f2b;fill-opacity:1;fill-rule:nonzero;stroke:none" d="m 0,0 -55.21,23.022 43.076,17.87 0.834,-0.344 z" />
    </g>
    <g transform="translate(1037.1758,614.7817)" id="g116">
      <path id="path118" style="fill:#d21217;fill-opacity:1;fill-rule:nonzero;stroke:none" d="m 0,0 -10.752,-38.125 -40.346,16.997 z" />
    </g>
    <g transform="translate(1029,539.5371)" id="g120">
      <path id="path122" style="fill:#ef7f2b;fill-opacity:1;fill-rule:nonzero;stroke:none" d="M 0,0 -14.797,-6.162 -11.672,4.88 Z" />
    </g>
    <g transform="translate(1028.2832,711.1572)" id="g124">
      <path id="path126" style="fill:#ffd153;fill-opacity:1;fill-rule:nonzero;stroke:none" d="M 0,0 -0.664,-0.274 -42.58,17.099 -8.654,31.042 Z" />
    </g>
    <g transform="translate(1027.6191,710.8833)" id="g128">
      <path id="path130" style="fill:#ef7f2b;fill-opacity:1;fill-rule:nonzero;stroke:none" d="m 0,0 -43.076,-17.869 -41.987,17.526 43.147,17.716 z" />
    </g>
    <g transform="translate(1026.4238,576.6562)" id="g132">
      <path id="path134" style="fill:#ef7f2b;fill-opacity:1;fill-rule:nonzero;stroke:none" d="m 0,0 -0.562,-1.98 -40.639,-16.862 -42.68,17.817 43.535,18.022 z" />
    </g>
    <g transform="translate(1025.8613,574.6758)" id="g136">
      <path id="path138" style="fill:#ef7f2b;fill-opacity:1;fill-rule:nonzero;stroke:none" d="m 0,0 -8.533,-30.259 -32.106,13.397 z" />
    </g>
    <g transform="translate(1017.3281,544.417)" id="g140">
      <path id="path142" style="fill:#ef7f2b;fill-opacity:1;fill-rule:nonzero;stroke:none" d="m 0,0 -3.125,-11.042 -29.08,-12.1 -31.25,13.073 -2.63,9.353 33.98,14.113 z" />
    </g>
    <g transform="translate(1014.2031,533.375)" id="g144">
      <path id="path146" style="fill:#ef7f2b;fill-opacity:1;fill-rule:nonzero;stroke:none" d="M 0,0 -6.125,-21.71 -29.08,-12.1 Z" />
    </g>
    <g transform="translate(996.2832,383.7891)" id="g148">
      <path id="path150" style="fill:#ef7f2b;fill-opacity:1;fill-rule:nonzero;stroke:none" d="m 0,0 -12.799,-30.79 -12.048,28.74 12.714,45.107 z" />
    </g>
    <g transform="translate(986.0781,593.6533)" id="g152">
      <path id="path154" style="fill:#ef7f2b;fill-opacity:1;fill-rule:nonzero;stroke:none" d="m 0,0 -43.535,-18.022 -0.326,0.138 -11.605,41.25 z" />
    </g>
    <g transform="translate(985.2227,557.814)" id="g156">
      <path id="path158" style="fill:#d21217;fill-opacity:1;fill-rule:nonzero;stroke:none" d="m 0,0 -33.979,-14.113 -8.958,31.827 0.257,0.103 z" />
    </g>
    <g transform="translate(985.123,521.2754)" id="g160">
      <path id="path162" style="fill:#ffd153;fill-opacity:1;fill-rule:nonzero;stroke:none" d="M 0,0 -24.679,-10.242 -31.25,13.072 Z" />
    </g>
    <g transform="translate(942.5566,710.54)" id="g164">
      <path id="path166" style="fill:#d21217;fill-opacity:1;fill-rule:nonzero;stroke:none" d="m 0,0 41.986,-17.526 -54.237,-22.476 11.16,39.543 z" />
    </g>
    <g transform="translate(953.873,534.3477)" id="g168">
      <path id="path170" style="fill:#ffd153;fill-opacity:1;fill-rule:nonzero;stroke:none" d="M 0,0 6.571,-23.314 -30.293,-38.654 -43.348,-7.561 -12.512,5.24 Z" />
    </g>
    <g transform="translate(959.8809,775.4092)" id="g172">
      <path id="path174" style="fill:#d21217;fill-opacity:1;fill-rule:nonzero;stroke:none" d="m 0,0 -7.032,-24.948 -10.341,-4.286 -32.272,13.397 12.832,31.131 z" />
    </g>
    <g transform="translate(953.873,534.3477)" id="g176">
      <path id="path178" style="fill:#ffd153;fill-opacity:1;fill-rule:nonzero;stroke:none" d="M 0,0 -12.512,5.24 -2.63,9.353 Z" />
    </g>
    <g transform="translate(952.8486,750.4609)" id="g180">
      <path id="path182" style="fill:#d21217;fill-opacity:1;fill-rule:nonzero;stroke:none" d="m 0,0 -2.167,-7.665 -8.174,3.379 z" />
    </g>
    <g transform="translate(941.4658,710.0811)" id="g184">
      <path id="path186" style="fill:#ef7f2b;fill-opacity:1;fill-rule:nonzero;stroke:none" d="m 0,0 -11.16,-39.543 -13.228,-5.494 -8.841,31.402 z" />
    </g>
    <g transform="translate(930.3057,670.5376)" id="g188">
      <path id="path190" style="fill:#ef7f2b;fill-opacity:1;fill-rule:nonzero;stroke:none" d="m 0,0 -7.39,-26.215 -5.838,20.721 z" />
    </g>
    <g transform="translate(910.5254,526.7871)" id="g192">
      <path id="path194" style="fill:#ef7f2b;fill-opacity:1;fill-rule:nonzero;stroke:none" d="m 0,0 13.055,-31.094 -48.228,-20.038 11.674,41.369 z" />
    </g>
    <g transform="translate(908.2363,696.4463)" id="g196">
      <path id="path198" style="fill:#ef7f2b;fill-opacity:1;fill-rule:nonzero;stroke:none" d="m 0,0 8.842,-31.402 -50.655,-20.994 -3.308,1.384 16.143,39.116 z" />
    </g>
    <g transform="translate(899.2959,728.2559)" id="g200">
      <path id="path202" style="fill:#ffd153;fill-opacity:1;fill-rule:nonzero;stroke:none" d="M 0,0 8.94,-31.81 -20.037,-43.706 -2.409,-1.004 Z" />
    </g>
    <g transform="translate(899.2959,728.2559)" id="g204">
      <path id="path206" style="fill:#ef7f2b;fill-opacity:1;fill-rule:nonzero;stroke:none" d="m 0,0 -2.409,-1.004 0.821,1.995 1.466,-0.616 z" />
    </g>
    <g transform="translate(897.708,729.2466)" id="g208">
      <path id="path210" style="fill:#ef7f2b;fill-opacity:1;fill-rule:nonzero;stroke:none" d="M 0,0 -0.821,-1.995 -60.894,-26.914 -87.517,36.503 Z" />
    </g>
    <g transform="translate(896.8867,727.2515)" id="g212">
      <path id="path214" style="fill:#ffd153;fill-opacity:1;fill-rule:nonzero;stroke:none" d="M 0,0 -17.628,-42.702 -47.46,-54.956 -60.072,-24.919 Z" />
    </g>
    <g transform="translate(887.0264,517.0244)" id="g216">
      <path id="path218" style="fill:#ffd153;fill-opacity:1;fill-rule:nonzero;stroke:none" d="m 0,0 -11.674,-41.369 -99.363,-41.318 18.227,44.154 z" />
    </g>
    <g transform="translate(879.2588,684.5498)" id="g220">
      <path id="path222" style="fill:#ef7f2b;fill-opacity:1;fill-rule:nonzero;stroke:none" d="m 0,0 -16.144,-39.116 -2.918,1.245 -10.77,25.617 z" />
    </g>
    <g transform="translate(866.4238,644.0508)" id="g224">
      <path id="path226" style="fill:#ef7f2b;fill-opacity:1;fill-rule:nonzero;stroke:none" d="M 0,0 -4.367,-1.809 -4.504,-1.5 -3.309,1.383 Z" />
    </g>
    <g transform="translate(860.1963,646.6787)" id="g228">
      <path id="path230" style="fill:#ef7f2b;fill-opacity:1;fill-rule:nonzero;stroke:none" d="M 0,0 2.919,-1.245 1.724,-4.128 Z" />
    </g>
    <g transform="translate(792.2363,808.5029)" id="g232">
      <path id="path234" style="fill:#ffd153;fill-opacity:1;fill-rule:nonzero;stroke:none" d="m 0,0 17.955,-42.753 -61.251,25.551 12.115,30.138 z" />
    </g>
  </g>
</svg>