<?xml version="1.0" encoding="UTF-8" standalone="no"?>
<svg xmlns:dc="http://purl.org/dc/elements/1.1/" xmlns:cc="http://creativecommons.org/ns#" xmlns:rdf="http://www.w3.org/1999/02/22-rdf-syntax-ns#" xmlns:svg="http://www.w3.org/2000/svg" xmlns="http://www.w3.org/2000/svg" viewBox="640 360 1280 720" height="256" width="256" xml:space="preserve" id="svg2" version="1.1">
  <metadata id="metadata8">
    <rdf:RDF>
      <cc:Work rdf:about="">
        <dc:format>image/svg+xml</dc:format>
        <dc:type rdf:resource="http://purl.org/dc/dcmitype/StillImage" />
      </cc:Work>
    </rdf:RDF>
  </metadata>
  <defs id="defs6">
    <clipPath id="clipPath18" clipPathUnits="userSpaceOnUse">
      <path id="path16" d="M 0,1080 H 1920 V 0 H 0 Z" />
    </clipPath>
  </defs>
  <g transform="matrix(1.3333333,0,0,-1.3333333,0,1440)" id="g10">
    <g id="g12">
      <g clip-path="url(#clipPath18)" id="g14">
        <g transform="translate(715.7715,220.9287)" id="g20">
          <path id="path22" style="fill:#575756;fill-opacity:1;fill-rule:nonzero;stroke:none" d="M 0,0 H -8.834 V -25.656 H 0 c 4.758,0 8.666,3.908 8.666,8.665 v 8.155 C 8.666,-3.908 4.758,0 0,0 m 8.666,27.694 c 0,4.928 -3.908,8.835 -8.666,8.835 H -8.834 V 10.874 H 0 c 4.758,0 8.666,3.907 8.666,8.665 z M 19.54,19.539 C 19.54,13.932 17.331,9.005 13.424,5.437 17.331,1.868 19.54,-3.229 19.54,-8.836 v -8.155 C 19.54,-27.865 10.705,-36.7 0,-36.7 h -14.271 c -3.059,0 -5.438,2.549 -5.438,5.437 v 73.23 c 0,3.057 2.379,5.436 5.438,5.436 H 0 c 10.705,0 19.54,-8.835 19.54,-19.709 z" />
        </g>
        <g transform="translate(829.2637,243.0166)" id="g24">
          <path id="path26" style="fill:#575756;fill-opacity:1;fill-rule:nonzero;stroke:none" d="m 0,0 v 5.776 c 0,4.758 -3.908,8.665 -8.665,8.665 -4.757,0 -8.665,-3.907 -8.665,-8.665 0,-2.209 0,-2.209 0.51,-2.888 L 6.797,-28.375 c 4.077,-5.437 4.077,-5.437 4.077,-10.874 0,-10.704 -8.835,-19.539 -19.539,-19.539 -10.704,0 -19.54,8.835 -19.54,19.539 v 5.777 c 0,1.53 1.189,2.718 2.719,2.718 h 5.437 c 1.529,0 2.719,-1.188 2.719,-2.718 v -5.777 c 0,-4.757 3.908,-8.665 8.665,-8.665 4.757,0 8.665,3.908 8.665,8.665 0,2.209 0,2.209 -0.51,2.889 l -23.617,31.262 c -4.078,5.438 -4.078,5.438 -4.078,10.874 0,10.704 8.836,19.539 19.54,19.539 10.704,0 19.539,-8.835 19.539,-19.539 V 0 c 0,-1.529 -1.189,-2.719 -2.718,-2.719 H 2.719 C 1.189,-2.719 0,-1.529 0,0" />
        </g>
        <g transform="translate(880.7441,248.793)" id="g28">
          <path id="path30" style="fill:#575756;fill-opacity:1;fill-rule:nonzero;stroke:none" d="m 0,0 c 0,4.758 -3.908,8.665 -8.666,8.665 -4.758,0 -8.665,-3.907 -8.665,-8.665 v -44.855 c 0,-4.757 3.907,-8.666 8.665,-8.666 4.758,0 8.666,3.909 8.666,8.666 z m 10.873,0 v -44.855 c 0,-8.835 -5.946,-16.481 -14.102,-18.86 v -8.835 c 0,-1.529 -1.189,-2.719 -2.718,-2.719 h -5.438 c -1.529,0 -2.719,1.19 -2.719,2.719 v 8.835 c -8.154,2.379 -14.101,10.025 -14.101,18.86 V 0 c 0,10.874 8.666,19.539 19.539,19.539 10.705,0 19.539,-8.665 19.539,-19.539" />
        </g>
        <g transform="translate(945.1348,265.6143)" id="g32">
          <path id="path34" style="fill:#575756;fill-opacity:1;fill-rule:nonzero;stroke:none" d="m 0,0 v -61.677 c 0,-10.874 -8.834,-19.709 -19.539,-19.709 -10.874,0 -19.709,8.835 -19.709,19.709 V 0 c 0,1.528 1.359,2.718 2.719,2.718 h 5.437 c 1.529,0 2.718,-1.19 2.718,-2.718 v -61.677 c 0,-4.927 3.907,-8.835 8.835,-8.835 4.758,0 8.666,3.908 8.666,8.835 V 0 c 0,1.528 1.189,2.718 2.718,2.718 h 5.436 C -1.189,2.718 0,1.528 0,0" />
        </g>
        <g transform="translate(970.1084,257.458)" id="g36">
          <path id="path38" style="fill:#575756;fill-opacity:1;fill-rule:nonzero;stroke:none" d="m 0,0 v -25.655 h 14.782 c 1.53,0 2.719,-1.19 2.719,-2.719 v -5.438 c 0,-1.528 -1.189,-2.717 -2.719,-2.717 H 0 v -25.826 h 14.782 c 1.53,0 2.719,-1.19 2.719,-2.719 v -5.437 c 0,-1.529 -1.189,-2.718 -2.719,-2.718 H -5.437 c -3.058,0 -5.437,2.548 -5.437,5.437 V 5.437 c 0,3.058 2.379,5.437 5.437,5.437 h 20.219 c 1.53,0 2.719,-1.189 2.719,-2.718 V 2.719 C 17.501,1.189 16.312,0 14.782,0 Z" />
        </g>
        <g transform="translate(1031.6133,265.6143)" id="g40">
          <path id="path42" style="fill:#575756;fill-opacity:1;fill-rule:nonzero;stroke:none" d="m 0,0 v -5.437 c 0,-1.53 -1.189,-2.719 -2.719,-2.719 h -7.646 v -70.511 c 0,-1.359 -1.189,-2.719 -2.718,-2.719 h -5.437 c -1.529,0 -2.718,1.36 -2.718,2.719 v 70.511 h -7.647 c -1.529,0 -2.719,1.189 -2.719,2.719 V 0 c 0,1.528 1.19,2.718 2.719,2.718 H -2.719 C -1.189,2.718 0,1.528 0,0" />
        </g>
        <g transform="translate(1054.8887,257.458)" id="g44">
          <path id="path46" style="fill:#575756;fill-opacity:1;fill-rule:nonzero;stroke:none" d="m 0,0 v -25.655 h 14.781 c 1.53,0 2.719,-1.19 2.719,-2.719 v -5.438 c 0,-1.528 -1.189,-2.717 -2.719,-2.717 H 0 v -25.826 h 14.781 c 1.53,0 2.719,-1.19 2.719,-2.719 v -5.437 c 0,-1.529 -1.189,-2.718 -2.719,-2.718 H -5.437 c -3.059,0 -5.438,2.548 -5.438,5.437 V 5.437 c 0,3.058 2.379,5.437 5.438,5.437 h 20.218 c 1.53,0 2.719,-1.189 2.719,-2.718 V 2.719 C 17.5,1.189 16.311,0 14.781,0 Z" />
        </g>
        <g transform="translate(1106.1973,220.9287)" id="g48">
          <path id="path50" style="fill:#575756;fill-opacity:1;fill-rule:nonzero;stroke:none" d="M 0,0 H -8.834 V -25.656 H 0 c 4.758,0 8.666,3.908 8.666,8.665 v 8.155 C 8.666,-3.908 4.758,0 0,0 m 8.666,27.694 c 0,4.928 -3.908,8.835 -8.666,8.835 H -8.834 V 10.874 H 0 c 4.758,0 8.666,3.907 8.666,8.665 z m 10.873,-8.155 c 0,-5.607 -2.209,-10.534 -6.115,-14.102 3.906,-3.569 6.115,-8.666 6.115,-14.273 v -8.155 C 19.539,-27.865 10.705,-36.7 0,-36.7 h -14.271 c -3.059,0 -5.438,2.549 -5.438,5.437 v 73.23 c 0,3.057 2.379,5.436 5.438,5.436 H 0 c 10.705,0 19.539,-8.835 19.539,-19.709 z" />
        </g>
        <g transform="translate(1168.2109,248.793)" id="g52">
          <path id="path54" style="fill:#575756;fill-opacity:1;fill-rule:nonzero;stroke:none" d="M 0,0 C 0,4.758 -3.908,8.665 -8.666,8.665 -13.594,8.665 -17.5,4.758 -17.5,0 v -44.855 c 0,-4.927 3.906,-8.835 8.834,-8.835 4.758,0 8.666,3.908 8.666,8.835 z m 10.873,0 v -44.855 c 0,-10.874 -8.834,-19.709 -19.539,-19.709 -10.873,0 -19.709,8.835 -19.709,19.709 V 0 c 0,10.704 8.836,19.539 19.709,19.539 10.705,0 19.539,-8.835 19.539,-19.539" />
        </g>
        <g transform="translate(1221.3887,192.3838)" id="g56">
          <path id="path58" style="fill:#575756;fill-opacity:1;fill-rule:nonzero;stroke:none" d="m 0,0 v -5.437 c 0,-1.359 -1.189,-2.718 -2.719,-2.718 h -20.049 c -3.058,0 -5.437,2.549 -5.437,5.437 V 73.23 c 0,1.529 1.189,2.718 2.719,2.718 h 5.437 c 1.36,0 2.719,-1.189 2.719,-2.718 V 2.719 H -2.719 C -1.189,2.719 0,1.529 0,0" />
        </g>
        <g transform="translate(752.1807,184.2285)" id="g60">
          <path id="path62" style="fill:#575756;fill-opacity:1;fill-rule:evenodd;stroke:none" d="M 0,0 H 5.448 C 6.156,0.024 6.779,0.281 7.32,0.795 7.862,1.301 8.144,1.932 8.174,2.723 V 36.66 H 25.538 V 2.723 C 25.565,1.932 25.823,1.301 26.332,0.795 26.846,0.281 27.467,0.024 28.261,0 h 5.452 c 0.794,0.024 1.414,0.281 1.928,0.795 0.509,0.506 0.766,1.137 0.795,1.928 v 52.949 c 0,1.957 -0.286,3.856 -0.855,5.702 -0.564,1.845 -1.362,3.582 -2.382,5.195 l -9.194,16.174 c -0.256,0.424 -0.596,0.763 -0.994,0.992 -0.424,0.257 -0.879,0.369 -1.388,0.369 h -9.534 c -0.514,0 -0.967,-0.112 -1.391,-0.369 C 10.3,83.506 9.957,83.167 9.707,82.743 L 0.51,66.569 c -1.024,-1.613 -1.818,-3.35 -2.382,-5.195 -0.569,-1.846 -0.855,-3.745 -0.855,-5.702 V 2.723 C -2.694,1.932 -2.441,1.301 -1.932,0.795 -1.419,0.281 -0.794,0.024 0,0 m 8.174,47.619 v 8.053 c 0,0.516 0.024,0.992 0.111,1.415 0.059,0.458 0.142,0.882 0.229,1.314 l 8.34,14.639 8.174,-14.639 c 0.17,-0.432 0.285,-0.856 0.368,-1.314 0.087,-0.423 0.142,-0.899 0.142,-1.415 v -8.053 z" />
        </g>
      </g>
    </g>
    <g transform="translate(878.3291,681.689)" id="g64">
      <path id="path66" style="fill:#1d1d1b;fill-opacity:1;fill-rule:nonzero;stroke:none" d="m 0,0 54.53,-193.664 -199.659,-84.926 -20.465,-49.582 298.274,123.999 40.069,142.036 -22.233,79.783 157.031,65.962 21.389,51.49 z" />
    </g>
    <g transform="translate(1039.0234,695.1123)" id="g68">
      <path id="path70" style="fill:#1d1d1b;fill-opacity:1;fill-rule:nonzero;stroke:none" d="M 0,0 13.966,-50.708 84.819,-80.265 61.997,-25.712 Z" />
    </g>
    <g transform="translate(1155.5371,692.251)" id="g72">
      <path id="path74" style="fill:#1d1d1b;fill-opacity:1;fill-rule:nonzero;stroke:none" d="M 0,0 25.663,61.785 -61.421,25.522 Z" />
    </g>
    <g transform="translate(943.0195,780.6758)" id="g76">
      <path id="path78" style="fill:#1d1d1b;fill-opacity:1;fill-rule:nonzero;stroke:none" d="m 0,0 -46.114,19.039 -16.092,-38.984 50.655,-21.011 z" />
    </g>
    <g transform="translate(754.7881,458.2549)" id="g80">
      <path id="path82" style="fill:#1d1d1b;fill-opacity:1;fill-rule:nonzero;stroke:none" d="m 0,0 -18.053,-43.738 184.616,78.495 -8.518,30.654 z" />
    </g>
    <g transform="translate(1208.0195,816.1909)" id="g84">
      <path id="path86" style="fill:#ef7f2b;fill-opacity:1;fill-rule:nonzero;stroke:none" d="m 0,0 -21.456,-51.637 -103.484,-42.91 -2.314,0.962 13.18,46.749 z" />
    </g>
    <g transform="translate(1186.5635,764.5542)" id="g88">
      <path id="path90" style="fill:#ffd153;fill-opacity:1;fill-rule:nonzero;stroke:none" d="m 0,0 -30.435,-73.264 -73.049,30.354 z" />
    </g>
    <g transform="translate(1124.125,614.2119)" id="g92">
      <path id="path94" style="fill:#ffd153;fill-opacity:1;fill-rule:nonzero;stroke:none" d="m 0,0 -0.174,-0.406 -66.103,27.588 11.381,40.339 32.22,-13.378 z" />
    </g>
    <g transform="translate(1093.9453,769.355)" id="g96">
      <path id="path98" style="fill:#ef7f2b;fill-opacity:1;fill-rule:nonzero;stroke:none" d="m 0,0 -13.18,-46.75 -2.425,1.012 -14.039,33.566 z" />
    </g>
    <g transform="translate(1083.0791,721.644)" id="g100">
      <path id="path102" style="fill:#ef7f2b;fill-opacity:1;fill-rule:nonzero;stroke:none" d="m 0,0 -2.937,-1.203 0.624,2.164 z" />
    </g>
    <g transform="translate(1080.7656,722.6055)" id="g104">
      <path id="path106" style="fill:#ef7f2b;fill-opacity:1;fill-rule:nonzero;stroke:none" d="m 0,0 -0.623,-2.165 -0.406,-0.17 -1.397,3.346 z" />
    </g>
    <g transform="translate(1078.3398,723.6167)" id="g108">
      <path id="path110" style="fill:#ef7f2b;fill-opacity:1;fill-rule:nonzero;stroke:none" d="m 0,0 1.396,-3.346 -50.889,-21.113 -10.866,38.991 12.755,5.25 z" />
    </g>
    <g transform="translate(1064.3018,757.1831)" id="g112">
      <path id="path114" style="fill:#ef7f2b;fill-opacity:1;fill-rule:nonzero;stroke:none" d="m 0,0 14.038,-33.566 -47.604,19.781 z" />
    </g>
    <g transform="translate(1069.2295,681.7329)" id="g116">
      <path id="path118" style="fill:#d21217;fill-opacity:1;fill-rule:nonzero;stroke:none" d="m 0,0 -11.382,-40.339 -14.594,6.084 -14.19,50.908 z" />
    </g>
    <g transform="translate(1043.2539,647.478)" id="g120">
      <path id="path122" style="fill:#d21217;fill-opacity:1;fill-rule:nonzero;stroke:none" d="m 0,0 8.101,-29.107 -11.338,-40.212 -64.2,-26.556 -69.638,29.343 -9.669,34.296 9.284,32.9 68.138,28.251 z" />
    </g>
    <g transform="translate(1029.0635,698.3857)" id="g124">
      <path id="path126" style="fill:#ffd153;fill-opacity:1;fill-rule:nonzero;stroke:none" d="m 0,0 14.19,-50.908 -69.322,28.915 54.08,22.421 z" />
    </g>
    <g transform="translate(1040.0166,578.1587)" id="g128">
      <path id="path130" style="fill:#ef7f2b;fill-opacity:1;fill-rule:nonzero;stroke:none" d="m 0,0 -13.527,-47.909 -50.672,21.354 z" />
    </g>
    <g transform="translate(1017.9805,738.1484)" id="g132">
      <path id="path134" style="fill:#d21217;fill-opacity:1;fill-rule:nonzero;stroke:none" d="m 0,0 10.866,-38.991 -0.835,-0.343 -52.64,21.844 z" />
    </g>
    <g transform="translate(975.3711,720.6582)" id="g136">
      <path id="path138" style="fill:#ef7f2b;fill-opacity:1;fill-rule:nonzero;stroke:none" d="m 0,0 52.641,-21.844 -54.08,-22.422 -52.75,21.994 z" />
    </g>
    <g transform="translate(1026.4893,530.25)" id="g140">
      <path id="path142" style="fill:#ef7f2b;fill-opacity:1;fill-rule:nonzero;stroke:none" d="m 0,0 -0.685,-2.482 -51.013,-21.18 -53.653,22.402 54.679,22.614 z" />
    </g>
    <g transform="translate(1025.8047,527.7676)" id="g144">
      <path id="path146" style="fill:#d21217;fill-opacity:1;fill-rule:nonzero;stroke:none" d="M 0,0 -10.74,-38.006 -51.014,-21.18 Z" />
    </g>
    <g transform="translate(1015.0645,489.7617)" id="g148">
      <path id="path150" style="fill:#d21217;fill-opacity:1;fill-rule:nonzero;stroke:none" d="m 0,0 -3.9,-13.844 -36.569,-15.22 -39.179,16.398 -3.325,11.766 42.7,17.726 z" />
    </g>
    <g transform="translate(975.8174,551.6035)" id="g152">
      <path id="path154" style="fill:#d21217;fill-opacity:1;fill-rule:nonzero;stroke:none" d="m 0,0 -54.679,-22.613 -0.384,0.168 -14.576,51.788 z" />
    </g>
    <g transform="translate(974.791,506.5879)" id="g156">
      <path id="path158" style="fill:#ef7f2b;fill-opacity:1;fill-rule:nonzero;stroke:none" d="m 0,0 -42.699,-17.727 -11.251,39.998 0.298,0.131 z" />
    </g>
    <g transform="translate(974.5957,460.6973)" id="g160">
      <path id="path162" style="fill:#d21217;fill-opacity:1;fill-rule:nonzero;stroke:none" d="M 0,0 -30.949,-12.863 -39.18,16.398 Z" />
    </g>
    <g transform="translate(973.9316,676.3926)" id="g164">
      <path id="path166" style="fill:#d21217;fill-opacity:1;fill-rule:nonzero;stroke:none" d="m 0,0 -68.138,-28.251 14.017,49.686 1.371,0.558 z" />
    </g>
    <g transform="translate(935.416,477.0957)" id="g168">
      <path id="path170" style="fill:#ffd153;fill-opacity:1;fill-rule:nonzero;stroke:none" d="M 0,0 8.23,-29.262 -38.069,-48.508 -54.469,-9.477 -15.754,6.6 Z" />
    </g>
    <g transform="translate(896.7266,799.0854)" id="g172">
      <path id="path174" style="fill:#d21217;fill-opacity:1;fill-rule:nonzero;stroke:none" d="m 0,0 46.213,-19.227 -8.832,-31.315 -12.987,-5.381 -40.536,16.805 z" />
    </g>
    <g transform="translate(932.0918,488.8613)" id="g176">
      <path id="path178" style="fill:#ffd153;fill-opacity:1;fill-rule:nonzero;stroke:none" d="m 0,0 3.324,-11.766 -15.754,6.6 z" />
    </g>
    <g transform="translate(934.1074,748.5435)" id="g180">
      <path id="path182" style="fill:#d21217;fill-opacity:1;fill-rule:nonzero;stroke:none" d="m 0,0 -2.723,-9.645 -10.264,4.264 z" />
    </g>
    <g transform="translate(920.8408,528.8594)" id="g184">
      <path id="path186" style="fill:#ef7f2b;fill-opacity:1;fill-rule:nonzero;stroke:none" d="m 0,0 11.251,-39.998 -12.43,-5.166 -53.692,22.465 z" />
    </g>
    <g transform="translate(919.6621,483.6953)" id="g188">
      <path id="path190" style="fill:#ef7f2b;fill-opacity:1;fill-rule:nonzero;stroke:none" d="m 0,0 -38.715,-16.076 -15.579,37.144 0.366,1.291 0.236,0.106 z" />
    </g>
    <g transform="translate(880.9473,467.6191)" id="g192">
      <path id="path194" style="fill:#ffd153;fill-opacity:1;fill-rule:nonzero;stroke:none" d="m 0,0 16.399,-39.031 -60.571,-25.188 14.659,51.957 z" />
    </g>
    <g transform="translate(865.3682,504.7637)" id="g196">
      <path id="path198" style="fill:#ef7f2b;fill-opacity:1;fill-rule:nonzero;stroke:none" d="M 0,0 15.579,-37.145 -13.934,-49.406 Z" />
    </g>
    <g transform="translate(864.959,505.75)" id="g200">
      <path id="path202" style="fill:#d21217;fill-opacity:1;fill-rule:nonzero;stroke:none" d="m 0,0 0.409,-0.986 -13.933,-49.407 -116.562,-48.396 22.377,54.226 z" />
    </g>
    <g transform="translate(851.4346,455.3574)" id="g204">
      <path id="path206" style="fill:#ef7f2b;fill-opacity:1;fill-rule:nonzero;stroke:none" d="m 0,0 -14.659,-51.957 -124.795,-51.869 22.892,55.43 z" />
    </g>
    <g transform="translate(896.5098,615.2417)" id="g208">
      <path id="path210" style="fill:#ef7f2b;fill-opacity:1;fill-rule:nonzero;stroke:none" d="M 0,0 -17.89,65.383 23.301,82.586 Z" />
    </g>
  </g>
</svg>