<?xml version="1.0" encoding="UTF-8" standalone="no"?>
<svg xmlns:dc="http://purl.org/dc/elements/1.1/" xmlns:cc="http://creativecommons.org/ns#" xmlns:rdf="http://www.w3.org/1999/02/22-rdf-syntax-ns#" xmlns:svg="http://www.w3.org/2000/svg" xmlns="http://www.w3.org/2000/svg" viewBox="640 360 1280 720" height="256" width="256" xml:space="preserve" id="svg2" version="1.1">
  <metadata id="metadata8">
    <rdf:RDF>
      <cc:Work rdf:about="">
        <dc:format>image/svg+xml</dc:format>
        <dc:type rdf:resource="http://purl.org/dc/dcmitype/StillImage" />
      </cc:Work>
    </rdf:RDF>
  </metadata>
  <defs id="defs6">
    <clipPath id="clipPath18" clipPathUnits="userSpaceOnUse">
      <path id="path16" d="M 0,1080 H 1920 V 0 H 0 Z" />
    </clipPath>
  </defs>
  <g transform="matrix(1.3333333,0,0,-1.3333333,0,1440)" id="g10">
    <g id="g12">
      <g clip-path="url(#clipPath18)" id="g14">
        <g transform="translate(847.6133,243.6963)" id="g20">
          <path id="path22" style="fill:#575756;fill-opacity:1;fill-rule:nonzero;stroke:none" d="M 0,0 -9.854,-17.671 0,-35.341 c 2.209,-3.058 3.398,-6.797 3.398,-10.874 v -10.534 c 0,-1.359 -1.189,-2.719 -2.718,-2.719 h -5.437 c -1.528,0 -2.718,1.36 -2.718,2.719 v 10.534 c 0,1.02 -0.17,2.039 -0.509,2.889 l -8.327,14.611 -8.155,-14.611 c -0.34,-0.85 -0.51,-1.869 -0.51,-2.889 v -10.534 c 0,-1.359 -1.189,-2.719 -2.717,-2.719 h -5.438 c -1.529,0 -2.719,1.36 -2.719,2.719 v 10.534 c 0,4.077 1.19,7.816 3.399,10.874 l 9.854,17.67 L -32.621,0 c -2.039,3.058 -3.229,6.796 -3.229,10.874 v 11.044 c 0,1.528 1.19,2.718 2.719,2.718 h 5.438 c 1.528,0 2.717,-1.19 2.717,-2.718 V 10.874 c 0,-1.02 0.17,-1.869 0.51,-2.889 l 8.155,-14.442 8.327,14.442 c 0.339,1.02 0.509,1.869 0.509,2.889 v 11.044 c 0,1.528 1.19,2.718 2.718,2.718 H 0.68 c 1.529,0 2.718,-1.19 2.718,-2.718 V 10.874 C 3.398,6.796 2.209,3.058 0,0" />
        </g>
        <g transform="translate(946.834,248.623)" id="g24">
          <path id="path26" style="fill:#575756;fill-opacity:1;fill-rule:nonzero;stroke:none" d="M 0,0 C 0,4.928 -3.908,8.835 -8.666,8.835 H -17.5 v -62.186 h 8.834 c 4.758,0 8.666,3.909 8.666,8.665 z m 10.874,0 v -44.686 c 0,-10.874 -8.665,-19.709 -19.54,-19.709 h -14.271 c -2.889,0 -5.438,2.549 -5.438,5.438 v 73.229 c 0,3.058 2.549,5.437 5.438,5.437 h 14.271 c 10.875,0 19.54,-8.835 19.54,-19.709" />
        </g>
        <g transform="translate(999.1621,248.793)" id="g28">
          <path id="path30" style="fill:#575756;fill-opacity:1;fill-rule:nonzero;stroke:none" d="M 0,0 C 0,4.758 -3.908,8.665 -8.665,8.665 H -17.33 V -16.99 h 8.665 c 4.757,0 8.665,3.907 8.665,8.835 z m 10.874,-8.155 c 0,-5.608 -2.209,-10.704 -5.946,-14.273 3.737,-3.568 5.946,-8.495 5.946,-14.102 v -25.316 c 0,-1.359 -1.189,-2.718 -2.718,-2.718 H 2.719 c -1.53,0 -2.719,1.359 -2.719,2.718 v 25.316 c 0,4.758 -3.908,8.666 -8.665,8.666 h -8.665 v -33.982 c 0,-1.359 -1.359,-2.718 -2.719,-2.718 h -5.437 c -1.53,0 -2.719,1.359 -2.719,2.718 v 75.949 c 0,3.057 2.379,5.436 5.437,5.436 H -8.665 C 2.209,19.539 10.874,10.704 10.874,0 Z" />
        </g>
        <g transform="translate(1035.0098,257.458)" id="g32">
          <path id="path34" style="fill:#575756;fill-opacity:1;fill-rule:nonzero;stroke:none" d="m 0,0 v -25.655 h 14.783 c 1.529,0 2.717,-1.19 2.717,-2.719 v -5.438 c 0,-1.528 -1.188,-2.717 -2.717,-2.717 H 0 v -25.826 h 14.783 c 1.529,0 2.717,-1.19 2.717,-2.719 v -5.437 c 0,-1.529 -1.188,-2.718 -2.717,-2.718 h -20.22 c -3.057,0 -5.436,2.548 -5.436,5.437 V 5.437 c 0,3.058 2.379,5.437 5.436,5.437 h 20.22 c 1.529,0 2.717,-1.189 2.717,-2.718 V 2.719 C 17.5,1.189 16.312,0 14.783,0 Z" />
        </g>
        <g transform="translate(1105.6895,265.6143)" id="g36">
          <path id="path38" style="fill:#575756;fill-opacity:1;fill-rule:nonzero;stroke:none" d="m 0,0 v -5.437 -11.214 c 0,-5.607 0,-5.607 -3.908,-10.874 l -23.785,-31.603 c -0.51,-0.51 -0.51,-0.51 -0.51,-2.719 v -8.665 h 25.484 c 1.53,0 2.719,-1.189 2.719,-2.718 v -5.437 c 0,-1.359 -1.189,-2.719 -2.719,-2.719 h -33.64 c -1.53,0 -2.719,1.36 -2.719,2.719 v 16.82 c 0,5.438 0,5.438 3.908,10.874 l 23.957,31.433 c 0.34,0.68 0.34,0.68 0.34,2.889 v 8.495 h -25.486 c -1.53,0 -2.719,1.189 -2.719,2.719 V 0 c 0,1.528 1.189,2.718 2.719,2.718 h 33.64 C -1.189,2.718 0,1.528 0,0" />
        </g>
        <g transform="translate(867.8809,184.2285)" id="g40">
          <path id="path42" style="fill:#575756;fill-opacity:1;fill-rule:evenodd;stroke:none" d="M 0,0 H 5.448 C 6.156,0.024 6.779,0.281 7.32,0.795 7.862,1.301 8.144,1.932 8.174,2.723 V 36.66 H 25.538 V 2.723 C 25.565,1.932 25.823,1.301 26.332,0.795 26.846,0.281 27.467,0.024 28.261,0 h 5.452 c 0.794,0.024 1.414,0.281 1.928,0.795 0.509,0.506 0.766,1.137 0.795,1.928 v 52.949 c 0,1.957 -0.286,3.856 -0.855,5.702 -0.564,1.845 -1.362,3.582 -2.382,5.195 l -9.194,16.174 c -0.256,0.424 -0.596,0.763 -0.994,0.992 -0.424,0.257 -0.879,0.369 -1.388,0.369 h -9.534 c -0.514,0 -0.967,-0.112 -1.391,-0.369 C 10.3,83.506 9.957,83.167 9.707,82.743 L 0.51,66.569 c -1.024,-1.613 -1.818,-3.35 -2.382,-5.195 -0.569,-1.846 -0.855,-3.745 -0.855,-5.702 V 2.723 C -2.694,1.932 -2.441,1.301 -1.932,0.795 -1.419,0.281 -0.794,0.024 0,0 m 8.174,47.619 v 8.053 c 0,0.516 0.024,0.992 0.111,1.415 0.059,0.458 0.142,0.882 0.229,1.314 l 8.34,14.639 8.174,-14.639 c 0.17,-0.432 0.285,-0.856 0.368,-1.314 0.087,-0.423 0.142,-0.899 0.142,-1.415 v -8.053 z" />
        </g>
      </g>
    </g>
    <g transform="translate(874.8281,776.4321)" id="g44">
      <path id="path46" style="fill:#1d1d1b;fill-opacity:1;fill-rule:nonzero;stroke:none" d="m 0,0 -4.938,40.823 -48.354,-0.07 0.157,-40.865 z" />
    </g>
    <g transform="translate(860.0645,585.5044)" id="g48">
      <path id="path50" style="fill:#1d1d1b;fill-opacity:1;fill-rule:nonzero;stroke:none" d="M 0,0 -130.383,0.038 -65.664,64.7 -8.174,8.054 148.117,8.262 179.909,40.275 51.045,40.719 -35.99,150.636 -226.043,-40.585 l 188.553,-0.206 0.747,-195.237 91.951,92.663 -12.219,101.006 z" />
    </g>
    <g transform="translate(897.959,585.2485)" id="g52">
      <path id="path54" style="fill:#1d1d1b;fill-opacity:1;fill-rule:nonzero;stroke:none" d="m 0,0 5.34,-42.696 192.777,0.4 V -232.308 L 387.654,-43.139 388.02,0.13 Z" />
    </g>
    <g transform="translate(1286.6348,585.8823)" id="g56">
      <path id="path58" style="fill:#ffd153;fill-opacity:1;fill-rule:nonzero;stroke:none" d="M 0,0 -0.327,-38.758 -39.572,0.012 Z" />
    </g>
    <g transform="translate(1247.0625,585.8945)" id="g60">
      <path id="path62" style="fill:#ffd153;fill-opacity:1;fill-rule:nonzero;stroke:none" d="m 0,0 39.245,-38.771 -0.016,-2.503 -125.972,0.138 -32.419,41.172 z" />
    </g>
    <g transform="translate(1160.3193,544.7583)" id="g64">
      <path id="path66" style="fill:#ef7f2b;fill-opacity:1;fill-rule:nonzero;stroke:none" d="M 0,0 125.973,-0.138 125.952,-2.236 56.421,-71.645 Z" />
    </g>
    <g transform="translate(1160.3193,544.7583)" id="g68">
      <path id="path70" style="fill:#ffd153;fill-opacity:1;fill-rule:nonzero;stroke:none" d="M 0,0 56.421,-71.645 -46.371,-174.22 -66.462,-148.856 -66.687,0.075 Z" />
    </g>
    <g transform="translate(1127.9004,585.9302)" id="g72">
      <path id="path74" style="fill:#ef7f2b;fill-opacity:1;fill-rule:nonzero;stroke:none" d="m 0,0 32.419,-41.172 -66.687,0.075 -0.087,41.103 z" />
    </g>
    <g transform="translate(1093.5449,585.936)" id="g76">
      <path id="path78" style="fill:#ef7f2b;fill-opacity:1;fill-rule:nonzero;stroke:none" d="m 0,0 0.088,-41.103 -46.377,0.051 -3.287,27.226 13.715,13.838 z" />
    </g>
    <g transform="translate(1057.6836,585.9482)" id="g80">
      <path id="path82" style="fill:#ef7f2b;fill-opacity:1;fill-rule:nonzero;stroke:none" d="M 0,0 -13.715,-13.838 -15.398,0.003 Z" />
    </g>
    <g transform="translate(1037.3975,626.3813)" id="g84">
      <path id="path86" style="fill:#d21217;fill-opacity:1;fill-rule:nonzero;stroke:none" d="M 0,0 2.753,-0.024 0.315,-2.479 Z" />
    </g>
    <g transform="translate(1037.3975,626.3813)" id="g88">
      <path id="path90" style="fill:#d21217;fill-opacity:1;fill-rule:nonzero;stroke:none" d="m 0,0 0.315,-2.479 -37.698,-37.939 -56.276,0.015 40.418,40.577 z" />
    </g>
    <g transform="translate(1042.2852,585.9512)" id="g92">
      <path id="path94" style="fill:#ef7f2b;fill-opacity:1;fill-rule:nonzero;stroke:none" d="m 0,0 1.684,-13.841 -26.987,-27.199 -41.159,0.049 -7.327,9.26 31.518,31.743 z" />
    </g>
    <g transform="translate(1043.9688,572.1104)" id="g96">
      <path id="path98" style="fill:#ef7f2b;fill-opacity:1;fill-rule:nonzero;stroke:none" d="m 0,0 3.287,-27.226 -30.273,0.027 z" />
    </g>
    <g transform="translate(1093.8574,395.9023)" id="g100">
      <path id="path102" style="fill:#ef7f2b;fill-opacity:1;fill-rule:nonzero;stroke:none" d="M 0,0 20.091,-25.364 2.503,-42.906 0.063,-40.512 Z" />
    </g>
    <g transform="translate(984.1562,626.5557)" id="g104">
      <path id="path106" style="fill:#d21217;fill-opacity:1;fill-rule:nonzero;stroke:none" d="M 0,0 -40.418,-40.577 -40.8,-40.58 -73.149,0.258 Z" />
    </g>
    <g transform="translate(1000.0146,585.9634)" id="g108">
      <path id="path110" style="fill:#ffd153;fill-opacity:1;fill-rule:nonzero;stroke:none" d="m 0,0 -31.519,-31.744 -24.977,31.531 0.22,0.228 z" />
    </g>
    <g transform="translate(869.7207,818.2344)" id="g112">
      <path id="path114" style="fill:#d21217;fill-opacity:1;fill-rule:nonzero;stroke:none" d="m 0,0 3.771,-31.293 -9.58,-9.639 -42.492,-0.102 -0.159,40.959 z" />
    </g>
    <g transform="translate(968.4961,554.2197)" id="g116">
      <path id="path118" style="fill:#ef7f2b;fill-opacity:1;fill-rule:nonzero;stroke:none" d="M 0,0 7.327,-9.26 -9.18,-9.246 Z" />
    </g>
    <g transform="translate(873.4912,786.9409)" id="g120">
      <path id="path122" style="fill:#d21217;fill-opacity:1;fill-rule:nonzero;stroke:none" d="M 0,0 1.165,-9.632 -9.579,-9.638 Z" />
    </g>
    <g transform="translate(943.5186,585.75)" id="g124">
      <path id="path126" style="fill:#ffd153;fill-opacity:1;fill-rule:nonzero;stroke:none" d="m 0,0 24.978,-31.53 -9.18,-9.246 -56.327,0.082 z" />
    </g>
    <g transform="translate(943.3564,585.9756)" id="g128">
      <path id="path130" style="fill:#ffd153;fill-opacity:1;fill-rule:nonzero;stroke:none" d="M 0,0 0.162,-0.226 -40.367,-40.92 -40.59,-40.923 -45.552,0.015 Z" />
    </g>
    <g transform="translate(911.0068,626.814)" id="g132">
      <path id="path134" style="fill:#d21217;fill-opacity:1;fill-rule:nonzero;stroke:none" d="m 0,0 32.35,-40.838 -45.552,0.014 -4.938,40.878 z" />
    </g>
    <g transform="translate(889.6074,653.856)" id="g136">
      <path id="path138" style="fill:#d21217;fill-opacity:1;fill-rule:nonzero;stroke:none" d="M 0,0 21.399,-27.042 3.26,-26.988 Z" />
    </g>
    <g transform="translate(873.3535,674.3882)" id="g140">
      <path id="path142" style="fill:#ffd153;fill-opacity:1;fill-rule:nonzero;stroke:none" d="m 0,0 16.254,-20.532 3.26,-26.989 -66.532,0.229 z" />
    </g>
    <g transform="translate(873.3535,674.3882)" id="g144">
      <path id="path146" style="fill:#ef7f2b;fill-opacity:1;fill-rule:nonzero;stroke:none" d="m 0,0 -47.018,-47.292 -4.348,0.03 -0.189,51.426 26.944,26.913 z" />
    </g>
    <g transform="translate(826.3359,627.0957)" id="g148">
      <path id="path150" style="fill:#ffd153;fill-opacity:1;fill-rule:nonzero;stroke:none" d="M 0,0 66.531,-0.228 71.469,-41.105 33.56,-41.097 -4.033,-4.064 Z" />
    </g>
    <g transform="translate(823.8066,736.9414)" id="g152">
      <path id="path154" style="fill:#ef7f2b;fill-opacity:1;fill-rule:nonzero;stroke:none" d="M 0,0 24.936,-31.477 -2.008,-58.39 -2.236,-2.239 Z" />
    </g>
    <g transform="translate(902.2305,544.29)" id="g156">
      <path id="path158" style="fill:#ef7f2b;fill-opacity:1;fill-rule:nonzero;stroke:none" d="m 0,0 0.704,-0.72 5.978,-49.349 -86.088,-86.678 -0.222,56.787 z" />
    </g>
    <g transform="translate(902.2305,544.29)" id="g160">
      <path id="path162" style="fill:#d21217;fill-opacity:1;fill-rule:nonzero;stroke:none" d="m 0,0 -79.628,-79.96 -0.306,80.8 79.15,-0.09 z" />
    </g>
    <g transform="translate(859.8955,585.999)" id="g164">
      <path id="path166" style="fill:#ffd153;fill-opacity:1;fill-rule:nonzero;stroke:none" d="m 0,0 41.551,-40.959 -79.15,0.09 -0.15,40.878 z" />
    </g>
    <g transform="translate(821.5703,734.7021)" id="g168">
      <path id="path170" style="fill:#ef7f2b;fill-opacity:1;fill-rule:nonzero;stroke:none" d="m 0,0 0.229,-56.15 -27.716,-27.706 -28.21,27.795 z" />
    </g>
    <g transform="translate(908.9121,494.2207)" id="g172">
      <path id="path174" style="fill:#ffd153;fill-opacity:1;fill-rule:nonzero;stroke:none" d="m 0,0 6.276,-51.894 -92.144,-92.849 -0.22,58.065 z" />
    </g>
    <g transform="translate(821.7988,678.5518)" id="g176">
      <path id="path178" style="fill:#ef7f2b;fill-opacity:1;fill-rule:nonzero;stroke:none" d="m 0,0 0.188,-51.426 -3.841,-0.006 -24.063,23.726 z" />
    </g>
    <g transform="translate(826.3359,627.0957)" id="g180">
      <path id="path182" style="fill:#ef7f2b;fill-opacity:1;fill-rule:nonzero;stroke:none" d="m 0,0 -4.033,-4.064 -0.307,0.3 -0.009,3.794 z" />
    </g>
    <g transform="translate(821.9873,627.126)" id="g184">
      <path id="path186" style="fill:#ef7f2b;fill-opacity:1;fill-rule:nonzero;stroke:none" d="m 0,0 0.009,-3.794 -3.851,3.788 z" />
    </g>
    <g transform="translate(822.1465,586.0083)" id="g188">
      <path id="path190" style="fill:#ffd153;fill-opacity:1;fill-rule:nonzero;stroke:none" d="m 0,0 0.15,-40.878 -77.373,0.09 40.573,40.806 z" />
    </g>
    <g transform="translate(765.873,678.6416)" id="g192">
      <path id="path194" style="fill:#d21217;fill-opacity:1;fill-rule:nonzero;stroke:none" d="m 0,0 28.21,-27.796 -23.581,-23.552 -55.49,0.183 z" />
    </g>
    <g transform="translate(770.502,627.2939)" id="g196">
      <path id="path198" style="fill:#d21217;fill-opacity:1;fill-rule:nonzero;stroke:none" d="m 0,0 -41.302,-41.262 -55.373,0.007 41.185,41.438 z" />
    </g>
    <g transform="translate(785.4961,586.0264)" id="g200">
      <path id="path202" style="fill:#d21217;fill-opacity:1;fill-rule:nonzero;stroke:none" d="m 0,0 -40.572,-40.806 -56.517,0.048 40.793,40.764 z" />
    </g>
    <g transform="translate(729.2002,586.0322)" id="g204">
      <path id="path206" style="fill:#d21217;fill-opacity:1;fill-rule:nonzero;stroke:none" d="m 0,0 -40.793,-40.764 -55.042,0.078 40.462,40.692 z" />
    </g>
  </g>
</svg>