<svg xmlns="http://www.w3.org/2000/svg" xmlns:xlink="http://www.w3.org/1999/xlink" version="1.1"
    id="Layer_1" x="0px" y="0px" width="100%" viewBox="0 0 945 945" xml:space="preserve">
    <path fill="none" stroke-width="2" opacity="1.000000" stroke="rgba(90, 183, 125, 0.8)" d="M473.000000,785.954834  C473.000000,758.478577 473.010071,731.495605 472.985291,704.512634  C472.982635,701.624023 472.776062,698.722290 476.586761,698.012634  C482.892242,696.838379 486.633606,698.218567 488.026733,702.293640  C493.836426,719.287964 499.621063,736.290894 506.000000,753.302917  C506.000000,744.681274 506.000000,736.059631 506.000000,727.437988  C506.000031,719.776184 505.802429,712.105957 506.126648,704.457886  C506.217804,702.307190 507.485474,698.724121 508.832306,698.404419  C512.054565,697.639404 515.663330,698.287048 519.064697,698.745422  C519.527283,698.807800 519.959290,701.053528 519.961304,702.289001  C520.010620,732.769714 519.962708,763.250610 520.054016,793.731079  C520.063843,796.995483 518.981506,798.049133 515.724060,798.070374  C506.883881,798.128113 506.792908,798.189148 503.965332,789.795105  C498.646301,774.004944 493.316925,758.218384 487.979126,742.434509  C487.850494,742.054138 487.572571,741.724243 487.000000,740.752502  C487.000000,758.261414 486.852173,775.055298 487.096436,791.843567  C487.163544,796.454224 486.194519,798.390747 481.104401,798.118530  C473.017395,797.685974 473.000000,798.011414 473.000000,785.954834 z"/>
    <path fill="none" stroke-width="2" opacity="1.000000" stroke="rgba(90, 183, 125, 0.8)" d="M550.000000,763.052124  C550.000000,770.180664 550.000000,776.817505 550.000000,784.000000  C554.994019,784.000000 559.766418,784.122070 564.529419,783.962769  C568.603760,783.826599 570.326660,785.610840 570.018616,789.615479  C569.903931,791.105591 569.907654,792.618774 570.020020,794.109192  C570.223938,796.814758 569.239624,798.077881 566.343506,798.037842  C558.350891,797.927368 550.354309,798.091309 542.362305,797.961121  C538.293579,797.894836 536.028625,795.545044 536.022766,791.464966  C535.980957,762.486389 535.935791,733.507385 536.077576,704.529419  C536.096436,700.666748 538.824463,698.193115 542.681763,698.070007  C550.168640,697.831116 557.668579,698.025513 565.162903,697.988342  C568.469666,697.971985 570.198181,698.985291 570.078674,702.833618  C569.751404,713.361572 571.183594,711.909668 561.130066,711.995239  C557.642212,712.024902 554.153931,712.000000 550.333191,712.000000  C550.333191,721.517334 550.333191,730.921143 550.333191,741.000000  C554.852905,741.000000 559.607910,741.118774 564.353821,740.963379  C568.343750,740.832825 570.765320,741.917175 570.031555,746.527161  C569.824707,747.826599 569.869202,749.202393 570.025146,750.516235  C570.447388,754.073486 568.888977,755.218201 565.432739,755.058472  C560.474426,754.829346 555.497620,755.000000 550.000000,755.000000  C550.000000,757.687561 550.000000,760.123962 550.000000,763.052124 z"/>
    <path fill="none" stroke-width="2" opacity="1.000000" stroke="rgba(90, 183, 125, 0.8)" d="M586.000000,725.000000  C586.000000,717.513672 586.184998,710.520935 585.940674,703.543152  C585.749573,698.084106 589.035828,697.966125 593.041138,697.936218  C597.135437,697.905701 600.094116,698.253357 600.068237,703.624573  C599.925476,733.232544 599.959412,762.841736 600.046936,792.450134  C600.059082,796.544128 598.863403,798.719421 594.390015,798.030762  C593.090149,797.830688 591.717163,797.866394 590.405762,798.025513  C586.761475,798.467590 585.926758,796.713135 585.942932,793.366760  C586.052307,770.744934 586.000000,748.122375 586.000000,725.000000 z"/>
    <path fill="none" stroke-width="2" opacity="1.000000" stroke="rgba(90, 183, 125, 0.8)" d="M331.840668,387.972076  C340.248383,343.995300 363.296997,310.024139 402.009644,287.402588  C486.007751,238.318756 594.795349,287.360016 614.100281,382.742889  C614.396545,384.206696 614.684814,385.672089 614.963501,387.915283  C615.097473,389.165710 615.244873,389.637634 615.377441,390.457703  C615.330383,391.500000 615.298218,392.194153 615.010010,393.183838  C607.825562,418.229706 600.897156,442.980042 593.636597,467.682922  C587.871948,463.411041 587.179932,460.225098 588.952026,453.795074  C591.881653,443.165466 594.348938,432.408447 597.104858,421.327789  C558.452209,421.327789 521.257629,421.327789 484.209229,421.327789  C484.209229,437.704895 484.209229,453.754517 484.209229,469.797791  C489.854889,470.205566 495.151245,470.562805 500.443115,470.977020  C506.522827,471.452911 510.241119,474.520599 511.031494,479.639313  C511.866547,485.047394 509.159576,488.992676 502.819092,491.040009  C501.638550,491.112000 500.784454,491.276855 499.624664,491.521149  C498.899475,491.562592 498.479919,491.524597 497.894226,491.196716  C490.440979,487.748840 483.210541,484.446381 475.822021,481.546692  C474.217682,480.917084 471.900299,481.327789 470.164093,481.956879  C465.031952,483.816406 459.983856,485.929169 454.991241,488.142212  C452.845490,489.093323 450.917542,490.535828 448.640594,491.819702  C448.218384,491.884003 448.046204,491.883636 447.553986,491.813110  C446.460327,492.056793 445.686737,492.370697 444.514526,492.789001  C440.110260,493.900269 436.104614,494.907104 432.001160,496.262207  C425.945923,499.405121 419.988495,502.199799 413.828644,504.692261  C412.974701,502.927826 412.323181,501.465576 411.536743,499.700562  C405.672241,501.510620 400.028595,503.252502 394.005554,505.111511  C396.504242,507.402283 398.424896,509.163116 399.974792,511.016052  C392.674805,513.790344 385.745636,516.472534 378.525574,518.995361  C373.503693,514.177856 368.772766,509.519714 363.961182,504.567596  C363.295044,503.460052 362.709534,502.646454 362.154480,501.427399  C362.027008,499.873352 362.000153,498.688263 361.691711,497.581665  C356.493073,478.929138 351.212128,460.299469 346.047302,441.637634  C341.281097,424.416199 336.631165,407.162506 331.937073,389.595947  C331.909637,388.836578 331.875153,388.404327 331.840668,387.972076 M367.180847,473.258789  C370.743744,478.601685 374.306610,483.944580 377.683746,489.008911  C387.435547,485.765320 396.345398,482.801788 404.319916,480.149353  C401.421082,460.188782 398.613983,440.859924 395.770966,421.283813  C381.494629,421.283813 366.436218,421.283813 351.210114,421.283813  C352.677734,439.747284 357.825562,456.761200 367.180847,473.258789 M543.836914,344.354950  C543.315186,345.785187 542.165588,347.317230 542.378235,348.628418  C543.414429,355.019440 545.126221,361.308167 546.016052,367.714050  C547.498108,378.382660 548.536011,389.112946 549.774048,399.931854  C564.993042,399.931854 580.305420,399.931854 595.743042,399.931854  C593.430847,377.440674 585.615723,357.603699 572.833923,339.598297  C570.716980,336.616119 568.892456,336.221924 565.524902,337.475128  C558.684021,340.020966 551.613770,341.950256 543.836914,344.354950 M371.007324,344.526459  C359.984161,361.349609 353.316132,379.695312 351.394867,400.106445  C366.710541,400.106445 381.738220,400.106445 396.191620,400.106445  C399.000641,381.744812 401.750702,363.768524 404.507629,345.747467  C398.218231,343.670471 391.735992,341.644409 385.334961,339.388000  C376.561646,336.295380 376.588074,336.220428 371.007324,344.526459 M429.512695,421.004150  C425.599640,421.004150 421.686584,421.004150 417.578278,421.004150  C418.063507,439.819458 420.706726,457.556671 425.565735,474.872528  C438.353821,473.188171 450.616333,471.572998 462.764038,469.972992  C462.764038,453.530762 462.764038,437.354126 462.764038,421.004150  C451.760468,421.004150 441.134216,421.004150 429.512695,421.004150 M483.857910,374.500153  C483.857910,383.079071 483.857910,391.657959 483.857910,400.002991  C499.188110,400.002991 513.753601,400.002991 529.487366,400.002991  C527.070984,382.931580 524.734253,366.423096 522.394592,349.894043  C508.727264,351.508545 496.419312,352.962494 483.857910,354.446381  C483.857910,360.894623 483.857910,367.197479 483.857910,374.500153 M419.652252,380.259735  C418.967865,386.811035 418.283447,393.362335 417.571259,400.179596  C433.145020,400.179596 447.887939,400.179596 462.732269,400.179596  C462.732269,384.753357 462.732269,369.560181 462.732269,354.642792  C450.097137,353.318390 437.896271,352.039520 424.904846,350.677795  C423.220428,360.146576 421.509521,369.764557 419.652252,380.259735 M446.592407,293.938446  C441.334961,305.799896 436.077515,317.661316 430.309479,330.674713  C442.251007,331.816833 452.492279,332.796326 462.836456,333.785675  C462.836456,318.486053 462.836456,304.283630 462.836456,288.831360  C457.155304,290.411530 452.052460,291.830872 446.592407,293.938446 M483.855743,328.412659  C483.920288,329.862274 483.984833,331.311890 484.087219,333.611603  C494.629730,332.438263 504.792145,331.307220 516.059937,330.053131  C511.035736,318.983795 506.544525,308.664703 501.685913,298.521637  C497.959015,290.741211 493.209686,288.784973 483.855682,290.583649  C483.855682,302.828644 483.855682,315.127563 483.855743,328.412659 M394.648926,321.067108  C400.002197,322.703247 405.355469,324.339355 410.894958,326.032379  C413.976166,317.807465 416.888000,310.034698 419.799805,302.261932  C419.438477,301.911591 419.077118,301.561218 418.715790,301.210846  C410.711975,306.783844 402.682159,312.320526 394.753693,317.998688  C394.119080,318.453186 394.183136,319.883179 394.648926,321.067108 M533.677246,319.914368  C534.307922,321.599518 534.938660,323.284698 535.694214,325.303497  C538.985596,324.424469 542.030762,323.692200 545.024231,322.788727  C547.977051,321.897614 550.877625,320.833374 555.372498,319.313843  C545.218872,312.652405 536.179871,306.722198 527.140808,300.792023  C526.858887,301.130188 526.576965,301.468323 526.295105,301.806488  C528.636963,307.610138 530.978821,313.413788 533.677246,319.914368 z"/>   <path fill="#79C190" opacity="1.000000" stroke="none" d="M615.594849,388.218445  C615.748474,388.788605 615.730530,389.268555 615.552429,389.929016  C615.244873,389.637634 615.097473,389.165710 615.015137,388.320862  C615.080139,387.947937 615.423340,388.128235 615.594849,388.218445 z"/>
    <path fill="none" stroke-width="2" opacity="1.000000" stroke="rgba(90, 183, 125, 0.8)" d="M378.816467,519.154724  C385.745636,516.472534 392.674805,513.790344 400.245239,510.994507  C401.233063,510.983704 401.579651,511.086578 402.095398,511.473511  C408.199554,515.431335 414.134552,519.104980 420.069580,522.778687  C420.329773,522.445251 420.589935,522.111877 420.850128,521.778442  C418.384918,516.206909 415.919708,510.635345 413.590332,504.977661  C413.726227,504.891479 414.031067,504.994507 414.031067,504.994507  C419.988495,502.199799 425.945923,499.405121 432.246582,496.524261  C437.011780,506.254211 441.267761,516.149658 445.910400,525.860291  C449.365234,533.086548 454.558380,535.145630 462.849182,533.248535  C462.849182,519.375549 462.849182,505.489349 462.849182,491.755035  C458.021240,491.755035 453.455933,491.755035 448.890625,491.755066  C450.917542,490.535828 452.845490,489.093323 454.991241,488.142212  C459.983856,485.929169 465.031952,483.816406 470.164093,481.956879  C471.900299,481.327789 474.217682,480.917084 475.822021,481.546692  C483.210541,484.446381 490.440979,487.748840 497.481995,491.272888  C492.997498,491.395172 488.759064,491.151337 484.268005,490.893005  C484.268005,505.569824 484.268005,519.593018 484.268005,534.799255  C493.891724,532.504639 503.069153,530.563171 512.094055,528.069824  C517.298950,526.631836 521.948425,526.355713 525.765564,530.707520  C529.094971,534.503174 528.934326,539.252197 525.594299,544.973450  C521.904175,546.374756 518.214111,547.776062 513.859375,549.511475  C486.827271,556.998596 460.455322,557.037598 434.078888,549.895020  C424.193359,545.703735 414.307861,541.512390 403.845154,537.069702  C395.167664,531.216003 387.067352,525.613708 378.920715,519.798706  C378.874420,519.586060 378.816467,519.154724 378.816467,519.154724 z"/>
    <path fill="none" stroke-width="2" opacity="1.000000" stroke="rgba(90, 183, 125, 0.8)" d="M608.138367,535.874939  C608.929443,536.461243 609.720459,537.047546 610.748047,537.810059  C613.833435,542.260681 617.235107,546.278931 619.368469,550.884705  C621.325195,555.109314 622.803101,559.947021 622.909058,564.551025  C623.095459,572.649658 614.513184,579.061584 606.965088,576.215515  C601.912903,574.310669 596.668396,571.039978 593.297913,566.918396  C584.673950,556.372803 577.052673,545.007629 569.019775,533.977905  C568.342957,533.048645 567.586731,532.177307 566.455688,530.764954  C562.134827,535.887573 557.871460,540.679016 553.911194,545.708984  C549.693848,551.065491 537.939087,550.525391 536.498047,541.363464  C548.282104,536.279419 559.680725,531.691772 571.002747,526.922180  C573.134766,526.023987 574.960999,524.399902 577.227539,523.087036  C577.726196,523.073120 577.925659,523.082947 578.282349,523.392090  C588.339172,527.752502 598.238770,531.813721 608.138367,535.874939 z"/>
    <path fill="none" stroke-width="2" opacity="1.000000" stroke="rgba(90, 183, 125, 0.8)" d="M535.371033,539.112915  C532.149780,527.153320 529.155457,515.405884 526.572754,503.279358  C534.330627,505.602264 541.676941,508.304260 549.242554,511.279999  C549.915710,512.956604 550.369507,514.359436 551.038147,516.426514  C552.369080,514.895264 553.189026,513.951965 554.164917,513.323120  C561.856750,516.795288 569.392578,519.953003 576.928345,523.110718  C574.960999,524.399902 573.134766,526.023987 571.002747,526.922180  C559.680725,531.691772 548.282104,536.279419 536.560547,541.004089  C536.006775,540.493713 535.802368,539.909363 535.371033,539.112915 z"/>   
    <path fill="none" stroke-width="2" opacity="1.000000" stroke="rgba(90, 183, 125, 0.8)" d="M362.154480,501.427399  C352.233643,491.446716 345.716492,478.941010 340.342712,465.887756  C330.376160,441.678589 327.725586,416.487518 331.713867,390.262756  C336.631165,407.162506 341.281097,424.416199 346.047302,441.637634  C351.212128,460.299469 356.493073,478.929138 361.691711,497.581665  C362.000153,498.688263 362.027008,499.873352 362.154480,501.427399 z"/>
    <path fill="none" stroke-width="2" opacity="1.000000" stroke="rgba(90, 183, 125, 0.8)" d="M594.709106,468.840759  C594.227844,468.623901 594.158142,468.450714 594.028564,468.003937  C600.897156,442.980042 607.825562,418.229706 615.010010,393.183838  C615.796997,403.270294 617.556519,413.774597 616.538025,424.002319  C615.348999,435.943939 612.114868,447.744110 609.042725,459.414764  C606.890869,467.589142 603.491516,469.364258 594.709106,468.840759 z"/><path fill="#B0D7B8" opacity="1.000000" stroke="none" d="M447.553986,491.813110  C447.109283,492.197327 446.344543,492.511383 445.246460,492.755005  C445.686737,492.370697 446.460327,492.056793 447.553986,491.813110 z"/>
    <path fill="none" stroke-width="2" opacity="1.000000" stroke="rgba(90, 183, 125, 0.8)" d="M592.208862,472.887299  C592.208862,472.887299 592.597778,472.830902 592.792969,472.811035  C598.646179,476.565857 604.252380,480.421692 609.979126,484.089111  C614.423462,486.935303 617.791199,490.186188 617.105408,496.106110  C616.466919,501.618591 612.721252,503.840118 608.131897,505.589508  C602.870056,507.595276 597.723022,509.901978 591.975830,512.308350  C597.469116,520.122925 602.762634,527.653442 608.097290,535.529419  C598.238770,531.813721 588.339172,527.752502 578.513855,523.108276  C583.128418,505.979248 587.668640,489.433289 592.208862,472.887299 z"/>
    <path fill="none" stroke-width="2" opacity="1.000000" stroke="rgba(90, 183, 125, 0.8)" d="M592.001099,472.614929  C587.668640,489.433289 583.128418,505.979248 578.356628,522.809021  C577.925659,523.082947 577.726196,523.073120 577.227539,523.087036  C569.392578,519.953003 561.856750,516.795288 554.337036,513.037720  C561.123962,501.223114 572.735474,497.231323 584.894714,492.782227  C568.575623,482.210724 553.011902,472.128571 536.487915,461.424316  C540.841309,478.643555 544.932251,494.824921 549.023254,511.006287  C541.676941,508.304260 534.330627,505.602264 526.615845,502.887817  C526.158569,502.711975 526.069824,502.548523 525.778870,502.193115  C520.455811,482.242218 515.311890,462.489288 510.225372,442.721588  C508.144714,434.635529 512.070374,428.226532 519.579956,428.087738  C522.163452,428.039978 525.077393,429.278320 527.334045,430.721069  C548.882568,444.497772 570.322327,458.444580 592.001099,472.614929 z"/>
</svg>