<svg xmlns="http://www.w3.org/2000/svg" xmlns:xlink="http://www.w3.org/1999/xlink" version="1.1"
    id="Layer_1" x="0px" y="0px" width="100%" viewBox="0 0 400 400" xml:space="preserve">
    <path fill="none" stroke-width="1" opacity="1.000000" stroke="rgba(255,255,255,0.5)" d="m112.4 63.2L156.4 81.2 112 240 200.8 203.6 288.8 240 244.8 81.2 289.2 62.8 326 152 288.8 240 200.4 276.8 112 240 75.2 151.6 112.4 63.2 156.4 221.6 200.4 240 244.8 222 289.2 62.8 200.4 99.6 156.4 81.2ZM140.6 164.2C144.1 145.7 153.8 131.3 170.2 121.8 205.6 101.1 251.5 121.8 259.7 162 259.8 162.7 259.9 163.3 260.1 164.2 260.1 164.7 260.2 164.9 260.2 165.3 260.2 165.7 260.2 166 260.1 166.4 257 177 254.1 187.5 251.1 197.9 248.6 196.1 248.3 194.7 249.1 192 250.3 187.5 251.4 183 252.5 178.3 236.2 178.3 220.5 178.3 204.9 178.3 204.9 185.2 204.9 192 204.9 198.8 207.3 199 209.5 199.1 211.7 199.3 214.3 199.5 215.9 200.8 216.2 202.9 216.5 205.2 215.4 206.9 212.7 207.8 212.2 207.8 211.9 207.9 211.4 208 211.1 208 210.9 208 210.6 207.8 207.5 206.4 204.4 205 201.3 203.7 200.6 203.5 199.7 203.7 198.9 203.9 196.8 204.7 194.6 205.6 192.5 206.5 191.6 206.9 190.8 207.5 189.9 208.1 189.7 208.1 189.6 208.1 189.4 208.1 188.9 208.2 188.6 208.3 188.1 208.5 186.3 209 184.6 209.4 182.8 210 180.3 211.3 177.8 212.5 175.2 213.5 174.8 212.8 174.5 212.2 174.2 211.4 171.7 212.2 169.3 212.9 166.8 213.7 167.8 214.7 168.7 215.4 169.3 216.2 166.2 217.4 163.3 218.5 160.3 219.6 158.1 217.5 156.1 215.6 154.1 213.5 153.8 213 153.6 212.6 153.3 212.1 153.3 211.5 153.3 211 153.2 210.5 151 202.6 148.7 194.8 146.5 186.9 144.5 179.6 142.6 172.3 140.6 164.9 140.6 164.6 140.6 164.4 140.6 164.2M155.5 200.2C157 202.5 158.5 204.8 159.9 206.9 164 205.5 167.8 204.3 171.1 203.2 169.9 194.7 168.7 186.6 167.5 178.3 161.5 178.3 155.2 178.3 148.7 178.3 149.3 186.1 151.5 193.3 155.5 200.2M230 145.8C229.8 146.4 229.3 147.1 229.4 147.6 229.9 150.3 230.6 153 231 155.7 231.6 160.2 232 164.7 232.5 169.3 239 169.3 245.4 169.3 251.9 169.3 251 159.8 247.7 151.4 242.3 143.8 241.4 142.6 240.6 142.4 239.2 142.9 236.3 144 233.3 144.8 230 145.8M157.1 145.9C152.4 153 149.6 160.8 148.8 169.4 155.3 169.4 161.6 169.4 167.7 169.4 168.9 161.6 170.1 154 171.2 146.4 168.6 145.5 165.8 144.7 163.1 143.7 159.4 142.4 159.4 142.4 157.1 145.9M181.8 178.2C180.1 178.2 178.5 178.2 176.7 178.2 176.9 186.1 178.1 193.6 180.1 200.9 185.5 200.2 190.7 199.5 195.8 198.9 195.8 191.9 195.8 185.1 195.8 178.2 191.2 178.2 186.7 178.2 181.8 178.2M204.7 158.6C204.7 162.2 204.7 165.8 204.7 169.3 211.2 169.3 217.3 169.3 224 169.3 223 162.1 222 155.2 221 148.2 215.2 148.9 210 149.5 204.7 150.1 204.7 152.8 204.7 155.5 204.7 158.6M177.6 161C177.3 163.8 177 166.5 176.7 169.4 183.3 169.4 189.5 169.4 195.8 169.4 195.8 162.9 195.8 156.5 195.8 150.2 190.5 149.6 185.3 149.1 179.8 148.5 179.1 152.5 178.4 156.6 177.6 161M189 124.6C186.8 129.6 184.6 134.6 182.1 140.1 187.2 140.5 191.5 141 195.8 141.4 195.8 134.9 195.8 128.9 195.8 122.4 193.4 123.1 191.3 123.7 189 124.6M204.7 139.1C204.7 139.7 204.8 140.3 204.8 141.3 209.3 140.8 213.6 140.3 218.3 139.8 216.2 135.1 214.3 130.8 212.2 126.5 210.7 123.2 208.7 122.4 204.7 123.1 204.7 128.3 204.7 133.5 204.7 139.1M167.1 136C169.3 136.7 171.6 137.4 173.9 138.1 175.2 134.6 176.5 131.3 177.7 128.1 177.5 127.9 177.4 127.8 177.2 127.6 173.8 130 170.5 132.3 167.1 134.7 166.8 134.9 166.9 135.5 167.1 136M225.7 135.5C226 136.2 226.3 136.9 226.6 137.8 228 137.4 229.3 137.1 230.5 136.7 231.8 136.4 233 135.9 234.9 135.3 230.6 132.5 226.8 130 223 127.4 222.9 127.6 222.8 127.7 222.6 127.9 223.6 130.3 224.6 132.8 225.7 135.5zM260.3 164.3C260.4 164.6 260.4 164.8 260.3 165.1 260.2 164.9 260.1 164.7 260.1 164.4 260.1 164.2 260.3 164.3 260.3 164.3zM160.4 219.6C163.3 218.5 166.2 217.4 169.4 216.2 169.8 216.2 170 216.2 170.2 216.4 172.8 218 175.3 219.6 177.8 221.1 177.9 221 178 220.9 178.1 220.7 177.1 218.4 176 216 175.1 213.6 175.1 213.6 175.2 213.6 175.2 213.6 177.8 212.5 180.3 211.3 182.9 210.1 184.9 214.2 186.7 218.3 188.7 222.4 190.2 225.5 192.4 226.4 195.9 225.6 195.9 219.7 195.9 213.8 195.9 208.1 193.8 208.1 191.9 208.1 190 208.1 190.8 207.5 191.6 206.9 192.5 206.5 194.6 205.6 196.8 204.7 198.9 203.9 199.7 203.7 200.6 203.5 201.3 203.7 204.4 205 207.5 206.4 210.5 207.8 208.6 207.9 206.8 207.8 204.9 207.7 204.9 213.9 204.9 219.8 204.9 226.2 209 225.3 212.8 224.4 216.6 223.4 218.8 222.8 220.8 222.7 222.4 224.5 223.8 226.1 223.7 228.1 222.3 230.5 220.8 231.1 219.2 231.7 217.4 232.4 206 235.6 194.8 235.6 183.7 232.6 179.5 230.8 175.4 229.1 170.9 227.2 167.3 224.7 163.9 222.3 160.4 219.9 160.4 219.8 160.4 219.6 160.4 219.6zM257.2 226.7C257.5 226.9 257.8 227.2 258.3 227.5 259.6 229.4 261 231.1 261.9 233 262.7 234.8 263.4 236.8 263.4 238.8 263.5 242.2 259.9 244.9 256.7 243.7 254.5 242.9 252.3 241.5 250.9 239.8 247.3 235.3 244.1 230.5 240.7 225.9 240.4 225.5 240.1 225.1 239.6 224.5 237.8 226.7 236 228.7 234.3 230.8 232.5 233.1 227.5 232.9 226.9 229 231.9 226.8 236.7 224.9 241.5 222.9 242.4 222.5 243.2 221.8 244.1 221.3 244.3 221.3 244.4 221.3 244.6 221.4 248.8 223.2 253 225 257.2 226.7zM226.5 228C225.1 223 223.8 218 222.7 212.9 226 213.9 229.1 215 232.3 216.3 232.6 217 232.8 217.6 233.1 218.5 233.6 217.8 234 217.4 234.4 217.2 237.6 218.6 240.8 220 244 221.3 243.2 221.8 242.4 222.5 241.5 222.9 236.7 224.9 231.9 226.8 227 228.8 226.7 228.6 226.6 228.4 226.5 228zM153.3 212.1C149.2 207.9 146.4 202.6 144.1 197.1 139.9 186.9 138.8 176.3 140.5 165.2 142.6 172.3 144.5 179.6 146.5 186.9 148.7 194.8 151 202.6 153.2 210.5 153.3 211 153.3 211.5 153.3 212.1zM251.5 198.4C251.3 198.3 251.3 198.2 251.2 198 254.1 187.5 257 177 260.1 166.4 260.4 170.7 261.2 175.1 260.7 179.5 260.2 184.5 258.9 189.5 257.6 194.4 256.7 197.9 255.2 198.6 251.5 198.4zM189.4 208.1C189.2 208.2 188.9 208.4 188.4 208.5 188.6 208.3 188.9 208.2 189.4 208.1zM250.5 200.1C250.5 200.1 250.6 200.1 250.7 200.1 253.2 201.6 255.5 203.3 258 204.8 259.8 206 261.3 207.4 261 209.9 260.7 212.2 259.1 213.2 257.2 213.9 255 214.7 252.8 215.7 250.4 216.7 252.7 220 254.9 223.2 257.2 226.5 253 225 248.8 223.2 244.7 221.3 246.6 214.1 248.5 207.1 250.5 200.1zM250.4 200C248.5 207.1 246.6 214.1 244.6 221.2 244.4 221.3 244.3 221.3 244.1 221.3 240.8 220 237.6 218.6 234.5 217 237.3 212 242.2 210.4 247.4 208.5 240.5 204 233.9 199.8 226.9 195.2 228.8 202.5 230.5 209.3 232.2 216.2 229.1 215 226 213.9 222.8 212.8 222.6 212.7 222.5 212.6 222.4 212.5 220.2 204 218 195.7 215.8 187.4 215 183.9 216.6 181.2 219.8 181.2 220.9 181.2 222.1 181.7 223.1 182.3 232.2 188.1 241.2 194 250.4 200z"/>
</svg>