<svg xmlns="http://www.w3.org/2000/svg" xmlns:xlink="http://www.w3.org/1999/xlink" version="1.1" id="Layer_1" x="0px" y="0px" width="100%" viewBox="0 0 945 945" enable-background="new 0 0 945 945" xml:space="preserve">

    <path fill="#0D873E" opacity="1.000000" stroke="none" d=" M264.024750,567.056580   C256.688171,549.597839 249.309174,532.156799 242.025070,514.676208   C231.609161,489.679840 221.252853,464.658630 210.889160,439.640533   C199.959946,413.257324 189.029770,386.874451 178.200195,360.450378   C177.658676,359.129089 177.575851,357.214569 178.109116,355.917328   C191.606705,323.083252 205.235397,290.303162 218.798721,257.496094   C230.654755,228.818680 242.405670,200.097702 254.321777,171.445343   C257.535339,163.718353 261.180817,156.171005 264.819336,149.149887   C265.078583,150.585739 265.014252,151.449921 265.233887,152.234619   C269.967682,169.147400 274.762238,186.043167 279.487030,202.958450   C292.056427,247.958511 304.587921,292.969177 317.163910,337.967407   C318.819397,343.890869 320.646667,349.766296 322.394379,355.663971   C322.775726,355.613983 323.157074,355.564026 323.538391,355.514038   C338.694824,300.984161 353.851288,246.454254 369.007721,191.924362   C386.868347,199.235352 404.743164,206.512024 422.585449,213.867508   C438.745209,220.529358 454.838867,227.353546 471.055603,233.872467   C472.733398,234.546936 475.252289,234.117615 477.041840,233.378952   C509.063385,220.161407 541.031494,206.814270 573.016907,193.509140   C574.379517,192.942307 575.799194,192.512466 577.717773,192.312744   C593.479553,247.133926 608.715881,301.661133 624.335144,357.558929   C625.169312,354.686829 625.616760,353.188477 626.039917,351.683289   C633.305359,325.841736 640.595886,300.007202 647.823975,274.155212   C657.238281,240.483368 666.567078,206.787537 676.014893,173.125122   C678.194580,165.358795 680.708130,157.686157 683.067993,149.970413   C687.732605,160.864716 692.484741,171.722549 697.045227,182.660278   C709.759705,213.154526 722.403381,243.678345 735.058716,274.197266   C746.255859,301.199615 757.472961,328.194031 768.515076,355.259735   C769.204041,356.948578 768.989197,359.449341 768.278198,361.200043   C756.905884,389.203613 745.452332,417.174805 733.877319,445.095337   C722.046753,473.632446 710.060730,502.105103 698.148621,530.608398   C692.988647,542.955322 687.843384,555.308472 682.272644,567.520996   C681.550659,566.947021 681.247498,566.510864 681.223511,565.838806   C681.591614,564.970032 681.895325,564.277527 681.738586,563.712891   C675.583252,541.552246 669.375732,519.406128 663.196777,497.251984   C652.437622,458.676208 641.701843,420.093872 630.933899,381.520508   C628.911499,374.275787 626.784302,367.060364 624.330017,358.525665   C621.229980,369.307251 618.498169,378.807953 615.594849,388.218445   C615.423340,388.128235 615.080139,387.947937 615.028503,387.542328   C614.684814,385.672089 614.396545,384.206696 614.100281,382.742889   C594.795349,287.360016 486.007751,238.318756 402.009644,287.402588   C363.296997,310.024139 340.248383,343.995300 331.577209,387.731964   C328.635284,378.445526 325.956848,369.399231 322.973114,359.321838   C321.998871,361.457489 321.380981,362.441711 321.087341,363.514618   C318.859619,371.654755 316.773041,379.833954 314.497040,387.960297   C307.219543,413.944519 299.836700,439.899292 292.574921,465.887848   C285.358521,491.714020 278.211578,517.559692 271.094727,543.413513   C268.946198,551.218567 266.999695,559.079285 264.728424,566.961426   C264.496155,567.008301 264.024750,567.056580 264.024750,567.056580  z"/>
    <path fill="#5AB77D" opacity="1.000000" stroke="none" d=" M680.944336,566.074707   C681.247498,566.510864 681.550659,566.947021 681.942993,567.634827   C661.772766,576.289124 641.513611,584.692017 621.254089,593.094299   C594.776062,604.075745 568.296448,615.053467 541.820068,626.038940   C520.200928,635.008972 498.628540,644.095398 476.905579,652.806458   C474.591705,653.734314 471.146149,653.143555 468.667175,652.152710   C446.309418,643.215332 424.023132,634.096924 401.769958,624.900818   C380.273346,616.017456 358.849213,606.958984 337.377655,598.014893   C313.048096,587.880249 288.701172,577.787170 264.193268,567.366333   C264.024750,567.056580 264.496155,567.008301 265.076782,566.862305   C300.107513,552.471741 334.557617,538.227234 369.242249,524.020996   C369.476807,524.059326 369.949341,524.111511 370.180664,524.368652   C380.695557,528.948059 390.968750,533.295410 401.285919,537.535889   C401.976776,537.819763 403.000458,537.294067 404.145813,537.233032   C414.307861,541.512390 424.193359,545.703735 433.900696,550.106750   C434.026337,550.643860 434.268555,551.116333 434.643005,551.273376   C446.849091,556.392883 459.031525,561.573608 471.329803,566.462585   C472.907043,567.089661 475.244293,566.565979 476.976501,565.908691   C483.934418,563.268494 490.853638,560.504761 497.668884,557.516968   C503.200562,555.091797 508.563202,552.281189 514.262390,549.409424   C518.214111,547.776062 521.904175,546.374756 526.010132,544.991455   C529.754883,543.576904 534.690430,544.437134 535.371033,539.112915   C535.802368,539.909363 536.006775,540.493713 536.148682,541.437439   C537.939087,550.525391 549.693848,551.065491 553.911194,545.708984   C557.871460,540.679016 562.134827,535.887573 566.455688,530.764954   C567.586731,532.177307 568.342957,533.048645 569.019775,533.977905   C577.052673,545.007629 584.673950,556.372803 593.297913,566.918396   C596.668396,571.039978 601.912903,574.310669 606.965088,576.215515   C614.513184,579.061584 623.095459,572.649658 622.909058,564.551025   C622.803101,559.947021 621.325195,555.109314 619.368469,550.884705   C617.235107,546.278931 613.833435,542.260681 611.365479,537.973511   C617.135681,540.115479 622.536804,542.241150 627.911987,544.430542   C645.594482,551.632874 663.267639,558.858215 680.944336,566.074707  z"/>
    <path fill="#1DA14B" opacity="1.000000" stroke="none" d=" M683.007812,149.659790   C680.708130,157.686157 678.194580,165.358795 676.014893,173.125122   C666.567078,206.787537 657.238281,240.483368 647.823975,274.155212   C640.595886,300.007202 633.305359,325.841736 626.039917,351.683289   C625.616760,353.188477 625.169312,354.686829 624.335144,357.558929   C608.715881,301.661133 593.479553,247.133926 578.085327,192.249481   C599.416992,182.926025 620.902954,173.950958 642.397705,164.996918   C655.116211,159.698776 667.842468,154.418961 680.592285,149.196899   C681.246826,148.928833 682.156677,149.284103 683.007812,149.659790  z"/>
    <path fill="#116B32" opacity="1.000000" stroke="none" d=" M368.796082,191.640594   C353.851288,246.454254 338.694824,300.984161 323.538391,355.514038   C323.157074,355.564026 322.775726,355.613983 322.394379,355.663971   C320.646667,349.766296 318.819397,343.890869 317.163910,337.967407   C304.587921,292.969177 292.056427,247.958511 279.487030,202.958450   C274.762238,186.043167 269.967682,169.147400 265.233887,152.234619   C265.014252,151.449921 265.078583,150.585739 265.024231,149.346619   C284.595886,156.922165 304.159912,164.895172 323.710175,172.901810   C338.677307,179.031479 353.626984,185.203598 368.796082,191.640594  z"/>
    
    
    
    <path fill="#FCFDFC" opacity="1.000000" stroke="none" d=" M331.840668,387.972076   C340.248383,343.995300 363.296997,310.024139 402.009644,287.402588   C486.007751,238.318756 594.795349,287.360016 614.100281,382.742889   C614.396545,384.206696 614.684814,385.672089 614.963501,387.915283   C615.097473,389.165710 615.244873,389.637634 615.377441,390.457703   C615.330383,391.500000 615.298218,392.194153 615.010010,393.183838   C607.825562,418.229706 600.897156,442.980042 593.636597,467.682922   C587.871948,463.411041 587.179932,460.225098 588.952026,453.795074   C591.881653,443.165466 594.348938,432.408447 597.104858,421.327789   C558.452209,421.327789 521.257629,421.327789 484.209229,421.327789   C484.209229,437.704895 484.209229,453.754517 484.209229,469.797791   C489.854889,470.205566 495.151245,470.562805 500.443115,470.977020   C506.522827,471.452911 510.241119,474.520599 511.031494,479.639313   C511.866547,485.047394 509.159576,488.992676 502.819092,491.040009   C501.638550,491.112000 500.784454,491.276855 499.624664,491.521149   C498.899475,491.562592 498.479919,491.524597 497.894226,491.196716   C490.440979,487.748840 483.210541,484.446381 475.822021,481.546692   C474.217682,480.917084 471.900299,481.327789 470.164093,481.956879   C465.031952,483.816406 459.983856,485.929169 454.991241,488.142212   C452.845490,489.093323 450.917542,490.535828 448.640594,491.819702   C448.218384,491.884003 448.046204,491.883636 447.553986,491.813110   C446.460327,492.056793 445.686737,492.370697 444.514526,492.789001   C440.110260,493.900269 436.104614,494.907104 432.001160,496.262207   C425.945923,499.405121 419.988495,502.199799 413.828644,504.692261   C412.974701,502.927826 412.323181,501.465576 411.536743,499.700562   C405.672241,501.510620 400.028595,503.252502 394.005554,505.111511   C396.504242,507.402283 398.424896,509.163116 399.974792,511.016052   C392.674805,513.790344 385.745636,516.472534 378.525574,518.995361   C373.503693,514.177856 368.772766,509.519714 363.961182,504.567596   C363.295044,503.460052 362.709534,502.646454 362.154480,501.427399   C362.027008,499.873352 362.000153,498.688263 361.691711,497.581665   C356.493073,478.929138 351.212128,460.299469 346.047302,441.637634   C341.281097,424.416199 336.631165,407.162506 331.937073,389.595947   C331.909637,388.836578 331.875153,388.404327 331.840668,387.972076  M367.180847,473.258789   C370.743744,478.601685 374.306610,483.944580 377.683746,489.008911   C387.435547,485.765320 396.345398,482.801788 404.319916,480.149353   C401.421082,460.188782 398.613983,440.859924 395.770966,421.283813   C381.494629,421.283813 366.436218,421.283813 351.210114,421.283813   C352.677734,439.747284 357.825562,456.761200 367.180847,473.258789  M543.836914,344.354950   C543.315186,345.785187 542.165588,347.317230 542.378235,348.628418   C543.414429,355.019440 545.126221,361.308167 546.016052,367.714050   C547.498108,378.382660 548.536011,389.112946 549.774048,399.931854   C564.993042,399.931854 580.305420,399.931854 595.743042,399.931854   C593.430847,377.440674 585.615723,357.603699 572.833923,339.598297   C570.716980,336.616119 568.892456,336.221924 565.524902,337.475128   C558.684021,340.020966 551.613770,341.950256 543.836914,344.354950  M371.007324,344.526459   C359.984161,361.349609 353.316132,379.695312 351.394867,400.106445   C366.710541,400.106445 381.738220,400.106445 396.191620,400.106445   C399.000641,381.744812 401.750702,363.768524 404.507629,345.747467   C398.218231,343.670471 391.735992,341.644409 385.334961,339.388000   C376.561646,336.295380 376.588074,336.220428 371.007324,344.526459  M429.512695,421.004150   C425.599640,421.004150 421.686584,421.004150 417.578278,421.004150   C418.063507,439.819458 420.706726,457.556671 425.565735,474.872528   C438.353821,473.188171 450.616333,471.572998 462.764038,469.972992   C462.764038,453.530762 462.764038,437.354126 462.764038,421.004150   C451.760468,421.004150 441.134216,421.004150 429.512695,421.004150  M483.857910,374.500153   C483.857910,383.079071 483.857910,391.657959 483.857910,400.002991   C499.188110,400.002991 513.753601,400.002991 529.487366,400.002991   C527.070984,382.931580 524.734253,366.423096 522.394592,349.894043   C508.727264,351.508545 496.419312,352.962494 483.857910,354.446381   C483.857910,360.894623 483.857910,367.197479 483.857910,374.500153  M419.652252,380.259735   C418.967865,386.811035 418.283447,393.362335 417.571259,400.179596   C433.145020,400.179596 447.887939,400.179596 462.732269,400.179596   C462.732269,384.753357 462.732269,369.560181 462.732269,354.642792   C450.097137,353.318390 437.896271,352.039520 424.904846,350.677795   C423.220428,360.146576 421.509521,369.764557 419.652252,380.259735  M446.592407,293.938446   C441.334961,305.799896 436.077515,317.661316 430.309479,330.674713   C442.251007,331.816833 452.492279,332.796326 462.836456,333.785675   C462.836456,318.486053 462.836456,304.283630 462.836456,288.831360   C457.155304,290.411530 452.052460,291.830872 446.592407,293.938446  M483.855743,328.412659   C483.920288,329.862274 483.984833,331.311890 484.087219,333.611603   C494.629730,332.438263 504.792145,331.307220 516.059937,330.053131   C511.035736,318.983795 506.544525,308.664703 501.685913,298.521637   C497.959015,290.741211 493.209686,288.784973 483.855682,290.583649   C483.855682,302.828644 483.855682,315.127563 483.855743,328.412659  M394.648926,321.067108   C400.002197,322.703247 405.355469,324.339355 410.894958,326.032379   C413.976166,317.807465 416.888000,310.034698 419.799805,302.261932   C419.438477,301.911591 419.077118,301.561218 418.715790,301.210846   C410.711975,306.783844 402.682159,312.320526 394.753693,317.998688   C394.119080,318.453186 394.183136,319.883179 394.648926,321.067108  M533.677246,319.914368   C534.307922,321.599518 534.938660,323.284698 535.694214,325.303497   C538.985596,324.424469 542.030762,323.692200 545.024231,322.788727   C547.977051,321.897614 550.877625,320.833374 555.372498,319.313843   C545.218872,312.652405 536.179871,306.722198 527.140808,300.792023   C526.858887,301.130188 526.576965,301.468323 526.295105,301.806488   C528.636963,307.610138 530.978821,313.413788 533.677246,319.914368  z"/>
    <path fill="#1DA14B" opacity="1.000000" stroke="none" d=" M331.577209,387.731964   C331.875153,388.404327 331.909637,388.836578 331.720947,389.935669   C327.725586,416.487518 330.376160,441.678589 340.342712,465.887756   C345.716492,478.941010 352.233643,491.446716 362.124054,501.832886   C362.709534,502.646454 363.295044,503.460052 363.955902,504.971191   C365.690094,511.773407 367.348907,517.878052 369.007721,523.982727   C334.557617,538.227234 300.107513,552.471741 265.309052,566.815369   C266.999695,559.079285 268.946198,551.218567 271.094727,543.413513   C278.211578,517.559692 285.358521,491.714020 292.574921,465.887848   C299.836700,439.899292 307.219543,413.944519 314.497040,387.960297   C316.773041,379.833954 318.859619,371.654755 321.087341,363.514618   C321.380981,362.441711 321.998871,361.457489 322.973114,359.321838   C325.956848,369.399231 328.635284,378.445526 331.577209,387.731964  z"/>
    <path fill="#116B32" opacity="1.000000" stroke="none" d=" M615.266052,392.888306   C615.298218,392.194153 615.330383,391.500000 615.537598,390.277161   C615.730530,389.268555 615.748474,388.788605 615.766418,388.308685   C618.498169,378.807953 621.229980,369.307251 624.330017,358.525665   C626.784302,367.060364 628.911499,374.275787 630.933899,381.520508   C641.701843,420.093872 652.437622,458.676208 663.196777,497.251984   C669.375732,519.406128 675.583252,541.552246 681.738586,563.712891   C681.895325,564.277527 681.591614,564.970032 681.223511,565.838806   C663.267639,558.858215 645.594482,551.632874 627.911987,544.430542   C622.536804,542.241150 617.135681,540.115479 611.128967,537.797241   C609.720459,537.047546 608.929443,536.461243 608.097290,535.529419   C602.762634,527.653442 597.469116,520.122925 591.975830,512.308350   C597.723022,509.901978 602.870056,507.595276 608.131897,505.589508   C612.721252,503.840118 616.466919,501.618591 617.105408,496.106110   C617.791199,490.186188 614.423462,486.935303 609.979126,484.089111   C604.252380,480.421692 598.646179,476.565857 592.992859,472.414429   C593.430908,470.957489 593.864197,469.877258 594.709106,468.840759   C603.491516,469.364258 606.890869,467.589142 609.042725,459.414764   C612.114868,447.744110 615.348999,435.943939 616.538025,424.002319   C617.556519,413.774597 615.796997,403.270294 615.266052,392.888306  z"/>
    <path fill="#79C190" opacity="1.000000" stroke="none" d=" M615.594849,388.218445   C615.748474,388.788605 615.730530,389.268555 615.552429,389.929016   C615.244873,389.637634 615.097473,389.165710 615.015137,388.320862   C615.080139,387.947937 615.423340,388.128235 615.594849,388.218445  z"/>
    <path fill="#B0D7B8" opacity="1.000000" stroke="none" d=" M378.816467,519.154724   C385.745636,516.472534 392.674805,513.790344 400.245239,510.994507   C401.233063,510.983704 401.579651,511.086578 402.095398,511.473511   C408.199554,515.431335 414.134552,519.104980 420.069580,522.778687   C420.329773,522.445251 420.589935,522.111877 420.850128,521.778442   C418.384918,516.206909 415.919708,510.635345 413.590332,504.977661   C413.726227,504.891479 414.031067,504.994507 414.031067,504.994507   C419.988495,502.199799 425.945923,499.405121 432.246582,496.524261   C437.011780,506.254211 441.267761,516.149658 445.910400,525.860291   C449.365234,533.086548 454.558380,535.145630 462.849182,533.248535   C462.849182,519.375549 462.849182,505.489349 462.849182,491.755035   C458.021240,491.755035 453.455933,491.755035 448.890625,491.755066   C450.917542,490.535828 452.845490,489.093323 454.991241,488.142212   C459.983856,485.929169 465.031952,483.816406 470.164093,481.956879   C471.900299,481.327789 474.217682,480.917084 475.822021,481.546692   C483.210541,484.446381 490.440979,487.748840 497.481995,491.272888   C492.997498,491.395172 488.759064,491.151337 484.268005,490.893005   C484.268005,505.569824 484.268005,519.593018 484.268005,534.799255   C493.891724,532.504639 503.069153,530.563171 512.094055,528.069824   C517.298950,526.631836 521.948425,526.355713 525.765564,530.707520   C529.094971,534.503174 528.934326,539.252197 525.594299,544.973450   C521.904175,546.374756 518.214111,547.776062 513.859375,549.511475   C486.827271,556.998596 460.455322,557.037598 434.078888,549.895020   C424.193359,545.703735 414.307861,541.512390 403.845154,537.069702   C395.167664,531.216003 387.067352,525.613708 378.920715,519.798706   C378.874420,519.586060 378.816467,519.154724 378.816467,519.154724  z"/>
    <path fill="#D2E8D6" opacity="1.000000" stroke="none" d=" M608.138367,535.874939   C608.929443,536.461243 609.720459,537.047546 610.748047,537.810059   C613.833435,542.260681 617.235107,546.278931 619.368469,550.884705   C621.325195,555.109314 622.803101,559.947021 622.909058,564.551025   C623.095459,572.649658 614.513184,579.061584 606.965088,576.215515   C601.912903,574.310669 596.668396,571.039978 593.297913,566.918396   C584.673950,556.372803 577.052673,545.007629 569.019775,533.977905   C568.342957,533.048645 567.586731,532.177307 566.455688,530.764954   C562.134827,535.887573 557.871460,540.679016 553.911194,545.708984   C549.693848,551.065491 537.939087,550.525391 536.498047,541.363464   C548.282104,536.279419 559.680725,531.691772 571.002747,526.922180   C573.134766,526.023987 574.960999,524.399902 577.227539,523.087036   C577.726196,523.073120 577.925659,523.082947 578.282349,523.392090   C588.339172,527.752502 598.238770,531.813721 608.138367,535.874939  z"/>
    <path fill="#1EA14C" opacity="1.000000" stroke="none" d=" M526.010132,544.991455   C528.934326,539.252197 529.094971,534.503174 525.765564,530.707520   C521.948425,526.355713 517.298950,526.631836 512.094055,528.069824   C503.069153,530.563171 493.891724,532.504639 484.268005,534.799255   C484.268005,519.593018 484.268005,505.569824 484.268005,490.893005   C488.759064,491.151337 492.997498,491.395172 497.648132,491.562775   C498.479919,491.524597 498.899475,491.562592 499.957062,491.643799   C501.055542,491.791748 501.515991,491.896515 502.189209,492.281128   C510.126892,495.707733 517.851746,498.854431 525.778870,502.193115   C526.069824,502.548523 526.158569,502.711975 526.204224,503.266907   C529.155457,515.405884 532.149780,527.153320 535.144043,538.900818   C534.690430,544.437134 529.754883,543.576904 526.010132,544.991455  z"/>
    <path fill="#B1D8B9" opacity="1.000000" stroke="none" d=" M535.371033,539.112915   C532.149780,527.153320 529.155457,515.405884 526.572754,503.279358   C534.330627,505.602264 541.676941,508.304260 549.242554,511.279999   C549.915710,512.956604 550.369507,514.359436 551.038147,516.426514   C552.369080,514.895264 553.189026,513.951965 554.164917,513.323120   C561.856750,516.795288 569.392578,519.953003 576.928345,523.110718   C574.960999,524.399902 573.134766,526.023987 571.002747,526.922180   C559.680725,531.691772 548.282104,536.279419 536.560547,541.004089   C536.006775,540.493713 535.802368,539.909363 535.371033,539.112915  z"/>
    <path fill="#23A24E" opacity="1.000000" stroke="none" d=" M433.900696,550.106750   C460.455322,557.037598 486.827271,556.998596 513.597778,549.743591   C508.563202,552.281189 503.200562,555.091797 497.668884,557.516968   C490.853638,560.504761 483.934418,563.268494 476.976501,565.908691   C475.244293,566.565979 472.907043,567.089661 471.329803,566.462585   C459.031525,561.573608 446.849091,556.392883 434.643005,551.273376   C434.268555,551.116333 434.026337,550.643860 433.900696,550.106750  z"/>
    <path fill="#23A24E" opacity="1.000000" stroke="none" d=" M378.967041,520.011353   C387.067352,525.613708 395.167664,531.216003 403.568665,536.981689   C403.000458,537.294067 401.976776,537.819763 401.285919,537.535889   C390.968750,533.295410 380.695557,528.948059 370.397003,524.081360   C373.243683,522.361694 376.105377,521.186523 378.967041,520.011353  z"/>
    <path fill="#178A42" opacity="1.000000" stroke="none" d=" M378.920715,519.798706   C376.105377,521.186523 373.243683,522.361694 370.165680,523.824219   C369.949341,524.111511 369.476807,524.059326 369.242249,524.020996   C367.348907,517.878052 365.690094,511.773407 364.036560,505.265167   C368.772766,509.519714 373.503693,514.177856 378.525574,518.995361   C378.816467,519.154724 378.874420,519.586060 378.920715,519.798706  z"/>
    <path fill="#0F883F" opacity="1.000000" stroke="none" d=" M525.576660,502.001099   C517.851746,498.854431 510.126892,495.707733 502.402435,492.158997   C502.712616,491.622925 502.960144,491.414917 503.145477,491.132904   C509.159576,488.992676 511.866547,485.047394 511.031494,479.639313   C510.241119,474.520599 506.522827,471.452911 500.443115,470.977020   C495.151245,470.562805 489.854889,470.205566 484.209229,469.797791   C484.209229,453.754517 484.209229,437.704895 484.209229,421.327789   C521.257629,421.327789 558.452209,421.327789 597.104858,421.327789   C594.348938,432.408447 591.881653,443.165466 588.952026,453.795074   C587.179932,460.225098 587.871948,463.411041 593.696533,467.956482   C594.158142,468.450714 594.227844,468.623901 594.297485,468.797058   C593.864197,469.877258 593.430908,470.957489 592.797729,472.434326   C592.597778,472.830902 592.208862,472.887299 592.001099,472.614929   C570.322327,458.444580 548.882568,444.497772 527.334045,430.721069   C525.077393,429.278320 522.163452,428.039978 519.579956,428.087738   C512.070374,428.226532 508.144714,434.635529 510.225372,442.721588   C515.311890,462.489288 520.455811,482.242218 525.576660,502.001099  z"/>
    <path fill="#0F883F" opacity="1.000000" stroke="none" d=" M367.024902,472.925720   C357.825562,456.761200 352.677734,439.747284 351.210114,421.283813   C366.436218,421.283813 381.494629,421.283813 395.770966,421.283813   C398.613983,440.859924 401.421082,460.188782 404.319916,480.149353   C396.345398,482.801788 387.435547,485.765320 377.683746,489.008911   C374.306610,483.944580 370.743744,478.601685 367.024902,472.925720  z"/>
    <path fill="#0F883F" opacity="1.000000" stroke="none" d=" M544.237427,344.244293   C551.613770,341.950256 558.684021,340.020966 565.524902,337.475128   C568.892456,336.221924 570.716980,336.616119 572.833923,339.598297   C585.615723,357.603699 593.430847,377.440674 595.743042,399.931854   C580.305420,399.931854 564.993042,399.931854 549.774048,399.931854   C548.536011,389.112946 547.498108,378.382660 546.016052,367.714050   C545.126221,361.308167 543.414429,355.019440 542.378235,348.628418   C542.165588,347.317230 543.315186,345.785187 544.237427,344.244293  z"/>
    <path fill="#0F883F" opacity="1.000000" stroke="none" d=" M371.209686,344.224609   C376.588074,336.220428 376.561646,336.295380 385.334961,339.388000   C391.735992,341.644409 398.218231,343.670471 404.507629,345.747467   C401.750702,363.768524 399.000641,381.744812 396.191620,400.106445   C381.738220,400.106445 366.710541,400.106445 351.394867,400.106445   C353.316132,379.695312 359.984161,361.349609 371.209686,344.224609  z"/>
    <path fill="#0E873F" opacity="1.000000" stroke="none" d=" M430.010315,421.004150   C441.134216,421.004150 451.760468,421.004150 462.764038,421.004150   C462.764038,437.354126 462.764038,453.530762 462.764038,469.972992   C450.616333,471.572998 438.353821,473.188171 425.565735,474.872528   C420.706726,457.556671 418.063507,439.819458 417.578278,421.004150   C421.686584,421.004150 425.599640,421.004150 430.010315,421.004150  z"/>
    <path fill="#0E873F" opacity="1.000000" stroke="none" d=" M483.857910,374.000244   C483.857910,367.197479 483.857910,360.894623 483.857910,354.446381   C496.419312,352.962494 508.727264,351.508545 522.394592,349.894043   C524.734253,366.423096 527.070984,382.931580 529.487366,400.002991   C513.753601,400.002991 499.188110,400.002991 483.857910,400.002991   C483.857910,391.657959 483.857910,383.079071 483.857910,374.000244  z"/>
    <path fill="#0E873F" opacity="1.000000" stroke="none" d=" M419.725403,379.821136   C421.509521,369.764557 423.220428,360.146576 424.904846,350.677795   C437.896271,352.039520 450.097137,353.318390 462.732269,354.642792   C462.732269,369.560181 462.732269,384.753357 462.732269,400.179596   C447.887939,400.179596 433.145020,400.179596 417.571259,400.179596   C418.283447,393.362335 418.967865,386.811035 419.725403,379.821136  z"/>
    <path fill="#B0D7B8" opacity="1.000000" stroke="none" d=" M362.154480,501.427399   C352.233643,491.446716 345.716492,478.941010 340.342712,465.887756   C330.376160,441.678589 327.725586,416.487518 331.713867,390.262756   C336.631165,407.162506 341.281097,424.416199 346.047302,441.637634   C351.212128,460.299469 356.493073,478.929138 361.691711,497.581665   C362.000153,498.688263 362.027008,499.873352 362.154480,501.427399  z"/>
    <path fill="#0F883F" opacity="1.000000" stroke="none" d=" M446.770996,293.594299   C452.052460,291.830872 457.155304,290.411530 462.836456,288.831360   C462.836456,304.283630 462.836456,318.486053 462.836456,333.785675   C452.492279,332.796326 442.251007,331.816833 430.309479,330.674713   C436.077515,317.661316 441.334961,305.799896 446.770996,293.594299  z"/>
    <path fill="#0F883F" opacity="1.000000" stroke="none" d=" M483.855713,327.919586   C483.855682,315.127563 483.855682,302.828644 483.855682,290.583649   C493.209686,288.784973 497.959015,290.741211 501.685913,298.521637   C506.544525,308.664703 511.035736,318.983795 516.059937,330.053131   C504.792145,331.307220 494.629730,332.438263 484.087219,333.611603   C483.984833,331.311890 483.920288,329.862274 483.855713,327.919586  z"/>
    <path fill="#1EA14C" opacity="1.000000" stroke="none" d=" M448.640594,491.819702   C453.455933,491.755035 458.021240,491.755035 462.849182,491.755035   C462.849182,505.489349 462.849182,519.375549 462.849182,533.248535   C454.558380,535.145630 449.365234,533.086548 445.910400,525.860291   C441.267761,516.149658 437.011780,506.254211 432.344391,496.176025   C436.104614,494.907104 440.110260,493.900269 444.847839,492.859436   C446.344543,492.511383 447.109283,492.197327 447.874023,491.883301   C448.046204,491.883636 448.218384,491.884003 448.640594,491.819702  z"/>
    <path fill="#79C190" opacity="1.000000" stroke="none" d=" M594.709106,468.840759   C594.227844,468.623901 594.158142,468.450714 594.028564,468.003937   C600.897156,442.980042 607.825562,418.229706 615.010010,393.183838   C615.796997,403.270294 617.556519,413.774597 616.538025,424.002319   C615.348999,435.943939 612.114868,447.744110 609.042725,459.414764   C606.890869,467.589142 603.491516,469.364258 594.709106,468.840759  z"/>
    <path fill="#178A42" opacity="1.000000" stroke="none" d=" M394.285706,320.963501   C394.183136,319.883179 394.119080,318.453186 394.753693,317.998688   C402.682159,312.320526 410.711975,306.783844 418.715790,301.210846   C419.077118,301.561218 419.438477,301.911591 419.799805,302.261932   C416.888000,310.034698 413.976166,317.807465 410.894958,326.032379   C405.355469,324.339355 400.002197,322.703247 394.285706,320.963501  z"/>
    <path fill="#178A42" opacity="1.000000" stroke="none" d=" M533.499023,319.565918   C530.978821,313.413788 528.636963,307.610138 526.295105,301.806488   C526.576965,301.468323 526.858887,301.130188 527.140808,300.792023   C536.179871,306.722198 545.218872,312.652405 555.372498,319.313843   C550.877625,320.833374 547.977051,321.897614 545.024231,322.788727   C542.030762,323.692200 538.985596,324.424469 535.694214,325.303497   C534.938660,323.284698 534.307922,321.599518 533.499023,319.565918  z"/>
    <path fill="#178A42" opacity="1.000000" stroke="none" d=" M401.926239,511.189453   C401.579651,511.086578 401.233063,510.983704 400.615997,510.902405   C398.424896,509.163116 396.504242,507.402283 394.005554,505.111511   C400.028595,503.252502 405.672241,501.510620 411.536743,499.700562   C412.323181,501.465576 412.974701,502.927826 413.828644,504.692261   C414.031067,504.994507 413.726227,504.891479 413.339874,505.167053   C409.277771,507.358276 405.602020,509.273865 401.926239,511.189453  z"/>
    <path fill="#B0D7B8" opacity="1.000000" stroke="none" d=" M447.553986,491.813110   C447.109283,492.197327 446.344543,492.511383 445.246460,492.755005   C445.686737,492.370697 446.460327,492.056793 447.553986,491.813110  z"/>
    <path fill="#B0D7B8" opacity="1.000000" stroke="none" d=" M502.819092,491.040009   C502.960144,491.414917 502.712616,491.622925 502.189636,491.879089   C501.515991,491.896515 501.055542,491.791748 500.262726,491.564362   C500.784454,491.276855 501.638550,491.112000 502.819092,491.040009  z"/>
    <path fill="#79C190" opacity="1.000000" stroke="none" d=" M592.208862,472.887299   C592.208862,472.887299 592.597778,472.830902 592.792969,472.811035   C598.646179,476.565857 604.252380,480.421692 609.979126,484.089111   C614.423462,486.935303 617.791199,490.186188 617.105408,496.106110   C616.466919,501.618591 612.721252,503.840118 608.131897,505.589508   C602.870056,507.595276 597.723022,509.901978 591.975830,512.308350   C597.469116,520.122925 602.762634,527.653442 608.097290,535.529419   C598.238770,531.813721 588.339172,527.752502 578.513855,523.108276   C583.128418,505.979248 587.668640,489.433289 592.208862,472.887299  z"/>
    <path fill="#23A24E" opacity="1.000000" stroke="none" d=" M402.095398,511.473541   C405.602020,509.273865 409.277771,507.358276 413.203979,505.253235   C415.919708,510.635345 418.384918,516.206909 420.850128,521.778442   C420.589935,522.111877 420.329773,522.445251 420.069580,522.778687   C414.134552,519.104980 408.199554,515.431335 402.095398,511.473541  z"/>
    <path fill="#FCFDFC" opacity="1.000000" stroke="none" d=" M592.001099,472.614929   C587.668640,489.433289 583.128418,505.979248 578.356628,522.809021   C577.925659,523.082947 577.726196,523.073120 577.227539,523.087036   C569.392578,519.953003 561.856750,516.795288 554.337036,513.037720   C561.123962,501.223114 572.735474,497.231323 584.894714,492.782227   C568.575623,482.210724 553.011902,472.128571 536.487915,461.424316   C540.841309,478.643555 544.932251,494.824921 549.023254,511.006287   C541.676941,508.304260 534.330627,505.602264 526.615845,502.887817   C526.158569,502.711975 526.069824,502.548523 525.778870,502.193115   C520.455811,482.242218 515.311890,462.489288 510.225372,442.721588   C508.144714,434.635529 512.070374,428.226532 519.579956,428.087738   C522.163452,428.039978 525.077393,429.278320 527.334045,430.721069   C548.882568,444.497772 570.322327,458.444580 592.001099,472.614929  z"/>
    <path fill="#128940" opacity="1.000000" stroke="none" d=" M549.242554,511.279999   C544.932251,494.824921 540.841309,478.643555 536.487915,461.424316   C553.011902,472.128571 568.575623,482.210724 584.894714,492.782227   C572.735474,497.231323 561.123962,501.223114 554.181030,512.723267   C553.189026,513.951965 552.369080,514.895264 551.038147,516.426514   C550.369507,514.359436 549.915710,512.956604 549.242554,511.279999  z"/>
    </svg>