<svg xmlns="http://www.w3.org/2000/svg" viewBox="0 0 96 96"><g opacity=".3" filter="url(#a)"><path fill="hsl(var(--p))" opacity=".5" d="M35.3 44.6c-.5 1.8-2.5 2.7-2.8 4.8 0 .5-.6 1.5-2.5 1.3-1.8 1.1-7.6-1-9 .8-1 1.3-2.1 3.1-1.7 5.5.3 1.9 1.3 3.8 2.3 5.4 1.5 2.3 3.3 4.5 5.2 6.2 6.2 5.5 13.5 6.919.7 7 7.6 0 14.1-3 19.7-7.9 2.2-2 4.3-4.3 5.9-7.3 1.4-2.7.6-5.7 3.59 0 1.1-4.1 1.8-8.7 1.3-13.7-.3-3.7-1.97.4-4.1-10.7-2.94.56.9-7-10.8-7.3-2.3-.1-5 .8-5.14.2 0 2.5 1 5.4 1.78.05.7 1.1 4.2.05.1-1.8 1.54.5 1.9-6.9 2.3-3 .3-6.3-.4-9.5-.6-1.8-.1-3.3.8-4.6 1.9-1.092"/></g><g opacity=".3" filter="url(#b)"><path fill="hsl(var(--s))" opacity=".5" d="M35.3 44.6c-.5 1.8-2.5 2.7-2.8 4.8 0 .5-.6 1.5-2.5 1.3-1.8 1.1-7.6-1-9 .8-1 1.3-2.1 3.1-1.7 5.5.3 1.9 1.3 3.8 2.3 5.4 1.5 2.3 3.3 4.5 5.2 6.2 6.2 5.5 13.5 6.919.7 7 7.6 0 14.1-3 19.7-7.9 2.2-2 4.3-4.3 5.9-7.3 1.4-2.7.6-5.7 3.59 0 1.1-4.1 1.8-8.7 1.3-13.7-.3-3.7-1.97.4-4.1-10.7-2.94.56.9-7-10.8-7.3-2.3-.1-5 .8-5.14.2 0 2.5 1 5.4 1.78.05.7 1.1 4.2.05.1-1.8 1.54.5 1.9-6.9 2.3-3 .3-6.3-.4-9.5-.6-1.8-.1-3.3.8-4.6 1.9-1.092"/></g><defs><filter id="a" x="0" y="0" width="96" height="96" filterUnits="userSpaceOnUse" color-interpolation-filters="sRGB"><feFlood flood-opacity="0" result="BackgroundImageFix"/><feBlend in="SourceGraphic" in2="BackgroundImageFix" result="shape"/><feGaussianBlur stdDeviation="10" result="effect1_foregroundBlur_577_931"/></filter><filter id="b" x="0" y="0" width="96" height="96" filterUnits="userSpaceOnUse" color-interpolation-filters="sRGB"><feFlood flood-opacity="0" result="BackgroundImageFix"/><feBlend in="SourceGraphic" in2="BackgroundImageFix" result="shape"/><feGaussianBlur stdDeviation="10" result="effect1_foregroundBlur_577_931"/></filter></defs></svg>