<?xml version="1.0" encoding="UTF-8" standalone="no"?>
<svg xmlns:dc="http://purl.org/dc/elements/1.1/" xmlns:cc="http://creativecommons.org/ns#" xmlns:rdf="http://www.w3.org/1999/02/22-rdf-syntax-ns#" xmlns:svg="http://www.w3.org/2000/svg" xmlns="http://www.w3.org/2000/svg" viewBox="768 384 1024 576" height="256" width="256" xml:space="preserve" id="svg2" version="1.1">
  <defs id="defs6">
    <clipPath id="clipPath18" clipPathUnits="userSpaceOnUse">
      <path id="path16" d="M 0,1080 H 1920 V 0 H 0 Z" />
    </clipPath>
  </defs>
  <g transform="matrix(1.3333333,0,0,-1.3333333,0,1440)" id="g10">
    <g transform="translate(1078.1465,708.7734)" id="g56">
      <path id="path58" style="fill:#1d1d1b;fill-opacity:1;fill-rule:nonzero;stroke:none" d="m 0,0 -143.873,59.672 -128.941,-53.484 15.388,-36.658 112.268,46.112 -41.244,-146.256 -156.123,65.195 -53.537,-21.991 245.129,-102.589 110.027,44.997 z" />
    </g>
    <g transform="translate(1193.1748,495.6729)" id="g60">
      <path id="path62" style="fill:#1d1d1b;fill-opacity:1;fill-rule:nonzero;stroke:none" d="m 0,0 -147.994,62.345 -53.562,-21.562 113.203,-47.271 38.688,-138.818 94.407,38.373 z" />
    </g>
    <g transform="translate(1080.1895,577.5796)" id="g64">
      <path id="path66" style="fill:#1d1d1b;fill-opacity:1;fill-rule:nonzero;stroke:none" d="M 0,0 156.691,65.063 105.229,86.705 51.495,65.063 29.254,118.214 5.964,127.872 v -1.229 L -14.891,53.438 Z" />
    </g>
    <g transform="translate(1073.3516,782.061)" id="g68">
      <path id="path70" style="fill:#1d1d1b;fill-opacity:1;fill-rule:nonzero;stroke:none" d="M 0,0 -15.715,37.555 -55.961,20.864 -44.996,-18.481 Z" />
    </g>
    <g transform="translate(1186.3145,664.5703)" id="g72">
      <path id="path74" style="fill:#ef7f2b;fill-opacity:1;fill-rule:nonzero;stroke:none" d="M 0,0 51.928,-21.561 -1.3,-43.663 H -1.317 L -53.207,-22.02 -0.025,0 Z" />
    </g>
    <g transform="translate(1237.5537,391.6221)" id="g76">
      <path id="path78" style="fill:#ef7f2b;fill-opacity:1;fill-rule:nonzero;stroke:none" d="M 0,0 -0.982,-2.298 -117.911,46.65 -132.062,97.41 -21.458,51.22 h 0.023 z" />
    </g>
    <g transform="translate(1236.5713,389.3242)" id="g80">
      <path id="path82" style="fill:#ffd153;fill-opacity:1;fill-rule:nonzero;stroke:none" d="m 0,0 -0.836,-1.938 -91.463,-37.509 -24.63,88.395 z" />
    </g>
    <g transform="translate(1194.0566,495.5254)" id="g84">
      <path id="path86" style="fill:#ffd153;fill-opacity:1;fill-rule:nonzero;stroke:none" d="m 0,0 22.039,-52.684 -110.603,46.191 -13.567,48.676 1.022,0.42 z" />
    </g>
    <g transform="translate(1184.9971,620.9072)" id="g88">
      <path id="path90" style="fill:#ffd153;fill-opacity:1;fill-rule:nonzero;stroke:none" d="m 0,0 -36.966,-15.34 -15.403,36.796 0.479,0.187 z" />
    </g>
    <g transform="translate(1148.0313,605.5669)" id="g92">
      <path id="path94" style="fill:#ffd153;fill-opacity:1;fill-rule:nonzero;stroke:none" d="m 0,0 v -0.021 l -38.095,-15.803 21.689,52.203 1.003,0.417 z" />
    </g>
    <g transform="translate(1110.127,696.1519)" id="g96">
      <path id="path98" style="fill:#ffd153;fill-opacity:1;fill-rule:nonzero;stroke:none" d="m 0,0 22.084,-52.786 -0.145,-0.375 -64.394,26.865 11.106,39.299 z" />
    </g>
    <g transform="translate(1132.0664,642.9912)" id="g100">
      <path id="path102" style="fill:#ffd153;fill-opacity:1;fill-rule:nonzero;stroke:none" d="m 0,0 -0.441,-1.045 -61.635,-25.484 -8.643,30.974 6.324,22.419 z" />
    </g>
    <g transform="translate(1131.625,641.9463)" id="g104">
      <path id="path106" style="fill:#ffd153;fill-opacity:1;fill-rule:nonzero;stroke:none" d="m 0,0 -21.688,-52.203 -29.135,-12.104 -10.812,38.823 z" />
    </g>
    <g transform="translate(1091.9258,537.708)" id="g108">
      <path id="path110" style="fill:#ffd153;fill-opacity:1;fill-rule:nonzero;stroke:none" d="m 0,0 13.566,-48.676 -31.871,13.3 v 0.019 l 13.921,33.521 v 0.022 z" />
    </g>
    <g transform="translate(1091.6553,538.6689)" id="g112">
      <path id="path114" style="fill:#ef7f2b;fill-opacity:1;fill-rule:nonzero;stroke:none" d="m 0,0 0.271,-0.961 -4.384,-1.814 1.589,3.841 h 0.017 z" />
    </g>
    <g transform="translate(1089.1309,539.7349)" id="g116">
      <path id="path118" style="fill:#ef7f2b;fill-opacity:1;fill-rule:nonzero;stroke:none" d="m 0,0 -1.589,-3.841 v -0.022 l -47.212,-19.619 h -0.042 l -14.257,5.967 10.437,37.011 v 0.018 l 3.192,1.317 h 0.025 z" />
    </g>
    <g transform="translate(1087.542,535.8721)" id="g120">
      <path id="path122" style="fill:#ffd153;fill-opacity:1;fill-rule:nonzero;stroke:none" d="m 0,0 -13.921,-33.521 -33.291,13.902 z" />
    </g>
    <g transform="translate(1078.7783,709.1553)" id="g124">
      <path id="path126" style="fill:#ffd153;fill-opacity:1;fill-rule:nonzero;stroke:none" d="m 0,0 -11.106,-39.3 -14.215,5.925 -13.816,49.615 z" />
    </g>
    <g transform="translate(1058.1953,820.2837)" id="g128">
      <path id="path130" style="fill:#d21217;fill-opacity:1;fill-rule:nonzero;stroke:none" d="m 0,0 15.757,-37.657 -32.686,-13.42 -15.654,6.493 -7.761,27.842 z" />
    </g>
    <g transform="translate(1067.6719,669.8555)" id="g132">
      <path id="path134" style="fill:#ffd153;fill-opacity:1;fill-rule:nonzero;stroke:none" d="M 0,0 -6.324,-22.419 -14.215,5.925 Z" />
    </g>
    <g transform="translate(1053.457,675.7803)" id="g136">
      <path id="path138" style="fill:#d21217;fill-opacity:1;fill-rule:nonzero;stroke:none" d="M 0,0 7.891,-28.344 -3.148,-67.459 v -0.021 l -62.536,-25.859 -67.818,28.552 -9.392,33.396 v 0.021 l 22.667,80.42 1.338,0.544 h 0.021 z" />
    </g>
    <g transform="translate(1039.6416,725.3955)" id="g140">
      <path id="path142" style="fill:#ef7f2b;fill-opacity:1;fill-rule:nonzero;stroke:none" d="M 0,0 13.815,-49.615 -105.053,-0.021 -52.267,21.664 -0.023,0 Z" />
    </g>
    <g transform="translate(1050.3086,608.2998)" id="g144">
      <path id="path146" style="fill:#ef7f2b;fill-opacity:1;fill-rule:nonzero;stroke:none" d="m 0,0 -13.174,-46.671 -49.361,20.812 z" />
    </g>
    <g transform="translate(1041.2666,769.2065)" id="g148">
      <path id="path150" style="fill:#d21217;fill-opacity:1;fill-rule:nonzero;stroke:none" d="M 0,0 -12.418,-5.116 -15.654,6.493 Z" />
    </g>
    <g transform="translate(1037.1348,561.6284)" id="g152">
      <path id="path154" style="fill:#ef7f2b;fill-opacity:1;fill-rule:nonzero;stroke:none" d="M 0,0 2.525,-1.062 -0.667,-2.379 Z" />
    </g>
    <g transform="translate(1037.1348,561.6284)" id="g156">
      <path id="path158" style="fill:#ef7f2b;fill-opacity:1;fill-rule:nonzero;stroke:none" d="m 0,0 -0.667,-2.379 v -0.019 l -49.679,-20.625 h -0.017 l -52.225,21.815 53.227,22.02 z" />
    </g>
    <g transform="translate(1036.4678,559.2305)" id="g160">
      <path id="path162" style="fill:#ef7f2b;fill-opacity:1;fill-rule:nonzero;stroke:none" d="m 0,0 -10.437,-37.011 -39.242,16.386 z" />
    </g>
    <g transform="translate(987.7734,582.4409)" id="g164">
      <path id="path166" style="fill:#d21217;fill-opacity:1;fill-rule:nonzero;stroke:none" d="m 0,0 -53.227,-22.021 -0.396,0.146 v 0.018 l -14.195,50.409 z" />
    </g>
    <g transform="translate(944.5234,764.8462)" id="g168">
      <path id="path170" style="fill:#ef7f2b;fill-opacity:1;fill-rule:nonzero;stroke:none" d="M 0,0 42.852,-17.787 -9.935,-39.472 h -0.02 l -1.043,0.438 z" />
    </g>
    <g transform="translate(986.7715,538.6055)" id="g172">
      <path id="path174" style="fill:#ffd153;fill-opacity:1;fill-rule:nonzero;stroke:none" d="m 0,0 -41.559,-17.261 -10.98,38.949 0.314,0.127 z" />
    </g>
    <g transform="translate(945.2129,521.3447)" id="g176">
      <path id="path178" style="fill:#ef7f2b;fill-opacity:1;fill-rule:nonzero;stroke:none" d="M 0,0 -12.086,-5.007 -64.35,16.865 -10.98,38.949 Z" />
    </g>
    <g transform="translate(944.5234,764.8462)" id="g180">
      <path id="path182" style="fill:#ef7f2b;fill-opacity:1;fill-rule:nonzero;stroke:none" d="m 0,0 -10.998,-39.034 h -0.024 L -62.364,-17.6 -9.998,4.131 Z" />
    </g>
    <g transform="translate(934.1504,560.5659)" id="g184">
      <path id="path186" style="fill:#d21217;fill-opacity:1;fill-rule:nonzero;stroke:none" d="m 0,0 0.082,-0.272 -53.369,-22.084 -0.232,0.081 11.273,39.931 L 0,0.018 Z" />
    </g>
    <g transform="translate(919.9551,610.9932)" id="g188">
      <path id="path190" style="fill:#d21217;fill-opacity:1;fill-rule:nonzero;stroke:none" d="M 0,0 14.195,-50.409 -28.051,-32.771 -16.82,7.097 Z" />
    </g>
    <g transform="translate(933.501,725.812)" id="g192">
      <path id="path194" style="fill:#ef7f2b;fill-opacity:1;fill-rule:nonzero;stroke:none" d="m 0,0 -0.271,-0.981 -40.617,-16.697 -10.955,38.907 v 0.019 l 0.477,0.187 h 0.024 z" />
    </g>
    <g transform="translate(910.5635,644.3892)" id="g196">
      <path id="path198" style="fill:#d21217;fill-opacity:1;fill-rule:nonzero;stroke:none" d="m 0,0 9.392,-33.396 -16.821,7.097 z" />
    </g>
    <g transform="translate(881.6582,747.0415)" id="g200">
      <path id="path202" style="fill:#ef7f2b;fill-opacity:1;fill-rule:nonzero;stroke:none" d="m 0,0 10.955,-38.907 -35.44,-14.55 21.561,52.243 v 0.024 z" />
    </g>
    <g transform="translate(891.9043,578.2222)" id="g204">
      <path id="path206" style="fill:#d21217;fill-opacity:1;fill-rule:nonzero;stroke:none" d="m 0,0 -11.272,-39.931 -1.23,0.526 -22.709,54.099 z" />
    </g>
    <g transform="translate(856.6934,592.9165)" id="g208">
      <path id="path210" style="fill:#ef7f2b;fill-opacity:1;fill-rule:nonzero;stroke:none" d="m 0,0 22.709,-54.099 -73.43,30.723 15.676,38.007 z" />
    </g>
    <g transform="translate(878.7344,745.8276)" id="g212">
      <path id="path214" style="fill:#ffd153;fill-opacity:1;fill-rule:nonzero;stroke:none" d="m 0,0 -21.562,-52.243 -36.466,-14.984 -15.423,36.754 z" />
    </g>
    <g transform="translate(821.6484,607.5479)" id="g216">
      <path id="path218" style="fill:#ef7f2b;fill-opacity:1;fill-rule:nonzero;stroke:none" d="m 0,0 -15.676,-38.007 -124.213,51.995 53.644,22.038 h 0.02 z" />
    </g>
  </g>
</svg>